<svg xmlns="http://www.w3.org/2000/svg" viewBox="0 0 837.91 987"><defs><style>.cls-1{fill:#5f2652;fill-rule:evenodd;}</style></defs><title>augur</title><g id="Layer_2" data-name="Layer 2"><g id="Layer_1-2" data-name="Layer 1"><path class="cls-1" d="M599.09,507.53a188.92,188.92,0,0,0-54-80l-9.35-7.8-.52-.51a103.9,103.9,0,0,0-9.35-6.76l-.52-.52c-3.11-2.08-6.23-4.15-9.87-6.23-.52,0-.52-.52-1-.52a89.34,89.34,0,0,0-9.87-5.2c-.52,0-.52-.51-1-.51-3.12-1.56-6.76-3.12-10.39-4.68-.52,0-.52-.52-1-.52-3.12-1-6.24-2.6-9.35-3.64a149.13,149.13,0,0,0-26-7.27c-6.75,13-16.1,24.42-26.49,34.29A147.12,147.12,0,0,1,476,428.57,172.84,172.84,0,0,1,499.87,441a1.82,1.82,0,0,1,1,.52c2.08,1,3.63,2.6,5.71,4.16a9.13,9.13,0,0,1,2.6,2.08,35.73,35.73,0,0,1,5.19,4.15c1,1,2.08,1.56,3.12,2.6,1.56,1.56,3.12,2.6,4.68,4.16l3.11,3.11,4.16,4.16,3.12,3.11a29.07,29.07,0,0,0,3.63,4.16c1,1,2.08,2.6,3.12,3.64l3.12,4.67c1,1.56,2.07,2.6,2.59,4.16l3.12,4.67c1,1.56,1.56,3.12,2.6,4.16,1,1.56,1.56,3.12,2.59,4.67s1.56,3.12,2.6,4.68c.52,1.56,1.56,3.12,2.08,4.67,1,2.08,1.56,4.16,2.6,5.72a136.37,136.37,0,0,1,8.83,33.25l4.67,18.18c2.08,7.79,20.78,74.28,64.42,96.62,49.87,26,115.84,58.18,141.81,70.65L438.05,937.65V797.39c0-22.34,44.16-48.31,64.42-57.14l1-.52c4.15-2.08,8.31-4.16,12.46-6.75l1.56-1a171.12,171.12,0,0,0,24.94-18.18c.52-.52,1.55-1,2.07-2.08,1-.52,1.56-1.56,2.6-2.08,2.6-2.08,4.68-4.67,7.27-6.75l1-1a56.08,56.08,0,0,0,7.28-8.31c.51-1,1.55-1.56,2.07-2.6,2.08-2.08,3.64-4.68,5.72-7.27.52-.52,1-1.56,1.56-2.08l6.23-9.35c0-.52.52-.52.52-1,2.6-4.16,5.19-8.83,7.79-13-10.39-12.46-18.18-26-24.41-38.44a146.15,146.15,0,0,1-9.87,22.34c-1.56,3.12-3.64,6.23-5.2,9.35-.52.52-.52,1-1,1a88,88,0,0,1-5.19,7.27c-.52.52-1,1.56-1.56,2.08a35.43,35.43,0,0,1-5.72,6.75c-.51.52-.51,1-1,1a144.64,144.64,0,0,1-44.68,34.29l-3.12,1.56c-8.83,3.63-85.19,38.44-85.19,90.9V936.61L56.76,732.46c22.34-13.51,86.75-52,139.74-68.57,20.78-6.76,64.93,21.3,89.87,41.56l1.55,1.55a85.52,85.52,0,0,0,10.39,8.84l1,1c7.79,6.24,16.11,12.47,25.46,17.15l6.23,3.11a1.82,1.82,0,0,1,1,.52A181.26,181.26,0,0,0,349.74,746c1,.52,1.56.52,2.6,1,.52,0,1,.52,2.08.52a255,255,0,0,0,26.49,7.8c6.75-13,16.62-24.42,27-34.29a145.24,145.24,0,0,1-42.59-9.35c-.52-.52-1.56-.52-2.08-1a18.47,18.47,0,0,1-4.68-2.08c-.52-.52-1.56-.52-2.08-1a31.37,31.37,0,0,1-4.15-2.07,148,148,0,0,1-28.57-18.19L310.26,674.8a252.27,252.27,0,0,0-40.52-29.09C236,626.49,207.41,620.25,185.59,627,140.39,641.55,89,669.08,57.8,687.26l342.33-615v269.6c0,9.35-14,34.29-61.3,55.59L335.72,399c-4.68,2.07-8.84,4.67-13.51,7.27l-1,.52a207.74,207.74,0,0,0-25.45,18.18,115.56,115.56,0,0,0-14,13.51l-.52.52A109.36,109.36,0,0,0,268.7,453.5l-.52.52c-2.07,2.6-3.63,5.19-5.71,7.79,0,.52-.52.52-.52,1-1.56,2.6-3.12,4.68-4.68,7.27,0,.52-.51.52-.51,1L252.08,479c-.52.52-.52,1-1,2.08-1.56,2.6-2.6,5.2-3.64,7.28a1.82,1.82,0,0,1-.51,1c-1,2.6-2.08,4.68-3.12,7.28-.52,1-.52,1.56-1,2.59l-3.12,7.8c-.52,1-.52,1.55-1,2.59a25.8,25.8,0,0,1-2.07,5.72c-.52,1-.52,2.08-1,3.11-.52,2.6-1.56,5.2-2.08,7.28-.52,1-.52,2.59-1,3.63-.52,1.56-.52,3.64-1,5.2s-.52,3.12-1,4.67c-.52,2.08-.52,4.16-1,6.24,0,1.56-.52,2.59-.52,4.15,0,2.08-.52,3.64-.52,5.72a21.26,21.26,0,0,1-.52,5.71v7.79a165.9,165.9,0,0,0,2.08,28.06c13.51,3.11,27.53,8.83,42.6,16.1a161.77,161.77,0,0,1-6.75-42.08v-2.6a69.62,69.62,0,0,1,.52-10.39v-2.59a52,52,0,0,1,1-8.83v-1c.52-3.12,1-6.24,1.56-9.87,0-1,.52-1.56.52-2.6.52-2.6,1.56-5.19,2.08-7.79,0-.52.52-1,.52-1.56l3.12-9.35c.52-.52.52-1.56,1-2.08,1-2.6,2.07-5.19,3.11-7.27.52-.52.52-1,1-2.08,1.56-3.12,2.6-5.71,4.68-8.31.52-.52.52-1,1-1.56,1.55-2.6,2.59-4.67,4.15-7.27.52-.52.52-1,1-1.56a74.57,74.57,0,0,1,5.71-7.79.51.51,0,0,1,.52-.52c2.08-2.6,3.64-4.68,5.72-7.27.52-.52.52-1,1-1.56a158.73,158.73,0,0,1,31.69-27l16.1-7.79c8.83-3.63,84.67-39.48,84.67-91.94v-268L781.94,692.46c-30.65-15.07-85.19-42.08-127.27-63.9-24.41-12.46-40.52-56.62-45.19-72.72l-4.68-18.7c0-9.87-2.59-19.74-5.71-29.61ZM832.85,702.85,452.08,19.74a37.87,37.87,0,0,0-66.5,0L4.81,702.85c-9.87,17.66-4.16,40.52,13.51,50.91l381.29,228a40.14,40.14,0,0,0,39.48,0L819.86,754.28c17.15-10.91,23.38-33.77,13-51.43Z"/></g></g></svg>