<?xml version="1.0" encoding="utf-8"?>
<!-- Generator: Adobe Illustrator 24.0.0, SVG Export Plug-In . SVG Version: 6.00 Build 0)  -->
<svg version="1.1" id="katman_1" xmlns="http://www.w3.org/2000/svg" xmlns:xlink="http://www.w3.org/1999/xlink" x="0px" y="0px"
	 viewBox="0 0 800 800" style="enable-background:new 0 0 800 800;" xml:space="preserve">
<style type="text/css">
	.st0{fill:#FFFFFF;}
</style>
<circle cx="400" cy="400" r="400"/>
<path class="st0" d="M593.7,297.5c-10.4-16.2-23.2-28.8-38.4-37.8s-35.3-13.6-60.4-13.6c-22,0-40.3,3.7-54.9,11
	c-14.6,7.4-26.7,17.8-36.3,31.2c-5-7.3-11-13.8-18.2-19.3c-7.1-5.6-15-10.1-23.4-13.6c-8.5-3.5-17.1-6-26-7.8
	c-8.9-1.8-17.5-2.6-26-2.6c-13.9,0-27.5,1.7-41.1,5.1c-13.4,3.5-25.5,9-36.1,16.5c-10.5,7.6-19.2,17.2-25.9,29.2
	c-5.6,9.9-9.1,21.2-10.6,34.2l47.3,8.5c1.3-18.6,7.9-31.9,20-40.2c12.2-8.3,27.5-12.4,46-12.4s33.3,4.5,44.7,13.5
	c11.5,9,17.1,23.4,17.1,43.1v31.2c-15.8,0-31.4,0.1-46.8,0.3c-15.4,0.2-31.1,0.4-46.8,0.8c-12.4,0-24.3,2.2-35.6,6.4
	c-11.4,4.2-21.4,10.1-30,17.6c-8.7,7.5-15.6,16.6-20.6,27.4s-7.6,22.7-7.6,35.8s2.3,24.8,6.7,35s10.5,19.2,18.2,26.9
	c9.7,9.7,21.2,17.1,34.7,22.3c13.6,5.1,28.8,7.8,45.7,7.8c25.8,0,47.4-5,64.7-15c17.3-10,30.8-23.5,40.4-40.4
	c8.8,18.5,22.5,32.5,41,41.9c18.5,9.5,39.3,14.2,62.4,14.2c17.3,0,31.7-1.9,43.1-5.8c11.3-3.9,22.5-10.3,33.2-19.1
	c11.2-9.3,19.7-19.5,25.7-30.7c4.8-8.9,8.3-19,10.5-30.3l0,0l-46.8-8.4c-4.2,18.5-12.7,31.9-25.4,40.4s-25.7,12.7-40.4,12.7
	s-27-2.8-37.1-8.4s-18.1-12.9-24.3-22c-6.2-9-10.6-19.4-13.3-31.2c-2.6-11.8-4-23.7-4-36.1v-2.3l197.7-0.6v-15
	c0-21.6-1.6-40.4-4.6-56.4C608.5,325.8,602.5,311.1,593.7,297.5L593.7,297.5z M372.4,419c0,13.6-1.2,26.1-3.5,37.6
	c-2.2,11.6-9,23-20.2,34.1c-7.7,7.8-16.9,13.2-27.7,16.5c-10.7,3.3-21.7,4.9-32.9,4.9c-15.3,0-28.4-4.3-39-13
	c-10.6-8.7-15.9-21.1-15.9-37.3s5.5-28.6,16.5-37.3c10.9-8.7,24-13,39-13h0l83.6-0.6V419z M566.2,375.1v0.2H419.4
	c0-13.6,2.1-26.1,6.1-37.6c4-11.5,10.1-21.5,18.2-30c6.2-6.6,13.3-11.8,21.4-15.6c8.1-3.9,17.8-5.8,28.9-5.8
	c13.1,0,23.8,2.2,32.3,6.6c8.4,4.4,15.3,10.1,20.8,17c6.6,8.1,11.3,17.5,14.2,28.6C564.2,349.3,565.8,361.6,566.2,375.1L566.2,375.1
	L566.2,375.1z"/>
<path class="st0" d="M725.6,262.4c-17.8-42.1-43.3-79.9-75.7-112.3s-70.2-57.9-112.3-75.7C494,56,447.7,46.6,400,46.6
	S306,56,262.4,74.4c-42.1,17.8-79.9,43.3-112.3,75.7s-57.9,70.2-75.7,112.3C56,306,46.6,352.3,46.6,400s9.3,94,27.8,137.6
	c17.8,42.1,43.3,79.9,75.7,112.3s70.2,57.9,112.3,75.7C306,744,352.3,753.4,400,753.4s94-9.3,137.6-27.8
	c42.1-17.8,79.9-43.3,112.3-75.7s57.9-70.2,75.7-112.3C744,494,753.4,447.7,753.4,400S744,306,725.6,262.4z M625.8,625.8
	c-60.3,60.3-140.5,93.5-225.8,93.5s-165.5-33.2-225.8-93.5S80.6,485.3,80.6,400s33.2-165.5,93.6-225.8S314.7,80.6,400,80.6
	s165.5,33.2,225.8,93.6c60.3,60.3,93.5,140.5,93.5,225.8S686.2,565.5,625.8,625.8z"/>
</svg>
