<?xml version="1.0" encoding="utf-8"?>
<!-- Generator: Adobe Illustrator 24.0.0, SVG Export Plug-In . SVG Version: 6.00 Build 0)  -->
<svg version="1.1" id="Layer_1" xmlns="http://www.w3.org/2000/svg" xmlns:xlink="http://www.w3.org/1999/xlink" x="0px" y="0px"
	 viewBox="0 0 500 499.7" style="enable-background:new 0 0 500 499.7;" xml:space="preserve">
<style type="text/css">
	.st0{fill-rule:evenodd;clip-rule:evenodd;}
</style>
<path class="st0" d="M210.9,3.1C42.8,29.3-50.1,213.6,28.1,365.7c91.9,178.6,351.7,178.6,443.6,0C565.4,183.3,413.2-28.3,210.9,3.1z
	 M305.7,39.3c151.5,40.1,212.3,225.3,114,347.4C294.3,542.6,42.7,460.6,32.4,260.4C24.9,114.3,164,1.8,305.7,39.3z M299.1,140.6
	c-7.4,6.8-159.5,188.7-165.8,198.3c-8.1,12.3,3.1,29.4,16.9,25.9c3.6-0.9,31.6-32.3,74.6-83.7l68.9-82.2l1.3,79.8
	c1.4,88.4,1.1,87,18,87c17.3,0,17.1,1.8,17.1-115.4c0-102-0.2-105.5-5-110.4C318.4,133.3,306.8,133.6,299.1,140.6z"/>
</svg>
