<?xml version="1.0" encoding="utf-8"?>
<!-- Generator: Adobe Illustrator 24.0.0, SVG Export Plug-In . SVG Version: 6.00 Build 0)  -->
<svg version="1.1" id="Layer_1" xmlns="http://www.w3.org/2000/svg" xmlns:xlink="http://www.w3.org/1999/xlink" x="0px" y="0px"
	 viewBox="0 0 500 500" style="enable-background:new 0 0 500 500;" xml:space="preserve">
<style type="text/css">
	.st0{fill:#141327;}
	.st1{fill:#FFFFFF;}
</style>
<path class="st0" d="M250,0L250,0c138.1,0,250,111.9,250,250l0,0c0,138.1-111.9,250-250,250l0,0C111.9,500,0,388.1,0,250l0,0
	C0,111.9,111.9,0,250,0z"/>
<path class="st1" d="M331.5,216.2c26.4,0,47.7-21.2,47.7-47.4s-21.3-47.5-47.7-47.5c-26.4,0-47.7,21.2-47.7,47.4
	S305.1,216.2,331.5,216.2z"/>
<path class="st1" d="M168.5,378.3c26.4,0,47.7-21.2,47.7-47.4c0-26.2-21.3-47.5-47.7-47.5c-26.4,0-47.7,21.3-47.7,47.4
	S142.2,378.3,168.5,378.3z"/>
<path class="st1" d="M297.8,135.2c-45.2-18.7-99.2-9.7-136,26.8c-36.7,36.6-45.8,90.3-27,135.3L297.8,135.2z"/>
<path class="st1" d="M202.2,364.4c45.2,18.6,99.2,9.7,136-26.9c36.8-36.6,45.8-90.3,27-135.3L202.2,364.4z"/>
</svg>
