<?xml version="1.0" encoding="utf-8"?>
<!-- Generator: Adobe Illustrator 24.0.0, SVG Export Plug-In . SVG Version: 6.00 Build 0)  -->
<svg version="1.1" id="CIRCLE_OUTLINE_BLACK" xmlns="http://www.w3.org/2000/svg" xmlns:xlink="http://www.w3.org/1999/xlink"
	 x="0px" y="0px" viewBox="0 0 513.2 513.8" style="enable-background:new 0 0 513.2 513.8;" xml:space="preserve">
<style type="text/css">
	.st0{fill:#FFFFFF;}
	.st1{fill:#31C77F;}
	.st2{fill:none;stroke:#31C77F;stroke-width:17.9649;}
	.st3{fill:#030202;}
	.st4{fill:#0E0D0D;}
	.st5{fill:#191717;}
	.st6{fill:#231F20;}
</style>
<circle class="st0" cx="256" cy="257.8" r="256"/>
<path class="st1" d="M474.6,370.6c-12.8,5.2-24.9,11.6-37,18c-13.8,7.2-27.2,14.9-40.4,22.9c-5.2,3.2-11,4.6-16.7,6.6
	c-1.9,0.6-3.3,0.4-4-1.9c-2-6-6.3-10.1-12-12.8c-2.1-1.1-2.5-2.5-2.4-4.7c0.2-3.3,0.1-6.6-1.1-9.7c-1.4-4-4-6.6-8-7.7
	c-3.8-1.2-7.5-2.1-11.4-1.6c-2.6,0.4-3.5-0.6-3.6-2.9c-0.1-1.9-0.4-3.9-0.5-5.8c-0.2-5,0.4-10.2-0.6-15c-1.1-5.9,0.8-9.6,5.2-13.5
	c14.7-13.3,31.4-23.1,49-31.8c37.7-18.7,77-33.6,116.5-47.8C512,257.8,491.2,363.9,474.6,370.6L474.6,370.6z"/>
<path class="st1" d="M151.2,432.1c1.9,0.8,3.2,1.3,4.3,1.8c2.1,0.8,4.4,0.9,5.8-1.2c1.5-2.2,0.1-4-1.5-5.5c-1.9-1.6-3.8-3.3-5.6-5
	c-7.6-7-4.3-19.8,2.8-24.3c1.8-1.1,3.1-1.5,4.5,0.2c0.4,0.5,0.8,0.8,1.2,1.3c14.8,16.7,33.4,28.8,52,40.6
	c8.5,5.4,17.2,10.6,26.6,14.3c2.4,0.9,3.4,2.1,2.9,4.7c-0.5,2.1-0.4,4.2,0.5,6.3c0.8,2.2-0.4,2.8-2.2,2.9c-3.1,0.4-6.1,0.8-9.3,0.8
	c-11.8,0.2-23.5,2.7-35.3,1.6c-12-1.2-23.6-3.8-34.6-9.2c-3.9-1.9-7.3-4.3-9.9-7.9C148.2,447.1,148.1,440.1,151.2,432.1L151.2,432.1
	z"/>
<path class="st1" d="M280.2,464.2c-1.8-0.2-4.2,1.7-5.9,0.1c-1.2-1.2-1.3-3.6-2-5.4c-0.2-0.7-0.6-1.6-1.1-2.2
	c-1.7-2-0.5-3.1,1.2-4.2c10.4-6.5,19.7-14.5,29.6-21.7c12.1-9,22.8-19.5,32.9-30.7c3.2-3.5,5.6-7.7,5.4-12.7c-0.1-2,0.8-2.9,2.9-2.6
	c1.9,0.2,4,0.5,5.9,1c6,1.4,8.5,6.5,5.9,12.1c-1.1,2.3-2.5,4.4-3.7,6.7c-0.8,1.7-1.2,3.4,0.5,4.8c1.6,1.3,3.2,1.1,4.9,0.2
	c0.1-0.1,0.4-0.1,0.5-0.2c1.4-0.7,2.3-3,3.7-2.5c2.2,0.7,4.2,2.2,6,3.6c4.3,3.5,5.9,7.6,4.3,11.9c-1.8,4.8-4.7,9.1-8.5,12.7
	c-7.6,7.1-16.6,11.5-26,14.9c-15.8,5.5-31.7,10.9-48.4,13.7C285.7,463.9,283.1,464.2,280.2,464.2L280.2,464.2z"/>
<path class="st1" d="M258.6,467.8c-0.6-0.1-1.6-0.1-2.6-0.2c-4.1-0.6-6.6-2.6-7.1-5.8c-0.5-3.2,2.1-7.4,5.5-8.7
	c6.3-2.6,12.2-0.7,14.9,4.7c1.8,3.4,1.3,5.2-1.6,7.5C265.5,467,262.3,467.9,258.6,467.8L258.6,467.8z"/>
<path class="st2" d="M504.2,256.5c0,136.7-110.8,247.6-247.6,247.6S9.1,393.3,9.1,256.5S120,9,256.7,9S504.2,119.8,504.2,256.5z"/>
<path class="st3" d="M280.1,251.3c-2.7-2-3-3.6-1.9-6.4c1.2-3.2,1-6.6,0.8-9.9c-0.6-6.8-5.5-11.1-12.3-11.3
	c-4.3-0.1-7.9,1.4-10.7,4.7c-1-0.6-1.8-1.1-2.5-1.5c-7.6-4.4-14.3-2-17.2,6.2c-1.5,4.1-2.4,8.2-1,12.5c1,3.2,0.8,5.4-2.1,7.7
	c-1.9,1.6-3.4,3.9-4.6,6.2c-3.8,6.8-2.1,14.1,4.3,18.5c1.7,1.1,2.5,2.4,3,4.3c1.1,3.8,3.5,7,6.9,9.1c6.4,4.2,13.6,6.1,21.2,5
	c6.8-1.1,12.5-4.2,15.7-11c1.4-3,2.8-6.3,5.5-8.8c2-1.9,2.7-4.7,2.9-7.7C288.4,261.6,285.6,255.7,280.1,251.3L280.1,251.3z
	 M261.3,291.4c-8.3,0.1-18-2-20.1-10c8.1-0.9,8.6-1.1,17-9.2c4.5,5.9,10.1,9.5,17.8,8.9C273.8,287.8,268.8,291.2,261.3,291.4z
	 M273.1,276.4c-4.3-0.3-8.3-2.9-11.4-7.3c-2.9-4.2-5.6-4.1-8.2,0.2c-3,5-7.7,7.4-13.5,7.1c-7.8-0.6-11.5-8-7.2-14.6
	c1.6-2.5,3.8-4.5,6.2-6.3c3.7-2.8,3.9-3.4,2.4-8c-1-3-1.9-6-1.7-9.2c0.6-7.1,6.1-10,12.2-6.6c1,0.6,1.8,1.4,2.7,1.9
	c2.3,1.4,4.2,1.5,5.5-1.2c1.7-3.3,4.6-3.4,7.7-3c3.4,0.3,5.3,2.4,6.5,5.4c0.7,1.7,0.6,3.3-0.1,4.8c-0.9,2.3-1.9,4.4-2.8,6.6
	c-2.1,4.6-1.9,5.6,2.8,7.7c3.9,1.7,7,4.2,8.7,8.2C285.8,269,281.5,276.2,273.1,276.4L273.1,276.4z"/>
<path class="st4" d="M248,238.4c0.3,0.2,1.2,0.3,1.6,0.8c1.5,1.9,2.7,4.1,2.9,6.5c0.1,1.1-0.5,2.1-1.7,2.6c-1,0.3-1.8-0.1-2.5-0.8
	c-1.8-1.9-3.2-4.2-2.8-7C245.6,239.4,246.3,238.6,248,238.4L248,238.4z"/>
<path class="st5" d="M261.4,243.2c0.3-0.9,0.8-2.6,1.6-4.1c0.6-1.2,1.6-2.1,3.2-1.5c1.1,0.6,1.6,1.6,1.4,2.7
	c-0.3,1.6-0.9,3.2-1.5,4.7c-0.6,1.5-1.6,2.6-3.4,1.9C261.1,246.6,261.1,245.1,261.4,243.2L261.4,243.2z"/>
<path class="st6" d="M151.9,456.5l-10.4,28.4l7,3.5c0,0,9.7-23.5,10.8-25.8C160.4,460.2,151.9,456.5,151.9,456.5L151.9,456.5z"/>
<path class="st6" d="M359.1,438l-4.3,4.6c0,0,17.8,41.7,23.1,41.8c5.3,0,1.9-8.4,1.9-8.4s-15.6-32.5-18.3-38.3
	C359.6,433.1,359.1,438,359.1,438L359.1,438z"/>
<path class="st6" d="M338.5,162.5c9.5-19.3,17.9-38.7,20.4-60.2c0.9-5.6,1.8-11.7,1.5-17.9c-0.5-8.6-6.3-13.2-14.8-11.5
	c-3.8,0.8-7.4,2.1-10.7,4.5c-8,5.9-14.8,13.1-21.2,20.5c-7.6,8.7-15.2,17.3-22.5,26.2c-2.3,2.7-4.3,2.8-7.1,1.6
	c-4.4-2-9-3.6-13.9-3.9c-16.9-1.2-33.8-1.8-50.1,4.5c-3.4,1.4-5.3,0.7-7.6-2c-7.2-8.7-14.7-17.2-22.2-25.8
	c-6.7-7.5-13.4-14.9-21.6-20.7c-3.9-2.8-8.2-4.2-13-4.4c-6-0.2-9.9,2.7-11.4,8.6c-0.4,1.8-0.6,3.7-0.6,5.5c0,10.2,1.9,20.3,3.9,30.3
	c2.9,14.5,9.6,27.7,15.3,41.1c2.3,5.3,5.3,10.2,9.2,14.4c1.5,1.6,1.8,2.9,1.2,5c-0.9,3.2-1.7,6.4-2.5,9.7
	c-3.2,11.8-4.3,23.9-2.5,35.9c1,6.4,0.8,12.5,0.1,18.8c-0.8,6.9-1,13.6,0.6,20.5c1.9,8.1,1.5,16.2-0.6,24.3
	c-2.1,8.6-3.3,17.1-2.8,25.9c0.6,9.3-0.6,18.6-0.9,27.8c-0.1,5.4,0,10.8-1.2,16.1c-1.6,6.8-1.5,13.6-0.5,20.5
	c1.9,13.4,0.7,6.9,1.2,15c2.5,0,5.4,7.8,8,7.7c-0.1-6.3-0.8-21.5-1.4-27.8c-0.5-5.4,0-10.7,0.9-16.1c1.9-11.6,3-23.1,1.7-34.9
	c-1.2-11.1,0.1-22.3,2.4-33.2c1.9-9.2,1.7-18.5,0.2-27.7c-0.3-2-0.7-4.2-0.3-6.1c1.2-6.9,1.9-13.9,2.1-21.6
	c6.7,5.9,13.8,6.2,21.3,4.5c6.2-1.4,9.9-5.4,12.4-10.9c0.8-1.8,1.1-4.1,4.2-3.4c1.5,0.3,3.2,0.1,3.4-1.9c0.2-1.9-1.2-2.5-2.8-2.8
	c-9.4-2.1-18.8-4.4-28.2-6.4c-3-0.7-6.2-1.5-9.2-1.8c-2.7-0.3-3.3-1.6-3-4.1c1.4-11.5,3.5-22.7,8.1-33.4
	c4.5-10.4,10.3-20.2,18.5-28.2c1-1,2.3-2.1,1.6-3.8c-0.7-1.7-2-2.1-3.6-1.6c-1.7,0.6-2.4-0.3-3.2-1.5c-1.6-2.5-3.3-5-4.7-7.5
	c-5-8.1-10.9-15.4-16.9-22.9c-1.2-1.6-2.8-2.9-4.5-4.2c-5.1-3.6-9.6-1.6-10.1,4.7c-0.5,4.1-0.1,8.2,1.4,12
	c5.3,13.4,9.4,27.4,17,39.8c1.9,3.2-0.8,4.6-1.8,6.9c-1.9-1.4-2.9-3.3-3.8-5c-10.5-18.5-19.3-37.6-23-58.8c-1-5.5-1-11.1-0.8-16.7
	c0.3-6.1,3-7.7,8.9-6.2c4.3,1.1,7.6,3.8,10.7,6.8c10.7,9.9,19.8,21.1,29.5,31.9c2.6,2.9,5.2,5.9,7.7,8.8c1.6,1.8,3,3.5,3.3,6.2
	c0.2,3,2.4,3.9,5.2,2.8c0.7-0.2,1.4-0.6,2-1c4.7-3.3,10-4.4,15.7-5.3c15.4-2.8,30.7-1.7,45.9,1.5c2.4,0.6,4.4,1.8,6.5,3
	c4.6,2.8,6.3,2.1,7.7-3c0.3-1.5,1.2-2.7,2.3-3.8c12.5-14,24.1-28.7,37.9-41.6c3-2.8,6.1-5.5,10.1-6.8c6.7-2.1,9.5-0.1,9.9,6.8
	c0.8,13.1-2.4,25.5-6.5,37.6c-4.2,12.2-9.9,23.6-16,34.9c-1.4,2.5-3,4.6-4.7,7.4c-5.5-8.2-5.5-8.1-1.4-16
	c5.2-9.7,10.5-19.1,14.1-29.6c1.5-4.4,2.7-8.9,2.6-13.6c-0.1-2.9-0.7-5.5-3.6-7c-2.8-1.4-5.1-0.1-7.1,1.6c-2.5,2.1-5.1,4.4-7.3,6.9
	c-7.8,8.4-16.3,16.3-21.3,26.9c-0.9,2-4.4,2.9-3,6c0.9,2,3,3.3,4.4,5c8,9.7,14.4,20.3,18.4,32.2c2.5,7.5,4.2,15.4,5.2,23.3
	c0.3,2.7-0.9,4.4-3.7,5.2c-10.3,2.7-20.4,5.4-30.7,8.1c-0.9,0.2-1.8,0.3-2.7,0.8c-2.1,1-2.4,2.9-0.3,4.2c1.4,0.8,2.1,1.2,2.6,3
	c1.7,7.2,6.3,11.8,13.6,12.8c7.3,1.1,14.2-0.1,18.5-7.1c0.2-0.5,0.3-0.7,1.1-0.2c-0.2,8.3,0.5,16.8,2,25.1c0.3,1.6,0.1,3.4-0.1,5
	c-2.1,10.6-1.7,21.1,0.5,31.5c2.3,11.6,2.9,23.2,1.6,34.9c-1,8.6-0.2,17.1,1.4,25.5c1.8,9.5,2.3,18.8,1.2,28.3
	c-0.3,3.2-0.6,6.3-0.6,9.5c2.6,0.1,5.2,0.2,7.8,0.3c0.1-1.6,0.2-3.3,0.5-4.8c1-9,2.3-17.9,0.6-27.1c-2.5-13.5-2.1-27.4-2.4-41.1
	c-0.1-9.9-0.3-19.6-2.8-29.3c-1.9-7.4-2.5-15.1-0.8-22.6c1.9-8.3,1.7-16.6,0.6-24.9c-0.6-3.8-1.4-7.8-0.3-11.6
	c1.9-7.5,1.7-15.1,1.4-22.7c-0.5-9-2.9-17.6-5.2-26.1c-0.7-2.6-0.6-4.4,1.5-6.4C334.8,169,337,165.9,338.5,162.5L338.5,162.5z
	 M189,216.4c2.6-0.1,4.3,1.4,4.4,3.8c0,2.5-1,3.8-3.4,3.9c-2.6,0.1-4.4-1.4-4.4-3.7C185.5,218,186.9,216.4,189,216.4L189,216.4z
	 M173.2,138.1c-2.9-8-5.7-16-7.7-24.3c-0.5-1.8-0.6-3.6-0.7-5.5c0-1.2-0.2-2.7,1.2-3.4c1.5-0.6,2.6,0.3,3.5,1.2
	c4.7,4.2,8.8,9,12.1,14.4c3.9,6.4,7.9,12.8,12.1,19.3c1.6,2.5,1.6,4.3-0.8,6c-3.6,2.6-5.5,6.6-8.7,10.6
	C178.7,151,175.6,144.7,173.2,138.1L173.2,138.1z M318.3,153.5c-2.6-4.6-6.5-7.9-10.4-11.4c-1.9-1.8-1.8-3-0.6-5.2
	c5.4-8.9,12.2-16.8,19.1-24.7c2-2.4,3.8-5.1,6.4-6.9c2.8-1.9,4.5-1.1,5,2.3c0.1,0.9,0.1,1.9-0.1,2.8c-1.7,7-3.2,14.2-6.8,20.5
	c-3.6,6.1-6.8,12.3-9.9,18.6C320.3,150.9,320,152.4,318.3,153.5L318.3,153.5z M306.2,224.6c-2,0.5-3.9-1.5-3.9-3.6
	c0.1-2.3,1.5-3.4,3.5-3.5c1.8-0.1,3.2,1,3.5,2.9C308.6,222.3,308.3,224.2,306.2,224.6z"/>
<path class="st6" d="M470.5,371.3c-12.3,5-23.9,11.1-35.5,17.2c-13.2,6.9-26,14.3-38.8,22c-5,3-10.6,4.4-16,6.3
	c-1.8,0.6-3.2,0.3-3.8-1.8c-1.9-5.7-6.1-9.7-11.5-12.3c-2-1-2.4-2.4-2.3-4.5c0.2-3.2,0.1-6.3-1-9.3c-1.4-3.8-3.8-6.3-7.7-7.4
	c-3.6-1.1-7.2-2-10.9-1.6c-2.5,0.3-3.4-0.6-3.5-2.8c-0.1-1.8-0.3-3.7-0.4-5.5c-0.2-4.8,0.3-9.8-0.6-14.4c-1-5.6,0.8-9.2,5-12.9
	c14.1-12.7,30.1-22.2,47-30.5c36.2-17.9,73.8-32.2,111.7-45.8c3.2-1.2,6.5-2.4,9.7-3.6c0.1-2.1,0.1-4.3,0.1-6.4c0-1.5,0-3-0.1-4.5
	c-13.7,5.2-27.4,10.2-41.1,15.2c-32.8,12.1-64.6,26.4-95.4,42.8c-11.4,6.1-21.8,13.6-31.5,22c-1.6,1.4-3.2,2.9-4.7,4.2
	c-0.1-0.1-0.2-0.1-0.3-0.2c-0.5,1.4-1.5,2.6-2.8,3.2c-0.6,2.3-2.3,4.2-5.3,4.2h-0.7c-0.2,13.3,0.2,26.6,1.7,39.9
	c0.6,4.8-0.7,8.1-4.1,11.7c-16.7,17.8-35.5,32.8-54.8,47.4c-0.6,0.5-1.4,0.8-1.8,1.4c-1.8,2.7-3.8,2.5-6.5,1.1
	c-5-2.5-9.9-1.1-14.3,1.5c-2.5,1.5-4.3,1.4-6.5,0.2c-11.3-5.7-22.4-11.5-32.8-18.9c-14-9.9-28-19.7-40.3-31.6
	c-1.5-1.4-2.5-2.8-3-4.3c-0.2-0.1-0.6-0.2-0.8-0.3c-0.1,0-0.2,0-0.2-0.1c-2.5-1,1.6-4.5-1.1-5c-0.6,0.2-1,0.3-1.6,0.6
	c-0.7,0.7-5.7,1.5-9.2,4.5c-0.2,0.2-0.6,0.5-0.9,0.7c-10.4,8.2-13,20-6.9,31.8c1.1,2.1,0.8,3.6-0.1,5.5c-4.7,9.7-4.3,19,2.6,27.6
	c1.8,2.4,3.5,4.8,6,6.6l5.6,3.9c3.3,1.8,8,3.6,10.5,4.3c10.5,2.8,21.1,4.6,31.9,5.1c5,0.2,10-0.6,15-1c9.6-0.9,19.3-1.7,28.7-3
	c3.6-0.6,7,0.5,10.4,0.6c3,0.1,6.2,0.5,8.7-1.1c4.8-2.9,10.3-3,15.4-3.5c11.5-1,22.8-3.6,33.7-7.1c11.2-3.5,22.3-6.9,33-11.8
	c10.7-5,20.1-11.3,25.5-22.2c0.6-1,1.1-1.7,2-2.3c8.2-5,21.6-7.4,29-10.5c11.4-6.3,22.7-12.6,34.2-18.7
	c14.2-7.5,28.5-14.9,43.6-20.4c2.1-4,4.1-8,5.9-12C482.5,366.8,476.5,368.9,470.5,371.3z M241.2,468.1c-2.9,0.3-5.9,0.8-8.9,0.8
	c-11.3,0.2-22.5,2.6-33.8,1.6c-11.5-1.1-22.7-3.6-33.1-8.8c-3.7-1.8-7-4.2-9.5-7.5c-4.8-6.3-5-13.1-2-20.7c1.8,0.8,3,1.2,4.2,1.7
	c2,0.8,4.2,0.9,5.5-1.1c1.5-2.1,0.1-3.8-1.5-5.3c-1.8-1.6-3.6-3.2-5.4-4.8c-7.3-6.8-4.2-19,2.7-23.3c1.7-1,2.9-1.5,4.3,0.2
	c0.3,0.4,0.8,0.8,1.1,1.2c14.2,16,32,27.6,49.8,39c8.1,5.2,16.5,10.1,25.5,13.7c2.3,0.9,3.3,2,2.8,4.5c-0.5,2-0.3,4.1,0.5,6.1
	C244.1,467.4,243,468,241.2,468.1z M268,465.3c-2.1,1.6-5.2,2.5-8.8,2.4c-0.6-0.1-1.6-0.1-2.5-0.2c-3.9-0.6-6.3-2.5-6.8-5.5
	c-0.4-3,2-7.1,5.3-8.3c6.1-2.5,11.7-0.7,14.3,4.5C271.3,461.3,270.9,463,268,465.3z M368.9,422.5c-1.7,4.5-4.4,8.6-8,11.9
	c-7.1,6.6-15.6,10.8-24.5,14c-14.9,5.2-29.8,10.2-45.4,12.8c-2.4,0.3-4.8,0.6-7.6,0.6c-1.7-0.2-3.9,1.6-5.5,0.1
	c-1.1-1.1-1.2-3.4-1.9-5.1c-0.2-0.7-0.6-1.5-1-2c-1.6-1.9-0.5-2.9,1.1-3.9c9.8-6.1,18.5-13.6,27.8-20.4
	c11.4-8.4,21.4-18.4,30.9-28.8c3-3.3,5.3-7.2,5.1-11.9c-0.1-1.9,0.8-2.7,2.7-2.5c1.8,0.2,3.7,0.5,5.5,0.9c5.6,1.4,8,6.1,5.5,11.4
	c-1,2.1-2.4,4.2-3.5,6.3c-0.8,1.6-1.1,3.2,0.5,4.5c1.5,1.2,3,1,4.6,0.2c0.1-0.1,0.3-0.1,0.5-0.2c1.4-0.7,2.1-2.8,3.5-2.4
	c2,0.7,3.9,2,5.6,3.4C368.9,414.6,370.4,418.4,368.9,422.5z"/>
</svg>
