<?xml version="1.0" encoding="utf-8"?>
<!-- Generator: Adobe Illustrator 24.0.0, SVG Export Plug-In . SVG Version: 6.00 Build 0)  -->
<svg version="1.1" id="Layer_1" xmlns="http://www.w3.org/2000/svg" xmlns:xlink="http://www.w3.org/1999/xlink" x="0px" y="0px"
	 viewBox="0 0 352.9 359.7" style="enable-background:new 0 0 352.9 359.7;" xml:space="preserve">
<style type="text/css">
	.st0{fill-rule:evenodd;clip-rule:evenodd;fill:#202723;}
</style>
<path class="st0" d="M2.9,110.9c-3.9,3.1-3.9,9.1,0,12.3l20.4,16.3c2.9,2.3,7,2.3,9.8,0l116.1-94.4c1.8-1.5,2.9-3.7,2.9-6.1V7.9
	c0-6.6-7.6-10.2-12.7-6.1L2.9,110.9z M38,206.1c-2.9,2.3-7,2.3-9.8,0l-18.7-15c-3.9-3.1-3.9-9.1,0-12.2l130-105.6
	c5.1-4.2,12.8-0.5,12.8,6.1v30.2c0,2.4-1.1,4.6-2.9,6.1L38,206.1z M14.3,245.6c-3.9,3.2-3.9,9.1,0,12.2l125.1,100.1
	c5.1,4.1,12.7,0.5,12.7-6.1V150c0-6.6-7.7-10.3-12.8-6.1L14.3,245.6z M167.9,349.2c0,7,8.5,10.5,13.4,5.5l169.4-169.4
	c3.1-3.1,3.1-8,0-11.1L181.3,4.9c-4.9-4.9-13.4-1.4-13.4,5.5V349.2z"/>
</svg>
