<?xml version="1.0" encoding="utf-8"?>
<!-- Generator: Adobe Illustrator 24.0.0, SVG Export Plug-In . SVG Version: 6.00 Build 0)  -->
<svg version="1.1" id="Layer_1" xmlns="http://www.w3.org/2000/svg" xmlns:xlink="http://www.w3.org/1999/xlink" x="0px" y="0px"
	 viewBox="0 0 43.2 47.5" style="enable-background:new 0 0 43.2 47.5;" xml:space="preserve">
<style type="text/css">
	.st0{fill:url(#SVGID_1_);}
	.st1{fill:url(#SVGID_2_);}
</style>
<linearGradient id="SVGID_1_" gradientUnits="userSpaceOnUse" x1="17.0426" y1="39.5133" x2="28.2574" y2="10.1229" gradientTransform="matrix(1 0 0 -1 0 48.4785)">
	<stop  offset="0" style="stop-color:#F15F40"/>
	<stop  offset="1" style="stop-color:#EF2356"/>
</linearGradient>
<path class="st0" d="M36.9,35.1l-6,3.2L17,36.8l1.2-2l-2-1.2c-1-0.6-0.6-5.8-0.6-5.8c-6.6-9.3-3.1-15.3-3.1-15.3
	C11,19.7,21.2,23,21.2,23c-2-4.6,0.8-7,0.8-7c2.2,5.4,4.8,5.6,4.8,5.6l2.6,0.2l3.4-3.4c-2.8-4.4,0.6-7.8,0.6-7.8
	c1.6,6.4,5,6.4,5,6.4l5,0.2L27.8,1.7c-2.2-2.2-5.8-2.2-8.1,0l-18,18c-2.2,2.2-2.2,5.8,0,8.1l18,18c2.2,2.2,5.8,2.2,8.1,0l9.9-9.9
	L36.9,35.1z"/>
<linearGradient id="SVGID_2_" gradientUnits="userSpaceOnUse" x1="20.95" y1="41.0042" x2="32.1648" y2="11.6139" gradientTransform="matrix(1 0 0 -1 0 48.4785)">
	<stop  offset="0" style="stop-color:#F15F40"/>
	<stop  offset="1" style="stop-color:#EF2356"/>
</linearGradient>
<path class="st1" d="M26.7,27c0.8-0.3,1.7-0.8,2.5-1.9c0.2-0.2,0.4-0.1,0.5,0.2c0.2,0.9,0.6,2.5-2.9,2.2
	C26.5,27.5,26.4,27.1,26.7,27z"/>
</svg>
