<?xml version="1.0" encoding="utf-8"?>
<!-- Generator: Adobe Illustrator 26.0.1, SVG Export Plug-In . SVG Version: 6.00 Build 0)  -->
<svg version="1.1" id="Layer_1" xmlns="http://www.w3.org/2000/svg" xmlns:xlink="http://www.w3.org/1999/xlink" x="0px" y="0px"
	 viewBox="0 0 233.9 281" style="enable-background:new 0 0 233.9 281;" xml:space="preserve">
<path style="fill:#55A49F;" d="M202,136.2c11.8-15,18.3-33.5,18.2-52.7c0-47-38.1-83.5-85.1-83.5H31.9v10.6h101
	c41.5,0,75.2,32.2,75.2,73.7c0,16.1-5.2,31.9-14.8,44.8L202,136.2z"/>
<path style="fill:#4A8C89;" d="M190.5,127.4c11.3-11.5,17.6-27,17.6-43.1c0-34-27.5-61.5-61.5-61.5H59.2v10.6h89.6
	c27.7,0,50.1,22.4,50.1,50.1c0,0,0,0,0,0c0,14.8-6.5,28.8-17.9,38.4L190.5,127.4z"/>
<path style="fill:#5AABA5;" d="M173.6,119.4c14.4-6.3,25.4-20,25.4-35.8c0-21.8-20.7-39.5-42.5-39.5h-76v6.1h75.2
	c18,0,35.7,14.6,35.7,32.7c0,14.6-11.6,27-25.6,31.2L173.6,119.4z"/>
<path style="fill:#4A8C8A;" d="M1.5,270.4h16.7V281H1.5L1.5,270.4z"/>
<path style="fill:#5AABA6;" d="M18.2,249.1h66.8v7.6H18.2L18.2,249.1z"/>
<path style="fill:#4B8F8E;" d="M18.2,202h71.4v6.1H18.2L18.2,202z"/>
<path style="fill:#7CC6C7;" d="M103.3,202h45.6v6.1h-45.6V202z"/>
<path style="fill:#5AB5B4;" d="M31.9,180.8h24.3v6.1H31.9L31.9,180.8z"/>
<path style="fill:#428989;" d="M69.9,180.8h79v6.1h-79V180.8z"/>
<path style="fill:#549391;" d="M95.7,85.1h51.6v6.1H95.7V85.1z"/>
<path style="fill:#306563;" d="M34.9,44h28.9v6.1H34.9V44z"/>
<path style="fill:#64B9B9;" d="M42.5,66.8h106.3v6.1H42.5L42.5,66.8z"/>
<path style="fill:#7FD6D5;" d="M15.2,85.1h65.3v6.1H15.2L15.2,85.1z"/>
<path style="fill:#55A49F;" d="M33.4,268.9v10.6h115.4c47,0,85.1-36.6,85.1-83.5c0-47-38.1-85.1-85.1-85.1l0,0H74.4v9.1h72.2
	c41.5,0,75.2,33.7,75.2,75.2c0,41.5-33.7,73.7-75.2,73.7L33.4,268.9z"/>
<path style="fill:#4A8C89;" d="M51.6,133.7v10.6h110.9c27.7,0,50.1,22.4,50.1,50.1c0,0,0,0,0,0c0,27.7-22.4,50.1-50.1,50.1l0,0H97.2
	v12.2h63c34,0,61.5-27.5,61.5-61.5c0,0,0,0,0,0c0-34-27.5-61.5-61.5-61.5H51.6z"/>
<path style="fill:#5AABA5;" d="M83.5,156.4v6.1h85.8c18,0,35.7,14.6,35.7,32.7c0,18-17.6,32.7-35.7,32.7H0v7.6h170.1
	c21.8,0,42.5-17.7,42.5-39.5s-20.7-39.5-42.5-39.5H83.5z"/>
</svg>
