<?xml version="1.0" encoding="utf-8"?>
<!-- Generator: Adobe Illustrator 24.0.0, SVG Export Plug-In . SVG Version: 6.00 Build 0)  -->
<svg version="1.1" id="Layer_1" xmlns="http://www.w3.org/2000/svg" xmlns:xlink="http://www.w3.org/1999/xlink" x="0px" y="0px"
	 viewBox="0 0 1000 1000" style="enable-background:new 0 0 1000 1000;" xml:space="preserve">
<style type="text/css">
	.st0{fill-rule:evenodd;clip-rule:evenodd;fill:#211F6D;}
	.st1{fill-rule:evenodd;clip-rule:evenodd;fill:#FFFFFF;}
	.st2{fill:#211F6D;}
	.st3{clip-path:url(#SVGID_11_);}
	.st4{clip-path:url(#SVGID_16_);}
	.st5{clip-path:url(#SVGID_17_);}
</style>
<g>
	<g>
		<g>
			<path id="SVGID_1_" class="st0" d="M500,0c276.1,0,500,223.9,500,500s-223.9,500-500,500S0,776.1,0,500S223.9,0,500,0L500,0z"/>
		</g>
	</g>
	<g>
		<g>
			<path id="SVGID_3_" class="st1" d="M329,259h333c44.2,0,80,35.8,80,80v333c0,38.7-31.3,70-70,70H329c-38.7,0-70-31.3-70-70V329
				C259,290.3,290.3,259,329,259L329,259z"/>
		</g>
	</g>
	<g>
		<g>
			<path id="SVGID_5_" class="st2" d="M386.3,460.8c-30.5,0-55.3-24.8-55.3-55.4s24.8-55.4,55.3-55.4s55.3,24.8,55.3,55.4
				C441.6,436,416.8,460.8,386.3,460.8L386.3,460.8z"/>
		</g>
		<g>
			<path id="SVGID_6_" class="st2" d="M613.7,460.8c-30.5,0-55.3-24.8-55.3-55.4s24.8-55.4,55.3-55.4s55.3,24.8,55.3,55.4
				S644.2,460.8,613.7,460.8L613.7,460.8z"/>
		</g>
		<g>
			<path id="SVGID_7_" class="st2" d="M386.3,650c-30.5,0-55.3-24.8-55.3-55.4c0-30.6,24.8-55.4,55.3-55.4s55.3,24.8,55.3,55.4
				C441.6,625.2,416.8,650,386.3,650L386.3,650z"/>
		</g>
		<g>
			<path id="SVGID_8_" class="st2" d="M613.7,650c-30.5,0-55.3-24.8-55.3-55.4c0-30.6,24.8-55.4,55.3-55.4S669,564,669,594.6
				C669,625.2,644.2,650,613.7,650L613.7,650z"/>
		</g>
		<g>
			<defs>
				<path id="SVGID_2_" d="M386.3,460.8c-30.5,0-55.3-24.8-55.3-55.4s24.8-55.4,55.3-55.4s55.3,24.8,55.3,55.4
					C441.6,436,416.8,460.8,386.3,460.8L386.3,460.8z"/>
			</defs>
			<clipPath id="SVGID_4_">
				<use xlink:href="#SVGID_2_"  style="overflow:visible;"/>
			</clipPath>
		</g>
		<g>
			<defs>
				<path id="SVGID_9_" d="M386.3,460.8c-30.5,0-55.3-24.8-55.3-55.4s24.8-55.4,55.3-55.4s55.3,24.8,55.3,55.4
					C441.6,436,416.8,460.8,386.3,460.8L386.3,460.8z"/>
			</defs>
			<defs>
				<path id="SVGID_10_" d="M613.7,460.8c-30.5,0-55.3-24.8-55.3-55.4s24.8-55.4,55.3-55.4s55.3,24.8,55.3,55.4
					S644.2,460.8,613.7,460.8L613.7,460.8z"/>
			</defs>
			<clipPath id="SVGID_11_">
				<use xlink:href="#SVGID_9_"  style="overflow:visible;"/>
			</clipPath>
			<clipPath id="SVGID_12_" class="st3">
				<use xlink:href="#SVGID_10_"  style="overflow:visible;"/>
			</clipPath>
		</g>
		<g>
			<defs>
				<path id="SVGID_13_" d="M386.3,460.8c-30.5,0-55.3-24.8-55.3-55.4s24.8-55.4,55.3-55.4s55.3,24.8,55.3,55.4
					C441.6,436,416.8,460.8,386.3,460.8L386.3,460.8z"/>
			</defs>
			<defs>
				<path id="SVGID_14_" d="M613.7,460.8c-30.5,0-55.3-24.8-55.3-55.4s24.8-55.4,55.3-55.4s55.3,24.8,55.3,55.4
					S644.2,460.8,613.7,460.8L613.7,460.8z"/>
			</defs>
			<defs>
				<path id="SVGID_15_" d="M386.3,650c-30.5,0-55.3-24.8-55.3-55.4c0-30.6,24.8-55.4,55.3-55.4s55.3,24.8,55.3,55.4
					C441.6,625.2,416.8,650,386.3,650L386.3,650z"/>
			</defs>
			<clipPath id="SVGID_16_">
				<use xlink:href="#SVGID_13_"  style="overflow:visible;"/>
			</clipPath>
			<clipPath id="SVGID_17_" class="st4">
				<use xlink:href="#SVGID_14_"  style="overflow:visible;"/>
			</clipPath>
			<clipPath id="SVGID_18_" class="st5">
				<use xlink:href="#SVGID_15_"  style="overflow:visible;"/>
			</clipPath>
		</g>
	</g>
</g>
</svg>
