<?xml version="1.0" encoding="utf-8"?>
<!-- Generator: Adobe Illustrator 24.0.0, SVG Export Plug-In . SVG Version: 6.00 Build 0)  -->
<svg version="1.1" id="Layer_1" xmlns="http://www.w3.org/2000/svg" xmlns:xlink="http://www.w3.org/1999/xlink" x="0px" y="0px"
	 viewBox="0 0 321.3 368.1" style="enable-background:new 0 0 321.3 368.1;" xml:space="preserve">
<style type="text/css">
	.st0{fill-rule:evenodd;clip-rule:evenodd;fill:#FF9211;}
	.st1{fill:#FF9211;}
</style>
<path class="st0" d="M160.6,38.2L34.4,111.1V257l126.2,72.9L286.8,257V111.1L160.6,38.2z M165.9,1.4c-3.3-1.9-7.3-1.9-10.6,0
	L5.3,88.1C2,90,0,93.5,0,97.3v173.4c0,3.8,2,7.3,5.3,9.2l150,86.7c3.3,1.9,7.3,1.9,10.6,0l150-86.7c3.3-1.9,5.3-5.4,5.3-9.2V97.3
	c0-3.8-2-7.3-5.3-9.2L165.9,1.4z"/>
<path class="st1" d="M160.6,91l-80.5,46.5v93l80,46.2c0.3,0.2,0.5,0.5,0.5,0.9v15.9c0,0.8-0.9,1.3-1.6,0.9L68.2,242
	c-2.5-1.4-4-4-4-6.9V132.9c0-2.8,1.5-5.5,4-6.9l88.4-51.1c2.5-1.4,5.5-1.4,7.9,0l91.2,52.5c0.7,0.4,0.7,1.4,0,1.8
	c-5.4,3.2-8.1,4.6-14.2,8c-0.3,0.2-0.7,0.2-1,0L160.6,91z"/>
<path class="st1" d="M173.9,186c0-0.4,0.2-0.8,0.6-0.9l80-42.6c0.7-0.4,1.6,0.1,1.6,0.9v103.7c0,0.4-0.2,0.7-0.5,0.9l-80,46.5
	c-0.7,0.4-1.6-0.1-1.6-0.9V186z"/>
</svg>
