<?xml version="1.0" encoding="utf-8"?>
<!-- Generator: Adobe Illustrator 24.0.0, SVG Export Plug-In . SVG Version: 6.00 Build 0)  -->
<svg version="1.1" id="Layer_1" xmlns="http://www.w3.org/2000/svg" xmlns:xlink="http://www.w3.org/1999/xlink" x="0px" y="0px"
	 viewBox="0 0 788.5 667.2" style="enable-background:new 0 0 788.5 667.2;" xml:space="preserve">
<style type="text/css">
	.st0{fill:#8B5CF6;}
</style>
<path class="st0" d="M114.8,411.4l3.2,58c0.2,3.9,1.7,7.7,4.2,10.7c17.5,21.1,95.7,94.9,272.1,94.9s253.7-72.8,271.8-94.5
	c2.7-3.3,4.3-7.3,4.6-11.6l3.2-57.4c21-11.5,42.7-24.5,42.7-24.5c34.1-18.5,72.1,8.1,72.2,47c0.1,62.9-49.1,127.6-115.4,168.4
	c-74.8,46-186.4,65-278.9,65s-204.1-19.1-278.9-65C49.1,561.4-0.1,496.8,0,433.8c0.1-38.9,38.1-65.4,72.2-47
	C72.2,386.9,93.8,399.9,114.8,411.4z"/>
<path class="st0" d="M394.2,0c144.2,0,183.3,3.4,241.9,10.1h0c27,3.1,48.7,23.2,46.7,50.5l-21.6,294.2c-6.8,2-14.1,4.4-22.4,7.2
	c-43.3,14.5-111.2,37.3-244.6,37.3S193,376.5,149.7,362c-8.3-2.8-15.7-5.3-22.4-7.2L105.7,60.6c-2-27.2,19.6-47.8,46.7-50.5
	C210.2,4.5,270.5,0,394.2,0z M137.6,495.7l0.1,1l1.5,0.3C138.6,496.6,138.1,496.2,137.6,495.7z M649.5,497.1l1.3-0.3l0.1-0.9
	C650.4,496.2,649.9,496.6,649.5,497.1z"/>
</svg>
