<?xml version="1.0" encoding="utf-8"?>
<!-- Generator: Adobe Illustrator 24.0.0, SVG Export Plug-In . SVG Version: 6.00 Build 0)  -->
<svg version="1.1" id="Layer_1" xmlns="http://www.w3.org/2000/svg" xmlns:xlink="http://www.w3.org/1999/xlink" x="0px" y="0px"
	 viewBox="0 0 1920 1920" style="enable-background:new 0 0 1920 1920;" xml:space="preserve">
<style type="text/css">
	.st0{display:none;fill:#282828;}
	.st1{fill:#B8DF85;}
	.st2{fill:#242D49;}
	.st3{clip-path:url(#SVGID_2_);}
	.st4{fill:#88CA34;}
	.st5{fill:#050E2D;}
	.st6{fill:#D9E021;}
	.st7{fill:#FFFFFF;}
	.st8{fill:#C1272D;}
	.st9{fill:#E7666A;}
</style>
<rect class="st0" width="1920" height="1920"/>
<g>
	<circle class="st1" cx="960" cy="960" r="960"/>
	<g>
		<path class="st2" d="M960,1746.2c-106.1,0-209.1-20.8-306-61.8c-93.6-39.6-177.7-96.3-249.9-168.5S275.2,1359.6,235.6,1266
			c-41-96.9-61.8-199.9-61.8-306s20.8-209.1,61.8-306c39.6-93.6,96.3-177.7,168.5-249.9S560.4,275.2,654,235.6
			c96.9-41,199.9-61.8,306-61.8s209.1,20.8,306,61.8c93.6,39.6,177.7,96.3,249.9,168.5s128.9,156.3,168.5,249.9
			c41,96.9,61.8,199.9,61.8,306s-20.8,209.1-61.8,306c-39.6,93.6-96.3,177.7-168.5,249.9s-156.3,128.9-249.9,168.5
			C1169.1,1725.4,1066.1,1746.2,960,1746.2z"/>
		<path class="st2" d="M960,180.2c430.7,0,779.8,349.1,779.8,779.8s-349.1,779.8-779.8,779.8S180.2,1390.7,180.2,960
			S529.3,180.2,960,180.2 M960,167.4c-53.8,0-107.5,5.4-159.7,16.1c-50.9,10.4-101,25.9-148.8,46.2c-47,19.9-92.3,44.5-134.6,73.1
			c-42,28.4-81.4,60.9-117.3,96.8s-68.4,75.3-96.8,117.3c-28.6,42.4-53.2,87.7-73.1,134.6c-20.2,47.8-35.8,97.9-46.2,148.8
			c-10.7,52.2-16.1,106-16.1,159.7s5.4,107.5,16.1,159.7c10.4,50.9,25.9,100.9,46.2,148.8c19.9,47,44.4,92.3,73.1,134.6
			c28.4,42,60.9,81.4,96.8,117.3s75.3,68.4,117.3,96.8c42.4,28.6,87.7,53.2,134.6,73.1c47.8,20.2,97.9,35.8,148.8,46.2
			c52.2,10.7,106,16.1,159.7,16.1s107.5-5.4,159.7-16.1c50.9-10.4,100.9-25.9,148.8-46.2c47-19.9,92.3-44.4,134.6-73.1
			c42-28.3,81.4-60.9,117.3-96.8s68.4-75.3,96.8-117.3c28.6-42.4,53.2-87.7,73.1-134.6c20.2-47.8,35.8-97.9,46.2-148.8
			c10.7-52.2,16.1-106,16.1-159.7s-5.4-107.5-16.1-159.7c-10.4-50.9-25.9-101-46.2-148.8c-19.9-47-44.4-92.3-73.1-134.6
			c-28.3-42-60.9-81.4-96.8-117.3s-75.3-68.4-117.3-96.8c-42.4-28.6-87.7-53.2-134.6-73.1c-47.8-20.2-97.9-35.8-148.8-46.2
			C1067.5,172.9,1013.8,167.4,960,167.4L960,167.4z"/>
	</g>
	<g>
		<g>
			<defs>
				<path id="SVGID_1_" d="M1739.8,960c0,430.7-349.1,779.8-779.8,779.8S180.2,1390.7,180.2,960S433.7,0,960,0
					C1485.9,0,1739.8,529.3,1739.8,960z"/>
			</defs>
			<clipPath id="SVGID_2_">
				<use xlink:href="#SVGID_1_"  style="overflow:visible;"/>
			</clipPath>
			<g class="st3">
				<g>
					<path class="st4" d="M479.9,493.7c10.3-15.6,25.8-37.8,37.2-52.3c38-48,73.2-83,107.6-106.9c30.1-21,54.7-30.2,76.8-37
						c57.5-17.8,132.9-17.6,220.2-17.4c8.6,0,17.3,0,26.1,0c4.2,0,8.2,0,12.3,0c4,0,8.1,0,12.3,0c8.8,0,17.5,0,26.1,0
						c87.3-0.2,162.7-0.3,220.2,17.4c22.1,6.8,46.6,16,76.8,37c34.4,24,69.6,58.9,107.6,106.9c11.4,14.4,26.9,36.7,37.2,52.3
						c2.7,4.1,5.4,8.5,8.3,13.2c0.6,1,1.3,2,1.9,3c-8.8-48.7-21-92.9-36.2-131.6c-11.2-28.6-27.1-57.9-48.5-89.5l-1.2-1.7l1.4-1.5
						c6.6-7.3,11-17.1,12.8-28.5c1.4-9.4,1.1-19.6-0.9-32.2c-2.5-15-6.4-26.2-12.4-35.1c-11.9-17.7-24.6-29.1-42.5-37.9
						c-10.2-5-22.2-7.6-36.6-7.6c-8.2,0-17.2,0.8-27,2.5c-21.3,3.6-41.4,12.4-58.3,25.6l-1.8,1.4l-1.6-1.6
						c-35.4-35.4-64.2-50.8-110.1-59c-38.4-6.8-85.4-9.6-127.3-7.9c-42-1.6-88.9,1.1-127.3,7.9c-45.9,8.1-74.7,23.6-110.1,59
						l-1.6,1.6l-1.8-1.4c-16.8-13.1-37-21.9-58.3-25.6c-9.8-1.6-18.7-2.5-27-2.5c-14.3,0-26.4,2.5-36.6,7.6
						c-17.8,8.9-30.5,20.2-42.5,37.9c-6,8.9-10,20.1-12.5,35.1c-2.1,12.6-2.4,22.8-1,32.2c1.7,11.4,6.1,21.2,12.8,28.5l1.4,1.5
						l-1.2,1.7c-21.4,31.6-37.3,60.9-48.5,89.5c-15.2,38.7-27.4,83-36.2,131.6c0.6-1,1.3-2,1.9-3
						C474.4,502.2,477.2,497.8,479.9,493.7z"/>
					<path class="st4" d="M1328.6,1242.7c-104,42.3-218.8,63.9-341,64.4c-1.4,0-2.8,0-4.2,0c-7.8,0-15.6-0.1-23.3-0.3
						c-7.7,0.2-15.5,0.3-23.3,0.3c-1.4,0-2.8,0-4.2,0c-122.3-0.4-237-22.1-341-64.4c-17.8-7.2-39.1-16.8-60.1-29.8
						c-28.8,0.7-57.4,2.4-81.5,17.8c-21.5,13.7-36.3,36.6-41.9,61.4c-5.7,24.8-2.6,51.2,6.7,74.8c2.1,5.4,4.8,10.9,9.8,13.8
						c2.4,1.3,4.9,1.9,7.5,1.9c5.5,0,11.1-2.5,15.6-5.9c6-4.6,10.8-10.6,16.8-15.2c2.8-3.1,4.8-5.9,6.1-9.5l0.1-0.2
						c0.9-2.5,2.3-6.2-0.4-12.5l-6.4-15.1l14.9,6.9c0.8,0.4,1.6,0.7,2.2,1.1c3,1.5,3.5,1.7,8,1.2c6.6-0.8,13.2-3.9,19.6-6.8
						c4.3-2,8.7-4,11.4-7.2c2-2.4,2.7-5.7,1.6-7.5l-8.4-12.6l14.9,2.9c12,2.4,24.9-0.2,35.5-7c10.4-6.7,18.1-17.4,21.3-29.4
						c0.9-3.4,4.3-5.4,7.7-4.5c3.4,0.9,5.4,4.3,4.5,7.7c-3.9,15-13.7,28.4-26.6,36.8c-10.6,6.9-23.2,10.3-35.7,9.8
						c-0.4,4.2-2.1,8.4-5.1,11.9c-4.5,5.3-10.7,8.1-15.7,10.4c-6.9,3.2-14.7,6.8-23.3,7.8c-2.4,0.3-4.4,0.4-6.1,0.3
						c0,4.7-1.3,8.1-2,10l-0.1,0.2c-1.7,4.6-4.1,8.3-7.1,11.8c17.3,13.9,38.6,24.1,60.6,30.8c26.2,8,53.5,11.4,80.8,13
						c-4.2,38.1-6.4,77.3-5.2,116.3c-32.7,34.1-54.7,77.6-60.9,123.4c-3.6,26.2-1.8,53.3,6.7,78.4c8.5,25.1,24,48,45.1,63.9
						c7.4,5.6,16.4,10.4,25.4,10.4c1.8,0,3.7-0.2,5.5-0.6c9.8-2.3,16.8-10.6,23.1-18.5c1.2,12.5,8.4,25,19.4,31.8
						c3.8,2.3,8.1,4,12.5,4c0.6,0,1.1,0,1.7-0.1c5.5-0.6,10.4-4,13.9-8.3s5.8-9.4,8.2-14.4c0.1,5.6,1.2,11.3,4.1,16.1
						s7.5,8.7,13,9.8c1,0.2,2,0.3,3.1,0.3c4.6,0,9.2-2,11.9-5.7c2.7-3.8,3.2-8.7,3.5-13.4c4.3,8.7,12,15.6,21,19
						c3.1,1.2,6.5,1.9,9.8,1.9c2.5,0,4.9-0.4,7.2-1.4c4.8-2,8.4-6.2,11.1-10.7c9.3-15.5,8.9-34.3,8.9-52.4c17.4,6,35.6,10,53.3,13.2
						c27.8,5.1,56.4,7.6,85,7.6c5.4,0,10.8-0.1,16.2-0.3c5.4,0.2,10.8,0.3,16.2,0.3c28.6,0,57.2-2.5,85-7.6
						c17.7-3.2,35.9-7.2,53.3-13.2c0,18.1-0.4,36.9,8.9,52.4c2.7,4.5,6.3,8.7,11.1,10.7c2.3,0.9,4.7,1.4,7.2,1.4
						c3.3,0,6.7-0.8,9.8-1.9c9.1-3.4,16.7-10.3,21-19c0.3,4.7,0.7,9.6,3.4,13.4c2.7,3.7,7.3,5.7,11.9,5.7c1,0,2.1-0.1,3.1-0.3
						c5.5-1.1,10.2-5,13-9.8c2.8-4.8,4-10.5,4.1-16.1c2.3,5.1,4.6,10.2,8.2,14.4c3.5,4.3,8.4,7.7,13.9,8.3c0.6,0.1,1.1,0.1,1.7,0.1
						c4.4,0,8.7-1.7,12.4-4c11-6.8,18.2-19.2,19.4-31.8c6.3,7.8,13.3,16.2,23.1,18.5c1.8,0.4,3.7,0.6,5.5,0.6
						c9.1,0,18-4.8,25.4-10.4c21.2-15.9,36.6-38.9,45.1-63.9s10.2-52.2,6.7-78.4c-6.2-45.8-28.3-89.3-60.9-123.4
						c1.2-39.1-1-78.3-5.2-116.3c27.3-1.6,54.6-5,80.8-13c22.1-6.7,43.3-16.9,60.6-30.8c-3-3.5-5.4-7.2-7.1-11.8l-0.1-0.2
						c-0.7-1.9-2-5.3-2-10c-1.7,0.1-3.7,0-6.1-0.3c-8.6-1.1-16.4-4.7-23.3-7.8c-5-2.3-11.2-5.2-15.7-10.4c-3-3.5-4.8-7.8-5.1-11.9
						c-12.4,0.5-25.1-2.9-35.7-9.8c-13-8.4-22.7-21.8-26.6-36.8c-0.9-3.4,1.1-6.8,4.5-7.7c3.4-0.9,6.8,1.1,7.7,4.5
						c3.2,12,10.9,22.7,21.3,29.4c10.5,6.8,23.4,9.3,35.4,7l14.9-2.9l-8.4,12.6c-1.2,1.7-0.4,5.1,1.6,7.5c2.7,3.2,7.1,5.2,11.4,7.2
						c6.4,2.9,12.9,6,19.6,6.8c4.5,0.6,5,0.3,8-1.2c0.7-0.3,1.4-0.7,2.2-1.1l14.9-6.9l-6.4,15.1c-2.7,6.3-1.3,10-0.4,12.5l0.1,0.2
						c1.3,3.6,3.3,6.4,6.1,9.5c6,4.6,10.8,10.6,16.8,15.2c4.4,3.4,10.2,5.9,15.6,5.9c2.6,0,5.2-0.6,7.6-1.9c5-2.9,7.7-8.4,9.8-13.8
						c9.3-23.7,12.4-50.1,6.7-74.8c-5.7-24.8-20.5-47.8-41.9-61.4c-24.1-15.3-52.7-17.1-81.5-17.8
						C1367.7,1226,1346.3,1235.5,1328.6,1242.7z"/>
					<path class="st4" d="M1526.9,700.1c-13.3-59.3-35-113.7-64.5-161.9c-30.2-49.3-64.2-96.8-93.3-130.4
						c-11.9-13.7-74.9-83.2-147.6-104.1c-60.7-17.5-124.4-18.4-186.5-18.4c-3.5,0-7,0-10.4,0c-11.2,0-22.2,0-33.2-0.1
						c-10.5-0.1-21,0-31.5,0.1c-10.5-0.1-21-0.2-31.5-0.1c-11,0.1-22,0.1-33.2,0.1c-3.5,0-7,0-10.4,0c-62,0-125.8,0.9-186.5,18.4
						c-72.7,20.9-135.7,90.4-147.6,104.1c-29.1,33.6-63.1,81.1-93.3,130.4c-29.5,48.1-51.2,102.6-64.5,161.8
						c-36,160.8-7.8,324.9,77.5,450c32,47,85.4,72.6,122.8,87.8c103.4,42,217.5,63.6,339.1,64c1.4,0,2.8,0,4.2,0
						c7.8,0,15.6-0.1,23.3-0.3c7.7,0.2,15.5,0.3,23.3,0.3c1.4,0,2.8,0,4.2,0c121.6-0.4,235.7-22,339.1-64
						c37.4-15.2,90.7-40.8,122.8-87.8C1534.7,1025,1563,860.9,1526.9,700.1z"/>
					<path class="st4" d="M1448.1,1632.8c22.6-31.3,37.1-65.1,40.8-95.3c4.1-32.6,6.3-65.5-10.4-108.2c-30.6,26-46.9,38.1-74,55
						c-35.5,22.1-51.9,32.1-90.3,47.7c15.7,24.6,31.8,52,44.8,86.1c15,39.7,16.5,64.5,15.9,76.3
						C1403.6,1680.4,1429.4,1658.7,1448.1,1632.8z"/>
				</g>
				<path class="st5" d="M1483,1210.5c-10.3-6.6-21.2-11.1-32.2-14.2c8.6-8.7,16.7-18.3,24-28.9c90.1-132.1,120-304.9,82.1-474
					c-14-62.6-37-120.2-68.3-171.2c-2.3-3.7-4.6-7.5-6.9-11.1c-9.3-53.2-22.4-101.6-39-144c-10.2-25.9-23.8-52.2-41.4-80
					c3.7-7.8,6.3-16.4,7.7-25.5c1.9-12.5,1.6-26.2-1-41.9c-3.2-19.5-8.7-34.6-17.3-47.3c-14.9-22.1-31.7-37-54.3-48.3
					c-22-10.9-48.9-13.5-82.3-7.9c-18.2,3.1-35.7,9.2-51.7,18.1c-33.3-29.2-64.9-43.8-109.7-51.7l0,0c-40-7.1-88.8-10-132.7-8.4
					c-43.9-1.6-92.7,1.3-132.7,8.4l0,0c-44.8,7.9-76.4,22.5-109.7,51.7c-16-8.9-33.5-15.1-51.7-18.1c-33.4-5.6-60.3-3.1-82.3,7.9
					c-22.6,11.2-39.4,26.1-54.3,48.3c-8.5,12.7-14,27.7-17.3,47.3c-2.6,15.7-2.9,29.4-1,41.9c1.4,9.1,4,17.7,7.7,25.5
					c-17.6,27.7-31.3,54-41.4,80c-16.6,42.3-29.7,90.8-39,144c-2.3,3.7-4.6,7.4-6.9,11.2c-31.3,51-54.2,108.6-68.3,171.2
					c-37.9,169.1-8,341.9,82.1,474c7.2,10.6,15.3,20.2,24,28.9c-11,3.1-21.9,7.6-32.2,14.2c-26,16.6-45.1,44.3-52.4,76.2
					c-6.4,28.1-3.7,59.7,7.7,88.9c3.4,8.6,8.7,19.2,20.1,25.8c5.8,3.3,12.5,5.1,19.5,5.1c10.3,0,20.9-3.8,30.1-10.8
					c1.7-1.3,3.3-2.6,4.7-3.9c17.4,12.6,38.6,22.9,62.2,30.1c18.5,5.6,38.5,9.5,61.6,12c-2.5,29.8-3.6,58.4-3.2,85.4
					c-32.8,37-54.1,82.5-60.5,129.2c-4.2,31.1-1.6,62,7.7,89.3c10.3,30.5,29.3,57.2,53.3,75.3c13.4,10.1,26.8,15.3,39.8,15.3
					c3.7,0,7.4-0.4,11-1.3c3.2-0.8,6.3-1.8,9.1-3.1c4.4,5.3,9.6,9.9,15.4,13.5c8.2,5,16.6,7.6,25,7.6c1.4,0,2.8-0.1,4.2-0.2
					c5.3-0.6,10.5-2.2,15.3-4.7c5,3.7,10.6,6.3,16.7,7.5c2.6,0.5,5.2,0.8,7.9,0.8c7.2,0,14-1.9,19.9-5.4c2.6,1.4,5.3,2.7,8,3.7
					c6.1,2.3,12.2,3.4,18.2,3.4c5.8,0,11.3-1.1,16.4-3.2c9-3.7,16.5-10.6,22.4-20.4c6.5-10.9,9.6-22.3,11-33.5
					c9.6,2.3,18.6,4,26.4,5.4c29,5.3,59,8,89.3,8c5.3,0,10.8-0.1,16.2-0.3c5.4,0.2,10.8,0.3,16.2,0.3c30.3,0,60.3-2.7,89.3-8
					c7.8-1.4,16.8-3.2,26.4-5.4c1.4,11.2,4.5,22.6,11.1,33.5c5.9,9.8,13.4,16.7,22.4,20.4c5.1,2.1,10.6,3.2,16.4,3.2
					c6,0,12.1-1.2,18.2-3.4c2.8-1,5.5-2.3,8.1-3.7c5.9,3.4,12.8,5.4,19.9,5.4c2.7,0,5.3-0.3,7.9-0.8c6-1.2,11.7-3.8,16.7-7.5
					c4.8,2.6,9.9,4.2,15.3,4.7c1.4,0.1,2.8,0.2,4.2,0.2c8.4,0,16.8-2.6,25-7.6c5.8-3.6,11-8.2,15.4-13.5c2.8,1.3,5.8,2.4,9.1,3.1
					c3.6,0.8,7.3,1.3,11,1.3c13,0,26.4-5.1,39.8-15.3c24.1-18.1,43-44.9,53.3-75.3c3.8-11.3,6.5-23.3,8.1-35.6
					c26.3-15,49.8-35.9,67.3-60.2c24.1-33.4,39.6-69.8,43.7-102.6c4.4-35.6,6.8-71.6-12.8-119.5l-5.5-13.5c0.6,0,1.2,0,1.9,0
					c6.9,0,13.6-1.8,19.5-5.1c11.5-6.6,16.8-17.3,20.1-25.8c11.4-29.2,14.2-60.8,7.7-88.9C1528.1,1254.9,1509,1227.1,1483,1210.5z
					 M505.9,378.3c11.2-28.6,27.1-57.9,48.5-89.5l1.2-1.7l-1.4-1.5c-6.6-7.3-11-17.1-12.8-28.5c-1.4-9.4-1.1-19.6,1-32.2
					c2.5-15,6.4-26.2,12.5-35.1c11.9-17.7,24.6-29.1,42.5-37.9c10.2-5,22.2-7.6,36.6-7.6c8.2,0,17.2,0.8,27,2.5
					c21.3,3.6,41.4,12.4,58.3,25.6l1.8,1.4l1.6-1.6c35.4-35.4,64.2-50.8,110.1-59c38.4-6.8,85.4-9.6,127.3-7.9
					c42-1.6,88.9,1.1,127.3,7.9c45.9,8.1,74.7,23.6,110.1,59l1.6,1.6l1.8-1.4c16.8-13.1,37-21.9,58.3-25.6c9.8-1.6,18.7-2.5,27-2.5
					c14.3,0,26.4,2.5,36.6,7.6c17.8,8.9,30.5,20.2,42.5,37.9c6,8.9,10,20.1,12.4,35.1c2.1,12.6,2.4,22.8,0.9,32.2
					c-1.7,11.4-6.1,21.2-12.8,28.5l-1.4,1.5l1.2,1.7c21.4,31.6,37.3,60.9,48.5,89.5c15.2,38.7,27.4,83,36.2,131.6
					c-0.6-1-1.3-2-1.9-3c-2.9-4.6-5.6-9-8.3-13.2c-10.3-15.6-25.8-37.8-37.2-52.3c-38-48-73.2-83-107.6-106.9
					c-30.1-21-54.7-30.2-76.8-37c-57.5-17.8-132.9-17.6-220.2-17.4c-8.6,0-17.3,0-26.1,0c-4.2,0-8.2,0-12.3,0c-4,0-8.1,0-12.3,0
					c-8.8,0-17.5,0-26.1,0c-87.3-0.2-162.7-0.3-220.2,17.4c-22.1,6.8-46.6,16-76.8,37c-34.4,24-69.6,58.9-107.6,106.9
					c-11.4,14.4-26.9,36.7-37.2,52.3c-2.7,4.1-5.5,8.5-8.3,13.2c-0.6,1-1.3,2-1.9,3C478.5,461.2,490.7,417,505.9,378.3z
					 M393.1,700.1c13.3-59.3,35-113.7,64.5-161.9c30.2-49.3,64.2-96.8,93.3-130.4c11.9-13.7,74.9-83.2,147.6-104.1
					c60.7-17.5,124.4-18.4,186.5-18.4c3.5,0,7,0,10.4,0c11.2,0,22.2,0,33.2-0.1c10.5-0.1,21,0,31.5,0.1c10.5-0.1,21-0.2,31.5-0.1
					c11,0.1,22,0.1,33.2,0.1c3.5,0,6.9,0,10.4,0c62.1,0,125.8,0.9,186.5,18.4c72.7,20.9,135.7,90.4,147.6,104.1
					c29.1,33.6,63.1,81.1,93.3,130.4c29.5,48.1,51.2,102.6,64.5,161.8c36,160.8,7.8,324.9-77.5,450c-32,47-85.4,72.6-122.8,87.8
					c-103.4,42-217.5,63.6-339.1,64c-1.4,0-2.8,0-4.2,0c-7.8,0-15.6-0.1-23.3-0.3c-7.7,0.2-15.5,0.3-23.3,0.3c-1.4,0-2.8,0-4.2,0
					c-121.6-0.4-235.7-22-339.1-64c-37.4-15.2-90.7-40.8-122.8-87.8C385.3,1025,357,860.9,393.1,700.1z M796.7,1814.3
					c-2.7,4.5-6.3,8.7-11.1,10.7c-2.3,0.9-4.7,1.4-7.2,1.4c-3.3,0-6.7-0.8-9.8-1.9c-9-3.4-16.7-10.3-21-19
					c-0.3,4.7-0.7,9.6-3.5,13.4c-2.7,3.7-7.3,5.7-11.9,5.7c-1,0-2.1-0.1-3.1-0.3c-5.5-1.1-10.2-5-13-9.8c-2.8-4.8-4-10.5-4.1-16.1
					c-2.3,5.1-4.6,10.2-8.2,14.4c-3.5,4.3-8.4,7.7-13.9,8.3c-0.6,0.1-1.1,0.1-1.7,0.1c-4.4,0-8.7-1.7-12.5-4
					c-11-6.8-18.2-19.2-19.4-31.8c-6.3,7.8-13.3,16.2-23.1,18.5c-1.8,0.4-3.7,0.6-5.5,0.6c-9.1,0-18-4.8-25.4-10.4
					c-21.2-15.9-36.6-38.9-45.1-63.9c-8.5-25.1-10.2-52.2-6.7-78.4c6.2-45.8,28.3-89.3,60.9-123.4c-1.2-39.1,1-78.3,5.2-116.3
					c-27.3-1.6-54.6-5-80.8-13c-22.1-6.7-43.4-16.9-60.6-30.8c3-3.5,5.4-7.2,7.1-11.8l0.1-0.2c0.7-1.9,2-5.3,2-10
					c1.7,0.1,3.6,0,6.1-0.3c8.6-1.1,16.4-4.7,23.3-7.8c5-2.3,11.2-5.2,15.7-10.4c3-3.5,4.8-7.8,5.1-11.9c12.4,0.5,25-2.9,35.7-9.8
					c13-8.4,22.7-21.8,26.6-36.8c0.9-3.4-1.1-6.8-4.5-7.7c-3.4-0.9-6.8,1.1-7.7,4.5c-3.2,12-10.9,22.7-21.3,29.4
					c-10.5,6.8-23.4,9.3-35.5,7l-14.9-2.9l8.4,12.6c1.2,1.7,0.5,5.1-1.6,7.5c-2.7,3.2-7.1,5.2-11.4,7.2c-6.4,2.9-12.9,6-19.6,6.8
					c-4.5,0.6-5,0.3-8-1.2c-0.7-0.3-1.4-0.7-2.2-1.1l-14.9-6.9l6.4,15.1c2.7,6.3,1.3,10,0.4,12.5l-0.1,0.2c-1.3,3.6-3.3,6.4-6.1,9.5
					c-6,4.6-10.8,10.6-16.8,15.2c-4.5,3.4-10.1,5.9-15.6,5.9c-2.6,0-5.2-0.6-7.5-1.9c-5-2.9-7.7-8.4-9.8-13.8
					c-9.3-23.7-12.4-50.1-6.7-74.8c5.7-24.8,20.5-47.8,41.9-61.4c24.1-15.3,52.7-17.1,81.5-17.8c21,13.1,42.4,22.6,60.1,29.8
					c96,39,201.2,60.5,312.9,63.9c-7.4,1.1-15,2.4-22.7,4c-37.6,7.5-64.6,18.9-82.7,34.8c-58.8,52-62.7,117.2-65.3,160.3l0,0.3
					c-3.1,51.8,8.8,117,12.5,135.7c7.6,38.3,30.3,93.2,58.9,124.1l0.5,0.5C805.5,1783,805.2,1800.1,796.7,1814.3z M1108.6,1758.1
					c-50.1,14.9-99.8,21.5-148.6,19.9c-48.9,1.6-98.5-5.1-148.6-19.9c-26.7-29.4-48.5-82.7-55.6-118.3
					c-3.7-18.4-15.4-82.6-12.3-133.2l0-0.3c2.5-41.5,6.2-104.2,62-153.5c16.7-14.8,42.3-25.4,78.1-32.6c27.2-5.4,52.5-8.2,76.4-8.3
					c23.9,0.2,49.2,2.9,76.4,8.3c35.8,7.1,61.4,17.8,78.1,32.6c55.8,49.3,59.5,112,62,153.5l0,0.3c3,50.6-8.7,114.8-12.3,133.2
					C1157.1,1675.4,1135.3,1728.7,1108.6,1758.1z M1488.9,1537.5c-3.8,30.2-18.3,64-40.8,95.3c-14.2,19.6-32.5,36.8-53.1,50.1
					c0.3-11.3-0.3-22.8-1.9-34.4c-6.2-45.3-26.4-89.4-57.5-125.8c24.6-11.1,40.8-21,68.9-38.5c27.1-16.9,43.4-29,74-55
					C1495.2,1472,1493,1504.9,1488.9,1537.5z M1337.8,1515.2c2.3-9.8,6.8-31.1,6.8-44.3c15.2,4.5,26.1,10.5,40.2,19.5
					C1368.7,1500.1,1353.5,1508.1,1337.8,1515.2z M1392.2,1453.2c13.1,1.3,22.7,2.6,37.5,7.3c-14.4,10.4-27.7,19.3-40.5,27.2
					C1394.7,1470,1393.5,1460.9,1392.2,1453.2z M1471.1,1415c-15.3,13.1-27,22.5-37.3,30.3c-17.2-5.3-28.2-6.6-43.6-8.1l-17.1-1.7
					l2.9,16.9c0.1,0.8,0.3,1.5,0.4,2.3c0.7,4,1.4,7.7,1,12.9c-9.9-5.4-19.7-9.5-32.2-12.9l-14.5-3.9c-0.4-5.6-0.8-11.2-1.3-16.8
					c23.2-2.4,43.1-6.3,61.6-12c23.6-7.2,44.8-17.5,62.2-30.1c1.5,1.3,3.1,2.6,4.7,3.9c7.2,5.5,15.4,9,23.6,10.3L1471.1,1415z
					 M1505.4,1366.9c-2.1,5.4-4.8,10.9-9.8,13.8c-2.3,1.3-4.9,1.9-7.6,1.9c-5.4,0-11.1-2.5-15.6-5.9c-6-4.6-10.8-10.6-16.8-15.2
					c-2.8-3.1-4.8-5.9-6.1-9.5l-0.1-0.2c-0.9-2.5-2.3-6.2,0.4-12.5l6.4-15.1l-14.9,6.9c-0.8,0.4-1.6,0.7-2.2,1.1
					c-3,1.5-3.5,1.7-8,1.2c-6.7-0.8-13.2-3.9-19.6-6.8c-4.3-2-8.7-4-11.4-7.2c-2-2.4-2.7-5.7-1.6-7.5l8.4-12.6l-14.9,2.9
					c-12,2.4-24.9-0.2-35.4-7c-10.4-6.7-18.1-17.4-21.3-29.4c-0.9-3.4-4.3-5.4-7.7-4.5c-3.4,0.9-5.4,4.3-4.5,7.7
					c3.9,15,13.7,28.4,26.6,36.8c10.6,6.9,23.2,10.3,35.7,9.8c0.4,4.2,2.1,8.4,5.1,11.9c4.5,5.3,10.7,8.1,15.7,10.4
					c6.9,3.2,14.7,6.8,23.3,7.8c2.4,0.3,4.4,0.4,6.1,0.3c0,4.7,1.3,8.1,2,10l0.1,0.2c1.7,4.6,4.1,8.3,7.1,11.8
					c-17.3,13.9-38.6,24.1-60.6,30.8c-26.2,8-53.5,11.4-80.8,13c3.8,34.4,5.9,69.7,5.5,105l0,0c0,0,0,0,0,0
					c-0.1,3.8-0.1,7.5-0.2,11.3c2.1,2.2,4.1,4.3,6.1,6.6c0,0,0,0,0,0c2,2.2,3.9,4.5,5.8,6.8c25.7,31.3,43.1,68.9,48.8,108.2l0,0
					c0.1,0.6,0.2,1.2,0.3,1.8c0.2,1.5,0.4,3,0.6,4.5c0.1,0.5,0.1,1,0.2,1.4c0.1,1,0.2,2.1,0.3,3.1c0.1,0.6,0.1,1.1,0.1,1.7
					c0.1,1,0.2,2,0.2,2.9c0,0.6,0.1,1.1,0.1,1.7c0.1,1.2,0.1,2.3,0.2,3.5c0,0.4,0,0.9,0.1,1.3c0,1.3,0.1,2.7,0.1,4.1
					c0,0.7,0,1.3,0,1.9c0,0.8,0,1.7,0,2.5c0,0.7,0,1.4-0.1,2.2c0,0.8-0.1,1.5-0.1,2.3c0,0.8-0.1,1.5-0.1,2.3c0,0.7-0.1,1.5-0.1,2.2
					c-0.1,1.4-0.2,2.9-0.3,4.3c-0.1,0.7-0.1,1.3-0.2,2c-0.1,0.9-0.2,1.7-0.3,2.6c-0.1,0.6-0.2,1.2-0.2,1.8c-0.1,0.9-0.2,1.7-0.4,2.6
					c-0.1,0.6-0.2,1.2-0.3,1.7c-0.1,0.9-0.3,1.8-0.4,2.7c-0.1,0.5-0.2,1-0.3,1.5c-0.4,2.2-0.9,4.4-1.4,6.6l0,0
					c-1.2,5-2.6,10-4.2,14.9c-8.5,25.1-23.9,48-45.1,63.9c-7.4,5.6-16.4,10.4-25.4,10.4c-1.8,0-3.7-0.2-5.5-0.6
					c-9.8-2.3-16.8-10.6-23.1-18.5c-1.2,12.5-8.4,25-19.4,31.8c-3.8,2.3-8.1,4-12.4,4c-0.6,0-1.1,0-1.7-0.1
					c-5.5-0.6-10.4-4-13.9-8.3s-5.8-9.4-8.2-14.4c-0.1,5.6-1.2,11.3-4.1,16.1c-2.8,4.8-7.5,8.7-13,9.8c-1,0.2-2.1,0.3-3.1,0.3
					c-4.6,0-9.2-2-11.9-5.7c-2.7-3.8-3.2-8.7-3.4-13.4c-4.3,8.7-12,15.6-21,19c-3.1,1.2-6.5,1.9-9.8,1.9c-2.5,0-4.9-0.4-7.2-1.4
					c-4.8-2-8.4-6.2-11.1-10.7c-8.6-14.2-8.9-31.3-8.9-48l0.5-0.5c28.7-30.9,51.3-85.8,58.9-124.1c3.7-18.7,15.6-83.9,12.5-135.7
					l0-0.3c-2.6-43.1-6.5-108.3-65.3-160.3c-18.1-16-45.1-27.4-82.7-34.8c-7.7-1.5-15.3-2.8-22.7-4c111.8-3.4,216.9-24.8,312.9-63.9
					c17.8-7.2,39.1-16.8,60.1-29.8c28.8,0.7,57.4,2.4,81.5,17.8c21.4,13.7,36.3,36.6,41.9,61.4
					C1517.8,1316.9,1514.7,1343.3,1505.4,1366.9z"/>
				<g>
					<path class="st6" d="M1392.2,1453.2c1.4,7.7,2.6,16.8-3,34.4c12.7-7.9,26-16.8,40.5-27.2
						C1414.8,1455.9,1405.3,1454.5,1392.2,1453.2z"/>
					<path class="st6" d="M1344.6,1470.8c0,13.3-4.5,34.6-6.8,44.3c15.7-7.1,30.9-15.1,47-24.8
						C1370.7,1481.3,1359.8,1475.3,1344.6,1470.8z"/>
				</g>
				<g id="mouth_00000183214197015396064940000004958399080369809561_">
					<path class="st5" d="M1363.2,747.6c-4.2-0.7-8.3,1.8-9.5,5.9c-11.9,39.7-39.3,76-77.1,102.2c-10.3,7.2-23.7,10.9-38.7,10.8
						c-10-0.1-19.9-1.4-30.4-2.8c-4.9-0.6-9.9-1.3-14.9-1.8c-19-2-35.1-0.9-49.3,3.5c-54.9,16.8-109.9,20.8-156.5,22.5
						c-9.2,0.3-18.2,0.5-27,0.3c-8.8,0.1-17.8,0-27-0.3c-46.5-1.7-101.5-5.7-156.5-22.5c-14.2-4.3-30.3-5.5-49.3-3.5
						c-5,0.5-10,1.2-14.9,1.8c-10.5,1.4-20.4,2.7-30.4,2.8c-14.9,0.2-28.3-3.6-38.7-10.8c-37.8-26.2-65.1-62.5-77.1-102.2
						c-1.2-4.1-5.3-6.6-9.5-5.9c-4.2,0.7-7.2,4.5-7,8.8c0.3,5.7,8.1,139.8,24.3,206.7c0.7,3,1.4,5.9,2.1,8.8
						c13.4,55.8,21.5,89.5,93.2,147.6c99.7,80.8,207.5,85.9,272.5,85.9c4.9,0,9.6,0,14-0.1c1.4,0,2.7,0,4.1,0c1.3,0,2.7,0,4.1,0
						c4.4,0,9.1,0.1,14,0.1c65,0,172.8-5.1,272.5-85.9c71.7-58.1,79.8-91.8,93.2-147.6c0.7-2.9,1.4-5.8,2.1-8.8
						c16.3-66.9,24-201,24.3-206.7C1370.4,752.1,1367.4,748.3,1363.2,747.6z"/>
					<g>
						<path class="st7" d="M1320.5,888.2c-3.6,15.3-9.9,31-19.7,48.9c-5.9-25.2-15.9-48.4-28.7-66.4c16.6-8,28.3-18.5,47.1-37.3
							C1324.6,849.3,1325.1,869,1320.5,888.2z"/>
						<path class="st7" d="M1117.8,883.4c0.8-0.2,1.6-0.4,2.3-0.5c-3,27.9-16.3,58.5-35.9,82.9c-18.3-16.9-33.2-42.2-41.3-70.3
							c15.5-1.1,23.9-2.5,30.8-3.6c2.3-0.4,4.4-0.7,6.5-1C1095.2,888.7,1109.9,885.3,1117.8,883.4z"/>
						<path class="st7" d="M599.5,888.2c3.6,15.3,9.9,31,19.7,48.9c5.9-25.2,15.9-48.4,28.7-66.4c-16.6-8-28.3-18.5-47.1-37.3
							C595.5,849.3,594.9,869,599.5,888.2z"/>
						<path class="st7" d="M802.2,883.4c-0.8-0.2-1.6-0.4-2.3-0.5c3,27.9,16.3,58.5,35.9,82.9c18.3-16.9,33.2-42.2,41.3-70.3
							c-15.5-1.1-23.9-2.5-30.8-3.6c-2.3-0.4-4.4-0.7-6.5-1C824.8,888.7,810.1,885.3,802.2,883.4z"/>
					</g>
					<path class="st8" d="M1160.2,1045.8c-27.5-16.7-59.8-34.9-96.1-38.5c-31.1-3.1-80.1,6.6-104.1,31.6
						c-24-25.1-73-34.7-104.1-31.6c-36.3,3.6-68.6,21.8-96.1,38.5c-30.3,18.5-61.2,39.7-82,69.6c106.4,84.4,221,81.8,282.2,81.5
						c61.1,0.3,175.8,2.9,282.2-81.5C1221.4,1085.5,1190.5,1064.3,1160.2,1045.8z"/>
					<path class="st9" d="M1155.1,1054.2c-28.5-17.3-58.7-33.8-91.9-37.1s-87.3,8.9-103.2,38.2c-15.9-29.3-70-41.5-103.2-38.2
						c-33.2,3.3-63.5,19.8-91.9,37.1c-29.8,18.2-59.8,38.8-79.3,67.2c104.2,78.3,214.8,75.8,274.4,75.5
						c59.6,0.3,170.2,2.8,274.4-75.5C1214.8,1093,1184.8,1072.3,1155.1,1054.2z"/>
				</g>
				<g id="nose_00000035514417953421269310000015325806636038896519_">
					<path id="nose_00000052083470965921791390000011252158712214480827_" class="st5" d="M760.2,440c-3-16.9-10.5-32.7-21.7-45.8
						c-3-3.5-7.1-7.8-12.5-10.6c-5.6-3-11.8-3.6-17-1.9c-6.8,2.3-12.2,9.1-13.9,17.5c-1.4,6.8-0.7,13.6-0.1,19.6l0.1,1
						c1.9,18.2,8.7,35.7,19.6,50.4c3.7,4.9,8.8,10.9,16.2,12.8c1.7,0.4,3.3,0.6,5,0.6c9.3,0,17.7-6.7,21.5-14.1
						C761.4,461.8,762.3,452.1,760.2,440z"/>
					<path id="nose_00000010309184849611979990000013184513962010832826_" class="st5" d="M1159.8,440c3-16.9,10.5-32.7,21.7-45.8
						c3-3.5,7.1-7.8,12.4-10.6c5.6-3,11.8-3.6,17-1.9c6.8,2.3,12.2,9.1,13.9,17.5c1.4,6.8,0.7,13.6,0.1,19.6l-0.1,1
						c-1.9,18.2-8.7,35.7-19.6,50.4c-3.7,4.9-8.8,10.9-16.2,12.8c-1.7,0.4-3.3,0.6-5,0.6c-9.3,0-17.7-6.7-21.5-14.1
						C1158.6,461.8,1157.7,452.1,1159.8,440z"/>
				</g>
				<g id="eyes_00000181045679049062215050000013177906330441368710_">
					<g id="eye_00000070081793111817478710000003342172553818003625_">
						<path class="st5" d="M784.9,236.5c-20.3,0.9-33.5-5.8-45.8-15.9c-22.3-15.3-52.4-27.7-79.6-28.4
							c-28.8-1.1-58.3,12.3-74.2,36.7c13.7-11,28.1-17.8,43.2-21.2c-10.1,6.7-18.5,16-23.9,26.9c-7.8,15.8-10.1,34.3-6.8,54.9
							c2.4,15.1,8.7,31.3,14.2,45.6c1.1,2.9,2.2,5.8,3.3,8.6l1.2,3.3l2.8-2.1c46.1-34.4,72.9-45.3,130.4-53.1l2.6-0.4l-0.4-2.6
							c-3.7-24.2-13.9-46.3-29.8-64.6c3.7,1.7,7.3,3.5,10.9,5.4l0.3,0.1c0,0,0.1,0,0,0c-0.2-0.2-0.5-0.4-0.7-0.6
							c3.5,2.5,8.3,5,12.7,6.9C757.9,241.3,772.4,241.4,784.9,236.5z"/>
						<path class="st7" d="M699,231.5c-3.5-2.6-7.9-4.6-13.5-6.2c-4.1-1.1-7.8-1.7-11.2-1.7c-2.8,0-5.3,0.4-7.6,1.1
							c-6,1.9-10.6,7-11.2,12.3c-0.5,5,2.2,9.6,4.5,12.6c3.9,5,9.4,9,15.4,11.1c6,2.1,12.7,2.5,18.9,1.1c5.2-1.2,8.8-3.3,11-6.3
							c2.5-3.4,3.2-8.3,1.8-12.8C706.1,238.5,703.1,234.5,699,231.5z"/>
					</g>
					<g id="eye_00000096746589244887343670000015648482360018414976_">
						<path class="st5" d="M1135.1,236.5c20.3,0.9,33.5-5.8,45.8-15.9c22.3-15.3,52.4-27.7,79.6-28.4c28.8-1.1,58.3,12.3,74.2,36.7
							c-13.7-11-28.1-17.8-43.2-21.2c10.1,6.7,18.5,16,23.9,26.9c7.8,15.8,10.1,34.3,6.8,54.9c-2.4,15.1-8.7,31.3-14.2,45.6
							c-1.1,2.9-2.2,5.8-3.3,8.6l-1.2,3.3l-2.8-2.1c-46.1-34.4-72.9-45.3-130.4-53.1l-2.6-0.4l0.4-2.6c3.7-24.2,13.9-46.3,29.8-64.6
							c-3.7,1.7-7.3,3.5-10.9,5.4l-0.3,0.1c0,0-0.1,0-0.1,0c0.2-0.2,0.5-0.4,0.7-0.6c-3.5,2.5-8.3,5-12.7,6.9
							C1162.1,241.3,1147.6,241.4,1135.1,236.5z"/>
						<path class="st7" d="M1221,231.5c3.5-2.6,7.9-4.6,13.5-6.2c4.1-1.1,7.8-1.7,11.2-1.7c2.8,0,5.3,0.4,7.6,1.1
							c6,1.9,10.6,7,11.2,12.3c0.5,5-2.2,9.6-4.5,12.6c-3.9,5-9.4,9-15.4,11.1c-6,2.1-12.7,2.5-18.9,1.1c-5.2-1.2-8.8-3.3-11-6.3
							c-2.5-3.4-3.2-8.3-1.8-12.8C1213.9,238.5,1216.9,234.5,1221,231.5z"/>
					</g>
				</g>
				<path id="belly_00000038375002836213529910000015902349173709507210_" class="st6" d="M1164.2,1639.8
					c-7.1,35.7-28.9,88.9-55.6,118.3c-50.1,14.9-99.8,21.5-148.6,19.9c-48.9,1.6-98.5-5.1-148.6-19.9
					c-26.7-29.4-48.5-82.7-55.6-118.3c-3.7-18.4-15.4-82.6-12.3-133.2l0-0.3c2.5-41.5,6.2-104.2,62-153.5
					c16.7-14.8,42.3-25.4,78.1-32.6c27.2-5.4,52.5-8.2,76.4-8.3c23.9,0.2,49.2,2.9,76.4,8.3c35.8,7.1,61.4,17.8,78.1,32.6
					c55.8,49.3,59.5,112,62,153.5l0,0.3C1179.6,1557.2,1167.9,1621.3,1164.2,1639.8z"/>
			</g>
		</g>
	</g>
</g>
</svg>
