<?xml version="1.0" encoding="utf-8"?>
<!-- Generator: Adobe Illustrator 24.0.0, SVG Export Plug-In . SVG Version: 6.00 Build 0)  -->
<svg version="1.1" id="Layer_1" xmlns="http://www.w3.org/2000/svg" xmlns:xlink="http://www.w3.org/1999/xlink" x="0px" y="0px"
	 viewBox="0 0 24 24" style="enable-background:new 0 0 24 24;" xml:space="preserve">
<style type="text/css">
	.st0{fill:#FEFEFE;}
	.st1{fill:#040404;}
</style>
<circle cx="12" cy="12" r="12"/>
<g>
	<path class="st0" d="M6,4.8c0.9,0,1.6,0.4,2.3,1C8.5,6,8.7,6.2,8.9,6.4c0.3,0.3,0.6,0.3,1,0.3c0.7-0.1,1.3-0.3,2-0.3
		c0.2,0,0.4,0,0.6,0.1c0.5,0.2,0.9,0.1,1.4-0.1c0.7-0.4,1.5-0.8,2.2-1.1c0.7-0.3,1.4-0.6,2.2-0.6c0.8,0,1.3,0.4,1.7,1
		c0.2,0.3,0.1,0.6,0,0.9c-0.2,0.9-0.7,1.5-1.5,1.9c-0.4,0.2-0.7,0.4-1.1,0.6c-0.6,0.2-0.9,0.7-1,1.3c-0.3,1.8-0.6,3.5-1.1,5.2
		c-0.4,1.3-0.9,2.5-1.7,3.5c-0.8,0.9-1.7,1.5-2.9,1.5c-0.6,0-1-0.4-1.4-0.7c-0.8-0.7-1.1-1.6-1.3-2.5c-0.1-0.5-0.2-1-0.2-1.5
		C8,14,7.7,12.4,7.3,10.8C7.2,10.4,7,9.9,6.9,9.5C6.9,9,6.5,8.6,6.2,8.3C5.8,8,5.4,7.7,5.1,7.3C4.6,6.7,4.5,6,4.9,5.3
		C5.1,4.9,5.4,4.8,6,4.8L6,4.8z"/>
	<path d="M9.5,18.5c0-1,0.4-1.7,1.2-2c0.8-0.3,1.7,0.1,2.1,0.8c0.4,0.7,0.1,1.5-0.6,2.1c-0.4,0.3-0.8,0.5-1.3,0.5
		C10.2,20,9.5,19.6,9.5,18.5L9.5,18.5z"/>
	<path d="M12.5,11.7c0.1-0.6,0.3-1.2,0.9-1.6c0.4-0.3,0.8-0.2,1.1,0.2c0.5,0.7,0.7,1.5,0.3,2.3c-0.2,0.4-0.5,0.6-0.9,0.5
		c-0.2,0-0.4-0.1-0.7-0.1C12.8,12.8,12.5,12.4,12.5,11.7L12.5,11.7z"/>
	<path d="M9.3,12.5c-0.7,0-1-0.6-0.9-1.2c0-0.2,0.1-0.3,0.1-0.5c0.2-0.6,0.9-0.7,1.4-0.3c0.5,0.4,0.5,1.3,0,1.7
		C9.7,12.5,9.5,12.6,9.3,12.5z"/>
	<path class="st1" d="M15.1,8.1c-0.1,0-0.1,0-0.1-0.1c0-0.2-0.2-0.2-0.3-0.2c-0.1,0-0.1-0.1-0.1-0.2c0-0.1,0.1-0.1,0.2-0.1
		c0.1,0,0.3,0,0.3-0.2c0-0.2-0.1-0.3-0.2-0.3c-0.1,0-0.2-0.1-0.1-0.2c0-0.1,0.1-0.1,0.2-0.1c0.2,0,0.4,0,0.6-0.2
		c0.1-0.1,0.2,0,0.3,0.1c0.1,0.1,0,0.1,0,0.2l0,0C15.9,7,15.6,7,15.5,7.2c-0.1,0.2-0.1,0.4-0.1,0.7C15.3,8,15.3,8.1,15.1,8.1
		L15.1,8.1z"/>
</g>
</svg>
