<?xml version="1.0" encoding="utf-8"?>
<!-- Generator: Adobe Illustrator 24.0.0, SVG Export Plug-In . SVG Version: 6.00 Build 0)  -->
<svg version="1.1" id="Layer_1" xmlns="http://www.w3.org/2000/svg" xmlns:xlink="http://www.w3.org/1999/xlink" x="0px" y="0px"
	 viewBox="0 0 12 12" style="enable-background:new 0 0 12 12;" xml:space="preserve">
<style type="text/css">
	.st0{fill:#DEF141;}
</style>
<path class="st0" d="M7.7,3L1.1,9.5C-0.8,6.8-0.2,3,2.5,1.1S9-0.2,10.9,2.5C11,2.7,11.1,2.8,11.2,3L7.7,3L7.7,3z"/>
<path class="st0" d="M8.3,4.6l-6.1,6.1c-0.2-0.1-0.3-0.3-0.5-0.4l6.3-6.3h3.6c0.1,0.2,0.1,0.4,0.2,0.6L8.3,4.6L8.3,4.6z M9.4,7.1
	h2.5c-0.6,3.3-3.8,5.4-7,4.7c-0.1,0-0.1,0-0.2,0C4.6,11.8,9.4,7.1,9.4,7.1z"/>
<path class="st0" d="M12,6c0,0.1,0,0.1,0,0.2H9l-5.3,5.3c-0.2-0.1-0.4-0.2-0.6-0.3l5.7-5.7H12C12,5.7,12,5.8,12,6z"/>
</svg>
