<?xml version="1.0" encoding="utf-8"?>
<!-- Generator: Adobe Illustrator 24.0.0, SVG Export Plug-In . SVG Version: 6.00 Build 0)  -->
<svg version="1.1" id="CIRCLE_OUTLINE_BLACK" xmlns="http://www.w3.org/2000/svg" xmlns:xlink="http://www.w3.org/1999/xlink"
	 x="0px" y="0px" viewBox="0 0 512 512" style="enable-background:new 0 0 512 512;" xml:space="preserve">
<style type="text/css">
	.st0{fill:#FFFFFF;}
	.st1{fill:#1F0472;}
</style>
<circle class="st0" cx="256" cy="256" r="256"/>
<path class="st1" d="M124.5,406.3V105.7c0.6,0,1.2,0,1.8,0c23.8,0,47.7,0,71.5,0c0.6,0,1.1,0,1.9,0v225.4h37.7v-75
	c0.5,0,0.7-0.1,1-0.1c11.8,0,23.7,0,35.5,0c0.4,0,0.8,0.1,1.2,0.1c0,0,0,0,0,0c-0.1,0.5-0.2,1.1-0.2,1.6c0,23.9,0,47.8,0,71.7v1.8
	h74.8v75h-2c-73.7,0-147.4,0-221.1,0C125.9,406.3,125.2,406.3,124.5,406.3L124.5,406.3z"/>
<path class="st1" d="M350,180.7c0,24.8,0,49.6,0,74.4c0,0.2,0,0.5-0.1,0.8c-0.6,0-1.2,0.1-1.9,0.1c-23.8,0-47.6,0-71.3,0
	c-0.6,0-1.2,0.1-1.7,0.2c0,0,0,0,0,0c0-0.7-0.1-1.4-0.1-2c0-36.3,0-72.6,0-108.9v-2h-36v-37.4h73.5v74.9c0.5,0,0.9,0.1,1.2,0.1
	c11.8,0,23.7,0,35.5,0C349.4,180.8,349.7,180.8,350,180.7L350,180.7L350,180.7z"/>
<path class="st1" d="M350,180.8c0-7.4,0-14.9,0-22.3c0-17,0-34,0-51v-1.7h37.4v74.9c-0.4,0-0.7,0.1-1.1,0.1c-11.8,0-23.6,0-35.5,0
	C350.6,180.8,350.3,180.7,350,180.8C350,180.7,350,180.8,350,180.8L350,180.8z"/>
</svg>
