<?xml version="1.0" encoding="utf-8"?>
<!-- Generator: Adobe Illustrator 24.0.0, SVG Export Plug-In . SVG Version: 6.00 Build 0)  -->
<svg version="1.1" id="Слой_1" xmlns="http://www.w3.org/2000/svg" xmlns:xlink="http://www.w3.org/1999/xlink" x="0px" y="0px"
	 viewBox="0 0 141.8 141.7" style="enable-background:new 0 0 141.8 141.7;" xml:space="preserve">
<style type="text/css">
	.st0{fill:#FFFFFF;}
	.st1{fill:#00E98D;}
</style>
<path d="M70.9,141.7L70.9,141.7C31.7,141.7,0,110,0,70.9l0,0C0,31.7,31.7,0,70.9,0l0,0c39.1,0,70.9,31.7,70.9,70.9l0,0
	C141.7,110,110,141.7,70.9,141.7z"/>
<g transform="translate(96.43495,-0.68691) scale(1.24272,1.24272)">
	<g id="XMLID_00000049194608071894037950000002340421401985118635_">
		<g>
			<polygon class="st0" points="9.8,49 9.8,62.4 -27,62.4 -27,27.4 9.8,27.4 9.8,40.8 -11.8,40.8 -11.8,49 			"/>
			<rect x="-55.4" y="70.2" class="st1" width="45.8" height="19.1"/>
		</g>
	</g>
</g>
</svg>
