<?xml version="1.0" encoding="utf-8"?>
<!-- Generator: Adobe Illustrator 24.0.0, SVG Export Plug-In . SVG Version: 6.00 Build 0)  -->
<svg version="1.1" id="CIRCLE_OUTLINE_BLACK" xmlns="http://www.w3.org/2000/svg" xmlns:xlink="http://www.w3.org/1999/xlink"
	 x="0px" y="0px" viewBox="0 0 512 512" style="enable-background:new 0 0 512 512;" xml:space="preserve">
<style type="text/css">
	.st0{fill:#EAEAEA;}
	.st1{fill:#483E5E;}
</style>
<circle class="st0" cx="256" cy="256" r="256"/>
<path class="st1" d="M304.7,183.7c-5,5.5-16.6,5.4-21.6,0.5c-5-4.9-6.6-14.5,0-20.6c6.6-6,16.6-3.8,21.6,0.6
	C309.6,168.6,309.6,178.2,304.7,183.7z"/>
<path class="st1" d="M252.4,144.4c-5.4,6.6-7.5,10.4-11.6,20.9c-5.3,13.6-10.1,28.6-12,37.9c-1.9,9.3,1.9,17.3,10.7,22.7
	c9.3,5.8,19.4,10.2,32.9,15.3c13.6,5,23.3,12.2,26.4,19.6c3.1,7.4,2.4,21.5-4.6,35.1c-7,13.6-16.7,26.2-33.8,38.6
	c-17.1,12.4-28.7,15.3-45.6,19.2c-16.9,3.9-11.3,13.4-5.5,15.4c5.8,1.9,18.6,3.9,35.7,3.1c17.1-0.8,34.1-5,54.3-15.1
	s40-27.5,50.4-50.7c10.5-23.2,14.7-56,2.5-76.7c-7.1-12-10.7-14.9-13-22.5c-2.3-7.6-0.8-13.3,3.5-18.6c2.5-3,8.1-6.1,13.2-9.7
	c4-2.9,8.9-5.8,12.4-8.1c3.5-2.3,4.7-3.5,2.3-5.1l-0.1-0.1c-2.4-1.6-7-4.7-15.1-7.6c-8.2-3-9.7-3.4-12.8-3.7s-7,2.5-13.2,7.1
	c-6.2,4.6-8.9,5.6-9.3,10.8c-0.4,5.3-1.9,12-6.2,17.8s-10,8.8-17.6,9.5c-7.7,0.8-18-1.6-23.1-7.5c-5.1-6-7.1-9.4-7.1-17.8
	s3.3-14.4,7.7-18.7c4.4-4.3,4.2-5.8,4.2-7.7c0-1.9-1-8.5-1.9-11.6c-0.8-3.1-3.9-3.6-8.9-1.9C262.1,136,257.9,137.8,252.4,144.4
	L252.4,144.4z"/>
<path class="st1" d="M175.5,306.1c-2.5,0.7-4.3,4.9-9.2,13.5c-4.9,8.5-9.6,14.8-18.4,24.3c-8.8,9.5-14.4,13.5-28.4,22l-0.4,0.2
	c-13.8,8.4-17.8,10.8-18.8,13.3c-1,2.5-0.4,5.9,9.9,7.5c10.3,1.6,18.9,1.9,33.9-8.2c14.9-10.2,26.6-20,42.1-27.2
	c15.5-7.2,20.3-6.8,37.6-11.8s33.1-15,44-27c10.9-12,16.3-24.2,18.5-31.1c2.2-6.9,2.5-16.1-3.4-20.7c-5.6-4.4-8.7-5.7-21.1-10.3
	c-13.2-4.9-17.6-6.1-27.3-13.8c-9.2-7.2-8.6-8.9-14.4-9.7c-5.8-0.8-10.1,7.8-12.1,12c-1.5,3.2-1.7,8.9,2.2,14.2s7.5,11.2,18.1,17.2
	c10.6,6,15.6,6.9,22.8,8.1c7.2,1.2,10.1,2.9,8.1,6.3c-1.9,3.4-5.8,5-12.4,5s-16-3-25.3-8.4c-6.6-3.8-11.3-8.2-14.7-12.4
	c-3.3-4.2-5.3-4.8-8.4-4.8s-5.6,1.9-9.3,7.4c-3.7,5.4-6.4,11.3-6.8,14.5c-0.4,3.2-0.7,6.7,5.1,11c5.8,4.3,10.9,6.6,17.5,7.8
	c6.6,1.2,11.6,3.2,6.8,7.6c-4.8,4.4-10.7,3.4-15.4,2.2c-4.7-1.2-11.4-4.8-14-6.4C179.7,306.8,178.1,305.4,175.5,306.1L175.5,306.1z"
	/>
<path class="st1" d="M322.2,152.7c3.5-2.2,7.4-5,7.4-7s-2-4.4-10.3-9.5c-8.3-5.2-19.8-11-27.3-11.9c-7.5-0.9-4.3,10.9-3.4,15.6
	s1.1,8.3,4.3,8.7c3.1,0.4,5.5,0.8,8.2,1.5c2.7,0.8,6.2,2.4,10.1,4.6C315.2,157,318.7,154.9,322.2,152.7L322.2,152.7z"/>
</svg>
