<?xml version="1.0" encoding="utf-8"?>
<!-- Generator: Adobe Illustrator 24.0.0, SVG Export Plug-In . SVG Version: 6.00 Build 0)  -->
<svg version="1.1" id="CIRCLE_OUTLINE_BLACK" xmlns="http://www.w3.org/2000/svg" xmlns:xlink="http://www.w3.org/1999/xlink"
	 x="0px" y="0px" viewBox="0 0 511.8 512" style="enable-background:new 0 0 511.8 512;" xml:space="preserve">
<style type="text/css">
	.st0{fill:#1E1E1E;}
	.st1{fill-rule:evenodd;clip-rule:evenodd;fill:#FF7B7C;}
</style>
<g id="layer1">
	<path id="path1845" class="st0" d="M511.8,256c0,141.4-114.6,256-255.9,256h0C114.6,512,0,397.4,0,256l0,0C0,114.6,114.6,0,255.9,0
		S511.8,114.6,511.8,256z"/>
	<path id="path1828" class="st1" d="M256.1,45.6C140.1,45.6,46,139.9,46,256.2s94.1,210.7,210.2,210.7s210.2-94.3,210.2-210.7
		C466.3,139.9,372.2,45.6,256.1,45.6L256.1,45.6z M24.7,256.2c0-128.2,103.6-232,231.5-232s231.5,103.9,231.5,232
		c0,128.2-103.7,232-231.5,232S24.7,384.4,24.7,256.2z"/>
	<path id="path1830" class="st1" d="M347.5,200.9l-58.4-2.4l39.7-43.1l-16-16l-43,39.6l-2.3-58.5h-22.5l-2.4,58.5l-43-39.8l-15.9,16
		l39.6,43.1l-58.4,2.3v22.6l58.4,2.4l-39.7,43.1l16,16l42.3-39l1.9,94.8l-33.8,2.5v21.1l34.3,2.6l0.6,32.9h22.5l0.7-32.9l34.6-2.6
		v-21.1l-34.1-2.5l1.9-94.8l42.3,39.1l15.9-16l-39.6-43.1l58.4-2.3L347.5,200.9L347.5,200.9z"/>
</g>
</svg>
