<?xml version="1.0" encoding="utf-8"?>
<!-- Generator: Adobe Illustrator 24.0.0, SVG Export Plug-In . SVG Version: 6.00 Build 0)  -->
<svg version="1.1" id="Layer_1" xmlns="http://www.w3.org/2000/svg" xmlns:xlink="http://www.w3.org/1999/xlink" x="0px" y="0px"
	 viewBox="0 0 280 280" style="enable-background:new 0 0 280 280;" xml:space="preserve">
<style type="text/css">
	.st0{fill:#FFFFFF;}
	.st1{fill:url(#SVGID_1_);}
	.st2{opacity:0.14;fill:url(#SVGID_2_);enable-background:new    ;}
	.st3{fill:url(#SVGID_3_);}
</style>
<path class="st0" d="M140,0L140,0c77.3,0,140,62.7,140,140l0,0c0,77.3-62.7,140-140,140l0,0C62.7,280,0,217.3,0,140l0,0
	C0,62.7,62.7,0,140,0z"/>
<linearGradient id="SVGID_1_" gradientUnits="userSpaceOnUse" x1="177.311" y1="141.969" x2="177.311" y2="66.85" gradientTransform="matrix(1 0 0 -1 0 282)">
	<stop  offset="2.717170e-07" style="stop-color:#FF4681"/>
	<stop  offset="1" style="stop-color:#9B44F6"/>
</linearGradient>
<path class="st1" d="M215,215h-75.4l75.4-74.6V215z"/>
<linearGradient id="SVGID_2_" gradientUnits="userSpaceOnUse" x1="202.6823" y1="103.0757" x2="192.1083" y2="75.1568" gradientTransform="matrix(1 0 0 -1 0 282)">
	<stop  offset="9.430190e-07" style="stop-color:#000000"/>
	<stop  offset="1" style="stop-color:#000000"/>
</linearGradient>
<path class="st2" d="M215,215l-37.7-37.7l6.8-6L215,215z"/>
<linearGradient id="SVGID_3_" gradientUnits="userSpaceOnUse" x1="29.2651" y1="177.7347" x2="179.5027" y2="27.4977" gradientTransform="matrix(1 0 0 -1 0 282)">
	<stop  offset="9.430190e-07" style="stop-color:#FF4681"/>
	<stop  offset="0.7392" style="stop-color:#9B44F6"/>
</linearGradient>
<path class="st3" d="M215,215H65V65L215,215z"/>
</svg>
