<?xml version="1.0" encoding="utf-8"?>
<!-- Generator: Adobe Illustrator 24.0.0, SVG Export Plug-In . SVG Version: 6.00 Build 0)  -->
<svg version="1.1" id="Layer_1" xmlns="http://www.w3.org/2000/svg" xmlns:xlink="http://www.w3.org/1999/xlink" x="0px" y="0px"
	 viewBox="0 0 62 62" style="enable-background:new 0 0 62 62;" xml:space="preserve">
<style type="text/css">
	.st0{fill:url(#SVGID_2_);}
	.st1{fill:url(#SVGID_3_);}
	.st2{fill:url(#SVGID_5_);}
</style>
<g>
	<g>
		<g>
			
				<linearGradient id="SVGID_2_" gradientUnits="userSpaceOnUse" x1="9.0875" y1="-881.0875" x2="52.9125" y2="-924.9125" gradientTransform="matrix(1 0 0 -1 0 -872)">
				<stop  offset="0" style="stop-color:#324BCD"/>
				<stop  offset="1" style="stop-color:#3DBA8A"/>
			</linearGradient>
			<path id="SVGID_1_" class="st0" d="M31,62C13.9,62,0,48.1,0,31S13.9,0,31,0s31,13.9,31,31S48.1,62,31,62L31,62L31,62z M31,2.6
				C15.3,2.6,2.6,15.3,2.6,31S15.3,59.4,31,59.4S59.4,46.7,59.4,31S46.7,2.6,31,2.6L31,2.6L31,2.6z"/>
		</g>
	</g>
	<g>
		<g>
			
				<linearGradient id="SVGID_3_" gradientUnits="userSpaceOnUse" x1="22.0436" y1="-889.1334" x2="34.5121" y2="-910.7296" gradientTransform="matrix(1 0 0 -1 0 -872)">
				<stop  offset="0" style="stop-color:#3DFFEF"/>
				<stop  offset="1" style="stop-color:#A80DE9"/>
			</linearGradient>
			<path id="SVGID_4_" class="st1" d="M34.6,12.4c2.8,1.2,4.2,4.4,3,7.3l-8.9,21.8c-1.2,2.9-4.4,0.2-7.2-1s-4.2-0.4-3-3.3l8.9-21.8
				C28.5,12.6,31.7,11.2,34.6,12.4L34.6,12.4z"/>
		</g>
	</g>
	<g>
		<g>
			
				<linearGradient id="SVGID_5_" gradientUnits="userSpaceOnUse" x1="20.7852" y1="-901.5351" x2="38.5241" y2="-919.2741" gradientTransform="matrix(1 0 0 -1 0 -872)">
				<stop  offset="0" style="stop-color:#50D3EE"/>
				<stop  offset="1" style="stop-color:#324BCD"/>
			</linearGradient>
			<path id="SVGID_7_" class="st2" d="M38.4,45.1H23.3c-3,0-5.5-2.4-5.5-5.5c0-0.7,0.1-1.4,0.4-2.1l0,0l4-9.5c0,0-0.3,6,6.1,6.1
				h10.1c3,0,5.5,2.4,5.5,5.5C43.9,42.7,41.4,45.1,38.4,45.1L38.4,45.1z"/>
		</g>
	</g>
</g>
</svg>
