<?xml version="1.0" encoding="utf-8"?>
<!-- Generator: Adobe Illustrator 24.0.0, SVG Export Plug-In . SVG Version: 6.00 Build 0)  -->
<svg version="1.1" id="CIRCLE_OUTLINE_BLACK" xmlns="http://www.w3.org/2000/svg" xmlns:xlink="http://www.w3.org/1999/xlink"
	 x="0px" y="0px" viewBox="0 0 512 512" style="enable-background:new 0 0 512 512;" xml:space="preserve">
<style type="text/css">
	.st0{fill:#140F26;}
	.st1{fill-rule:evenodd;clip-rule:evenodd;fill:url(#SVGID_1_);}
	.st2{fill-rule:evenodd;clip-rule:evenodd;fill:url(#SVGID_2_);}
	.st3{fill:url(#SVGID_3_);}
	.st4{fill:url(#SVGID_4_);}
	.st5{fill:url(#SVGID_5_);}
	.st6{fill:url(#SVGID_6_);}
	.st7{fill:url(#SVGID_7_);}
	.st8{fill:url(#SVGID_8_);}
	.st9{fill:url(#SVGID_9_);}
</style>
<circle class="st0" cx="256" cy="256" r="256"/>
<linearGradient id="SVGID_1_" gradientUnits="userSpaceOnUse" x1="81.4504" y1="87.8418" x2="436.0751" y2="300.3503" gradientTransform="matrix(1 0 0 1 0 88.5829)">
	<stop  offset="0" style="stop-color:#E54033"/>
	<stop  offset="0.4896" style="stop-color:#FECA1A"/>
	<stop  offset="1" style="stop-color:#AFD803"/>
</linearGradient>
<path class="st1" d="M240.6,154.1C240.6,154.1,240.6,154.1,240.6,154.1c13.8,7.1,28.9,9.5,43.4,9.5c8.4,7.7,15.4,16.8,22,26.1
	c2.7,3.9,5.2,8,7.4,12.2c5,9.7,8.7,19.9,12.5,30.3c1.1,3,2.2,6.1,3.3,9.1c0.4,1.3,0.7,2.6,1.1,3.9l0,0c5.8,19.8,14.2,40.9,25.5,58.4
	l0,0c3.7,5.7,7.9,11.2,12.5,16.2c0.9,1,1.8,1.9,2.8,2.9l0,0l0,0l0,0c4.3,4.5,8.7,9.1,11.2,14.8c3.1,7.1,2.8,15.3,1,22.8
	c-8.7,35.5-42.9,44.8-75.6,45.7l0,0c-12.2,0.2-24.4-0.7-35.2-1.8c0,0-52-5.4-96.1-37.6l-1.4-1.1l0,0c-5.1-3.8-10.1-8-14.7-12.4
	c-12.4-11.8-23.4-25.2-31.8-39.9c0.1-0.1,0.1-0.1,0.2-0.2c-1-1.8-1.9-3.6-2.9-5.4c-8.1-16.3-13.1-34-13.3-52.8
	c-0.4-31.6,10.4-64,31-87.5c0,0,0,0,0-0.1c11.1-12.2,25-21.8,41.5-27.2c10.3-3.4,21.2-5.1,32-4.9
	C223.4,142.9,231.5,149.4,240.6,154.1L240.6,154.1z M215.2,360.9c7.4-2.7,14.5-6.4,21.1-10.9C229.7,354.5,222.6,358.2,215.2,360.9z"
	/>
<linearGradient id="SVGID_2_" gradientUnits="userSpaceOnUse" x1="54844.4336" y1="56153.2852" x2="32643.8613" y2="33316.8633" gradientTransform="matrix(1 0 0 1 0 88.5829)">
	<stop  offset="0.15" style="stop-color:#6CBF00"/>
	<stop  offset="1" style="stop-color:#AFD803"/>
</linearGradient>
<path class="st2" d="M348.5,128.3C348.5,128.3,348.5,128.3,348.5,128.3l0.5-0.3c-58-98.9-133.8-21-133.8-21l0.1,0.2c0,0,0,0,0,0
	C258.9,183.7,341.7,132.7,348.5,128.3L348.5,128.3z"/>
<linearGradient id="SVGID_3_" gradientUnits="userSpaceOnUse" x1="139.604" y1="280.6635" x2="361.8151" y2="226.6327" gradientTransform="matrix(1 0 0 1 0 88.5829)">
	<stop  offset="0.21" style="stop-color:#E54033"/>
	<stop  offset="0.84" style="stop-color:#FECA1A"/>
</linearGradient>
<path class="st3" d="M276.6,298.7c-16,38.2-46.7,63.5-83.8,67.3c-0.8,0.1-11,0.9-16.6,0.5c44.1,32.2,96.1,37.6,96.1,37.6
	c11.1,1.1,23.7,2.1,36.4,1.7c4.5-11.6,7-24.9,6.2-40.1c-1.7-35.1,18.7-53.1,40.7-62.4c-11.3-17.5-19.7-38.6-25.5-58.4
	C313,249.7,291.1,264.1,276.6,298.7L276.6,298.7z"/>
<linearGradient id="SVGID_4_" gradientUnits="userSpaceOnUse" x1="314.6737" y1="265.6686" x2="383.2396" y2="266.1823" gradientTransform="matrix(1 0 0 1 0 88.5829)">
	<stop  offset="0" style="stop-color:#FECA1A"/>
	<stop  offset="0.4" style="stop-color:#FECA1A"/>
	<stop  offset="1" style="stop-color:#AFD803"/>
</linearGradient>
<path class="st4" d="M314.3,365.6c0.7,15.1-2.3,28.7-6.8,40.4c32.7-0.9,66.8-10.2,75.6-45.7c1.8-7.5,2.1-15.7-1-22.8
	c-3-6.9-8.8-12.2-13.9-17.7c-4.8-5.3-9.1-11-13-17C333.1,312,312.6,330.5,314.3,365.6L314.3,365.6z"/>
<linearGradient id="SVGID_5_" gradientUnits="userSpaceOnUse" x1="159.4796" y1="282.0481" x2="300.0548" y2="91.7341" gradientTransform="matrix(1 0 0 1 0 88.5829)">
	<stop  offset="0.16" style="stop-color:#E54033"/>
	<stop  offset="0.84" style="stop-color:#FECA1A"/>
</linearGradient>
<path class="st5" d="M329,241.2c-5-13.4-9.3-26.9-15.8-39.4c-2.2-4.2-4.6-8.3-7.4-12.2c-6.6-9.3-13.6-18.4-22-26.1
	c-14.5,0-29.6-2.4-43.4-9.5c-14,19.8-30,53.5-15.3,91.9c21.6,56.7-22.3,95.5-50.4,119.5l1.4,1.1c5.3,0.4,10.6,0.3,15.9-0.2
	c37.2-3.8,69.6-29.7,85.6-67.9c14.5-34.7,35.6-47.8,52.7-52.4C329.9,244.4,329.5,242.8,329,241.2L329,241.2z"/>
<linearGradient id="SVGID_6_" gradientUnits="userSpaceOnUse" x1="139.0013" y1="92.9423" x2="132.7763" y2="215.8663" gradientTransform="matrix(1 0 0 1 0 88.5829)">
	<stop  offset="0" style="stop-color:#FECA1A"/>
	<stop  offset="0.76" style="stop-color:#E54033"/>
</linearGradient>
<path class="st6" d="M144.8,165.7c-21.5,23.6-32.9,56.8-32.5,89.1c0.2,18.8,5.2,36.6,13.3,52.8c1.2,2.4,2.5,4.9,3.9,7.2
	C174.8,269.4,158.4,201.7,144.8,165.7L144.8,165.7z"/>
<linearGradient id="SVGID_7_" gradientUnits="userSpaceOnUse" x1="207.7689" y1="61.0223" x2="170.2251" y2="203.5837" gradientTransform="matrix(1 0 0 1 0 88.5829)">
	<stop  offset="0.16" style="stop-color:#FECA1A"/>
	<stop  offset="1" style="stop-color:#E54033"/>
</linearGradient>
<path class="st7" d="M226,246c-14.6-38.4,1-71.9,15-91.7c-9.2-4.7-17.4-11.2-24.1-19.1c-10.9-0.2-21.7,1.4-32,4.9
	c-16.5,5.5-30.4,15-41.5,27.2c13.3,35.3,29.3,101.5-15,146c8.4,14.7,19.4,28.1,31.8,39.9c4.9,4.6,10,9,15.5,13
	C203.7,342.1,247.6,302.7,226,246L226,246z"/>
<linearGradient id="SVGID_8_" gradientUnits="userSpaceOnUse" x1="222.313" y1="-7.2358" x2="361.3206" y2="44.0022" gradientTransform="matrix(1 0 0 1 0 88.5829)">
	<stop  offset="0.15" style="stop-color:#6CBF00"/>
	<stop  offset="1" style="stop-color:#AFD803"/>
</linearGradient>
<path class="st8" d="M280.6,113.3c30.7,12.1,52.1,15.4,67.7,14.9l0.4-0.3c-58-98.9-133.8-21-133.8-21l0.1,0.2
	C231.4,104.2,255.2,103.3,280.6,113.3L280.6,113.3z"/>
<linearGradient id="SVGID_9_" gradientUnits="userSpaceOnUse" x1="54842.3555" y1="56154.8242" x2="32641.7813" y2="33318.4023" gradientTransform="matrix(1 0 0 1 0 88.5829)">
	<stop  offset="0.15" style="stop-color:#6CBF00"/>
	<stop  offset="1" style="stop-color:#AFD803"/>
</linearGradient>
<path class="st9" d="M281,112.6c-25.4-10-49.3-9.6-66-5.5c43.6,76.5,126.5,25.5,133.3,21.1C332.7,128.7,311.6,124.7,281,112.6
	L281,112.6z"/>
</svg>
