<?xml version="1.0" encoding="utf-8"?>
<!-- Generator: Adobe Illustrator 24.0.0, SVG Export Plug-In . SVG Version: 6.00 Build 0)  -->
<svg version="1.1" id="Layer_1" xmlns="http://www.w3.org/2000/svg" xmlns:xlink="http://www.w3.org/1999/xlink" x="0px" y="0px"
	 viewBox="0 0 500 500" style="enable-background:new 0 0 500 500;" xml:space="preserve">
<style type="text/css">
	.st0{fill:url(#SVGID_1_);}
	.st1{fill:#373535;}
</style>
<linearGradient id="SVGID_1_" gradientUnits="userSpaceOnUse" x1="484.87" y1="339.5999" x2="-54.6579" y2="138.3399" gradientTransform="matrix(1 0 0 -1 0 502)">
	<stop  offset="0.3724" style="stop-color:#FF97D6"/>
	<stop  offset="0.8021" style="stop-color:#F8B994"/>
</linearGradient>
<path class="st0" d="M250,0c138.2,0,250,112.1,250,250c0,138.2-112.1,250-250,250C111.8,500,0,387.9,0,250S112.1,0,250,0z"/>
<path class="st1" d="M284.4,192.3L250.2,158l-34.1,34.1l34.1,34.4L284.4,192.3z M374.1,190.9l-93.2,91.3
	c-16.9,16.7-44.5,16.7-61.4,0l-93.2-91.3l-33,33.9l93.2,91.3c17.7,17.2,40.7,25.9,63.8,25.9c23.1,0,46.1-8.7,63.8-25.9l93.2-91.3
	L374.1,190.9z"/>
</svg>
