<?xml version="1.0" encoding="utf-8"?>
<!-- Generator: Adobe Illustrator 24.0.0, SVG Export Plug-In . SVG Version: 6.00 Build 0)  -->
<svg version="1.1" id="Layer_1" xmlns="http://www.w3.org/2000/svg" xmlns:xlink="http://www.w3.org/1999/xlink" x="0px" y="0px"
	 viewBox="0 0 395 395" style="enable-background:new 0 0 395 395;" xml:space="preserve">
<style type="text/css">
	.st0{fill:#958FDC;}
	.st1{fill:#2B1D3C;}
	.st2{fill-rule:evenodd;clip-rule:evenodd;fill:#2B1D3C;}
</style>
<circle class="st0" cx="197.5" cy="197.5" r="197.5"/>
<path class="st1" d="M335.5,197.7c0-75.5-61.4-136.6-137.2-136.6S61,122.2,61,197.7c0,15.6,2.6,30.6,7.5,44.6c0,0.1,0.3,0.9,0.3,0.9
	c2,6.2-7.7,8.6-7.7,12.3c0,5.8,20.4,5,20.4,11.7c0,5.9-20.2,7.7-20.2,13.6c0,8.2,44.7,5.3,45.3,12.4c0.4,5.4-15.4,5.8-15.5,11.6
	c-0.2,9.3,61,6.2,61,12.4c0,4.7-27.8,3-27.8,8.5s36.6,9,77,9s68.2-4.5,68.2-9.3s-26-3.8-25.4-8.2c0.9-7.6,58.6-3.7,58.6-12.5
	c0-4.6-15.9-5.7-15.3-10.7c0.7-7.1,48.2-6,48.2-13.3c0-5.8-23.5-7.2-23.5-13.2c0-6.1,23.5-5.9,23.3-11.6c-0.1-4.4-10.5-4.3-7.2-13.6
	C332.9,228.2,335.6,213.2,335.5,197.7L335.5,197.7z M291.9,236.5c-4.8,10.7-15.5,8.6-16.7,13.1c-1.3,4.7,13.2,5.3,13.2,10.2
	c0,5.9-44.1,3.6-43.7,11.4c0.3,4.9,31.3,5.8,30.7,10.9c-0.9,7.5-48.1,3.7-48.5,10.9c-0.3,5.2,23.1,5.4,23.1,10.2
	c0,4-18.4,6.2-53.6,6.2c-40.2,0-59.7-2.2-57.5-6.6c2.1-4.2,37.6-3.4,37.3-10c-0.4-6.6-63.2-4.7-65.1-11.1
	c-1.6-5.3,20.6-6.4,20.5-11.5c-0.1-5.1-28.4-4-29.1-10.2c-0.4-4.1,14.8-3.8,14.1-9c-0.5-3.7-6.8-3.2-10.5-10.9
	c-6-12.9-9.4-27.3-9.4-42.4c0-55.7,45.4-100.9,101.4-100.9s101.4,45.2,101.4,100.9C299.7,211.4,296.9,224.5,291.9,236.5L291.9,236.5
	z"/>
<path class="st2" d="M68.5,242.2c-4.8-14-7.5-28.9-7.5-44.6C61,122.2,122.5,61,198.3,61s137.2,61.2,137.2,136.6h0c0,0.4,0,0.7,0,1.1
	c-0.1,15.2-2.7,29.7-7.4,43.3c-2,5.8,1.2,8,4,9.8c1.7,1.1,3.2,2.2,3.3,3.8c0.1,2.8-5.6,4.2-11.3,5.6c-5.9,1.4-12,2.9-12,6
	c0,3,6,4.9,11.9,6.7c5.8,1.8,11.6,3.6,11.6,6.4c0,3.7-12.2,5.3-24.3,6.8c-11.8,1.5-23.6,3-23.9,6.5c-0.3,2.6,3.8,4.1,7.8,5.6
	c3.8,1.4,7.5,2.8,7.5,5.1c0,4.6-15.6,5.7-30.7,6.8c-14,1-27.5,2-28,5.7c-0.3,2.1,5.8,3,12.1,3.9c6.6,0.9,13.3,1.9,13.3,4.3
	c0,4.8-27.8,9.3-68.2,9.3s-77-3.5-77-9c0-2.9,7.5-3.8,14.8-4.7c6.7-0.8,13-1.6,13-3.8c0-2.8-12.3-3.7-25.9-4.7
	c-16.7-1.2-35.2-2.6-35.1-7.7c0-2.9,4.1-4.5,8-6c3.9-1.5,7.7-2.9,7.5-5.6c-0.3-3.4-10.7-4.5-21.5-5.6c-11.7-1.2-23.8-2.5-23.8-6.8
	c0-3,5.1-4.9,10.1-6.8c5-1.9,10.1-3.8,10.1-6.8c0-3.5-5.5-5-10.8-6.4c-4.9-1.3-9.6-2.6-9.6-5.4c0-1.5,1.6-2.8,3.4-4.2
	c2.6-2.1,5.5-4.4,4.3-8.1C68.8,243.1,68.5,242.3,68.5,242.2z M67.8,243.4c0.4,1.2,0.2,2.2-0.3,3.1c-0.5,1-1.4,1.9-2.5,2.8
	c-0.3,0.3-0.7,0.6-1.1,0.9c-0.7,0.6-1.5,1.2-2,1.7c-0.9,0.9-1.8,2-1.8,3.4c0,1.1,0.5,2,1.2,2.7c0.7,0.7,1.6,1.2,2.6,1.7
	c1.9,0.8,4.3,1.5,6.6,2.1c0.2,0.1,0.4,0.1,0.6,0.2c2.6,0.7,5,1.4,6.8,2.3c1.8,0.9,2.6,1.9,2.6,2.9c0,0.4-0.2,0.8-0.6,1.3
	c-0.4,0.5-1.1,1-2,1.5c-1.8,1-4.2,2-6.8,2.9l0,0c-2.5,1-5.1,1.9-7.1,3.1c-1,0.6-1.9,1.2-2.6,2c-0.7,0.8-1.1,1.7-1.1,2.8
	c0,1.6,1.1,2.8,2.5,3.5c1.4,0.8,3.2,1.4,5.4,1.9c4.3,1,10,1.6,15.6,2.2c0.4,0,0.9,0.1,1.3,0.1c5.2,0.5,10.2,1.1,14.1,1.8
	c2.1,0.4,3.8,0.9,4.9,1.4c1.2,0.6,1.5,1.1,1.5,1.3c0.1,0.7-0.4,1.4-1.7,2.3c-1.3,0.8-3.1,1.5-5.1,2.3l0,0c-1.9,0.7-4,1.5-5.6,2.5
	c-1.6,1-3,2.4-3,4.4c0,1.9,1.5,3.1,3.2,3.9c1.8,0.9,4.3,1.6,7.2,2.1c5.8,1.1,13.5,1.8,21.1,2.4c1.6,0.1,3.1,0.2,4.7,0.3
	c6,0.4,11.8,0.9,16.3,1.4c2.9,0.4,5.2,0.8,6.7,1.3c0.8,0.2,1.3,0.5,1.6,0.7c0.1,0.1,0.2,0.1,0.2,0.2c0,0,0,0,0,0.1
	c-0.1,0.1-0.3,0.2-0.6,0.4c-0.6,0.3-1.6,0.6-2.9,0.9c-2.3,0.5-5.4,0.9-8.6,1.3c-0.3,0-0.6,0.1-0.9,0.1c-3.5,0.4-7,0.9-9.7,1.6
	c-1.3,0.4-2.6,0.8-3.5,1.4c-0.9,0.6-1.7,1.5-1.7,2.7c0,1.3,1.1,2.3,2.2,2.9c1.2,0.7,2.9,1.3,5,1.9c4.1,1.1,10.1,2.1,17.2,2.9
	c14.3,1.6,33.5,2.4,53.8,2.4c20.2,0,37.3-1.1,49.4-2.8c6-0.9,10.8-1.9,14.2-3c1.7-0.6,3-1.2,4-1.8c0.9-0.6,1.7-1.5,1.7-2.7
	c0-1.2-0.8-2-1.6-2.5c-0.8-0.5-2-0.9-3.2-1.3c-2.5-0.7-5.8-1.1-9-1.6l-0.4-0.1c-3.1-0.4-6.1-0.8-8.3-1.4c-1.2-0.3-2-0.6-2.5-0.9
	c-0.3-0.2-0.4-0.3-0.4-0.3c0,0,0,0,0,0c0-0.1,0.1-0.3,0.4-0.6c0.3-0.3,0.9-0.6,1.7-0.9c1.6-0.6,3.8-1.1,6.5-1.5
	c5.1-0.8,11.6-1.3,18.3-1.8c0.6,0,1.1-0.1,1.7-0.1c7.3-0.5,14.6-1.1,20-2.1c2.7-0.5,5.1-1.1,6.8-1.9c1.6-0.8,3.1-2,3.1-3.8
	c0-0.9-0.4-1.7-1-2.3c-0.5-0.6-1.3-1.1-2.1-1.6c-1.5-0.8-3.4-1.5-5.2-2.2c-0.1,0-0.2-0.1-0.4-0.1c-2-0.7-3.8-1.5-5.1-2.3
	c-1.4-0.8-1.7-1.5-1.7-2.1c0-0.2,0.3-0.8,1.7-1.4c1.3-0.6,3.1-1.1,5.3-1.6c4.4-1,10.2-1.7,16-2.5l0.4-0.1c6-0.8,12-1.5,16.5-2.6
	c2.3-0.5,4.2-1.1,5.7-1.9c1.4-0.7,2.6-1.8,2.6-3.4c0-1.1-0.6-2.1-1.4-2.8c-0.8-0.7-1.8-1.3-3-1.9c-2.2-1-5.2-2-8-2.8l-0.2-0.1
	c-3-0.9-5.8-1.8-7.9-2.8c-1.1-0.5-1.9-1-2.4-1.5c-0.5-0.5-0.7-0.9-0.7-1.3v0c0-0.4,0.2-0.8,0.7-1.2c0.5-0.5,1.3-0.9,2.3-1.4
	c2.1-0.9,4.9-1.6,7.9-2.3l0.3-0.1c2.8-0.7,5.7-1.4,7.9-2.3c1.1-0.5,2.2-1,2.9-1.7c0.8-0.7,1.4-1.6,1.3-2.8v0c0-1.6-1-2.7-2.1-3.5
	c-0.5-0.4-1.1-0.8-1.6-1.2l-0.1,0c-0.5-0.4-1.1-0.7-1.6-1.1c-1-0.8-1.8-1.6-2.3-2.7c-0.4-1.1-0.5-2.5,0.3-4.7l0,0
	c4.8-14,7.5-29.1,7.5-44.8v-1.1h0C336,121,274.3,59.9,198.3,59.9c-76.4,0-138.4,61.7-138.4,137.7c0,15.7,2.7,30.8,7.5,44.9l0,0.1
	l0,0c0,0,0,0,0,0.1c0,0.1,0.1,0.2,0.1,0.3c0,0.1,0.1,0.2,0.1,0.3L67.8,243.4L67.8,243.4 M151,317.1C151,317.1,151,317.1,151,317.1
	C151,317.1,151,317.1,151,317.1z M291.9,236.5c5-11.9,7.8-25.1,7.8-38.8c0-55.7-45.4-100.9-101.4-100.9S96.9,141.9,96.9,197.7
	c0,15.2,3.4,29.5,9.4,42.4c2.1,4.3,4.9,6,7.1,7.4c1.8,1.1,3.1,1.9,3.3,3.6c0.3,2.7-3.8,3.9-7.6,5.1c-3.4,1-6.7,2-6.5,3.9
	c0.3,3.3,8.2,4.5,15.7,5.7c6.8,1.1,13.3,2.1,13.4,4.5c0.1,2.4-5.1,4-10.3,5.5c-5.5,1.6-11,3.2-10.2,6c0.9,3.2,16.8,4.3,32.6,5.4
	c16.2,1.2,32.3,2.3,32.5,5.6c0.2,3.7-11.1,5.1-21.3,6.3c-7.9,1-15.1,1.8-16,3.7c-2.2,4.5,17.3,6.6,57.5,6.6
	c35.3,0,53.7-2.2,53.6-6.2c0-2.3-5.6-3.6-11.2-4.8c-6-1.3-12.1-2.7-11.9-5.4c0.2-3.5,11.9-4.4,23.8-5.3c12.1-0.9,24.3-1.8,24.8-5.6
	c0.3-2.6-7.6-4.1-15.5-5.6c-7.6-1.4-15.1-2.9-15.3-5.3c-0.2-4.2,12.3-5.5,24-6.6c10.1-1,19.7-2,19.7-4.7c0-2.4-3.5-3.8-6.9-5.1
	c-3.5-1.4-6.9-2.7-6.3-5.1c0.5-1.8,2.5-2.6,5.1-3.5C284.1,244.7,289.1,242.9,291.9,236.5L291.9,236.5z M291,235.8
	c4.9-11.8,7.6-24.6,7.6-38.2c0-55.1-44.9-99.8-100.3-99.8C142.9,97.8,98,142.5,98,197.7c0,15,3.3,29.2,9.3,42c1.7,3.6,4,5.3,6,6.5
	c0.2,0.1,0.4,0.3,0.6,0.4c0.8,0.5,1.6,1,2.2,1.5c0.8,0.7,1.5,1.6,1.7,2.9l0,0c0.2,2-1.1,3.3-2.5,4.1c-1.5,0.8-3.4,1.5-5.2,2
	c-0.2,0.1-0.4,0.1-0.7,0.2c-1.6,0.5-3.1,0.9-4.2,1.4c-0.6,0.3-1,0.6-1.3,0.8c-0.2,0.2-0.2,0.4-0.2,0.5c0,0.3,0.3,0.7,1,1.2
	c0.7,0.5,1.7,0.9,3.1,1.3c2.7,0.8,6.2,1.4,9.8,2c0.3,0.1,0.7,0.1,1,0.2c3.2,0.5,6.5,1,9,1.7c1.4,0.4,2.6,0.8,3.5,1.3
	c0.9,0.5,1.8,1.4,1.8,2.6 M132.8,270.2c0,1.1-0.6,1.9-1.3,2.6c-0.7,0.6-1.7,1.2-2.7,1.6c-2,0.9-4.5,1.6-7,2.4
	c-0.2,0.1-0.4,0.1-0.5,0.2c-2.7,0.8-5.2,1.6-7,2.4c-0.9,0.4-1.5,0.9-1.8,1.2c-0.3,0.3-0.3,0.5-0.2,0.8v0c0,0,0,0,0.1,0.1
	c0.1,0.1,0.2,0.2,0.5,0.3c0.5,0.3,1.1,0.6,2,0.8c1.8,0.5,4.4,1,7.4,1.4c6,0.8,13.8,1.4,21.6,1.9l0.5,0c8,0.6,16,1.1,22,2
	c3,0.4,5.6,0.9,7.4,1.5c0.9,0.3,1.7,0.7,2.3,1.1c0.6,0.4,1.2,1.1,1.2,2c0.1,1.4-0.8,2.4-1.9,3.1c-1.1,0.7-2.6,1.3-4.3,1.7
	c-3.4,0.9-8,1.6-12.5,2.2c-1.2,0.2-2.4,0.3-3.6,0.4c-3.3,0.4-6.5,0.8-9.2,1.3c-1.8,0.3-3.3,0.6-4.4,1c-0.5,0.2-0.9,0.4-1.2,0.5
	c-0.3,0.2-0.4,0.3-0.3,0.3l0,0c-0.1,0.1-0.1,0.2-0.1,0.2c0,0,0,0.1,0.1,0.2c0.2,0.3,0.7,0.6,1.8,1c2,0.8,5.4,1.5,10.2,2
	c9.6,1.1,24.4,1.6,44.5,1.6c17.6,0,31-0.5,39.9-1.6c4.5-0.5,7.8-1.2,9.9-1.9c1.1-0.4,1.8-0.7,2.2-1.1c0.4-0.3,0.4-0.5,0.4-0.5v0
	c0-0.1-0.1-0.3-0.6-0.7c-0.5-0.4-1.3-0.8-2.4-1.1c-2-0.7-4.7-1.3-7.4-1.9l-0.4-0.1c-2.9-0.6-5.9-1.3-8.1-2.2
	c-1.1-0.4-2.1-0.9-2.9-1.6c-0.8-0.6-1.4-1.5-1.3-2.7c0.1-1.6,1.5-2.5,2.8-3.2c1.5-0.7,3.5-1.1,5.7-1.5c4.5-0.8,10.3-1.2,16.2-1.6
	l0.4,0c6-0.4,11.9-0.9,16.4-1.7c2.3-0.4,4.1-0.9,5.3-1.4c1.3-0.6,1.6-1.1,1.7-1.4c0,0,0-0.1-0.1-0.2c-0.1-0.1-0.3-0.3-0.6-0.5
	c-0.7-0.4-1.7-0.9-3.1-1.3c-2.8-0.9-6.5-1.6-10.4-2.3l-0.5-0.1c-3.7-0.7-7.4-1.4-10.3-2.3c-1.5-0.4-2.8-0.9-3.8-1.5
	c-0.9-0.5-1.9-1.3-2-2.6v0c-0.1-1.6,1-2.7,2.3-3.5c1.3-0.8,3.1-1.4,5.2-1.9c4.2-1,9.7-1.6,15.2-2.2c0.8-0.1,1.6-0.2,2.3-0.2
	c4.7-0.5,9.2-0.9,12.7-1.6c2-0.4,3.7-0.8,4.7-1.2c0.5-0.2,0.9-0.5,1.1-0.6c0.1-0.1,0.1-0.1,0.1-0.2c0,0,0,0,0,0
	c0-0.6-0.4-1.3-1.7-2.1c-1.2-0.7-2.8-1.4-4.6-2.1l-0.1,0c-1.7-0.7-3.5-1.4-4.8-2.3c-0.7-0.4-1.3-1-1.7-1.7c-0.4-0.7-0.6-1.5-0.3-2.4
	c0.4-1.6,1.7-2.5,3-3.2c0.7-0.3,1.4-0.6,2.2-0.9c0.2-0.1,0.3-0.1,0.5-0.2c0.6-0.2,1.3-0.5,1.9-0.7c3.3-1.3,6.9-3.3,9.1-8.3l0.1-0.2
	l0,0"/>
</svg>
