<?xml version="1.0" encoding="utf-8"?>
<!-- Generator: Adobe Illustrator 24.0.0, SVG Export Plug-In . SVG Version: 6.00 Build 0)  -->
<svg version="1.1" id="CIRCLE_OUTLINE_BLACK" xmlns="http://www.w3.org/2000/svg" xmlns:xlink="http://www.w3.org/1999/xlink"
	 x="0px" y="0px" viewBox="0 0 512 512" style="enable-background:new 0 0 512 512;" xml:space="preserve">
<style type="text/css">
	.st0{fill:#FF0000;}
	.st1{fill:#FFFFFF;}
</style>
<circle cx="256" cy="256" r="256"/>
<circle class="st0" cx="256" cy="256" r="191.9"/>
<path class="st1" d="M371.8,216.6h34.1v26.8h-33.2v12.7h31.5c1,1.8,1.6,2.4,1.7,3c1.8,23.9,1.7,24.4-22.4,23.7
	c-10.3-0.3-16.1,1.7-20.7,12.4c-20.8,48-83.5,46.5-104.4,11.4c-0.5-0.9-1.5-1.4-2.9-2.7c-11.9,17.4-27.6,27.8-49.1,27.9
	c-27.8,0.2-48.8-13.5-59.5-40.3c-2.7-6.7-5.9-9.1-12.9-8.6c-8.8,0.6-17.7,0.2-27.6,0.2v-26.7h32.6v-12.7h-33.4v-26.4h34v-37.3h27.1
	c2.9,14,11.7,21,26.4,21c42,0,84.1,0,126.1,0c14.5,0,23-7,25.5-21.1h27.1V216.6L371.8,216.6z M279.6,245.3
	c-0.3,22.3,10,34.5,27.5,33.5c16.1-0.9,25.7-14.7,22.7-33.5H279.6L279.6,245.3z M232,245.6h-51c-0.8,20.8,8.2,32.8,24.4,33.2
	C222.2,279.3,232,267.5,232,245.6z"/>
</svg>
