<?xml version="1.0" encoding="utf-8"?>
<!-- Generator: Adobe Illustrator 24.0.0, SVG Export Plug-In . SVG Version: 6.00 Build 0)  -->
<svg version="1.1" id="Layer_1" xmlns="http://www.w3.org/2000/svg" xmlns:xlink="http://www.w3.org/1999/xlink" x="0px" y="0px"
	 viewBox="0 0 44.1 30.5" style="enable-background:new 0 0 44.1 30.5;" xml:space="preserve">
<style type="text/css">
	.st0{fill:#030305;}
</style>
<title>black_Noia</title>
<g id="Group-40">
	<g id="Fill-7-Clipped">
		<g>
			<polygon id="Fill-7" class="st0" points="2,28.5 2.9,28.5 2.9,14.8 2,14.8 			"/>
		</g>
	</g>
	<g id="Fill-8-Clipped">
		<g>
			<polygon id="Fill-8" class="st0" points="41.4,16.3 42.3,16.3 42.3,2.3 41.4,2.3 			"/>
		</g>
	</g>
	<g id="Fill-9-Clipped">
		<g>
			<polygon id="Fill-9" class="st0" points="21.8,22.2 36,22.2 36,21.3 21.8,21.3 			"/>
		</g>
	</g>
	<g id="Fill-10-Clipped">
		<g>
			<polygon id="Fill-10" class="st0" points="2.4,22.2 9.6,22.2 9.6,21.3 2.4,21.3 			"/>
		</g>
	</g>
	<g id="Fill-11-Clipped">
		<g>
			<polygon id="Fill-11" class="st0" points="2.4,15.7 41.8,15.7 41.8,14.8 2.4,14.8 			"/>
		</g>
	</g>
	<g id="Fill-12-Clipped">
		<g>
			<polygon id="Fill-12" class="st0" points="35,9.3 41.8,9.3 41.8,8.4 35,8.4 			"/>
		</g>
	</g>
	<g id="Fill-13-Clipped">
		<g>
			<polygon id="Fill-13" class="st0" points="8.9,9.3 23.7,9.3 23.7,8.4 8.9,8.4 			"/>
		</g>
	</g>
	<g id="Fill-14-Clipped">
		<g>
			<polygon id="Fill-14" class="st0" points="34.8,22.1 35.7,22.1 35.7,7.7 34.8,7.7 			"/>
		</g>
	</g>
	<g id="Fill-15-Clipped">
		<g>
			<polygon id="Fill-15" class="st0" points="28.2,28.2 29.1,28.2 29.1,14.4 28.2,14.4 			"/>
		</g>
	</g>
	<g id="Fill-16-Clipped">
		<g>
			<polygon id="Fill-16" class="st0" points="21.7,22.7 22.6,22.7 22.6,8.1 21.7,8.1 			"/>
		</g>
	</g>
	<g id="Fill-17-Clipped">
		<g>
			<polygon id="Fill-17" class="st0" points="15.1,15.7 16,15.7 16,1.2 15.1,1.2 			"/>
		</g>
	</g>
	<g id="Fill-18-Clipped">
		<g>
			<polygon id="Fill-18" class="st0" points="8.6,22.6 9.5,22.6 9.5,8.1 8.6,8.1 			"/>
		</g>
	</g>
	<g id="Fill-19-Clipped">
		<g>
			<path id="Fill-19" class="st0" d="M4.8,21.7c0-1.3-1.1-2.3-2.3-2.3c-1.3-0.1-2.4,0.9-2.4,2.1c-0.1,1.3,0.9,2.4,2.1,2.4
				c0.1,0,0.2,0,0.3,0C3.7,24,4.8,23,4.8,21.7C4.8,21.7,4.8,21.7,4.8,21.7"/>
		</g>
	</g>
	<g id="Fill-20-Clipped">
		<g>
			<path id="Fill-20" class="st0" d="M11.3,21.7c0-1.3-1-2.3-2.3-2.4c-1.3,0-2.3,1-2.4,2.3C6.7,23,7.7,24,9,24c0,0,0,0,0,0
				C10.3,24,11.3,23,11.3,21.7"/>
		</g>
	</g>
	<g id="Fill-21-Clipped">
		<g>
			<path id="Fill-21" class="st0" d="M24.5,21.7c0-1.3-1-2.3-2.3-2.4c-1.3,0-2.3,1-2.4,2.3c0,1.3,1,2.3,2.3,2.4c0,0,0,0,0,0
				C23.4,24,24.4,23,24.5,21.7"/>
		</g>
	</g>
	<g id="Fill-22-Clipped">
		<g>
			<path id="Fill-22" class="st0" d="M31,21.7c0-1.3-1-2.3-2.3-2.4s-2.3,1-2.4,2.3c0,1.3,1,2.3,2.3,2.4c0,0,0,0,0,0
				C30,24,31,23,31,21.7"/>
		</g>
	</g>
	<g id="Fill-23-Clipped">
		<g>
			<path id="Fill-23" class="st0" d="M37.6,21.7c0-1.3-1-2.3-2.3-2.4s-2.3,1-2.4,2.3c0,1.3,1,2.3,2.3,2.4c0,0,0,0,0,0
				C36.5,24,37.6,23,37.6,21.7"/>
		</g>
	</g>
	<g id="Fill-24-Clipped">
		<g>
			<path id="Fill-24" class="st0" d="M4.8,28.2c0-1.3-1.1-2.3-2.3-2.3c0,0,0,0,0,0C1.2,25.8,0.1,26.8,0,28c-0.1,1.3,0.9,2.4,2.1,2.4
				c0.1,0,0.2,0,0.3,0C3.7,30.5,4.8,29.5,4.8,28.2"/>
		</g>
	</g>
	<g id="Fill-25-Clipped">
		<g>
			<path id="Fill-25" class="st0" d="M31,28.2c0-1.3-1-2.3-2.3-2.4s-2.3,1-2.4,2.3c0,1.3,1,2.3,2.3,2.4c0,0,0,0,0,0
				C30,30.5,31,29.5,31,28.2C31,28.2,31,28.2,31,28.2"/>
		</g>
	</g>
	<g id="Fill-26-Clipped">
		<g>
			<path id="Fill-26" class="st0" d="M4.8,15.3C4.8,14,3.7,13,2.5,13c-1.3,0-2.3,1-2.3,2.3c0,1.3,1,2.3,2.3,2.3c0,0,0,0,0,0
				C3.7,17.6,4.8,16.5,4.8,15.3"/>
		</g>
	</g>
	<g id="Fill-27-Clipped">
		<g>
			<path id="Fill-27" class="st0" d="M11.3,15.3c0-1.3-1-2.3-2.3-2.4c-1.3,0-2.3,1-2.4,2.3c0,1.3,1,2.3,2.3,2.4c0,0,0,0,0,0
				C10.3,17.6,11.3,16.5,11.3,15.3"/>
		</g>
	</g>
	<g id="Fill-28-Clipped">
		<g>
			<path id="Fill-28" class="st0" d="M17.9,15.3c0-1.3-1-2.3-2.3-2.4c-1.3,0-2.3,1-2.4,2.3s1,2.3,2.3,2.4c0,0,0,0,0,0
				C16.8,17.6,17.9,16.5,17.9,15.3"/>
		</g>
	</g>
	<g id="Fill-29-Clipped">
		<g>
			<path id="Fill-29" class="st0" d="M24.5,15.3c0-1.3-1-2.3-2.3-2.4c-1.3,0-2.3,1-2.4,2.3s1,2.3,2.3,2.4c0,0,0,0,0,0
				C23.4,17.6,24.4,16.5,24.5,15.3"/>
		</g>
	</g>
	<g id="Fill-30-Clipped">
		<g>
			<path id="Fill-30" class="st0" d="M31,15.3c0-1.3-1-2.3-2.3-2.4c-1.3,0-2.3,1-2.4,2.3c0,1.3,1,2.3,2.3,2.4c0,0,0,0,0,0
				C30,17.6,31,16.5,31,15.3"/>
		</g>
	</g>
	<g id="Fill-31-Clipped">
		<g>
			<path id="Fill-31" class="st0" d="M37.6,15.3c0-1.3-1-2.3-2.3-2.4c-1.3,0-2.3,1-2.4,2.3c0,1.3,1,2.3,2.3,2.4c0,0,0,0,0,0
				C36.5,17.6,37.6,16.5,37.6,15.3"/>
		</g>
	</g>
	<g id="Fill-32-Clipped">
		<g>
			<path id="Fill-32" class="st0" d="M44.1,15.3c0-1.3-1-2.3-2.3-2.4c-1.3,0-2.3,1-2.4,2.3c0,1.3,1,2.3,2.3,2.4c0,0,0,0,0,0
				C43.1,17.6,44.1,16.5,44.1,15.3"/>
		</g>
	</g>
	<g id="Fill-33-Clipped">
		<g>
			<path id="Fill-33" class="st0" d="M11.3,8.8c0-1.3-1-2.3-2.3-2.4c-1.3,0-2.3,1-2.4,2.3s1,2.3,2.3,2.4c0,0,0,0,0,0
				C10.3,11.1,11.3,10.1,11.3,8.8C11.3,8.8,11.3,8.8,11.3,8.8"/>
		</g>
	</g>
	<g id="Fill-34-Clipped">
		<g>
			<path id="Fill-34" class="st0" d="M17.9,8.8c0-1.3-1-2.3-2.3-2.4s-2.3,1-2.4,2.3s1,2.3,2.3,2.4c0,0,0,0,0,0
				C16.8,11.1,17.9,10.1,17.9,8.8C17.9,8.8,17.9,8.8,17.9,8.8"/>
		</g>
	</g>
	<g id="Fill-35-Clipped">
		<g>
			<path id="Fill-35" class="st0" d="M24.5,8.8c0-1.3-1-2.3-2.3-2.4s-2.3,1-2.4,2.3s1,2.3,2.3,2.4c0,0,0,0,0,0
				C23.4,11.1,24.4,10.1,24.5,8.8C24.5,8.8,24.5,8.8,24.5,8.8"/>
		</g>
	</g>
	<g id="Fill-36-Clipped">
		<g>
			<path id="Fill-36" class="st0" d="M37.6,8.8c0-1.3-1-2.3-2.3-2.4s-2.3,1-2.4,2.3c0,1.3,1,2.3,2.3,2.4c0,0,0,0,0,0
				C36.5,11.1,37.6,10.1,37.6,8.8C37.6,8.8,37.6,8.8,37.6,8.8"/>
		</g>
	</g>
	<g id="Fill-37-Clipped">
		<g>
			<path id="Fill-37" class="st0" d="M44.1,8.8c0-1.3-1-2.3-2.3-2.4s-2.3,1-2.4,2.3c0,1.3,1,2.3,2.3,2.4c0,0,0,0,0,0
				C43.1,11.1,44.1,10.1,44.1,8.8C44.1,8.8,44.1,8.8,44.1,8.8"/>
		</g>
	</g>
	<g id="Fill-38-Clipped">
		<g>
			<path id="Fill-38" class="st0" d="M17.9,2.3c0-1.3-1-2.3-2.3-2.3c-1.3,0-2.3,1-2.3,2.3c0,1.3,1,2.3,2.3,2.3
				C16.9,4.7,17.9,3.6,17.9,2.3"/>
		</g>
	</g>
	<g id="Fill-39-Clipped">
		<g>
			<path id="Fill-39" class="st0" d="M44.1,2.3c0-1.3-1-2.3-2.3-2.3c-1.3,0-2.3,1-2.3,2.3c0,1.3,1,2.3,2.3,2.3
				C43.1,4.7,44.1,3.6,44.1,2.3"/>
		</g>
	</g>
</g>
</svg>
