<?xml version="1.0" encoding="utf-8"?>
<!-- Generator: Adobe Illustrator 24.0.0, SVG Export Plug-In . SVG Version: 6.00 Build 0)  -->
<svg version="1.1" id="CIRCLE_OUTLINE_BLACK" xmlns="http://www.w3.org/2000/svg" xmlns:xlink="http://www.w3.org/1999/xlink"
	 x="0px" y="0px" viewBox="0 0 512 512" style="enable-background:new 0 0 512 512;" xml:space="preserve">
<style type="text/css">
	.st0{fill:none;}
	.st1{fill:#27A4E0;}
	.st2{fill:#F81515;}
	.st3{fill:#FBB92B;}
	.st4{fill:#54E226;}
</style>
<path class="st0" d="M34.8,385h442.3c0-0.1,0.1-0.1,0.1-0.2H34.7C34.8,384.9,34.8,384.9,34.8,385z"/>
<path class="st0" d="M0,256C0,256,0,256.1,0,256l512,0.1c0,0,0-0.1,0-0.1c0,0,0-0.1,0-0.1L0,256C0,255.9,0,256,0,256z"/>
<path class="st0" d="M34.8,127c0,0.1-0.1,0.1-0.1,0.2h442.5c0-0.1-0.1-0.1-0.1-0.2H34.8z"/>
<path class="st1" d="M256,0C161.7,0,79.2,51,34.8,127h442.3C432.8,51,350.3,0,256,0z"/>
<path class="st2" d="M0,255.9h512c0-46.9-12.7-90.9-34.7-128.7H34.7C12.7,165,0,209,0,255.9z"/>
<path class="st3" d="M34.7,384.8h442.5C499.3,347,512,303,512,256.1H0C0,303,12.7,347,34.7,384.8z"/>
<path class="st4" d="M256,512c94.3,0,176.8-51,221.2-127H34.8C79.2,461,161.7,512,256,512z"/>
</svg>
