<?xml version="1.0" encoding="utf-8"?>
<!-- Generator: Adobe Illustrator 24.0.0, SVG Export Plug-In . SVG Version: 6.00 Build 0)  -->
<svg version="1.1" id="Layer_1" xmlns="http://www.w3.org/2000/svg" xmlns:xlink="http://www.w3.org/1999/xlink" x="0px" y="0px"
	 viewBox="0 0 44.8 44.8" style="enable-background:new 0 0 44.8 44.8;" xml:space="preserve">
<style type="text/css">
	.st0{fill-rule:evenodd;clip-rule:evenodd;fill:#06070A;}
</style>
<path class="st0" d="M22.4,3.2c-10.6,0-19.2,8.6-19.2,19.2c0,10.6,8.6,19.2,19.2,19.2h11.5c-3.4,2-7.3,3.2-11.5,3.2
	C10,44.8,0,34.7,0,22.4C0,10,10,0,22.4,0c12.4,0,22.4,10,22.4,22.4c0,1.1-0.1,2.2-0.2,3.2h-3.2c0.2-1,0.3-2.1,0.3-3.2
	C41.6,11.8,33,3.2,22.4,3.2z"/>
<path class="st0" d="M40.8,35.2C40,36.3,39,37.4,38,38.4H33H22.4c-8.8,0-16-7.2-16-16c0-8.8,7.2-16,16-16s16,7.2,16,16
	c0,1.1-0.1,2.2-0.3,3.2h-3.3c0.3-1,0.4-2.1,0.4-3.2c0-7.1-5.7-12.8-12.8-12.8c-7.1,0-12.8,5.7-12.8,12.8c0,7.1,5.7,12.8,12.8,12.8
	H32h4.7H40.8z"/>
<path class="st0" d="M42.6,32C42.6,32,42.6,32,42.6,32c0.5-1,0.9-2.1,1.2-3.2h-3.4H37h-3.6h-3.9h-7.2c-3.5,0-6.4-2.9-6.4-6.4
	c0-3.5,2.9-6.4,6.4-6.4c3.5,0,6.4,2.9,6.4,6.4c0,1.2-0.3,2.3-0.9,3.2h3.5c0.4-1,0.5-2.1,0.5-3.2c0-5.3-4.3-9.6-9.6-9.6
	c-5.3,0-9.6,4.3-9.6,9.6c0,5.3,4.3,9.6,9.6,9.6h8.5h4.3H39H42.6z"/>
</svg>
