<?xml version="1.0" encoding="utf-8"?>
<!-- Generator: Adobe Illustrator 24.0.0, SVG Export Plug-In . SVG Version: 6.00 Build 0)  -->
<svg version="1.1" id="Layer_1" xmlns="http://www.w3.org/2000/svg" xmlns:xlink="http://www.w3.org/1999/xlink" x="0px" y="0px"
	 viewBox="0 0 2714 2714" style="enable-background:new 0 0 2714 2714;" xml:space="preserve">
<style type="text/css">
	.st0{fill:#B2B2B2;}
</style>
<path d="M1124,1159l86,254h-194l91-254H1124z M1588,1549h-142v50h350v-50h-140v-400h140v-50h-350v50h142V1549z M949,1599l48-134h231
	l45,134h74l-180-500h-102l-183,500H949z M2075,2075H639V639h1436V2075z"/>
<path class="st0" d="M1497,2714c641-66,1151-576,1217-1217h-169c-60,556-481,999-1048,1062V2714z"/>
<path class="st0" d="M0,1497c66,641,576,1151,1217,1217v-155c-567-63-987-507-1048-1062H0z"/>
<path class="st0" d="M2714,1217C2648,576,2138,66,1497,0v155c567,63,987,507,1048,1062H2714z"/>
<path class="st0" d="M1217,0C576,66,66,576,0,1217h169c60-556,481-999,1048-1062V0z"/>
</svg>
