<?xml version="1.0" encoding="utf-8"?>
<!-- Generator: Adobe Illustrator 24.0.0, SVG Export Plug-In . SVG Version: 6.00 Build 0)  -->
<svg version="1.1" id="CIRCLE_OUTLINE_BLACK" xmlns="http://www.w3.org/2000/svg" xmlns:xlink="http://www.w3.org/1999/xlink"
	 x="0px" y="0px" viewBox="0 0 512 512" style="enable-background:new 0 0 512 512;" xml:space="preserve">
<style type="text/css">
	.st0{fill:#FFFFFF;}
</style>
<circle cx="256" cy="256" r="256"/>
<path class="st0" d="M166.2,153.6h69.5v-40.5H140c-7.9,0-14.3,6.4-14.3,14.3v26.2h0l0,81.8h-21.3v40.5h21.3l0,83.7l0,0v26.2
	c0,7.9,6.4,14.3,14.3,14.3h95.7v-40.5h-69.5L166.2,153.6L166.2,153.6z"/>
<path class="st0" d="M407.5,275.9v-40.5h-21.2l0-83.1l0,0v-26.2c0-7.9-6.4-14.3-14.3-14.3h-95.7v40.5h69.5l0,205.9h-69.5v40.5h95.7
	c7.9,0,14.3-6.4,14.3-14.3v-26.2h0l0-82.4H407.5z"/>
<path class="st0" d="M314.9,254.5c0-32.8-26.7-59.5-59.5-59.5S196,221.7,196,254.5s26.7,59.5,59.5,59.5S314.9,287.2,314.9,254.5z
	 M255.5,275.9c-11.8,0-21.5-9.6-21.5-21.5s9.6-21.5,21.5-21.5c11.8,0,21.5,9.6,21.5,21.5C276.9,266.3,267.3,275.9,255.5,275.9z"/>
</svg>
