<?xml version="1.0" encoding="utf-8"?>
<!-- Generator: Adobe Illustrator 24.0.0, SVG Export Plug-In . SVG Version: 6.00 Build 0)  -->
<svg version="1.1" id="Capa_1" xmlns="http://www.w3.org/2000/svg" xmlns:xlink="http://www.w3.org/1999/xlink" x="0px" y="0px"
	 viewBox="0 0 2000 2000" style="enable-background:new 0 0 2000 2000;" xml:space="preserve">
<style type="text/css">
	.st0{fill:#FB0001;}
	.st1{fill:#FFFFFF;}
	.st2{fill:#FFFFFF;stroke:#FFFFFF;stroke-width:69.6218;stroke-linejoin:round;stroke-miterlimit:42.5;}
	.st3{fill:#BE251E;}
</style>
<rect class="st0" width="2000" height="2000"/>
<g transform="translate(30.0,40.0) scale(0.85)">
	<g>
		<g>
			<path class="st1" d="M501.7,389.7c3,0,5.5,0,8.5,0.5s6,0,9,0.5c3.5,0,7,1,10.5,1.5c3,0.5,6,1,8.5,1.5c3.5,1,7,1.5,10.5,2.5
				c2.5,1,5.5,1.5,8,2c3.5,1,7,2.5,10,3.5c2.5,1,5,2,7.5,3c3.5,1.5,7,3,10.5,4.5c2.5,1,5,2,7,3c4,2,7,3.5,11,5.5c2,1,4,2,6,3.5
				c4,2,8,4.5,12,7c1.5,1,3,2,4.5,3l16,11c9.5,6.5,19,13.5,28,20.5c27.5,21.5,53.5,44.5,81,65.5c2,1.5,4,2.5,7,3c1,0,1.5,0,2.5,0.5
				c2,0.5,3.5,1,5.5,1c0.5,0,1,0,1.5,0c1,0,2,0,2.5,0s1.5,0,2,0c2-0.5,4-1,5.5-2c68.5-40,142-65,220-77c24.5-4,49.5-6,74-9.5
				c24.5,0,49.5-0.5,74-0.5c73.5,4,146,16,213.5,44.5c45,19,87.5,43,131,66c2,1,4,2,5.5,3l0,0c0,0,1.5,1,2.5,1c1,0.5,2,1,3,1
				c0.5,0.5,1.5,0.5,2,1c1,0.5,2,0.5,2.5,1c1,0,1.5,0,2,0.5c1,0,2,0,2.5,0c1,0,2,0,3-0.5c0.5,0,1.5,0,2,0c1-0.5,2-1,3-1.5
				c0.5,0,1-0.5,2-1c1-0.5,2.5-1.5,3.5-2.5c0.5-0.5,1-1,2-1.5c1.5-1,3-3,5-4.5l1-1c51-56,104-110,177.5-140c11.5-5,23.5-9,35-11.5
				c7.5-2,15-3.5,22-4.5c1,0,1.5,0,2.5-0.5c7-1,14-1.5,21-1.5h4.5c3,0,5.5,0,8,0c2,0,4,0.5,6,0.5c3,0.5,5.5,1,8.5,1
				c2,0,3.5,0.5,5.5,1c3,0.5,6,1.5,9.5,2c1.5,0.5,3,0.5,5,1c4.5,1.5,9.5,3,14,4.5c15.5,6,28.5,13.5,39,22.5
				c32,27.5,42.5,68.5,44.5,113c3,68-11.5,135.5-29,200.5c-26,96.5-57,192-88.5,287c-10,29.5-5,56-3,85.5c4,59.5,16.5,119,5,180.5
				c-7,37-2,78,6.5,115.5c2.5,11,4.5,21.5,6,32c0.5,2.5,0.5,5,0.5,7c1,8,2,16,2.5,24.5v10c0,7,0.5,14,0,21c0,4-0.5,8-1,12
				c-0.5,6-1,12.5-1.5,18.5c-0.5,2-0.5,4.5-1,6.5c-0.5,2-0.5,4.5-1,6.5c-1,6-2,11.5-3,17c-1,5-2,9.5-3,14c-1,5.5-2.5,11-4,16
				c-1,5-3,9.5-4,14c-1.5,5-3.5,10.5-5,16c-1.5,4.5-3.5,9-5,13.5c-0.5,1.5-1,3-2,4.5c-0.5,1.5-1,3-2,5c0,0-6.5,30.5-45.5,81.5
				c-0.5,0.5-1,1-1.5,2c-4,5.5-9,11-14,17l0,0c-1,2-2,4-3,5c-4,4-7.5,8-12,12c-2,2-3.5,4-5.5,6c-9.5,10.5-19,21-30,30
				c-14.5,12-29.5,23-45,34c0,0,0,0-0.5,0c-5.5,4-67,45.5-181,84.5c-63.5,21.5-143.5,42.5-239,55c-6,1-12.5,2-19.5,3
				c-5,0-22,4-27,4.5c-2.5,0-5,0-7.5,0c-28.5,3.5-57,5-85,5c-11.5,0-23,0-34-1c-28-1-56-3.5-82.5-7c-80-10-151-29-199.5-44
				c-3.5-1-7-2-10-3c-4.5-1.5-8.5-3-12.5-4c-7-2.5-13.5-5-19-6.5c-3-1-5.5-2-8-3c-10-4-16-6-17.5-7l0,0c-48-19.5-94-45-136.5-79
				c-46-36.5-82.5-78-111.5-124.5c-10-16-19-32-27-49c-0.5-1-1-2-1.5-3c-73-131-30-262-27-271c0-0.5,0-0.5,0-0.5c1.5-7,3-13.5,5-20
				c2-6.5,4-13,6-20c0.5-2,1-4,1.5-6c1-5.5,2-11.5,2-17.5c0-17-1.5-34.5-2.5-52c-0.5-25-0.5-50-1-75c-0.5-6.5-0.5-13-0.5-20
				c0-17.5,1-34.5,3.5-52c3.5-23.5,9-47,16.5-69.5c1.5-4,2-8,3-11.5c2-11.5,0-22.5-2.5-33.5c-2-7-4-14.5-6.5-21.5
				c-2-7-4.5-14-6-21.5c-18-92-38.5-184-60.5-275c-10-41.5-14-83.5-14-125.5c0-8,0-16,0.5-23.5c3-89,52.5-142,142.5-148.5
				c3,0,6-0.5,9-0.5L501.7,389.7"/>
			<path class="st2" d="M1836.2,1031.7c-7,20.5-5,40-3,62.5c0.5,5,1,10,1,15c1,15,2.5,30,4,44.5c5,45.5,10,92,0.5,141
				c-5.5,28-3.5,63.5,6.5,107c2.5,12,5,23.5,6,33c0.5,2.5,0.5,4.5,0.5,7v1c1,9,2,17,2.5,27v9.5c0,7.5,0.5,15,0,22.5c0,2,0,4-0.5,6.5
				c0,2-0.5,3.5-0.5,5.5v1c-0.5,6-1,12.5-1.5,18.5v1.5c0,0-0.5,1.5-0.5,2.5c0,1.5-0.5,3-0.5,4c0,1,0,1.5-0.5,2.5
				c0,1.5-0.5,3-0.5,3.5c-1,6-2,12-3,18.5c-1,5-2,10-3,14c-1,5.5-2.5,11-4,17c-1,3-2,6.5-3,9.5l-1.5,5c-2,5.5-3.5,11-5.5,17
				c-1.5,4.5-3.5,9.5-5,13.5l-1,2.5l-1,2c-0.5,1.5-1,3-2,4.5c-1,4.5-4.5,14.5-12,29.5s-19,34-37,57.5v0.5l-1.5,1.5
				c-4,5-8,10-13,15.5c-2,3-4,5.5-6,8c-2,2-3.5,4-5.5,5.5c-2,2-4,4.5-6,6l-5,6c-10,11.5-20.5,22.5-32.5,32c-14,11-29,22.5-44.5,34
				l-5,5h-1.5c-17.5,12-78,48.5-180.5,83.5c-76,26-157.5,44.5-242.5,56c-7,1.5-14,2.5-22,3c-2.5,0-6.5,1-11,2
				c-8,1.5-12.5,2.5-17,2.5h-5c-28,3.5-57.5,5-87.5,5c-11.5,0-23-0.5-35-1c-28-1-56-3.5-84-7c-66-8.5-134.5-23.5-202.5-44.5
				c-2.5-0.5-5-1.5-7-2l-3.5-1l-5-2c-2.5-1-4.5-1.5-7-2h-0.5l-0.5-0.5c-7-2.5-13-4.5-19-6.5c-2.5-1-5.5-2-7.5-2.5l-1-0.5h-0.5
				c-12.5-5-16.5-6.5-18.5-7.5l-1-0.5c-50.5-21-97.5-48-138.5-80.5c-46.5-37-84.5-79.5-116-129.5c-10-16.5-19.5-33.5-28-51.5l-1-1.5
				c-74.5-134-34-269.5-28.5-287c1.5-7,3-13.5,5-20c2-7,4-14,6.5-20.5v-1c0.5-1,0.5-2.5,1-3.5c1-4.5,1.5-9,1.5-12.5
				c0-11-1-22.5-1.5-34c-0.5-6-1-11.5-1-18c-0.5-25-0.5-50-1-74.5c-0.5-7-0.5-13.5-0.5-20.5c0-19.5,1-37,3.5-54.5
				c3.5-24.5,9.5-49,17.5-73.5c1-2,1.5-5,2-8c1-7,0.5-15-2-25.5c-1-5-3-10-4.5-15l-2-5.5l-0.5-1.5c-2-7-4-14-6-22
				c-17-86.5-36.5-176-60-274c-10-40-14.5-82.5-14.5-130.5c0-8,0-16,0.5-24c3-99,62-160.5,162-168c3.5,0,6.5-0.5,10-0.5h4.5
				c3,0,6,0,10,0.5h2.5c2.5,0,4.5,0.5,7,0.5c4,0,7.5,1,11,1.5h1c3,0.5,6,1,9.5,2s7,2,11.5,3c1,0.5,2.5,0.5,3.5,1c1.5,0.5,3,1,4.5,1
				c3,1,5.5,2,8,3l2.5,1c3,1,6.5,2,9,3c4,1.5,8,3.5,11,5c3,1,6,2.5,8.5,4c4,2,7.5,4,12,6.5c0.5,0.5,1,1,2,1c1.5,0.5,3,1.5,3.5,2
				c4,2.5,8.5,5,12.5,7.5l0.5,0.5l0.5,0.5c0,0,1.5,1,2,1l1,0.5l1,0.5l6.5,4.5l10,6.5c9.5,7,19,13.5,29,21.5
				c12.5,9.5,24.5,20,36.5,29.5c14,12,29,24,44,35.5c0.5,0,1.5,0,2,0.5c0.5,0,1,0.5,1,0.5h2h1c68.5-39.5,144.5-66,226-79
				c16-2.5,32.5-4.5,48-6c9-1,18-2,26.5-3h1h1l75.5-2h1c85,4.5,157,19.5,220,46c36,15,71,34,104.5,52c9.5,5,19,10,28,15l2,1
				c0,0,2,1,2.5,1l3,1.5l2,0.5l0.5,1h0.5l1-0.5l1-1l0,0v-0.5l1-1c0,0,1-1,2-2l0.5-0.5l0.5-0.5l0.5-0.5c50.5-56,106.5-113,185-145
				c13-5.5,26-9.5,37.5-12.5c7.5-2,15.5-3.5,24-5c0.5,0,1.5,0,2,0h0.5h0.5c7.5-1,15.5-1.5,24-1.5h4.5c1.5,0,3,0,5,0h6
				c0,0,2,0.5,3,0.5h3l8,1.5c1,0,2.5,0.5,4,0.5h1.5h1h1c3,1,6,1.5,9,2l1.5,0.5h1c1,0.5,2.5,0.5,4.5,1l1.5,0.5
				c4.5,1.5,9.5,3,13.5,4.5c18,6.5,33,15.5,45,26c32,28,48.5,68.5,51,127.5c3,72.5-12.5,142-29.5,206.5
				C1898.2,841.7,1866.2,939.7,1836.2,1031.7L1836.2,1031.7z"/>
		</g>
		<path class="st1" d="M728.7,1919.2c5.5,2,12,4,19,6.5C741.7,1923.7,735.2,1921.7,728.7,1919.2"/>
	</g>
	<g>
		<path class="st3" d="M1108.2,1688.7c-21-0.5-67,35-67,51.5c0,26.5,34.5,52,71,52c38,0,59.5-17.5,58.5-47.5
			C1170.2,1723.7,1131.2,1688.7,1108.2,1688.7z"/>
		<g>
			<path d="M1726.2,1761.7c4-4,8-8.5,12-12.5c1-1,2-2.5,3-4.5C1736.7,1750.2,1731.7,1756.2,1726.2,1761.7z"/>
			<path d="M728.7,1919.2c6,2.5,13,4.5,19,6.5C740.7,1923.2,734.7,1920.7,728.7,1919.2z"/>
			<path d="M1905.7,738.2c17.5-65,32-132.5,29-200.5c-2-45-12.5-85.5-44.5-113c-10.5-9-23.5-17-39-22.5c-4.5-2-9.5-3-14-4.5
				c-1.5-0.5-3-0.5-5-1c-3-1-6-1.5-9.5-2c-2,0-3.5-0.5-5.5-1c-3-0.5-6-1-8.5-1c-2,0-4,0-6-0.5c-3,0-5.5,0-8,0h-4.5
				c-7,0-14,0.5-21,1.5c-1,0-2,0-2.5,0.5c-7.5,1-15,2.5-22,4.5c-11.5,3-23.5,7-35,11.5c-73.5,30-126.5,83.5-177.5,140l-1,1
				c-1.5,2-3,3.5-5,4.5c-0.5,0.5-1,1-2,1.5c-1,1-2.5,2-3.5,2.5c-0.5,0.5-1,0.5-2,1c-1,0.5-2,1-3,1.5c-0.5,0-1.5,0-2,0
				c-1,0-2,0.5-3,0.5c-1,0-2,0-2.5,0c-1,0-1.5,0-2-0.5c-1,0-2-0.5-2.5-1c-1,0-1.5-0.5-2-1c-1,0-2-1-3-1c-1-0.5-1.5-0.5-2.5-1l0,0
				c-2-1-3.5-2-5.5-3c-43-23-86-47-131-66c-68-28.5-140-41-213.5-44.5c-25,0-49.5,0.5-74,0.5c-25,3-49.5,5.5-74,9.5
				c-78,12-151.5,37-220,77c-1.5,1-3.5,1.5-5.5,2c-0.5,0-1.5,0-2,0c-1,0-1.5,0-2.5,0c-0.5,0-1,0-1.5,0c-2,0-4-0.5-5.5-1
				c-1,0-2,0-2.5-0.5c-2.5-1-5-2-7-3c-28-21-54-44-81-65.5c-9-7-18.5-14-28-20.5l-16-11c-1.5-1-3-2-4.5-3c-4-2.5-8-5-12-7
				c-2-1-4-2-6-3.5c-3.5-2-7-4-11-5.5c-2-1-4.5-2-7-3c-3.5-1.5-7-3-10.5-4.5c-2.5-1-5-2-7.5-3c-3.5-1-7-2.5-10-3.5s-5.5-1.5-8-2
				c-3.5-1-7-2-10.5-2.5c-3-0.5-6-1-8.5-1.5c-3.5-0.5-7-1-10.5-1.5c-3-0.5-6-0.5-9-0.5s-6-0.5-8.5-0.5h-4.5c-3,0-6,0-9,0.5
				c-90,7-139.5,60-142.5,148.5c0,8-0.5,15.5-0.5,23.5c0,42,4,84,14,125.5c22,91,42.5,183,60.5,275c1.5,7,3.5,14,6,21.5
				c2,7,4.5,14.5,6.5,21.5c2.5,11,4,22,2.5,33.5c-0.5,4-1.5,7.5-3,11.5c-7.5,23-13,46-16.5,69.5c-2.5,17-3.5,34.5-3.5,52
				c0,6.5,0,13,0.5,20c0,25,0.5,50,1,75c1,17,2,34.5,2.5,52c0,6-1,12-2,17.5c-0.5,2-1,4-1.5,6c-2,6.5-4.5,13-6,20
				c-2,6.5-3.5,13-5,20c0,0,0,0,0,0.5c-3,9-46,140.5,27,271c0.5,1,1,2,1.5,3c8,17,17,33.5,27,49c29,46.5,65.5,88,111.5,124.5
				c42.5,33.5,88.5,59,136.5,78.5l0,0c1.5,1,8,3.5,17.5,7c2.5,1,5,2,8,3c5.5,2,12,4,19,6.5c4,1,8,2.5,12.5,4c3,1,7,2,10,3
				c48.5,15,119,33.5,199.5,44c26.5,3.5,54,6,82.5,7c39,1.5,79,0.5,119-4c2.5,0,5,0,7.5,0c5,0,22-4,27-4.5c7-0.5,13.5-1.5,19.5-3
				c96-13,175.5-33.5,239-55c114-39,175-80.5,181-84.5h0.5c15-11,30-22.5,45-34c11-9,20.5-19,30-30c2-2,4-4,5.5-6
				c5.5-6,10.5-11.5,15-17c5-6,9.5-11.5,14-17c0.5-1,1-1.5,1.5-2c39-51,45.5-81.5,45.5-81.5c1-1.5,1.5-3,2-5c0.5-1.5,1-3,2-4.5
				c2-4.5,3.5-9,5-13.5c2-5,3.5-10.5,5-16c1.5-5,3-9.5,4-14c1.5-5,3-10.5,4-16c1-4.5,2-9,3-14c1-5.5,2-11,3-17c0.5-2,0.5-4.5,1-6.5
				s0.5-4.5,1-6.5c0.5-6,1-12.5,1.5-18.5c0-4,0.5-8,1-12c0-7,0-14,0-21v-10c-0.5-8-1.5-16.5-2.5-24.5c0-2.5,0-5-0.5-7
				c-1.5-10.5-3.5-21.5-6-32c-8.5-37-14-78.5-6.5-115.5c12-61.5-0.5-121-5-180.5c-2-29.5-7-56,3-85.5
				C1849.2,929.7,1880.2,834.7,1905.7,738.2L1905.7,738.2z M443.2,696.2c-2-9.5-3.5-19.5-5-29c-0.5-3.5-1-6.5-1.5-10
				c-15.5-101.5-3-143,2-154.5c1-2.5,2-3.5,2-3.5c15-28.5,37-37.5,70.5-32.5c6,0.5,13,2,20,3.5c48,12,86,42,123.5,73
				c12,10,25.5,19.5,36,31c8,8.5,10,18.5-3,27c-45,30-81,69.5-116,110c-9,10.5-13,12.5-17,1.5c-0.5-1-1-2.5-1.5-4
				c-4-14-9-28-13.5-42c-7-20-20-28-42-27c-22,1-30.5,10.5-27,30c5,28,12,55.5,18,83c6,27.5,11.5,55,16.5,83c1,6.5,1,14-1,20.5
				c-2.5,7-8,12.5-12.5,18.5c-4.5-6-11.5-11.5-13-18.5C465.7,803.7,453.7,750.2,443.2,696.2z M1732.2,1581.2
				c-14.5,66-53,120.5-101.5,163.5c-40,36-89.5,63-137,89c-16.5,9-33.5,17-50.5,24.5c-47,20.5-96.5,35-147,44.5
				c-65.5,12.5-105,25-198,28c-104-5-202-24-295-60c-56.5-22-111-50-163-85c-85.5-57-143-134-159-235c-10-63-12.5-130,27-188.5
				c5-7.5,4.5-19.5,4-29.5c-1.5-52.5-10.5-106-4-157.5c10-78,34.5-152.5,79-220c3.5-5,7-10.5,11-15.5c39.5-55.5,87.5-101.5,143-141
				c26.5-19,53-3,77.5,5c23,7.5,46,18.5,65,33.5c20.5,16,40.5,35,53,57.5c28,50.5,52,103,77,155c4.5,9,5.5,20,11,27.5
				c12.5,18,22.5,38.5,52,36c38-3.5,76,1.5,114-2c22-2,31.5-24,37-44c6.5-22.5,9.5-46,19-67c34-76,83-140,155.5-183
				c17-10,36-18.5,55-23c27.5-6.5,51,8.5,71,25c43.5,36.5,84.5,76,115,124c3,4.5,6,9.5,9,14c30.5,52,56,106.5,62,168
				c4,44,11,88,13,132c1.5,26-4,52-6,78.5c-1,12.5-2,25.5,0.5,37.5c6,27,12.5,54,21,80.5C1754.7,1497.2,1741.2,1539.2,1732.2,1581.2
				z M1807.2,801.2c-10,39.5-21.5,78.5-32,118c-1,3-6,4.5-9,6.5c-5.5-16-18-34-15-48.5c11-56.5,27-111.5,41-167.5
				c2-7.5,4.5-16,4-23.5c0-1.5,4-21-7-30c-19-15.5-37-0.5-47.5,9c-13.5,13-19.5,34.5-28,53c-3,7-4,15.5-7,23
				c-6,15.5-12.5,12.5-22.5,1.5c-1-1-1.5-2-2.5-2.5c-34.5-38-69.5-76-106.5-112c-8-8-9.5-10-2.5-18c46.5-49,96-94,156.5-125
				c10-5,20-10,30.5-14c29-12,63-3,81,28c0.5,0.5,1,1.5,1,2c1,1.5,1.5,3,2.5,4.5c0.5,1,1,2,1.5,3.5c8,21.5,7,58,2,98.5
				C1837.2,696.2,1807.2,801.2,1807.2,801.2L1807.2,801.2z"/>
			<path class="st1" d="M1741.2,1453.2c-8-26.5-15-53.5-21-80.5c-2.5-12-1-25-0.5-37.5c2-26.5,7.5-52.5,6-78.5c-2-44-8.5-88-13-132
				c-6-61.5-31.5-116-62-168c-3-5-6-9.5-9-14c-31-48-71.5-87.5-115-124c-20-16.5-43.5-31.5-71-25c-19,4.5-38,13-55,23
				c-73,43-121.5,107-155.5,183c-9.5,21-12,45-19,67c-6,20-15.5,42-37,44c-37.5,4-76-1-114,2c-30,2.5-40-17.5-52-36
				c-5.5-8-7-18.5-11-27.5c-25-52-49-105-77-155c-12.5-22-32.5-41.5-53-57.5c-19-15-42-26-65-33.5c-24.5-8-51-23.5-77.5-5
				c-55.5,39.5-103.5,85.5-143,141c-4,5-7.5,10.5-11,15.5c-44.5,67.5-69,142-79,220c-6.5,51.5,2.5,105,4,157.5c0.5,10,1,22-4,29.5
				c-39.5,58.5-37,125.5-27,188.5c16,100.5,73.5,177.5,159,235c52.5,35,107,63,163,85c93,36,191,60.5,295,60c84-0.5,125-7,198.5-25
				c50.5-9.5,100-27,147-47.5c17-7.5,34-15.5,50.5-24.5c48-26,97-53,137-89c48.5-43,87-97.5,101.5-163.5
				C1741.2,1539.2,1754.7,1497.2,1741.2,1453.2z M1345.7,1069.7c20-52.5,88-67,127-27c10.5,10.5,18.5,22.5,27.5,34c2,2.5,3,6,7,14.5
				c-9-3-15-3-19-6c-27-20.5-57-29.5-90.5-21c-14,3.5-26.5,11.5-40,17c-3.5,1.5-8,1-12,1.5
				C1346.2,1078.7,1344.2,1073.7,1345.7,1069.7z M1059.7,1422.2c22-20,85.5-24.5,110.5-7.5c10,7,21,22,20,32c-0.5,9-16,20.5-27,24.5
				c-13.5,5-29.5,3.5-47.5,5c-13-1-29.5-0.5-44.5-5c-9.5-2.5-21.5-12-23.5-20.5C1046.2,1442.7,1052.2,1428.7,1059.7,1422.2z
				 M737.2,1066.7c19.5-27,41-51.5,78.5-50c20,0,66.5,36.5,70,55c0.5,3-7,11.5-10,11c-7.5-0.5-14.5-5-21.5-8c-35-15-69-20-101,7
				c-5,4-13.5,3-20.5,4C734.2,1079.2,733.7,1071.7,737.2,1066.7z M817.7,1240.7c-14-17-30.5-16.5-41.5,2c-16,26.5-30,55-41.5,84
				c-7,18,0,22.5,21.5,18.5c10-2,20.5-4,30.5-3c7.5,1,22,3,21.5,11c-0.5,7.5-13.5,6.5-21,8c-21,5-42,7-62.5,13
				c-14,4-26.5,11.5-39,18.5c-10,5.5-15,4-15-8c0-81.5,12-159,71-221.5c17-18,38-22.5,61-24c33-1,76,29,96.5,80
				c14.5,36,24,74,35,112c2,7.5,2,16,1.5,24c-1,17-11.5,20-24,12.5c-24-15-44-32-53-62C850.7,1282.2,833.7,1260.7,817.7,1240.7z
				 M1330.2,1627.7c-26.5,9.5-53,19-80,24.5c-15,3-21.5,6-23.5,22.5c-4,36-17,70-37,100c-18.5,28-47,39-88.5,37.5
				c-35,0-74-29-89.5-74c-7.5-22-15.5-44.5-19-67.5c-2.5-15-8.5-19-22-17.5c-30,3.5-56.5-7.5-83-20.5c-13.5-6.5-16.5-15.5-14-27
				c1-5.5,7.5-12,13-13.5c3.5-1,11,4,14,8.5c12,18,30.5,22.5,49.5,25c57,7,105-11,145-52c12.5-13,17.5-21,36.5,0
				c38,42.5,87,69,148.5,46c10-4,19-11,28-16.5c6-3.5,13-12,16-10.5c8,4,16,11,19,18.5C1344.7,1614.2,1336.2,1625.7,1330.2,1627.7
				L1330.2,1627.7z M1539.2,1379.7c-4,6-17.5,13.5-21,11.5c-31-20-65-28-101.5-29.5c-6.5,0-12.5-4-19-6.5c-3-1-5.5-2.5-8-3.5
				c3-1.5,6-4,9-4c19-1.5,39.5-6.5,57.5-2.5c20,4.5,25.5-1.5,20-17c-11-29.5-24-58-39-85.5c-9-16.5-28-20-40-4
				c-17,22-33.5,46-43.5,71.5c-12,30.5-35,46-62,58c-2,1-11.5-6-11.5-8.5c7-65,23.5-127.5,64-179c51-64.5,116.5-49,153,17
				c27,49,40,103,43,154.5C1540.2,1363.7,1543.2,1373.7,1539.2,1379.7z"/>
			<path class="st1" d="M1848.2,607.7c-11,88-41,193.5-41,193.5c-10,39.5-21.5,78.5-32,118c-1,3-6,4.5-9,6.5c-5.5-16-18-34-15-48.5
				c11-56.5,27-111.5,41-167.5c2-7.5,4.5-16,4-23.5c0-1.5,4-21-7-30c-19-15.5-37-0.5-47.5,9c-13.5,13-19.5,34.5-28,53
				c-3,7-4,15.5-7,23c-6,15.5-12.5,12.5-22.5,1.5c-1-1-1.5-2-2.5-2.5c-34.5-38-69.5-76-106.5-112c-8-8-9.5-10-2.5-18
				c46.5-49,96-94,156.5-125c10-5,20-10,30.5-14c29-12,63-3,81,28c0.5,0.5,1,1.5,1,2c1,1.5,1.5,3,2.5,4.5c0.5,1,1,2,1.5,3.5
				C1854.2,531.2,1853.2,567.7,1848.2,607.7L1848.2,607.7z"/>
			<path class="st1" d="M687.2,601.2c-45,30-81,69.5-116,110c-9,10.5-13,12.5-17,1.5c-0.5-1-1-2.5-1.5-4c-4-14-9-28-13.5-42
				c-7-20-20-28-42-27s-30.5,10.5-27,30c5,28,12,55.5,18,83c6,27.5,11.5,55,16.5,83c1,6.5,1,14-1,20.5c-2.5,7-8,12.5-12.5,18.5
				c-4.5-6-11.5-11.5-13-18.5c-12.5-53.5-24.5-107-35-161c-2-9.5-3.5-19.5-5-29c-0.5-3.5-1-6.5-1.5-10c-15.5-101.5-3-143,2-154.5
				c1-2.5,2-3.5,2-3.5c15-28.5,37-37.5,70.5-32.5c6,0.5,13,2,20,3.5c48,12,86,42,123.5,73c12,10,25.5,19.5,36,31
				C697.7,582.2,699.7,592.7,687.2,601.2z"/>
			<path d="M1324.7,1591.7c-3-1.5-10.5,7-16,10.5c-9,6-18,13-28,16.5c-61,23-110.5-3.5-148.5-46c-19-21-24-13-36.5,0
				c-40,41-88,59-145,52c-19-2.5-37.5-7-49.5-25c-3-4.5-10.5-9.5-14-8.5c-5.5,2-11.5,8-13,13.5c-2.5,11.5,0,20.5,14,27
				c26.5,13,53,24,83,20.5c13.5-1.5,19.5,2.5,22,17.5c4,23,11.5,45.5,19,67.5c15.5,45,54.5,74,89.5,74c41.5,1.5,70-9.5,88.5-37.5
				c20-30,33-64,37-100c2-16.5,8.5-19.5,23.5-22.5c27-5.5,54-15,80-24.5c6-2,14.5-13.5,13-17.5
				C1340.7,1602.7,1332.2,1595.7,1324.7,1591.7L1324.7,1591.7z M1165.2,1769.7c-1,1.5-2,2.5-3,4c-1,1-1.5,2-2.5,2.5c-1,1-2,2-3.5,3
				c-1.5,1-2.5,2-4,3c-10,6-23,9-39.5,9c-36,0-71-25-71-52c0-2,1-4.5,2-7c2.5-5,7.5-11,13.5-16.5c3-2.5,6-5,9-7.5
				c14-11.5,31.5-20.5,42-20.5c23,0.5,62,35,63,56C1171.7,1754.2,1169.7,1762.7,1165.2,1769.7L1165.2,1769.7z"/>
			<path d="M935.2,1355.7c-1,17-11.5,20-24,12.5c-24-15-44-32-53-62c-7.5-23.5-24.5-45.5-40.5-65c-14-17-30.5-16.5-41.5,2
				c-16,26.5-30,55-41.5,84c-7,18,0,22.5,21.5,18.5c10-2,20.5-4,30.5-3c7.5,1,22,3,21.5,11c-0.5,7.5-13.5,6.5-21,8
				c-21,5-42,7-62.5,13c-14,4-26.5,11.5-39,18.5c-10,5.5-15,4-15-8c0-81.5,12-159,71-221.5c17-18,38-22.5,61-24c33-1,76,29,96.5,80
				c14.5,36,24,74,35,112C935.7,1339.2,935.7,1347.7,935.2,1355.7z"/>
			<path d="M1539.2,1379.7c-4,6-17.5,13.5-21,11.5c-31-20-65-28-101.5-29.5c-6.5,0-12.5-4-19-6.5c-3-1-5.5-2.5-8-3.5c3-1.5,6-4,9-4
				c19-1.5,39.5-6.5,57.5-2.5c20,4.5,25.5-1.5,20-17c-11-29.5-24-58-39-85.5c-9-16.5-28-20-40-4c-17,22-33.5,46-43.5,71.5
				c-12,30.5-35,46-62,58c-2,1-11.5-6-11.5-8.5c7-65,23.5-127.5,64-179c51-64.5,116.5-49,153,17c27,49,40,103,43,154.5
				C1540.2,1363.7,1543.2,1373.7,1539.2,1379.7z"/>
			<path d="M1190.2,1447.2c-0.5,9-16,20.5-27,24.5c-13.5,5-29.5,3.5-47.5,5c-13-1-29.5-0.5-44.5-5c-9.5-2.5-21.5-12-23.5-20.5
				c-2-8.5,4.5-22.5,11.5-29c22-20,85.5-24.5,110.5-7.5C1180.2,1421.7,1191.2,1436.7,1190.2,1447.2z"/>
			<path d="M885.7,1071.7c0.5,3-7,11.5-10,11c-7.5-0.5-14.5-5-21.5-8c-35-15-69-20-101,7c-5,4-13.5,3-20.5,4
				c1.5-6.5,1-14.5,4.5-19.5c19.5-27,41-51.5,78.5-50C835.7,1016.7,882.2,1052.7,885.7,1071.7z"/>
			<path d="M1507.2,1091.2c-9-3-15-3-19-6c-27-20.5-57-29.5-90.5-21c-14,3.5-26.5,11.5-40,17c-3.5,1.5-8,1-12,1.5c-0.5-4-2-9-0.5-13
				c20-52.5,88-67,127-27c10.5,10.5,18.5,22.5,27.5,34C1502.2,1079.7,1503.2,1082.7,1507.2,1091.2z"/>
		</g>
	</g>
</g>
</svg>
