<?xml version="1.0" encoding="utf-8"?>
<!-- Generator: Adobe Illustrator 24.0.0, SVG Export Plug-In . SVG Version: 6.00 Build 0)  -->
<svg version="1.1" id="Layer_1" xmlns="http://www.w3.org/2000/svg" xmlns:xlink="http://www.w3.org/1999/xlink" x="0px" y="0px"
	 viewBox="0 0 24.9 12" style="enable-background:new 0 0 24.9 12;" xml:space="preserve">
<style type="text/css">
	.st0{fill:#6666FE;}
</style>
<path class="st0" d="M19.1,0h-0.2c-3,0-4.8,1.9-6,3.5c-0.5,0.6-0.9,1.3-1.3,1.9c-0.8,1.2-1.5,2.4-2.4,3.2C8.3,9.5,7.1,10,5.9,10
	c-1,0-2-0.5-2.7-1.2C2.4,8,2,7.1,2,6c0-1,0.4-2.1,1.2-2.8C4,2.4,5,2,6,2h0C6.5,2,7,2.1,7.5,2.3c0.1,0,0.2,0.1,0.2,0.2
	c0,0.1,0,0.2,0,0.3L5,6.5C5,6.6,5,6.7,5,6.8C5.1,7,5.2,7,5.3,7h1.5C7,7,7.2,6.9,7.3,6.8L10,2.9c0.1-0.1,0.2-0.3,0.2-0.5
	c0-0.2,0-0.4,0-0.5c0-0.2-0.1-0.4-0.2-0.5C9.8,1.2,9.7,1.1,9.6,1C9.4,0.9,9.3,0.9,9.2,0.8C8.2,0.3,7.1,0,6,0C4.4,0,2.9,0.6,1.8,1.8
	C0.6,2.9,0,4.4,0,6s0.6,3,1.7,4.2C2.8,11.3,4.2,12,5.8,12c1.7,0,3.2-0.6,4.6-1.8c1.2-1.1,2.2-2.4,2.9-3.7c0.6-0.9,1.2-1.8,1.8-2.6
	c0.2-0.3,0.4-0.5,0.6-0.7c1-0.9,2-1.3,3.2-1.3h0.1c1,0,2,0.5,2.7,1.2c0.6,0.6,1,1.5,1.1,2.4c0,0.1,0,0.3,0,0.4
	c0,1.1-0.4,2.1-1.2,2.8C21,9.6,20,10,18.9,10h0c-0.6,0-1.1-0.1-1.4-0.2c-0.1,0-0.2-0.1-0.2-0.2c0-0.1,0-0.2,0-0.3l2.6-3.7
	c0.1-0.1,0.1-0.2,0-0.4C19.8,5.1,19.7,5,19.6,5h-1.5c-0.2,0-0.4,0.1-0.5,0.3L15,9.1c-0.1,0.2-0.2,0.3-0.2,0.5c0,0.2,0,0.4,0,0.5
	c0,0.2,0.1,0.4,0.2,0.5c0.1,0.1,0.3,0.3,0.4,0.4c0.1,0.1,0.2,0.1,0.3,0.2c1,0.5,2.1,0.8,3.2,0.8c1.6,0,3.1-0.6,4.3-1.8
	c1.1-1.1,1.8-2.6,1.8-4.2s-0.6-3.1-1.7-4.2C22.1,0.7,20.7,0,19.1,0z"/>
</svg>
