<?xml version="1.0" encoding="utf-8"?>
<!-- Generator: Adobe Illustrator 24.0.0, SVG Export Plug-In . SVG Version: 6.00 Build 0)  -->
<svg version="1.1" id="Layer_1" xmlns="http://www.w3.org/2000/svg" xmlns:xlink="http://www.w3.org/1999/xlink" x="0px" y="0px"
	 viewBox="0 0 1154.6 1006.3" style="enable-background:new 0 0 1154.6 1006.3;" xml:space="preserve">
<style type="text/css">
	.st0{fill:#FFB000;}
	.st1{fill:#A76100;}
	.st2{fill:#F5C785;}
	.st3{fill:#FFFFFF;}
	.st4{fill:#DB291E;}
	.st5{fill:none;stroke:#000000;stroke-width:16.8114;stroke-linecap:round;stroke-linejoin:round;stroke-miterlimit:10;}
	.st6{fill:none;stroke:#000000;stroke-width:12.6086;stroke-linecap:round;stroke-linejoin:round;stroke-miterlimit:10;}
	.st7{stroke:#000000;stroke-width:12.6086;stroke-linecap:round;stroke-linejoin:round;stroke-miterlimit:10;}
</style>
<path class="st0" d="M174.6,329.7c-40.5,29.4-131.3,59-165.7,123.1C-25.6,517,51.5,582.5,51.5,582.5s-25.1,59-16.4,145.5
	c10,99.5,67.4,219.8,141.4,244.7c66.9,22.6,236.3,32.1,236.3,32.1s148.8,10.3,284.7-22.2c99.7-23.8,264.1-103.5,307.8-140.2
	c43.7-36.7,114-100.8,136-167.1c14.3-43.4,3.2-106.5-18.6-141.5c-13.1-21-37.9-51.5-58.2-63.6c19.1-11.7,47.4-38.9,61.2-59.4
	c7.1-10.6,34.5-63.6,28-101.3c-10.2-59.4-77.1-125.6-135.3-158.3c-25.4-14.3-68.9-25.5-68.9-25.5S911,56.3,847.3,21.3
	C798.5-5.6,696.7-27.8,590.2,91c0,0-94.9-86.6-208.2-43.8c-45.7,17.3-89.3,55.6-139.5,125.6c-50.3,69.9-57.1,123.5-68.8,157"/>
<path class="st1" d="M131.6,853.1c43.5,57.4,34.4,93.2,221.2,96.2c186.7,3,266.8,4.6,312.9-11.1c90-30.6,290.9-98,313.5-130.2
	c22.7-32.3,74.5-62.7,112.1-135.3c28.4-55,0.4-105.9-27.6-133.6c-28-27.7-59.7-63.4-68-75.4c0,0,28.6-5.9,45-32.4
	c16.4-26.6-3-23.9,24.3-35.7c45.6-19.6,33.7-37.3,35-60.5c1.3-23.2-6.1-75.9-30-88.7c-24-12.8-6.1-14.2-43.6-35.1
	c-37.6-20.9-24.4-34.7-70.1-35.4c-45.8-0.7-23.5-3.2-23.5-3.2s1.8,12.4-28.3-27.8c-30.1-40.1-68.1-83.4-116.5-89.5
	c-48.4-6.1-64.8-12.5-112.1,17.7c-47.4,30.2-84.1,78.2-84.1,78.2s-52.2-52.8-125.6-62.7c-73.4-10-127,52-158.5,88.7
	c-31.6,36.8-66.8,90.3-79.1,140.7c-12.3,50.4-10.9,61.4-10.9,61.4l-10.2-9.4l-39.3,19.2c0,0-97.8,44.1-104.3,86.4
	c-6.5,42.3,15.6,73.9,32.5,92.3c0,0,9-10.7,2.1,25.6C91.5,629.7,61.9,761.1,131.6,853.1z"/>
<path class="st2" d="M326.2,322.3l44.1,247.2c0,0-51.8,81.6-22,179.8c29.8,98.2,74.3,118,120.1,120.8c45.9,2.9,465.6-24.4,507-60.6
	c41.4-36.2,25.6-33.2,25.6-33.2s125.8-130.5,58.8-232.3L968.2,489l-0.1-16.4c0,0,64.1-3.1,80.9-68c0,0,54.8,3.9,44.3-62.3
	c-10.6-66.3,6.7-71.3-35.3-95.8c0,0-21.8-32.1-47.4-38.9c-25.6-6.8-20.4-34.9-99.6-30.6c-79.3,4.3-179.3,8.6-249.8,51.4
	C661,228.3,442.1,151.1,326.2,322.3z"/>
<path class="st3" d="M764.3,367.4c0,0,61.5-77.4,157.8-89.6c96.4-12.2,176.3,12.6,185.3,28.1c9,15.4-5.7,26.2-22.2,41.6
	c-16.5,15.4-148.3,89.5-312.6,78.1l-8.9-5.9c0,0-37,46.3-155.6,51.2c-118.6,4.9-166.5-20.9-166.5-20.9s18.8-93.1,139.4-107.1
	c120.6-13.9,137.9-12.9,154.1-7.6C751.4,340.6,764.3,367.4,764.3,367.4z"/>
<path class="st4" d="M1003.7,636c0,0-65.4,37.8-184.8,44.7c-119.5,6.9-133.3,39-208.1-10.3c-74.8-49.3-114.6-74.9-147.6-34.6
	c-33,40.3-11.5,88.2,40.9,124.6c52.4,36.4,191.8,83.6,375.4,46.2c183.6-37.4,171.8-69.6,196.6-105.4c26-37.5,34.6-73.9,22.1-98
	c-12.5-24.1-13.6-63.7-28.8-61.8C1054.2,543.2,1012.6,578.8,1003.7,636z"/>
<path class="st5" d="M530.1,688.1c33.6,35.6,102.9,49.8,149.7,57.9c108.6,18.7,197.7,12.9,297.9-33.6c33.5-15.6,84.6-59.7,104-102.8
	c9.4-21,13.9-38.2,0.2-58.6c-10.1-15-28.4-2.9-39.6,9.6c-35.6,40-30.9,72.9-43.3,78.1c-85.9,35.8-140.7,38.6-195.1,45.6
	c-56.2,7.2-121.2,18.2-174.9-1.4c-40-14.6-62.6-56-106.6-63.6c-28.7-4.9-88.4,14.2-78.7,57.7c9.7,43.5,69.5,99.9,108.6,114.2
	c90.9,33.2,200.8,21.4,295.1,14.7c42.9-3.1,91.5-4,131.5-21.3c51.1-22.1,75.4-52.3,104.6-99.2c29.3-46.8,13.8-96.1,9.8-95"/>
<path class="st5" d="M1011.1,767.7c-9.1,12.4-37.1,40.5-51.1,48.2c-33.2,18.4-52.6,16.3-90.5,21.7c-69.7,10-111.7,15.3-181.8,23.3
	c-58.4,6.7-208.6,27.3-259.3,0.9c-59.9-31.2-80.9-77.6-88.7-153.4c-3.8-36.9,14.3-127.4,41-142.2"/>
<path class="st5" d="M370,572.8c-10.9-18.8-33.7-189.1-45.6-246.9"/>
<path class="st5" d="M324.4,327.8c1.9-15.8,45.7-58.8,57.5-69.7c73.6-67.8,264.5-75.1,314.2,15.9"/>
<path class="st5" d="M658.4,231.9c4.9-7.4,53.6-25.8,53.6-25.8s124.4-47.9,187.8-22.7"/>
<path class="st5" d="M902.1,182.7c0,0,23.2-7.4,30-7.6c33.4-1,80.2,25.9,103.4,47.7"/>
<path class="st5" d="M750.4,314.1c10.7-9.6,39.2-45.2,97.9-70.5c58.7-25.3,110.4-25.1,142.4-22.4c14.7,1.2,58.2,4.6,75.7,22.9
	c20.5,21.4,26.8,46.9,26.8,46.9"/>
<path class="st5" d="M768.5,369.3c0,0,20.4-29,53.6-50.6c33.2-21.6,42.4-25,79-35.8c54.5-16,114-21.5,168.1-0.3
	c7,2.7,41.2,20.2,40.8,29.4c-0.9,18.1-40.6,43.4-66.3,58.1c-80,45.6-183.4,62.6-273.3,52.6"/>
<path class="st5" d="M1095,337.9c-0.4-0.9,13,27.5-6.2,50.1c-14.1,16.6-32.2,22.9-55,22.4"/>
<path class="st5" d="M1051.6,410.5c1.8-4-0.4,27.7-62.6,55.5c-62.3,27.7-147.9,39.2-185.7,48"/>
<path class="st5" d="M964,478.9c4.5,5.8,6.8,15.8,7,15.9c28.3,13,60.4,23.6,83.8,45.6"/>
<path class="st5" d="M996.7,464.3c20.6,31,46.8,60.6,63.6,76.4"/>
<path class="st5" d="M436,451c-3.5-1.4,17.1-53.6,78.2-85c53.7-27.6,82.7-28.3,143.6-32c25.6-1.6,69.4-5.7,85.5,4.4
	c22.1,13.9,25.6,48.3,26.1,67c0.9,32.4-73.1,51.3-105.5,58.4c-18.9,4.1-77.7,13.2-134.6,10.2c-56.9-3-57.7-13.3-93-22.2
	c-1.6-0.4-13.6,5.2-23.6,5.3c-18.4,0.1-39-4.9-39-4.9"/>
<path class="st5" d="M767.3,423.2c12.2,29.3-25.2,63.2-70.7,72.6c-109.3,22.7-213.9,15.1-233.6,7"/>
<path class="st5" d="M701.6,495.7c0,0-70.6,67.5-110.4,84.1"/>
<path class="st5" d="M749.7,337.9c4.2-22.2-4.3-41.8-42.9-59.3c-38.6-17.5-112.2-5-112.2-5s-64.5,5.8-120.6,39.8
	c-56.1,34-103.7,96.2-103.7,96.2"/>
<path class="st5" d="M875.4,523.2c23.7,6.7,41.4,17.5,46.4,26.4"/>
<path class="st5" d="M843.1,575.4c6.4,5.7,18,20.3,18.6,29.3"/>
<path class="st5" d="M784.7,623.3c-3.6-4.8-5.6-24.4-4-30.3"/>
<path d="M861,299.6c-3.7,0.7-5.4,13.3-5.8,16.3c-2.3,16.5-1.4,29.8,1.6,46.3c8.8,47.1,40.4,63,83,48.6c12.2-4.1,28.6-9,37.4-19.3
	c26.6-30.8,24.2-97.3-15.3-116.9c-9.1-4.5-24.3,2.2-32.9,4.8c-23.8,7.2-49.1,10.8-69.1,26"/>
<path class="st6" d="M861,299.6c-3.7,0.7-5.4,13.3-5.8,16.3c-2.3,16.5-1.4,29.8,1.6,46.3c8.8,47.1,40.4,63,83,48.6
	c12.2-4.1,28.6-9,37.4-19.3c26.6-30.8,24.2-97.3-15.3-116.9c-9.1-4.5-24.3,2.2-32.9,4.8c-23.8,7.2-49.1,10.8-69.1,26"/>
<path class="st3" d="M876.3,304.8c-6.5,1.2-10.9,4.7-13.8,13c-3.8,11-3.2,28,12.9,27.3c13.2-0.5,23-21.4,17.7-33
	C887.8,302.1,884.3,303.9,876.3,304.8z"/>
<path class="st7" d="M521.2,368c0.5,0.7-8.6,12.2-9.3,13.7c-5.9,14.2-8,24.6-4.3,39.9c13.6,55.3,42,53.2,90.6,44.8
	c17.1-2.9,37.7-5.2,47.6-22c17.2-29.2,7.4-62.7-12-86.5c-4.8-5.9-12.3-12.6-20.5-12.8c-20.7-0.4-41.8,3.8-61.8,7.8
	c-7,1.4-14,10.8-20.8,12.1C528.2,365.6,521.1,367.9,521.2,368z"/>
<path class="st3" d="M548.4,363.6c-19.2-5.3-37,24.8-17,34.8c21.9,11,43.6-27.5,20.5-33.8"/>
<path class="st5" d="M654.1,226.5c2.5-4.9-26.3-44.5-64.4-76.4c-30.6-25.7-55.2-40.8-81.6-48.7c-87.3-25.8-128.1-0.7-180,52.4
	c-60.5,61.9-109,135.4-110,223.4"/>
<path class="st5" d="M593.8,147.7c0,0,22.7-27.3,75.1-67.8c51.1-39.5,129.4-41.5,180.5,6.6c47.3,44.5,74.4,87.1,74.4,87.1"/>
<path class="st5" d="M313.3,947.9c0,0,96.3,5.3,123.5,6.1c139.3,3.8,277.8-15,403.4-78.2c0,0,89.7-45.2,100.6-50.5"/>
<path class="st5" d="M235.3,628.9c-13.9,10.5-44.6,6.5-75.1-10.8c-22.3-12.7-46.6-37.4-53.6-44.3c-29.6-29.1-51.9-53.9-45.7-98.1
	c5.7-41,133.8-110.5,147.8-104c29.4,13.7,35.8,44.7,41.2,73.5"/>
<path class="st5" d="M145.8,450.2c19-3.5,48.7-6.8,65.2,4.5c17.8,12.3,12.4,89.3,7,107.9"/>
<path class="st5" d="M102.8,572.5c-5.2,7.5-31.8,109.9-8,205.6c20.6,82.9,60.1,118.2,94.5,142.7c19.5,13.9,98.7,26.4,124.3,26.8"/>
<path class="st5" d="M449.1,807.5c-42.4-25.4-48.1-36-58-78.3c-9.9-42.4,7.6-81.9,18.4-91.2"/>
</svg>
