<?xml version="1.0" encoding="utf-8"?>
<!-- Generator: Adobe Illustrator 24.0.0, SVG Export Plug-In . SVG Version: 6.00 Build 0)  -->
<svg version="1.1" id="Слой_1" xmlns="http://www.w3.org/2000/svg" xmlns:xlink="http://www.w3.org/1999/xlink" x="0px" y="0px"
	 viewBox="0 0 994.3 1000.5" style="enable-background:new 0 0 994.3 1000.5;" xml:space="preserve">
<style type="text/css">
	.st0{fill:#F7F5F8;}
	.st1{fill:#DCC4D4;}
	.st2{fill:#EFAD93;}
	.st3{fill:#D68C72;}
	.st4{fill:#964C49;}
	.st5{fill:#3A0101;}
	.st6{fill:#894544;}
	.st7{fill:#E3746D;}
	.st8{fill:#FFFFFF;}
	.st9{fill:#623538;}
	.st10{fill:#C95755;}
</style>
<g>
	<path class="st0" d="M27.4,444.9l471.8-254l124.2-2.5c0,0,129.7,15.8,232.7,116.6c0.1,0.1,0.2,0.1,0.2,0.2
		c28.2,27.7,54.4,62.5,75.1,106.3c1.4,2.9,2.8,5.9,4.1,8.9c0,0,151.2,244-41.3,456.4c-192.5,212.3-651.4,110.6-789.3-112.5
		c-1-1.5-2-3.1-3-4.7c-21.2-34.1-37-67.9-48.6-99.2c-14.7-39.6-22.9-75.1-27.4-101.6C20.8,528.5,27.5,444.9,27.4,444.9z"/>
	<path class="st1" d="M218.8,420.3c-31.3,88.9,7.8,189.9,85.9,99.6c111.2-153,321.4-183.3,405.1-172.5
		c102.5,19.8,182.5,123.4,207.9,125.4c25.4,2,13.7-61.3,13.7-61.3c1.4,2.9,2.8,5.9,4.1,8.9c0,0,151.2,244-41.3,456.4
		C701.7,1089.1,242.8,987.4,105,764.2c-1-1.5-2-3.1-3-4.7c-21.2-34.1-37-67.9-48.6-99.2C106.8,572.1,243.9,348.5,218.8,420.3z"/>
	<path class="st2" d="M680.7,183.7c49.4-48.5,129.9-117.2,190.6-152.4c29.2-17,53.8-26.2,68.1-21.7c2.8,0.8,5.1,2.2,7.1,4.1
		c23.7,23.2,14.4,169.4,3.6,279.9c-7,70.6-14.6,126.7-14.6,126.7c-15.5-33.2-32-65.7-81.8-118c-20.7-20.3-41.8-37.4-63.2-51.7
		c-36-24-72.5-40.1-108.3-50.3c-4.8-1.4-9.6-2.6-14.4-3.8C671.8,192.5,676.1,188.2,680.7,183.7z"/>
	<path class="st3" d="M871.3,31.4c-10.1,73.5-12.2,200.9,78.8,262.3c-7,70.6-14.6,126.7-14.6,126.7c-15.5-33.2-32-65.7-81.8-118
		c-20.7-20.3-41.8-37.4-63.2-51.7c-36-24-72.5-40.1-108.3-50.3l-1.6-16.6C730.1,135.2,810.6,66.6,871.3,31.4z"/>
	<path class="st4" d="M51.1,14.9c49.7-15.8,213.2,136.5,315.7,216.5c0,0,141.2-74,301.1-34.9c7.5,1.8,15.1,3.9,22.8,6.3
		c-46.6-1.7-115.4-3.1-144.9,2.2C499,213.5,329,264,254.7,383.2c-74.3,119.1-71.3,258.8-69.5,320.2c1.4,48.9-34.4,79.5-88.3,48
		c-44.5-74.3-63.2-146.8-71-192.6c-1.1-10.1-2.2-20.5-3.5-31c-0.8-6-1.4-12-2.1-17.9C-12.3,223.4,2.5,30.3,51.1,14.9z"/>
	<path class="st4" d="M939.4,9.6c-41.2,32.2-128.1,113.5-148.9,241c-40.8-27.2-82.3-44.2-122.7-54.1C736,126.7,892.6-5,939.4,9.6z"
		/>
	<path class="st5" d="M667.3,196.7c18-21.7,38.7-41.3,59-60.8c30.9-28.7,63.1-56.1,97.5-80.5c23.1-16.3,47-31.5,73.2-42.8
		c13.8-5.3,28.2-11.2,43.7-6.9c3.2,0.8,4.1,5.5,1.3,7.4c-48,35.5-89.8,81.2-115,136l-7.3,16.4l-6.3,16.8c-8.3,23.1-13.5,47.2-19,71
		c-1.4,2.2-4.4,2.7-6.5,1.3c-9.3-6.2-18.7-12.1-28.3-17.7C730.6,220,699.1,207.3,667.3,196.7L667.3,196.7z M668.3,196.4
		c33.5,5.2,65.5,17.4,95.4,33c10,5.2,19.8,11.1,29.3,17.3l-7.2,3.2c11.1-73.1,51.8-137.4,99-192.5c15.9-18.4,33.2-35.6,52-51.1
		l1.3,7.4c-34.7-7-111.7,54.4-141.3,75.9C755.4,121.4,714.9,155,676,189.9C673.8,191.8,670.7,194.7,668.3,196.4L668.3,196.4z"/>
	<path class="st5" d="M667,196.8c9.8-12.7,21.5-23.8,32.5-35.3c56.3-55.7,115.3-109,185.4-147.2C903.6,5.5,934-9.3,952.6,8
		c8.6,9.3,11,23.4,12.9,34.8c7.6,63.5,0.5,127.1-5.9,190.2c-7.1,62.7-14.3,125.2-20.2,188c-0.1,1.2-0.9,2.5-2.1,3.1
		c-1.9,1-4.3,0.2-5.3-1.7c-21.3-43.7-51.6-81.8-85.2-116.5c-29-28.5-61.5-53.6-97.1-73.3C723.7,217.7,695.1,206.6,667,196.8
		L667,196.8z M668.6,196.3c102.9,16.6,200.3,90.3,251,181.1c7.4,13.4,13.7,27.4,19.6,41.3l-7.6,1.2c15.8-93,21.6-187.6,22.5-281.8
		c0.1-30.9,0.3-62.6-4.6-92.8c-1.5-8.2-3.1-16-6.7-22.5c-2.2-3.9-5.1-5.3-10-5.6c-13.2-0.3-28,6.5-40.3,12.5
		c-13.6,6.6-26.9,14.5-39.9,22.9c-62,40.5-119.8,87.7-175.4,136.6C674.9,191.3,671.1,194.7,668.6,196.3L668.6,196.3z"/>
	<path class="st5" d="M368.1,222.4c0,0-27.7,15.2-48.3,39.2c32.8-26.4,66.9-39.2,66.9-39.2H368.1z"/>
	<path class="st5" d="M51.4,15.6C-13.1,43.9,7.5,316.1,13.6,383c3.6,42.3,8.6,84.5,13.7,126.7c0.9,16.6,3.4,33.8,6.5,50.3
		c15.8,83.2,49,164.3,101,231.4c162.6,201.4,596.3,285.2,772.8,64.1c93.2-112.3,103.3-255.1,47.5-387.3c-6.8-15.7-14.3-31.3-23-45.7
		c-9.8-21.3-21.3-41.7-34.7-60.8C858,307,809.5,265.5,746.8,233.1c-117.3-59-260-50.3-377.9,2.6c-1.6,0.8-3.7,0.7-5.2-0.5
		c-50.3-40.8-98.5-83.9-148.5-125C183.7,85.2,89.5,5.3,51.4,15.6L51.4,15.6z M50.9,14.1c38.2-10.9,133.1,68.2,166.8,93
		c51.1,39.6,100.6,81.4,152,120.5l-5.2-0.5c10.1-5.3,20.2-9.7,30.6-13.9c113.6-45.9,247.7-50.1,357.9,7.6
		c38.5,19.3,80,51.8,106.2,79.6c28.3,26.3,63.5,77.6,79.6,117.9c37.5,68.6,57.7,147.2,55.3,225.5c-2,78.7-32.2,155.1-80.9,216.3
		c-144.1,184.7-435.8,164.2-626.6,69.8c-70.3-34.9-136.1-83.3-181-148.9c-52.9-79.3-87.3-177.1-92-270.3
		c-12-126.6-19.9-254.6-7-381.4C10.8,98.9,18.7,25.8,50.9,14.1L50.9,14.1z"/>
	<path class="st2" d="M56.5,68.9c10.8,4.5,48,42.6,88.9,92c33.1,40,68.6,87.5,94.4,130.5C256.3,318.9,134.9,522,113,560.3
		c-20.1,35.1-64.5-92-76.1-226c-1.1-12-1.8-23.9-2.3-35.9C28.8,152.3,36.9,60.8,56.5,68.9z"/>
	<path class="st6" d="M327.6,643.2c7.1-85.1,52.7-166.4,117.6-206.6c75-42,139.1-61.4,202.6-61.1l0,0c15.2,0.1,30.5,1.3,45.8,3.6
		c15,2.3,30.1,5.6,45.5,9.9c66,18.5,208.6,88.2,186.5,282.8c-0.7,5.8-1.5,11.5-2.5,17.2C891,873.9,688.2,995.2,467.4,887.4
		C358,834,319.8,736.3,327.6,643.2z"/>
	<path class="st7" d="M636.5,336.4c9.7,2.9,32.2,11.3,56.1-1c23.9-12.3,33.2,15.1,20.5,22.1c-14.4,7.9-18.4,17-19.6,21.7
		c-15.3-2.3-30.5-3.5-45.8-3.6l0,0c-4.1-7.4-25.4-8.4-33.2-21.1C606.7,341.7,626.8,333.4,636.5,336.4z"/>
	<path class="st8" d="M386.7,314c6.2-5.8,12.6-10.9,19.1-15.3c58-40,121.3-28.3,130.8-3.7c10.6,27.3-35.8,36.7-64.2,48.6
		c-25.9,10.8-56.1,30.6-78.7,43.5c-16.6,9.5-29.3,15.3-33.1,11.1C351.5,388.3,342.5,354.9,386.7,314z"/>
	<path class="st8" d="M773.8,272.5c33.4,12.4,58.6,33.3,75,50.7c11.4,12.1,18.4,22.5,20.9,27.2c6.1,11.4-12.7,14-36.2,5.3
		c-1-0.4-2.1-0.8-3.2-1.2c-25.3-9-84.3-25.6-101.1-33C705.1,310.9,717.2,251.5,773.8,272.5z"/>
	<path class="st5" d="M405.8,298.7c58-40,121.3-28.3,130.8-3.7c10.6,27.3-35.8,36.7-64.2,48.6c-25.9,10.8-56.1,30.6-78.7,43.5
		C370.3,352.9,386.3,320.8,405.8,298.7z"/>
	<path class="st5" d="M773.8,272.5c33.4,12.4,58.6,33.3,75,50.7c0.6,10.9-2.7,23.7-18.5,31.3c-25.3-9-84.3-25.6-101.1-33
		C705.1,310.9,717.2,251.5,773.8,272.5z"/>
	<path class="st5" d="M504.4,274.3c-72.3-19-136.4,35.7-149,74s-0.5,51.9,0,40.6s0-28.9,18-52.9c18.1-24,76-50.5,76-50.5
		S477.1,292.5,504.4,274.3z"/>
	<path class="st5" d="M869.5,341.4c-20.4-25.1-54.2-47.2-54.2-47.2s5.1,17,18.1,25.7c13,8.8,37.3,35.8,37.3,35.8
		S876.6,352.4,869.5,341.4z"/>
	<path class="st8" d="M504.4,294.2c-8.5,0.9-74.6,10.1-65.2-3.7s34.7-12.3,55.5-10.7C517.1,281.5,512.9,293.4,504.4,294.2z"/>
	<path class="st8" d="M803.6,314.5c-12.8-6.2-34.7-17.4-31.5-26s27.8,6.4,42.5,14C833.1,312,816.4,320.7,803.6,314.5z"/>
	<path class="st9" d="M445.2,436.6c75-42,139.1-61.4,202.6-61.1l0,0c15.2,0.1,30.5,1.3,45.8,3.6c15,2.3,30.1,5.6,45.5,9.9
		c66,18.5,208.6,88.2,186.5,282.7c-0.7,5.8-1.5,11.5-2.5,17.2C859.5,755.1,757.8,798,643,797.9c-139.3,0-259.6-63.2-315.5-154.7
		C334.6,558.1,380.2,476.8,445.2,436.6z"/>
	<path class="st5" d="M467,888.1c-4.1-2.1-15-8-19-10.1c-4.3-2.5-13.8-8.5-18.2-11.3c-5.7-3.9-11.5-8.7-17.3-12.6
		c-12.8-10.7-25.3-22-35.9-35c-51-59.2-67.4-143.5-50-219.2c14.9-66.8,52.5-130.4,110.4-168.2c74.4-43.3,162.1-73,249-60.2
		c66.6,9.1,131.6,37.9,178.2,87.3c47.5,48.6,68.8,117.8,66.7,185c-0.4,38.6-7.7,77.3-22.3,113.1C871.9,848.2,785.9,914.7,689,928
		C613.2,939.7,535.3,921.3,467,888.1L467,888.1z M467.7,886.6c103.1,51,224,52.6,322.3-10.2c62.5-40,109.6-104.2,126.4-177.1
		c12.6-54.7,12.2-114.2-9.7-166.5C878,462.3,811,414,739.3,394.7C633,365.6,539,391.2,446.1,446.3
		C361.9,503,321.5,614.9,336.4,714.1c5.5,34.6,19.1,68.2,39.4,96.7c3.2,4,7.6,9.9,10.8,13.9c6.6,7.1,14.9,16.4,22.4,22.6l5.2,4.8
		l5.6,4.3c6.3,5.3,16.2,11.9,23.2,16.3C449.7,877.2,460.6,882.6,467.7,886.6L467.7,886.6z"/>
	<path class="st10" d="M624.5,349.4c9.9-5,28,14.1,28,14.1C630,361.9,614.5,354.5,624.5,349.4z"/>
	<path class="st10" d="M709.7,347.4c-8.3-4.5-19.1,16.1-19.1,16.1C701.2,361.2,718,351.9,709.7,347.4z"/>
	<path class="st3" d="M145.4,160.9c33.1,40,68.6,87.5,94.4,130.5c16.5,27.5-104.9,230.6-126.9,268.9c-20.1,35.1-64.5-92-76.1-226
		C134.4,390.3,148.1,261.2,145.4,160.9z"/>
	<path class="st5" d="M239.3,291.7C203,231.8,156.6,179,109.9,127.3C94.3,110.6,78.5,93.1,61,78.7c-2.4-1.8-4.8-3.7-6.8-4.5
		c-2.9,2.5-5.2,9.1-6.4,13.8c-7.9,33.4-8.7,68.6-9.8,103.1c-0.4,23.2-0.5,46.6-0.3,69.9c-0.2,70,5.5,140.1,23.6,207.9
		c5.3,20,24.9,86.9,43.7,93.3c1.6-0.1,2.6-1.2,3.6-2.7l0.9-1.5c3.4-7.1,73.1-128.3,78.8-138.8C201.1,395.1,248.5,315.1,239.3,291.7
		L239.3,291.7z M240.3,291.1c10.1,18.9-35.6,108.8-46,131.3c-23,47.3-49.2,93.1-76.6,137.9c-2,4.1-7.1,10.6-13.3,9.8
		c-30.8-4.3-55.4-138.4-61-168.9C30.8,332,27.6,261.4,27.8,191.1c0.8-28.9-0.2-103.5,17.4-124.3c7.7-8.1,16.3-2.5,22.8,3
		c9.4,7.7,17.6,16.1,25.8,24.6C150,154,197.5,221.4,240.3,291.1L240.3,291.1z"/>
</g>
</svg>
