<?xml version="1.0" encoding="utf-8"?>
<!-- Generator: Adobe Illustrator 24.0.0, SVG Export Plug-In . SVG Version: 6.00 Build 0)  -->
<svg version="1.1" id="CIRCLE_OUTLINE_BLACK" xmlns="http://www.w3.org/2000/svg" xmlns:xlink="http://www.w3.org/1999/xlink"
	 x="0px" y="0px" viewBox="0 0 512 512" style="enable-background:new 0 0 512 512;" xml:space="preserve">
<style type="text/css">
	.st0{fill:#FFFFFF;}
	.st1{fill:url(#SVGID_1_);}
	.st2{fill:none;}
	.st3{fill:url(#SVGID_2_);}
</style>
<circle class="st0" cx="255.7" cy="259.9" r="220.3"/>
<radialGradient id="SVGID_1_" cx="52.6495" cy="388.8244" r="367.8217" gradientTransform="matrix(1 0 0 -1 0 514)" gradientUnits="userSpaceOnUse">
	<stop  offset="6.888000e-02" style="stop-color:#1C5DFF"/>
	<stop  offset="0.1813" style="stop-color:#2263FF"/>
	<stop  offset="0.3383" style="stop-color:#3475FF"/>
	<stop  offset="0.5207" style="stop-color:#5292FF"/>
	<stop  offset="0.5781" style="stop-color:#5D9DFF"/>
	<stop  offset="0.639" style="stop-color:#619BFE"/>
	<stop  offset="0.7103" style="stop-color:#7098FC"/>
	<stop  offset="0.7868" style="stop-color:#8791F9"/>
	<stop  offset="0.8671" style="stop-color:#A889F4"/>
	<stop  offset="0.9494" style="stop-color:#D27EEF"/>
	<stop  offset="1" style="stop-color:#F077EB"/>
</radialGradient>
<path class="st1" d="M295.3,224.8h-81.1V239h81.1c3.9,0,7.1-3.2,7.1-7.1S299.2,224.8,295.3,224.8z"/>
<path class="st2" d="M295.3,224.8h-81.1V239h81.1c3.9,0,7.1-3.2,7.1-7.1S299.2,224.8,295.3,224.8z"/>
<radialGradient id="SVGID_2_" cx="52.6495" cy="388.8244" r="367.8217" gradientTransform="matrix(1 0 0 -1 0 514)" gradientUnits="userSpaceOnUse">
	<stop  offset="6.888000e-02" style="stop-color:#1C5DFF"/>
	<stop  offset="0.1813" style="stop-color:#2263FF"/>
	<stop  offset="0.3383" style="stop-color:#3475FF"/>
	<stop  offset="0.5207" style="stop-color:#5292FF"/>
	<stop  offset="0.5781" style="stop-color:#5D9DFF"/>
	<stop  offset="0.639" style="stop-color:#619BFE"/>
	<stop  offset="0.7103" style="stop-color:#7098FC"/>
	<stop  offset="0.7868" style="stop-color:#8791F9"/>
	<stop  offset="0.8671" style="stop-color:#A889F4"/>
	<stop  offset="0.9494" style="stop-color:#D27EEF"/>
	<stop  offset="1" style="stop-color:#F077EB"/>
</radialGradient>
<path class="st3" d="M256,0C114.6,0,0,114.6,0,256s114.6,256,256,256s256-114.6,256-256S397.4,0,256,0z M363.6,288.6v44.9h-61.9
	v-38.1c0,0,2.5-16.1-20.3-16.1h-67v54.2h-66.1V178.4h172.9c0,0,42.4,5.1,42.4,36.4s-20.3,40.7-20.3,40.7S363.6,268.3,363.6,288.6z"
	/>
</svg>
