<?xml version="1.0" encoding="utf-8"?>
<!-- Generator: Adobe Illustrator 24.0.0, SVG Export Plug-In . SVG Version: 6.00 Build 0)  -->
<svg version="1.1" id="Layer_1" xmlns="http://www.w3.org/2000/svg" xmlns:xlink="http://www.w3.org/1999/xlink" x="0px" y="0px"
	 viewBox="0 0 22 30.8" style="enable-background:new 0 0 22 30.8;" xml:space="preserve">
<style type="text/css">
	.st0{fill-rule:evenodd;clip-rule:evenodd;fill:#004DE5;}
	.st1{fill:url(#SVGID_1_);}
</style>
<path class="st0" d="M0,2.4v19c0,0.4,0.1,0.7,0.2,1c0.2,0.3,0.4,0.6,0.7,0.8l9,7.2c0.3,0.3,0.7,0.4,1.1,0.4s0.8-0.1,1.1-0.4l9-7.2
	c0.3-0.2,0.5-0.5,0.7-0.8c0.2-0.3,0.2-0.7,0.2-1v-19c0-0.6-0.3-1.2-0.7-1.7C20.9,0.2,20.3,0,19.6,0H2.4C1.7,0,1.1,0.2,0.7,0.7
	C0.3,1.1,0,1.7,0,2.4z"/>
<linearGradient id="SVGID_1_" gradientUnits="userSpaceOnUse" x1="11.0001" y1="27.2334" x2="11.0001" y2="8.9001" gradientTransform="matrix(1 0 0 -1 0 32)">
	<stop  offset="0" style="stop-color:#FFFFFF"/>
	<stop  offset="0.4583" style="stop-color:#FFFFFF"/>
	<stop  offset="1" style="stop-color:#FFFFFF"/>
</linearGradient>
<path class="st1" d="M17.4,11V6.8c0-0.5-0.2-1.1-0.6-1.5c-0.4-0.4-0.9-0.6-1.5-0.6H6.6C6.1,4.8,5.6,5,5.2,5.4
	C4.8,5.8,4.6,6.3,4.6,6.8v12c0,0.3,0.1,0.6,0.2,0.9c0.1,0.3,0.3,0.5,0.6,0.7L8.5,23c0,0,0.1,0.1,0.1,0.1c0,0,0.1,0,0.1,0
	c0,0,0.1-0.1,0.1-0.1c0,0,0-0.1,0-0.1v-8.5c0-0.1,0-0.1,0.1-0.2c0,0,0.1-0.1,0.2-0.1h2.3c0.4,0,0.8,0.2,1.1,0.5
	c0.3,0.3,0.5,0.7,0.5,1.1v7.2c0,0,0,0.1,0,0.1c0,0,0.1,0.1,0.1,0.1c0,0,0.1,0,0.1,0c0,0,0.1,0,0.1-0.1l3.2-2.6
	c0.2-0.2,0.4-0.4,0.6-0.7c0.1-0.3,0.2-0.6,0.2-0.9v-3.7c0-0.5-0.2-1.1-0.6-1.5c-0.4-0.4-0.9-0.6-1.5-0.6c0.5,0,1.1-0.2,1.4-0.6
	C17.2,12.1,17.4,11.5,17.4,11z M11.5,12H9.2c-0.1,0-0.1,0-0.2-0.1c0,0-0.1-0.1-0.1-0.2V7.1C8.9,7,9,7,9,6.9c0,0,0.1-0.1,0.2-0.1h3.6
	c0.1,0,0.1,0,0.2,0.1c0,0,0.1,0.1,0.1,0.2v3.4c0,0.4-0.2,0.8-0.5,1.1C12.3,11.9,11.9,12,11.5,12z"/>
</svg>
