<?xml version="1.0" encoding="utf-8"?>
<!-- Generator: Adobe Illustrator 24.0.0, SVG Export Plug-In . SVG Version: 6.00 Build 0)  -->
<svg version="1.1" id="CIRCLE_OUTLINE_BLACK" xmlns="http://www.w3.org/2000/svg" xmlns:xlink="http://www.w3.org/1999/xlink"
	 x="0px" y="0px" viewBox="0 0 512 512" style="enable-background:new 0 0 512 512;" xml:space="preserve">
<style type="text/css">
	.st0{fill:#6763FB;}
</style>
<circle class="st0" cx="256" cy="256" r="256"/>
<path d="M256.5,48.4c110.4-1.6,207.7,90.8,207.3,207.3c-0.3,115.6-92.4,207.4-208.1,207.9c-113.5,0.5-213.6-95.9-207.3-219.3
	C53.7,141.2,141.7,47,256.5,48.4L256.5,48.4z M239.1,201.7c0.3-1,0.6-2,1-3c4.2,0,8.5,0,12.7,0c27.4,0,54.8-0.2,82.2,0.1
	c11.7,0.1,14.6-6.1,14.4-16.4c-0.2-16.1-1.9-19.5-13.2-19.6c-45.8-0.2-91.6-0.4-137.4,0.1c-17.4,0.2-30.3,8.4-33,21.1
	c-2.1,9.8-2.9,20.2-2.4,30.2c0.7,13.3,9.6,21.8,22.9,22c33.5,0.5,67.1,0.2,104,0.2C271.5,223.6,255.3,212.7,239.1,201.7L239.1,201.7
	z M273.4,310.2c-0.3,0.8-0.5,1.6-0.8,2.3c-3.7,0.2-7.4,0.6-11.1,0.6c-27.8,0-55.6,0-83.4,0.1c-13,0-15.1,2.6-15.1,17.6
	c0,15.3,2.2,18.3,14.5,18.3c44.6,0.1,89.3,0.3,133.9-0.2c7.1-0.1,14.7-2.1,21.3-5.1c16.7-7.5,19.1-29,15.5-49.8
	c-1.9-10.9-9.8-17.7-20.3-18c-34.2-0.7-68.4-0.3-105.7-0.3C240.9,288.4,257.2,299.3,273.4,310.2L273.4,310.2z"/>
</svg>
