<?xml version="1.0" encoding="utf-8"?>
<!-- Generator: Adobe Illustrator 24.0.0, SVG Export Plug-In . SVG Version: 6.00 Build 0)  -->
<svg version="1.1" id="Layer_1" xmlns="http://www.w3.org/2000/svg" xmlns:xlink="http://www.w3.org/1999/xlink" x="0px" y="0px"
	 viewBox="0 0 500.8 499.7" style="enable-background:new 0 0 500.8 499.7;" xml:space="preserve">
<style type="text/css">
	.st0{fill-rule:evenodd;clip-rule:evenodd;fill:#FF8600;}
</style>
<path class="st0" d="M0,250c0,138,112.2,249.9,250.3,249.7c138-0.1,250.4-112,250.5-250C500.9,111.9,388.4,0,250.5,0
	C112.5,0,0,111.9,0,250z M255.8,100.3c-0.2,0.7-1.1,3.6-2,6.5c-0.9,2.9-2.8,10.1-4.3,16.1c-4.4,17.8-2.5,16.1-18.5,16.2
	c-22.5,0-38.9,5.3-49.4,15.9c-10.1,10.1-15.2,25.5-12.8,38.7c2.5,13.6,13.8,28.8,31.8,42.6c4.6,3.5,28.2,17.6,35.4,21.2
	c6.3,3.1,22.1,11.8,29.7,16.3c15.2,9.1,25,19.6,25,26.7c0,5.8-2.2,11.4-5.9,14.9c-5.8,5.5-9.8,6.7-23.9,7.3
	c-10.9,0.4-14.4,0.1-26-2.3c-7.3-1.5-18.1-4.4-23.8-6.4c-12.3-4.2-33.2-14.6-47.2-23.5l-6.7-4.2c-1.9-1.2-4.4-0.8-5.8,0.9
	c-1.4,1.7-2.8,3.4-4.2,5.1c-0.9,1.2-4.6,5.7-8.2,10.1c-3.6,4.4-6.5,8.4-6.5,8.9c0,0.9,9.8,8.6,11,8.6c0.4,0,1.9,0.9,3.4,2
	c4.7,3.4,28.4,14.9,35.6,17.3c4.9,1.7,6.9,2.8,7.1,4.3c0.3,2-3.1,16.4-7,30c-1.2,4-1.9,7.4-1.7,7.6c0.2,0.2,2.8,1.1,5.7,1.9
	c2.9,0.8,7.8,2.2,10.8,3c8.7,2.5,9.6,2.2,10.9-2.9c7.1-28.1,8.3-32,10.2-32c1.3,0,20.5,5,20.9,5.4c0.1,0.1-0.9,4.7-2.3,10.2
	c-1.4,5.4-2.6,10.4-2.8,10.9c-0.1,0.6-0.5,1.5-0.8,2.1c-1.1,1.9-3.3,14.1-2.7,14.7c0.7,0.7,22.5,6.6,24.4,6.6c0.7,0,1.5-1.5,1.9-3.4
	c0.4-1.9,1.3-5.8,2.2-8.9s2.2-7.9,3-10.9c0.8-3,2.2-8.2,3.2-11.5c1-3.5,4.2-6,7.9-6h4.1c12.6,0,28.8-3.1,39.3-7.5
	c14.1-5.9,24.2-16.5,28-29.4c2.4-8,2-21.8-0.9-28.7c-7.6-18.4-26.4-34.9-61.6-54.1c-36.6-19.9-47.8-27.4-53.4-36
	c-7.7-11.6-4.4-22.2,8.5-27.1c7.3-2.8,27.8-1.7,42.8,2.3c19.6,5.3,43.3,15.3,61.8,26.1c3.8,2.2,4.7,2.4,5.9,1.2
	c0.7-0.8,5.7-6.6,11.1-12.8c8.7-10.2,9.5-11.5,7.8-12.5c-1-0.6-4.1-2.6-6.8-4.4c-5.9-4-23.1-12.9-31.8-16.4c-3.6-1.5-6.2-3.1-6-3.9
	c0.5-3.1,5.7-23.5,7.7-30.2c1.2-4.1,1.8-7.6,1.3-8.1c-0.5-0.5-3-1.3-5.6-1.9c-2.6-0.6-7.5-1.9-11-2.9c-3.5-1-7-1.6-7.8-1.2
	c-0.9,0.3-3,6.5-5.4,15.5c-4.8,18-5.7,20.7-7.6,20.7c-0.8,0-4.1-0.9-7.4-2s-7.7-2.3-9.8-2.6c-3.6-0.6-3.8-0.8-2.9-3.5
	c0.5-1.6,2.6-9.4,4.7-17.4c2.1-8,4-15.3,4.3-16.3c0.5-1.8,0-2-16.3-6.2C256.3,98.6,256.3,98.6,255.8,100.3L255.8,100.3z"/>
</svg>
