<?xml version="1.0" encoding="utf-8"?>
<!-- Generator: Adobe Illustrator 24.0.0, SVG Export Plug-In . SVG Version: 6.00 Build 0)  -->
<svg version="1.1"
	 id="Layer_1" text-rendering="geometricPrecision" image-rendering="optimizeQuality" shape-rendering="geometricPrecision" xmlns:xodm="http://www.corel.com/coreldraw/odm/2003"
	 xmlns="http://www.w3.org/2000/svg" xmlns:xlink="http://www.w3.org/1999/xlink" x="0px" y="0px" viewBox="0 0 342.9 342.9"
	 enable-background="new 0 0 342.9 342.9" xml:space="preserve">
<g id="Layer_x0020_1">
	<g id="_1527678622864">
		
			<circle fill-rule="evenodd" clip-rule="evenodd" fill="#1A1A1A" stroke="#000000" stroke-width="0.4701" stroke-miterlimit="17.6996" cx="171.4" cy="171.4" r="171.2"/>
		<path fill-rule="evenodd" clip-rule="evenodd" d="M41.6,283c26.9,30.8,64.6,52.1,105.6,57.5c3.9,0.5,15.8,1,18.6,2
			c1.9,0.1,3.8,0.1,5.6,0.1c1.5,0,3.1,0,4.6-0.1c2.4-1,14.9-1.6,18.7-2.1c69.1-9.1,125.6-61.2,142.5-128.4
			c1.2-4.8,2.6-12.3,3.3-17.4c0.5-3.6,1.2-17.3,2.1-19.4c0-1.3,0-2.6,0-3.9c0-1.5,0-2.9-0.1-4.3c-0.8-2-1.6-15.3-1.9-18.2
			c-1.7-15.3-6.8-33.2-13.1-47.1c-9-19.8-20.9-37.2-35.4-51.8c-20.8-20.7-46.8-36-76-43.9l-17.5-3.8c-8.9-1.4-18-2.2-27.3-2.2
			C89.8,0.2,21.5,57.4,4.4,133.9l-0.8,4c-2.2,10.9-3.3,22.1-3.3,33.6C0.2,214.1,15.8,253.1,41.6,283L41.6,283z"/>
		<path fill-rule="evenodd" clip-rule="evenodd" fill="#FEFEFE" d="M186.5,90.5c14-2.1,24.6-4.1,38.9,2.5c14.5,6.7,26,21.4,26,36.1
			c0,15.6-1,30.1-16.5,41.8c-16,11.9-41.7,16.7-61.1,4.9c-4.1-2.5-5.6-3.8-9.2-6.8c-2.8-2.3-6.5-6.1-9.1-7
			c-4.7,3.6-3.8,8.2-3.8,16.1c4.7-2.3,11.3-2.5,11.3,4.7c0,11.1-31,8.7-31-4.7c0-4.5-1.3-9.8,9.4-4.7c0.7-5.8,1.3-6.8,0.7-12
			c-4.8,0.8-19.5,13-45.9,5.5c-12.3-3.5-27.9-15.1-28.1-29.2c-3,0.8-0.7-1.4-3.1,2.5l-5,11.9c-13.9,38.8-13.6,73.5-9.6,114.3
			c1,10-0.2,7.6,8.8,16.6c25.2,25.2,57.8,41.3,93.8,45.4c22.9,2.6,43.6,0.6,65.7-6.2c12.5-3.9,23.8-9.3,34.3-15.6
			c18.5-11,39.5-30.6,50.3-48.5c-1.1-4.9-7.3-15-10.1-20.1c-5.7-10.2-23.1-40.1-25.9-50.3c-1.3-4.6-1.4-8.3-3.5-12.5
			c-5.3-10.4-6.7-7.6-6.6-23.5c0-10.5-1.9-19.5-1.9-29.1c-0.1-19.6-2.6-40-9.4-52.7c-5.3,1.3-10.8,1.6-16.8,3
			c-10.6,2.5-26.3,8.2-36.2,13.6l-4.6,2.8C186.1,90.7,187.6,89.6,186.5,90.5L186.5,90.5z"/>
		<path fill-rule="evenodd" clip-rule="evenodd" fill="#ED3024" d="M38.8,257.4C35,231.2,39.4,170.9,51,147c13.2-27.1,28-54,52.2-72
			c13.9-10.4,25.3-15.1,39-23.1c4.8-2.8,8.5-5.7,15.2-5.5c7.2,10.7,12.3,22.6,17.6,34.8l31.4-12.1c9.2-3.2,44.7-17.7,50-9.9
			c2.4,3.5,6.6,29.7,7.5,35.7c2.7,17,2.7,58.4,4.4,66.2c1.5,7.1,0.9-2.9,4.9,12.1c4.2,15.6,13.4,30.4,20.5,44.4
			c3,5.9,14,24.8,15.1,29.2h1.9c0.4-1.7,9.5-20.2,14.1-37.7c5.8-22.2,6-47.9,1.2-70.8C313.8,79.6,267.8,31.7,209.7,17.4
			c-11.1-2.7-33.9-6.5-47.3-4.6c-18.4,2.6-23.9,1.7-43.3,8.5C69,38.7,31.7,79.6,17.8,130.7c-8.3,30.4-6.6,62.4,3.2,91.4
			C24,230.9,33.3,252.2,38.8,257.4L38.8,257.4z"/>
		<path fill-rule="evenodd" clip-rule="evenodd" fill="#FEFEFE" d="M3.5,137.9l0.8-4C4.1,135.2,3.8,136.5,3.5,137.9z"/>
		<path fill-rule="evenodd" clip-rule="evenodd" fill="#FEFEFE" d="M195,172.4c24.6,0,47-17,47-36.7c0-10.7-2-18.7-11.2-26.5
			c-11.7-10-17.6-10.2-29.3-10.2c-9.4,0-21.1,6-26.7,10c-15.5,11-21.2,35.3-5.5,51.3C173.8,164.8,186.4,172.4,195,172.4L195,172.4z"
			/>
		<path fill-rule="evenodd" clip-rule="evenodd" fill="#FEFEFE" d="M76.4,126.3c0,11.4,0.9,21.1,13.8,28.5
			c31.7,18.4,61.5-8.8,61.5-33.3c0-6.7-8.5-17.3-13.5-20.3c-7-4.2-19.8-7-29.8-7c-10.5,0-16.2,5-21.4,10.6
			C83.5,108.6,76.4,119.9,76.4,126.3L76.4,126.3z"/>
		<path fill-rule="evenodd" clip-rule="evenodd" fill="#FEFEFE" d="M107.5,86c44.7-2.4,42.1,16.9,51.9,25l11.5-13.9
			c-9.6-5.2-3.7-14.6-19.1-37.6C139.9,63.1,112.4,77.8,107.5,86L107.5,86z"/>
		<path fill-rule="evenodd" clip-rule="evenodd" d="M203.4,147.9c2.8-5.8,0.1-11.3-6.6-11.3C187.9,136.6,190.7,154.1,203.4,147.9z"
			/>
		<path fill-rule="evenodd" clip-rule="evenodd" d="M117.8,131.9c0,11.9,11.3,11.2,11.3,0C129.1,127.2,117.8,126.3,117.8,131.9z"/>
	</g>
</g>
</svg>
