<?xml version="1.0" encoding="UTF-8" standalone="no"?>
<svg
   viewBox="0 0 45.673824 50.074223"
   version="1.1"
   id="svg18"
   xmlns="http://www.w3.org/2000/svg"
   xmlns:svg="http://www.w3.org/2000/svg">
  <defs
     id="defs12">
    <linearGradient
       id="linear0"
       gradientUnits="userSpaceOnUse"
       x1="13.915"
       y1="81.209999"
       x2="26.825001"
       y2="81.209999"
       gradientTransform="matrix(1.405841,0,0,0.570368,-5.8133006,-3.6072266)">
      <stop
         offset="0"
         style="stop-color:rgb(93.72549%,25.490196%,21.176471%);stop-opacity:1;"
         id="stop1" />
      <stop
         offset="1"
         style="stop-color:rgb(98.431373%,69.019608%,25.098039%);stop-opacity:1;"
         id="stop2" />
    </linearGradient>
    <linearGradient
       id="linear1"
       gradientUnits="userSpaceOnUse"
       x1="5.9120002"
       y1="37.5"
       x2="25.174"
       y2="37.5"
       gradientTransform="matrix(0.985163,0,0,0.813916,-5.8133006,-3.6072266)">
      <stop
         offset="0"
         style="stop-color:rgb(93.72549%,25.490196%,21.176471%);stop-opacity:1;"
         id="stop3" />
      <stop
         offset="1"
         style="stop-color:rgb(98.431373%,69.019608%,25.098039%);stop-opacity:1;"
         id="stop4" />
    </linearGradient>
    <linearGradient
       id="linear2"
       gradientUnits="userSpaceOnUse"
       x1="8.5570002"
       y1="13.566"
       x2="52.049"
       y2="13.566"
       gradientTransform="matrix(0.989228,0,0,0.810575,-5.8133006,-3.6072266)">
      <stop
         offset="0"
         style="stop-color:rgb(93.72549%,25.490196%,21.176471%);stop-opacity:1;"
         id="stop5" />
      <stop
         offset="1"
         style="stop-color:rgb(98.431373%,69.019608%,25.098039%);stop-opacity:1;"
         id="stop6" />
    </linearGradient>
    <linearGradient
       id="linear3"
       gradientUnits="userSpaceOnUse"
       x1="7.9070001"
       y1="10.19"
       x2="22.299999"
       y2="10.19"
       gradientTransform="matrix(0.735125,0,0,1.090762,-5.8133006,-3.6072266)">
      <stop
         offset="0"
         style="stop-color:rgb(93.72549%,25.490196%,21.176471%);stop-opacity:1;"
         id="stop7" />
      <stop
         offset="1"
         style="stop-color:rgb(98.431373%,69.019608%,25.098039%);stop-opacity:1;"
         id="stop8" />
    </linearGradient>
    <linearGradient
       id="linear4"
       gradientUnits="userSpaceOnUse"
       x1="14.119"
       y1="4.994"
       x2="33.978001"
       y2="4.994"
       gradientTransform="matrix(1.110383,0,0,0.722135,-5.8133006,-3.6072266)">
      <stop
         offset="0"
         style="stop-color:rgb(93.72549%,25.490196%,21.176471%);stop-opacity:1;"
         id="stop9" />
      <stop
         offset="1"
         style="stop-color:rgb(98.431373%,69.019608%,25.098039%);stop-opacity:1;"
         id="stop10" />
    </linearGradient>
    <linearGradient
       id="linear5"
       gradientUnits="userSpaceOnUse"
       x1="55.598"
       y1="10.221"
       x2="69.959999"
       y2="10.221"
       gradientTransform="matrix(0.735609,0,0,1.090045,-5.8133006,-3.6072266)">
      <stop
         offset="0"
         style="stop-color:rgb(93.72549%,25.490196%,21.176471%);stop-opacity:1;"
         id="stop11" />
      <stop
         offset="1"
         style="stop-color:rgb(98.431373%,69.019608%,25.098039%);stop-opacity:1;"
         id="stop12" />
    </linearGradient>
  </defs>
  <path
     style="fill:url(#linear0);fill-rule:nonzero;stroke:none"
     d="m 19.084961,49.233398 c 0.359374,0.167969 0.730468,0.316406 1.109374,0.4375 l 0.164063,0.05469 c 0.359375,0.109376 0.726563,0.195313 1.101563,0.257813 h 0.167968 c 0.773438,0.121094 1.5625,0.121094 2.335938,0 h 0.179687 c 0.367188,-0.05859 0.730469,-0.140625 1.085938,-0.25 l 0.203125,-0.0625 c 0.359375,-0.113281 0.714844,-0.253906 1.058594,-0.410156 l 0.152343,-0.07422 c 0.347657,-0.167969 0.683594,-0.355469 1.011719,-0.5625 l 0.07813,-0.04687 c 0.34375,-0.21875 0.675781,-0.460937 0.996094,-0.714844 l 0.1875,-0.152343 c 0.308593,-0.257813 0.609375,-0.535157 0.894531,-0.832032 l 0.195312,-0.199218 c 0.296876,-0.304688 0.59375,-0.625 0.898438,-0.964844 l 0.125,-0.160156 c 0.269531,-0.332032 0.527344,-0.671876 0.777344,-1.03125 l 0.08984,-0.125 c -2.886719,-0.164063 -5.738282,-0.703126 -8.488282,-1.59375 -0.378906,-0.121094 -0.785156,-0.121094 -1.164062,0 -2.75,0.898437 -5.605469,1.441406 -8.496094,1.609374 1.332031,2.042969 3.171875,3.703126 5.335938,4.820313 z m 0,0"
     id="path13" />
  <path
     style="fill:url(#linear1);fill-rule:nonzero;stroke:none"
     d="m 0.01464844,34.006835 c 0.0351562,0.378907 0.089844,0.757813 0.171875,1.128907 l 0.042969,0.207031 c 0.085937,0.359375 0.191406,0.71875 0.324219,1.066406 l 0.070312,0.167969 c 0.28125,0.726563 0.67578096,1.40625 1.16406196,2.015625 l 0.117188,0.144531 c 0.230469,0.285157 0.484375,0.554688 0.75,0.804688 l 0.164062,0.152343 c 0.28125,0.25 0.582032,0.484376 0.894532,0.699219 l 0.140625,0.09766 c 0.308593,0.207031 0.625,0.398437 0.949219,0.574218 l 0.117187,0.0625 c 0.351563,0.179688 0.71875,0.339844 1.085937,0.492188 l 0.25,0.09766 c 0.367188,0.136719 0.75,0.261719 1.144532,0.367188 l 0.296875,0.07422 c 0.402343,0.105469 0.8125,0.195313 1.242187,0.265625 h 0.214844 c 0.394531,0.06641 0.796875,0.117188 1.2109376,0.152344 h 0.195312 c -0.320312,-0.625 -0.6210936,-1.28125 -0.8945306,-1.960937 -0.164063,-0.351563 -0.085938,-0.769532 0.199219,-1.035157 0.2812496,-0.265625 0.7070306,-0.316406 1.0468736,-0.128906 0.183594,0.09375 0.328126,0.25 0.410157,0.441406 0.238281,0.566407 0.492187,1.113281 0.761719,1.636719 0.355468,0.695312 1.089843,1.113281 1.871093,1.058594 1.574219,-0.109375 3.136719,-0.339844 4.671875,-0.691406 0.195313,-0.05078 0.335938,-0.214844 0.355469,-0.414063 0.02344,-0.199219 -0.07813,-0.390625 -0.253906,-0.480469 C 17.401367,40.401367 16.084961,39.741211 14.795898,38.987304 9.4833984,36.053711 4.9287114,31.920898 1.4912114,26.913085 l -0.050782,0.117188 c -0.199218,0.429688 -0.378906,0.851562 -0.53124996,1.273438 v 0.08984 c -0.160156,0.429691 -0.292968,0.894534 -0.410156,1.289066 l -0.0625,0.214844 c -0.109375,0.410156 -0.195312,0.820312 -0.261719,1.226562 v 0.214844 c -0.0625,0.40625 -0.1015622,0.816406 -0.1249998,1.226562 v 0.08984 c -0.0195312,0.386719 -0.0195312,0.777344 0,1.164062 -0.0429687,0.0625 -0.0429687,0.109376 -0.0351562,0.1875 z m 0,0"
     id="path14" />
  <path
     style="fill:url(#linear2);fill-rule:nonzero;stroke:none"
     d="m 22.944335,9.3896484 h -0.125 c -2.484374,0.8710936 -4.882812,1.9765626 -7.164062,3.2929686 -5.164062,2.859375 -9.5703116,6.914062 -12.8476556,11.824218 -0.207032,0.332032 -0.207032,0.757813 0,1.089844 1.222656,1.949219 2.664062,3.75 4.289062,5.375 -0.253906,-1.964844 -0.378906,-3.941406 -0.375,-5.917968 v -1.660157 c 0.00781,-0.207031 0.089844,-0.40625 0.230469,-0.5625 0.257813,-0.265625 0.648437,-0.347656 0.988281,-0.207031 0.339844,0.140625 0.558594,0.476562 0.554688,0.84375 v 1.601562 c -0.00391,2.425782 0.203125,4.847657 0.617187,7.238282 0.070313,0.402344 0.285157,0.765625 0.597657,1.027344 1.8671866,1.542968 3.8632806,2.925781 5.9648426,4.128906 4.894531,2.929687 10.390625,4.699218 16.070313,5.175781 0.773437,0.03125 1.492187,-0.398437 1.835937,-1.089844 0.71875,-1.46875 1.316407,-2.988281 1.789063,-4.550781 0.05859,-0.183594 -0.01172,-0.382812 -0.167969,-0.492188 -0.160156,-0.105468 -0.367187,-0.101562 -0.519531,0.01563 -1.222656,0.894531 -2.484375,1.726562 -3.789063,2.492187 -0.402343,0.230469 -0.8125,0.445313 -1.226562,0.664063 -0.203125,0.105468 -0.4375,0.132812 -0.660157,0.07031 -0.335937,-0.113281 -0.574218,-0.414062 -0.605468,-0.765625 -0.03516,-0.351563 0.144531,-0.691406 0.453125,-0.863281 0.394531,-0.210938 0.785156,-0.429688 1.171875,-0.65625 2.121094,-1.222656 4.128906,-2.628906 6.007812,-4.199219 0.277344,-0.230471 0.464844,-0.546877 0.539063,-0.894533 0.40625,-2.417969 0.601562,-4.867188 0.589843,-7.316406 v -1.945313 c -0.0039,-0.335937 0.179688,-0.644531 0.476563,-0.800781 0.296875,-0.15625 0.652344,-0.132813 0.929687,0.05859 0.191407,0.160156 0.308594,0.394531 0.320313,0.644531 0,0.660156 0.04687,1.324219 0.04687,1.996093 0.105469,6.070313 -1.207031,12.082032 -3.832031,17.554688 h 0.195312 c 0.414063,-0.04297 0.816407,-0.09375 1.207031,-0.152344 h 0.207032 c 0.429687,-0.07422 0.84375,-0.171875 1.253906,-0.277344 l 0.285156,-0.07422 c 0.394532,-0.105469 0.777344,-0.230469 1.148438,-0.375 l 0.25,-0.09766 c 0.375,-0.152344 0.742187,-0.3125 1.09375,-0.492188 l 0.113281,-0.0625 c 0.332031,-0.179688 0.652344,-0.371094 0.960937,-0.582031 l 0.140626,-0.08984 c 0.3125,-0.21875 0.613281,-0.453125 0.898437,-0.707031 l 0.160161,-0.152338 c 0.265625,-0.253906 0.519531,-0.523438 0.75,-0.808594 l 0.117188,-0.140625 c 0.488281,-0.609375 0.882812,-1.289062 1.164062,-2.015625 l 0.07031,-0.171875 c 0.132812,-0.347656 0.238281,-0.703125 0.324218,-1.066406 l 0.04297,-0.203125 c 0.07813,-0.359375 0.136719,-0.722656 0.171875,-1.085938 v -0.152343 c 0.01953,-0.386719 0.01953,-0.777344 0,-1.164063 v -0.08984 c -0.01172,-0.425781 -0.04297,-0.855468 -0.09766,-1.28125 v -0.214843 c -0.06641,-0.40625 -0.152344,-0.8125 -0.261719,-1.226563 l -0.07813,-0.203125 c -0.117176,-0.421879 -0.253895,-0.851566 -0.414051,-1.281254 v -0.109375 c -0.152344,-0.421875 -0.332032,-0.839844 -0.527344,-1.261718 l -0.05469,-0.117188 c -0.597656,0.929688 -1.246093,1.828125 -1.941406,2.6875 -0.1875,0.21875 -0.488281,0.304688 -0.761718,0.214844 -0.273436,-0.09375 -0.464842,-0.339844 -0.484374,-0.628906 v -0.597657 c -0.01172,-0.171875 0.04297,-0.34375 0.152344,-0.476562 1.398438,-1.828125 1.359375,-4.378907 -0.09766,-6.160157 -3.08984,-3.765624 -6.851558,-6.917968 -11.093746,-9.304687 -1.128906,-0.644531 -2.253906,-1.226563 -3.382812,-1.792969 0.75,-0.269531 1.582031,-0.535156 2.496093,-0.777344 0.597657,0.308594 1.195313,0.636719 1.792969,0.976563 1.699219,0.980469 3.335938,2.070313 4.894531,3.257813 -0.550781,-2.078126 -1.316406,-4.097657 -2.289062,-6.0156256 -0.289063,-0.574218 -0.882813,-0.925781 -1.523438,-0.898437 -3.074219,0.195313 -6.105469,0.816406 -9.007812,1.855469 z m -7.269531,8.0039056 2.945313,1.011719 c 0.125,0.04687 0.21875,0.152344 0.246094,0.28125 0.03125,0.128906 -0.0078,0.261719 -0.101563,0.355469 l -1.933594,1.933593 c -0.09375,0.09375 -0.230469,0.132813 -0.359375,0.105469 -0.128906,-0.03125 -0.234375,-0.121093 -0.277344,-0.246093 l -1.03125,-2.949219 c -0.05469,-0.144531 -0.01953,-0.308594 0.09375,-0.414063 0.109376,-0.109375 0.277344,-0.136718 0.417969,-0.07813 z m -3.339843,8.015625 c -0.128907,-0.0625 -0.214844,-0.199218 -0.214844,-0.34375 0,-0.144531 0.08594,-0.28125 0.214844,-0.34375 l 2.792968,-1.371094 c 0.117188,-0.05859 0.257813,-0.05078 0.371094,0.01563 0.113281,0.07031 0.183594,0.191406 0.183594,0.324218 v 2.742188 c 0,0.128906 -0.07031,0.253906 -0.183594,0.320312 -0.113281,0.07031 -0.253906,0.07813 -0.371094,0.01953 z m 6.265624,6.324219 -2.925781,1.003906 c -0.136719,0.04297 -0.289062,0.0039 -0.390625,-0.09766 -0.101562,-0.101563 -0.136718,-0.25 -0.09375,-0.386719 l 1.011719,-2.945312 c 0.04297,-0.125 0.148437,-0.21875 0.277344,-0.25 0.128906,-0.02734 0.265625,0.01172 0.359375,0.105468 l 1.933594,1.933594 c 0.09375,0.09766 0.128906,0.234375 0.09375,0.367188 -0.03516,0.128906 -0.136719,0.230468 -0.265626,0.269531 z m 5.957032,1.046875 -1.371094,2.792969 c -0.06641,0.132812 -0.199219,0.214843 -0.34375,0.214843 -0.148438,0 -0.28125,-0.08203 -0.347656,-0.214843 l -1.367188,-2.792969 c -0.05859,-0.117188 -0.05469,-0.257812 0.01563,-0.371094 0.07031,-0.113281 0.191407,-0.183594 0.324219,-0.183594 h 2.738281 c 0.132813,0 0.253907,0.07031 0.324219,0.183594 0.07031,0.113282 0.07422,0.253906 0.01563,0.371094 z m 5.46875,0 -2.945313,-1.011719 c -0.125,-0.04297 -0.21875,-0.148437 -0.246093,-0.277343 -0.03125,-0.128907 0.0078,-0.265626 0.101562,-0.359376 l 1.933594,-1.933593 c 0.09375,-0.09375 0.230468,-0.132813 0.359375,-0.105469 0.128906,0.03125 0.234375,0.125 0.277343,0.25 l 1.003907,2.875 c 0.07422,0.144531 0.04297,0.324219 -0.07031,0.441406 -0.11719,0.117188 -0.292971,0.148438 -0.441409,0.07813 z m 3.320312,-8.015625 c 0.132813,0.06641 0.214844,0.199219 0.214844,0.34375 0,0.148437 -0.08203,0.28125 -0.214844,0.347656 l -2.792968,1.367188 c -0.117188,0.05859 -0.257813,0.05469 -0.371094,-0.01563 -0.113282,-0.07031 -0.179688,-0.191401 -0.183594,-0.324214 v -2.785156 c 0.0039,-0.132813 0.07031,-0.253907 0.183594,-0.320313 0.113281,-0.07031 0.253906,-0.07813 0.371094,-0.01953 z m -6.265625,-6.324219 2.917969,-1.046875 c 0.136719,-0.04297 0.289062,-0.0078 0.390625,0.09375 0.101563,0.105469 0.136719,0.253907 0.09375,0.390625 l -1.011719,2.945313 c -0.04297,0.125 -0.148437,0.21875 -0.277344,0.25 -0.128906,0.02734 -0.265624,-0.01172 -0.359374,-0.105469 l -1.933594,-1.933594 c -0.08984,-0.09766 -0.121094,-0.234375 -0.08594,-0.359375 0.03516,-0.128906 0.132813,-0.230469 0.257813,-0.269531 z m 1.128907,6.613282 c 0,2.964843 -2.40625,5.371093 -5.371094,5.371093 -2.96875,0 -5.375,-2.40625 -5.375,-5.371093 0,-2.96875 2.40625,-5.375 5.375,-5.375 2.964844,0 5.371094,2.40625 5.371094,5.375 z m -5.03125,-10.488282 1.367187,2.792969 c 0.05859,0.117187 0.05469,0.257813 -0.01563,0.371094 -0.07031,0.113281 -0.191406,0.183593 -0.324219,0.183593 h -2.738276 c -0.132812,0 -0.253906,-0.07031 -0.324219,-0.183593 -0.07031,-0.113281 -0.07422,-0.253907 -0.01563,-0.371094 l 1.367188,-2.792969 c 0.07031,-0.128906 0.199218,-0.207031 0.34375,-0.207031 0.140625,0 0.273437,0.07813 0.339844,0.207031 z m 0,0"
     id="path15" />
  <path
     style="fill:url(#linear3);fill-rule:nonzero;stroke:none"
     d="m 0.10449244,18.784179 v 0.214844 c 0.066406,0.40625 0.152343,0.8125 0.261719,1.226562 l 0.0625,0.214844 c 0.113281,0.429688 0.25,0.894532 0.410156,1.289063 v 0.08984 c 0.160156,0.421879 0.33984396,0.839847 0.52734396,1.269535 l 0.054687,0.117187 c 1.734375,-2.597656 3.820313,-4.945312 6.195313,-6.976562 0.589843,-3.027344 1.585937,-5.960938 2.9648426,-8.7226566 -2.8554686,0.113282 -5.5937496,1.160157 -7.8007806,2.9726566 l -0.105469,0.09766 c -0.28125,0.265621 -0.542969,0.546871 -0.789062,0.843746 l -0.097657,0.125 c -0.488281,0.609375 -0.88281196,1.292969 -1.16406196,2.023437 l -0.070312,0.171876 c -0.132813,0.347656 -0.238282,0.703124 -0.324219,1.066406 l -0.042969,0.203125 c -0.078125,0.359375 -0.1367188,0.722656 -0.171875,1.085937 v 0.140625 c -0.01953125,0.390625 -0.01953125,0.777344 0,1.167969 v 0.08594 c 0.0078125,0.433593 0.0390625,0.863281 0.089844,1.292968 z m 0,0"
     id="path16" />
  <path
     style="fill:url(#linear4);fill-rule:nonzero;stroke:none"
     d="m 14.780273,11.088867 c 1.289062,-0.742188 2.59375,-1.4140626 3.921875,-2.0039056 0.160156,-0.105469 0.246094,-0.292969 0.226563,-0.484376 -0.02344,-0.1875 -0.152344,-0.351562 -0.335938,-0.414062 -0.746094,-0.164062 -1.484375,-0.304688 -2.210938,-0.417969 -0.300781,-0.058593 -0.550781,-0.265625 -0.664062,-0.546875 -0.113281,-0.28125 -0.07422,-0.601562 0.101562,-0.851562 0.195313,-0.269532 0.519532,-0.40625 0.847657,-0.359375 1.921875,0.292969 3.8125,0.738281 5.660156,1.335937 0.324219,0.101563 0.675781,0.101563 1.003906,0 2.777344,-0.910156 5.664063,-1.457031 8.585938,-1.621094 l -0.05469,-0.074218 c -0.273437,-0.390625 -0.558593,-0.765625 -0.851562,-1.117188 l -0.07813,-0.109375 c -0.296875,-0.347656 -0.59375,-0.679687 -0.898438,-0.992187 l -0.167968,-0.171875 c -0.304688,-0.296875 -0.605469,-0.578125 -0.894532,-0.839844 l -0.171875,-0.136719 c -0.332031,-0.28125 -0.679687,-0.542968 -1.039062,-0.785156 h -0.0625 c -0.328125,-0.230469 -0.667969,-0.4375 -1.019531,-0.62890598 l -0.144532,-0.070313 c -0.34375,-0.160156 -0.695312,-0.296875 -1.054687,-0.41406199 l -0.207031,-0.0625 c -0.355469,-0.105469 -0.71875,-0.18750001 -1.082032,-0.25000021 h -0.179687 c -0.703125,-0.0976563 -1.414063,-0.0976563 -2.113281,0 h -0.25 c -0.269532,0 -0.53125,0.0898432 -0.796876,0.15234321 h -0.144531 c -0.304687,0.082032 -0.601562,0.183594 -0.894531,0.29687599 l -0.214844,0.089843 c -0.246094,0.101563 -0.488281,0.210938 -0.734375,0.332031 l -0.1875,0.085938 c -0.292969,0.15625 -0.59375,0.328125 -0.894531,0.511719 l -0.136719,0.089843 c -0.242187,0.167969 -0.488281,0.347657 -0.734375,0.539063 l -0.167968,0.132813 c -0.574219,0.492187 -1.113282,1.027343 -1.605469,1.601562 l -0.125,0.144531 c -0.542969,0.625 -1.046875,1.289063 -1.503907,1.980469 l -0.0625,0.089844 c -1.617187,2.535156 -2.824218,5.3085936 -3.5820306,8.2187496 1.5703126,-1.1875 3.2109376,-2.273438 4.9179686,-3.25 z m 0,0"
     id="path17" />
  <path
     style="fill:url(#linear5);fill-rule:nonzero;stroke:none"
     d="m 38.334961,16.452148 c 2.238281,1.980469 4.203124,4.242187 5.847656,6.738281 0.425781,-0.910156 0.773437,-1.855468 1.039062,-2.824218 v -0.132813 c 0.113282,-0.4375 0.203125,-0.867187 0.277344,-1.289063 v -0.152343 c 0.06641,-0.425781 0.109375,-0.851563 0.132812,-1.28125 0.02344,-0.40625 0.02344,-0.8125 0,-1.21875 v -0.117188 c -0.03125,-0.378906 -0.08984,-0.761719 -0.167968,-1.136719 v -0.195312 c -0.08594,-0.363281 -0.195313,-0.71875 -0.324219,-1.066406 l -0.07031,-0.160156 C 44.784179,12.885742 44.393554,12.206054 43.905273,11.600585 L 43.795898,11.456054 C 43.561523,11.170898 43.307617,10.901367 43.034179,10.651367 L 42.874023,10.499023 C 42.588867,10.245117 42.291992,10.006835 41.979492,9.7919924 l -0.144531,-0.101563 c -0.3125,-0.210937 -0.632813,-0.402344 -0.964844,-0.582031 l -0.125,-0.097656 c -0.351563,-0.179688 -0.71875,-0.339844 -1.101563,-0.492188 l -0.242187,-0.097656 c -0.371094,-0.136719 -0.753906,-0.261719 -1.15625,-0.375 l -0.285156,-0.074219 c -0.414063,-0.105468 -0.824219,-0.195312 -1.253907,-0.277344 h -0.207031 c -0.398438,-0.066406 -0.8125,-0.117187 -1.234375,-0.160156 h -0.179687 c 1.332031,2.6601556 2.308593,5.4843746 2.902343,8.4023436 0.05859,0.203125 0.179688,0.382812 0.347657,0.515625 z m 0,0"
     id="path18" />
</svg>
