<svg xmlns="http://www.w3.org/2000/svg" viewBox="0 0 3500 3500"><title>Asset 12</title><g id="Layer_2" data-name="Layer 2"><g id="Layer_1-2" data-name="Layer 1"><path id="SVGID" d="M1750,0c966.5,0,1750,783.5,1750,1750S2716.5,3500,1750,3500,0,2716.5,0,1750,783.5,0,1750,0Z" style="fill:#ffe81c"/><polygon id="SVGID-2" data-name="SVGID" points="2887.2 949.3 2681.3 1618.1 2163.7 1618.1 2083.8 1679 1803.3 2839.9 1023.8 2839.9 1169.6 2406.4 1180.6 2364.1 861.7 2606.2 1303.2 1964.5 1407.1 1618.1 701.8 1618.1 905.8 949.3 1789.2 949.3 1857.7 949.3 2219.6 717.5 2072 949.3 2887.2 949.3" style="fill:#3f3f3f"/><polygon id="SVGID-3" data-name="SVGID" points="2609.4 1518 2755.9 1067.7 2104.3 1067.7 1924.7 1361.5 2334.6 1516.1 2609.4 1518" style="fill:#ffe81c"/><polygon id="SVGID-4" data-name="SVGID" points="1185.9 2265.6 2114.2 1562.1 1704.3 1389.7 1729.4 1349 1974.2 965.3 1976.1 961.5 1272.7 1412.2 1640.8 1604.4 1185.9 2265.6" style="fill:#ffe81c"/><polygon id="SVGID-5" data-name="SVGID" points="1706.6 2709.4 1914.4 1915.7 1297.1 2396.5 1197 2709 1706.6 2709 1706.6 2709.4" style="fill:#ffe81c"/><polygon id="SVGID-6" data-name="SVGID" points="1012 1424.7 1568.8 1069.2 971.7 1067.7 833.5 1515.7 1231.2 1518 1012 1424.7" style="fill:#ffe81c"/></g></g></svg>