<?xml version="1.0" encoding="utf-8"?>
<!-- Generator: Adobe Illustrator 24.0.0, SVG Export Plug-In . SVG Version: 6.00 Build 0)  -->
<svg version="1.1" id="Layer_1" xmlns="http://www.w3.org/2000/svg" xmlns:xlink="http://www.w3.org/1999/xlink" x="0px" y="0px"
	 viewBox="0 0 833.4 833.3" style="enable-background:new 0 0 833.4 833.3;" xml:space="preserve">
<style type="text/css">
	.st0{fill:none;}
	.st1{clip-path:url(#SVGID_2_);}
	.st2{fill-rule:evenodd;clip-rule:evenodd;fill:#FFFFFF;}
	.st3{fill-rule:evenodd;clip-rule:evenodd;fill:#3165D4;}
</style>
<path class="st0" d="M0,0h833.3v833.3H0V0z"/>
<g>
	<defs>
		<rect id="SVGID_1_" width="833.3" height="833.3"/>
	</defs>
	<clipPath id="SVGID_2_">
		<use xlink:href="#SVGID_1_"  style="overflow:visible;"/>
	</clipPath>
	<g class="st1">
		<ellipse class="st2" cx="411.4" cy="401" rx="328.1" ry="351"/>
		<path class="st3" d="M416.7,0c230,0,416.7,186.7,416.7,416.7c0,230-186.7,416.7-416.7,416.7C186.7,833.3,0,646.6,0,416.7
			C0,186.7,186.7,0,416.7,0z M212.4,150.7c15.7-13.5,37.8-24.5,57-16.7c34.5,14,127.3,201,127.3,201S526.4,150.7,573,133.9
			c15.9-5.7,37.7,4.4,54.3,16.8c58.3,43.6,64.4,104.4,59.3,121.3c-6.3,21.2-328.6,430-328.6,430c-9.6-3.9-200.6-358.2-210.9-418.9
			C137.3,225.2,170.9,185.8,212.4,150.7L212.4,150.7z"/>
	</g>
</g>
</svg>
