<?xml version="1.0" encoding="utf-8"?>
<!-- Generator: Adobe Illustrator 24.0.0, SVG Export Plug-In . SVG Version: 6.00 Build 0)  -->
<svg version="1.1" id="Layer_1" xmlns="http://www.w3.org/2000/svg" xmlns:xlink="http://www.w3.org/1999/xlink" x="0px" y="0px"
	 viewBox="0 0 400 400" style="enable-background:new 0 0 400 400;" xml:space="preserve">
<style type="text/css">
	.st0{fill-rule:evenodd;clip-rule:evenodd;fill:#4E8CBD;}
</style>
<path class="st0" d="M200,400c110.5,0,200-89.5,200-200S310.5,0,200,0S0,89.5,0,200S89.5,400,200,400z M96,90.5
	c-8.8,8.8-8.7,52-7.5,72.5c-14.5,42.5-10,64,9,104.5s90,54,140,38c46.4-14.9,59.7-39.2,66.5-51.8l0,0c0.5-1,1-1.9,1.5-2.7
	c26-20.8,16.8-52.3,9-65.5l-12-32.5c2.7-16.3,6.4-51.4,0-61c-6.4-9.6-46,4-65,12c-35.2-16-77.7-4.3-94.5,3.5L96,90.5z M261.5,126.5
	c9.3-14.2,29.4-39.6,35-28s-3.3,43.2-8.5,57.5L261.5,126.5z M104.5,103.5c-8,7.6-8,44.8-7,62.5l26.5-30.5
	C120.8,121.7,112.5,95.9,104.5,103.5z M220.5,174c-18,0-19.2,17.7-17.5,26.5c5.8,10.2,8.4,11,11,11.7c0.3,0.1,0.7,0.2,1,0.3
	c3,1,16-0.5,18.5-15S226.5,174,220.5,174z M149,175.5c-15.2,0.4-18,15.8-17.5,23.5c2.4,11.2,6.7,13.3,8.5,13c4,1.5,13.2,1.2,18-12
	C164,183.5,153.5,175.5,149,175.5z M162,222.5c3.6-0.8,9.2-5,11.5-7c4.5,3.2,14.7,9,19.5,7c0.2,0.5,0.5,4.3,0.5,15.5
	c-2,16-8,23-17.5,21.5c-7.6-1.2-13.2-25.1-15-36.9C161.3,222.6,161.7,222.6,162,222.5z"/>
</svg>
