<?xml version="1.0" encoding="utf-8"?>
<!-- Generator: Adobe Illustrator 26.0.1, SVG Export Plug-In . SVG Version: 6.00 Build 0)  -->
<svg version="1.1"
	 id="svg4" sodipodi:docname="index.svg" xmlns:cc="http://creativecommons.org/ns#" xmlns:dc="http://purl.org/dc/elements/1.1/" xmlns:inkscape="http://www.inkscape.org/namespaces/inkscape" xmlns:rdf="http://www.w3.org/1999/02/22-rdf-syntax-ns#" xmlns:sodipodi="http://sodipodi.sourceforge.net/DTD/sodipodi-0.dtd" xmlns:svg="http://www.w3.org/2000/svg"
	 xmlns="http://www.w3.org/2000/svg" xmlns:xlink="http://www.w3.org/1999/xlink" x="0px" y="0px" viewBox="0 0 173.1 170.1"
	 style="enable-background:new 0 0 173.1 170.1;" xml:space="preserve">
<style type="text/css">
	.st0{fill-rule:evenodd;clip-rule:evenodd;}
</style>
<sodipodi:namedview  bordercolor="#111111" borderopacity="1" fit-margin-bottom="0" fit-margin-left="0" fit-margin-right="0" fit-margin-top="0" gridtolerance="10" guidetolerance="10" id="namedview6" inkscape:current-layer="svg4" inkscape:cx="499.99356" inkscape:cy="85.007749" inkscape:pageopacity="0" inkscape:pageshadow="2" inkscape:window-height="1017" inkscape:window-maximized="1" inkscape:window-width="1920" inkscape:window-x="1912" inkscape:window-y="-8" inkscape:zoom="0.331" objecttolerance="10" pagecolor="#ffffff" showgrid="false">
	</sodipodi:namedview>
<path class="st0" d="M81.1,62.4c-0.5,0.5-1.1,0.8-1.8,0.9c-0.8,0-1.6-0.4-2.2-1c-8.4-11.1-14.5-57,3.8-61.7
	c20.1-4.9,28.4,23.6,32.4,37.4c0.3,1,0.5,1.8,0.8,2.6c-9-5.3-19.4-7.8-29.8-7.2c-1.2,10.8-2,21.2-2.4,27.3
	C81.8,61.3,81.5,61.9,81.1,62.4z"/>
<path class="st0" d="M101.4,67.1c-0.3-0.3-0.5-0.7-0.6-1.1c-0.1-0.4-0.1-0.9,0-1.3c3.2-13.5,32.3-49.3,50.2-35.8
	c16.8,12.7-0.4,37.3-8.5,49c-0.5,0.8-1,1.5-1.5,2.1c-1.7-10.3-6.3-19.9-13.1-27.8c-7.4,4.7-14.3,9.4-19.3,12.8
	c-1.3,0.9-2.5,1.7-3.6,2.5l-0.1,0.1c-0.2,0.1-0.3,0.2-0.5,0.2l-0.1,0c-0.4,0.1-0.8,0.2-1.2,0.2c-0.1,0-0.2,0-0.3-0.1l-0.1,0
	C102.2,67.7,101.8,67.4,101.4,67.1z"/>
<path class="st0" d="M113.9,85l-1.1,0.8l-0.6,1.2c0,0.1,0,0.2,0,0.3l0,0.2c0,0.5,0.2,1,0.4,1.5c0.4,0.6,1,1,1.7,1.1l2.9,0.9l0.2,0.1
	c5.9,1.8,14.4,4.4,23,7.4c-1.8,10.2-6.5,19.7-13.5,27.3c0.7,0,1.5-0.1,2.3-0.1c14.1-0.8,44.4-2.5,43.9-23.6
	C172.5,83.2,126.3,79.1,113.9,85z"/>
<path class="st0" d="M105.5,107.6c0.2,0.1,0.4,0.1,0.5,0.2c12.5,6,41,42.8,23.7,57c-16.3,13.4-36.4-9.2-45.8-19.7
	c-0.5-0.6-1.1-1.2-1.6-1.8c10.3,0.7,20.6-1.5,29.7-6.4c-3.4-10-7-19.1-9.3-24.8l0,0l-0.3-0.8c-0.3-0.6-0.3-1.3-0.1-2l0.1-0.1
	l0.1-0.1l0.1-0.1c0.3-0.5,0.7-0.8,1.1-1c0.4-0.2,0.8-0.3,1.2-0.3C105,107.5,105.2,107.6,105.5,107.6z"/>
<path class="st0" d="M83.3,115.9c-0.1-0.4-0.3-0.8-0.6-1.1c-0.2-0.3-0.6-0.6-1-0.7c-0.6-0.3-1.3-0.3-1.9,0c-0.6,0.2-1.2,0.6-1.5,1.2
	c-3,5.2-8.2,14.2-14,23.5c-9.6-4-17.7-10.7-23.5-19.3l-0.3,1.5l-0.1,0.6c-2.5,13.9-7.8,44,13,48.3C71.9,173.5,86.1,129.3,83.3,115.9
	L83.3,115.9z"/>
<path class="st0" d="M63.5,102.1c-0.1,0.4-0.3,0.8-0.6,1.1c-8.9,10.7-52.3,27-60.9,10.3C-7.5,94.5,19.5,79.7,31.7,73
	c0.6-0.3,1.2-0.7,1.8-1c-3,9.9-3.1,20.5-0.4,30.5c10.9-1.2,21.1-2.8,27.3-3.8c0.7-0.1,1.3,0.1,1.9,0.5c0.6,0.3,1,0.9,1.2,1.5
	C63.6,101.2,63.6,101.6,63.5,102.1z"/>
<path class="st0" d="M60,79.3c0.4,0.1,0.9,0,1.3-0.2c0.4-0.2,0.7-0.6,0.9-1c0.4-0.5,0.6-1.2,0.5-1.8c-0.1-0.7-0.4-1.3-0.9-1.8
	c-4.4-4-12-11-19.6-18.8c6-8.5,14.4-15,24.1-18.7l-1.8-0.7C51.6,30.7,23.1,18.6,14.3,38C6.6,55.3,46.2,79.1,60,79.3L60,79.3z"/>
</svg>
