<?xml version="1.0" encoding="utf-8"?>
<!-- Generator: Adobe Illustrator 24.0.0, SVG Export Plug-In . SVG Version: 6.00 Build 0)  -->
<svg version="1.1" id="Layer_1" xmlns="http://www.w3.org/2000/svg" xmlns:xlink="http://www.w3.org/1999/xlink" x="0px" y="0px"
	 viewBox="0 0 37.1 33.3" style="enable-background:new 0 0 37.1 33.3;" xml:space="preserve">
<style type="text/css">
	.st0{fill:url(#SVGID_1_);}
	.st1{fill:url(#SVGID_2_);}
	.st2{fill:url(#SVGID_3_);}
	.st3{fill:url(#SVGID_4_);}
</style>
<linearGradient id="SVGID_1_" gradientUnits="userSpaceOnUse" x1="41.5358" y1="33.7812" x2="20.6248" y2="12.8669" gradientTransform="matrix(1 0 0 -1 0 35.345)">
	<stop  offset="0" style="stop-color:#F6A23A"/>
	<stop  offset="0.92" style="stop-color:#F15729"/>
	<stop  offset="1" style="stop-color:#F15729"/>
</linearGradient>
<path class="st0" d="M36.6,6.2L33,0L18.6,25l9.6,0l8.4-14.5C37.3,9.1,37.3,7.5,36.6,6.2L36.6,6.2z"/>
<linearGradient id="SVGID_2_" gradientUnits="userSpaceOnUse" x1="-7.3627" y1="25.2754" x2="40.0151" y2="31.8771" gradientTransform="matrix(1 0 0 -1 0 35.345)">
	<stop  offset="0" style="stop-color:#FFFFFF"/>
	<stop  offset="4.000000e-02" style="stop-color:#FCFEFF"/>
	<stop  offset="6.000000e-02" style="stop-color:#F2FDFF"/>
	<stop  offset="8.000000e-02" style="stop-color:#E2FCFF"/>
	<stop  offset="0.1" style="stop-color:#CCF9FF"/>
	<stop  offset="0.12" style="stop-color:#AEF6FF"/>
	<stop  offset="0.13" style="stop-color:#8BF3FF"/>
	<stop  offset="0.15" style="stop-color:#60EEFF"/>
	<stop  offset="0.16" style="stop-color:#30E9FF"/>
	<stop  offset="0.18" style="stop-color:#00E5FF"/>
	<stop  offset="0.83" style="stop-color:#2A44FF"/>
</linearGradient>
<path class="st1" d="M33,0L6.2,0C4.9,0,3.8,0.7,3.1,1.8L0.6,6.2c-0.8,1.3-0.8,3,0,4.3l3.6,6.2l4.8-8.3h19.2"/>
<linearGradient id="SVGID_3_" gradientUnits="userSpaceOnUse" x1="-8.6516" y1="-0.6881" x2="25.6593" y2="33.6196" gradientTransform="matrix(1 0 0 -1 0 35.345)">
	<stop  offset="0" style="stop-color:#F6A23A"/>
	<stop  offset="0.92" style="stop-color:#F15729"/>
	<stop  offset="1" style="stop-color:#F15729"/>
</linearGradient>
<path class="st2" d="M0.6,27.2l3.6,6.2l14.4-25H8.9L0.6,22.9C-0.2,24.2-0.2,25.8,0.6,27.2z"/>
<linearGradient id="SVGID_4_" gradientUnits="userSpaceOnUse" x1="43.1131" y1="9.859" x2="-3.2288" y2="10.765" gradientTransform="matrix(1 0 0 -1 0 35.345)">
	<stop  offset="0" style="stop-color:#FFFFFF"/>
	<stop  offset="4.000000e-02" style="stop-color:#FCFEFF"/>
	<stop  offset="6.000000e-02" style="stop-color:#F2FDFF"/>
	<stop  offset="8.000000e-02" style="stop-color:#E2FCFF"/>
	<stop  offset="0.1" style="stop-color:#CCF9FF"/>
	<stop  offset="0.12" style="stop-color:#AEF6FF"/>
	<stop  offset="0.13" style="stop-color:#8BF3FF"/>
	<stop  offset="0.15" style="stop-color:#60EEFF"/>
	<stop  offset="0.16" style="stop-color:#30E9FF"/>
	<stop  offset="0.18" style="stop-color:#00E5FF"/>
	<stop  offset="0.83" style="stop-color:#2A44FF"/>
</linearGradient>
<path class="st3" d="M4.2,33.3l26.8,0c1.3,0,2.5-0.7,3.1-1.8l2.5-4.4c0.8-1.3,0.8-3,0-4.3L33,16.7L28.2,25L9,25"/>
</svg>
