<?xml version="1.0" encoding="utf-8"?>
<!-- Generator: Adobe Illustrator 24.0.0, SVG Export Plug-In . SVG Version: 6.00 Build 0)  -->
<svg version="1.1" id="Layer_1" xmlns="http://www.w3.org/2000/svg" xmlns:xlink="http://www.w3.org/1999/xlink" x="0px" y="0px"
	 viewBox="0 0 195.1 217.3" style="enable-background:new 0 0 195.1 217.3;" xml:space="preserve">
<style type="text/css">
	.st0{fill:#2D3D66;}
	.st1{fill:url(#SVGID_1_);}
</style>
<title>akropolis logo portrait color</title>
<g id="Layer_2_1_">
	<g id="Layer_1-2">
		<path class="st0" d="M25.7,196.7c0-0.4,0.3-0.7,0.7-0.7c0,0,0,0,0,0H29c0.4,0,0.7,0.3,0.7,0.7v19.6c0,0.4-0.3,0.7-0.7,0.8
			c0,0,0,0,0,0h-2.6c-0.4,0-0.7-0.3-0.7-0.7c0,0,0,0,0,0V196.7z"/>
		<path class="st0" d="M39.7,196.3c0.1-0.2,0.3-0.3,0.6-0.3h3c0.4,0,0.6,0.3,0.7,0.6c0,0.2-0.1,0.3-0.2,0.5l-7.2,8.1
			c-0.3,0.4-0.3,1,0,1.4l7.8,9.3c0.2,0.3,0.2,0.7-0.1,0.9c-0.1,0.1-0.3,0.1-0.4,0.1h-3.3c-0.2,0-0.4-0.1-0.5-0.2l-8-9.9
			c-0.5-0.6-0.5-1.4,0-2L39.7,196.3z"/>
		<path class="st0" d="M81.8,195.7c6,0,10.8,4.8,10.8,10.8c0,6-4.8,10.8-10.8,10.8c-6,0-10.8-4.8-10.8-10.8c0,0,0,0,0,0
			C71,200.6,75.8,195.7,81.8,195.7C81.7,195.7,81.8,195.7,81.8,195.7z M81.8,213.4c3.8,0,6.9-3.1,6.9-6.9s-3.1-6.9-6.9-6.9
			c-3.8,0-6.9,3.1-6.9,6.9c0,0,0,0,0,0.1C74.9,210.3,78,213.3,81.8,213.4z"/>
		<path class="st0" d="M129.5,195.7c6,0,10.8,4.8,10.8,10.8s-4.8,10.8-10.8,10.8c-6,0-10.8-4.8-10.8-10.8
			C118.7,200.6,123.5,195.7,129.5,195.7C129.5,195.7,129.5,195.7,129.5,195.7z M129.5,213.4c3.8,0,6.9-3.1,6.9-6.9
			c0-3.8-3.1-6.9-6.9-6.9c-3.8,0-6.9,3.1-6.9,6.9c0,0,0,0,0,0.1C122.6,210.3,125.7,213.3,129.5,213.4z"/>
		<path class="st0" d="M147.2,196.5c0-0.3,0.3-0.6,0.6-0.6h0h2.8c0.3,0,0.6,0.3,0.6,0.6v16.8h7.6c0.3,0,0.6,0.3,0.6,0.6v0v2.5
			c0,0.3-0.3,0.6-0.6,0.6h0h-11c-0.3,0-0.6-0.3-0.6-0.6v0L147.2,196.5z"/>
		<path class="st0" d="M167.9,196.5c0-0.3,0.3-0.6,0.6-0.6h2.8c0.3,0,0.6,0.3,0.6,0.6v19.9c0,0.3-0.3,0.6-0.6,0.6h-2.8
			c-0.3,0-0.6-0.3-0.6-0.6V196.5z"/>
		<path class="st0" d="M181.4,214l1.1-1.9c0.2-0.3,0.6-0.4,1-0.2c0,0,0,0,0,0c0.1,0.1,2.6,1.9,4.5,1.9c1.4,0.1,2.6-0.9,2.7-2.3
			c0,0,0,0,0-0.1c0-1.5-1.3-2.6-3.8-3.6c-2.8-1.1-5.6-2.9-5.6-6.5c0-2.7,2-5.8,6.7-5.8c2.2,0,4.3,0.7,6,2c0.3,0.2,0.4,0.7,0.2,1
			l-1.1,1.7c-0.2,0.4-0.6,0.5-1,0.4c-0.2-0.1-2.5-1.6-4.2-1.6c-1.3-0.1-2.5,0.8-2.6,2.1c0,1.4,1.1,2.4,3.5,3.4
			c2.9,1.2,6.3,2.9,6.3,6.8c0,3.1-2.7,5.9-6.9,5.9c-2.4,0.1-4.8-0.8-6.6-2.3C181.3,214.7,181.2,214.5,181.4,214z"/>
		<path class="st0" d="M19.9,216.2L10.7,196c-0.1-0.2-0.3-0.3-0.5-0.3H9.9c-0.2,0-0.4,0.1-0.5,0.3l-9.3,20.2c-0.1,0.3,0,0.6,0.2,0.7
			c0.1,0,0.2,0.1,0.3,0.1h2.6c0.4,0,0.7-0.2,0.9-0.6l1.5-3.2l1.5-3.3l2.9-6.6H10l2.8,6.2c0.1,0.2,0,0.5-0.2,0.7l-3.3,2.5
			c-0.1,0.1-0.2,0.3,0,0.4c0.1,0.1,0.1,0.1,0.2,0.1h4.6c0.2,0,0.4,0.1,0.5,0.3l1.3,2.9c0.1,0.4,0.5,0.6,0.9,0.6h2.6
			c0.3,0,0.6-0.2,0.6-0.5C20,216.4,20,216.3,19.9,216.2z"/>
		<path class="st0" d="M62,210.5h-3.1c-0.2,0-0.3,0.1-0.3,0.3c0,0,0,0.1,0,0.1l2.9,5.8c0.1,0.2,0.3,0.3,0.5,0.3h3.2
			c0.3,0,0.6-0.2,0.6-0.5c0-0.1,0-0.2-0.1-0.3l-2.7-5C62.8,210.7,62.4,210.5,62,210.5z"/>
		<path class="st0" d="M61.6,208.5c2.7-0.8,4.5-3.3,4.4-6.1c0-3.6-3-6.4-6.5-6.4h-8.6c-0.3,0-0.6,0.3-0.6,0.6l0,0v19.9
			c0,0.3,0.3,0.6,0.6,0.6c0,0,0,0,0,0h2.8c0.3,0,0.6-0.3,0.6-0.6v-7.6h3.3C58.9,208.8,60.2,208.7,61.6,208.5z M54.3,199.6h4.9
			c1.6,0,3,1.3,3,2.9c0,1.7-1.3,3-3,3.1h-4.9V199.6z"/>
		<path class="st0" d="M109.8,208.5c2.7-0.8,4.5-3.3,4.4-6.1c0-3.6-3-6.4-6.5-6.4h-8.6c-0.3,0-0.6,0.3-0.6,0.6l0,0v19.9
			c0,0.3,0.3,0.6,0.6,0.6h0h2.8c0.3,0,0.6-0.3,0.6-0.6v-7.6h3.3C107.1,208.8,108.5,208.7,109.8,208.5z M102.5,199.6h4.9
			c1.6,0,3,1.3,3,2.9c0,1.7-1.3,3-3,3.1h-4.9V199.6z"/>
		
			<linearGradient id="SVGID_1_" gradientUnits="userSpaceOnUse" x1="23.3237" y1="137.8839" x2="171.7637" y2="137.8839" gradientTransform="matrix(1 0 0 -1 0 220.0119)">
			<stop  offset="0" style="stop-color:#E168FD"/>
			<stop  offset="1" style="stop-color:#7B00FC"/>
		</linearGradient>
		<path class="st1" d="M97.5,164.3c-4,0-8-1.1-11.5-3.1l-51.1-29.5c-7.1-4.1-11.5-11.8-11.5-20v-59c0-8.2,4.4-15.9,11.5-20L86,3.1
			c7.1-4.1,15.9-4.1,23.1,0l51.1,29.5c7.1,4.1,11.5,11.8,11.5,20v59.1c0,8.2-4.4,15.9-11.5,20l-51.1,29.5
			C105.6,163.2,101.6,164.3,97.5,164.3z M97.5,8c-2.6,0-5.2,0.7-7.5,2L38.9,39.6c-4.7,2.7-7.5,7.7-7.5,13v59.1
			c0,5.4,2.9,10.3,7.5,13L90,154.2c4.7,2.7,10.4,2.7,15.1,0l51.1-29.5c4.6-2.7,7.5-7.6,7.5-13V52.6c0-5.4-2.9-10.4-7.5-13L105.1,10
			C102.8,8.7,100.2,8,97.5,8z M97.5,137.5c-2.2,0-4.3-0.6-6.2-1.7l-37.2-21.4c-3.8-2.2-6.2-6.3-6.2-10.8V60.7
			c0-4.4,2.3-8.5,6.2-10.8l37.2-21.4c3.9-2.2,8.6-2.2,12.4,0l37.1,21.4c3.8,2.2,6.2,6.3,6.2,10.8v42.9c0,4.4-2.4,8.6-6.2,10.8
			l-37.2,21.4C101.9,136.9,99.7,137.5,97.5,137.5L97.5,137.5z M97.5,32.8c-1.1,0-2.2,0.3-3.2,0.9L57.2,55.1c-2,1.2-3.2,3.3-3.2,5.6
			v42.9c0,2.3,1.2,4.4,3.2,5.6l37.1,21.4c2,1.2,4.4,1.2,6.4,0l37.1-21.4c2-1.2,3.2-3.3,3.2-5.6V60.7c0-2.3-1.2-4.4-3.2-5.6
			l-37.2-21.4C99.8,33.1,98.7,32.8,97.5,32.8L97.5,32.8z M97.5,110.3c-1.1,0-2.2-0.3-3.2-0.8L75.5,98.5c-2-1.1-3.2-3.3-3.2-5.5V71.2
			c0-2.3,1.2-4.4,3.2-5.5l18.8-10.9c2-1.1,4.4-1.1,6.4,0l18.8,10.9c2,1.1,3.2,3.2,3.2,5.5V93c0,2.3-1.2,4.4-3.2,5.5l-18.8,10.9
			C99.8,110,98.7,110.3,97.5,110.3L97.5,110.3z M97.5,58c-0.4,0-0.8,0.1-1.2,0.3L77.5,69.2c-0.7,0.4-1.2,1.2-1.2,2V93
			c0,0.8,0.5,1.6,1.2,2.1L96.4,106c0.7,0.4,1.6,0.4,2.4,0l18.8-10.9c0.7-0.4,1.2-1.3,1.2-2.1V71.2c0-0.8-0.5-1.6-1.2-2L98.7,58.3
			C98.4,58.1,98,58,97.5,58L97.5,58z"/>
	</g>
</g>
</svg>
