<?xml version="1.0" encoding="utf-8"?>
<!-- Generator: Adobe Illustrator 24.0.0, SVG Export Plug-In . SVG Version: 6.00 Build 0)  -->
<svg version="1.1" id="Layer_1" xmlns="http://www.w3.org/2000/svg" xmlns:xlink="http://www.w3.org/1999/xlink" x="0px" y="0px"
	 viewBox="0 0 306.5 71.6" style="enable-background:new 0 0 306.5 71.6;" xml:space="preserve">
<style type="text/css">
	.st0{fill:#2D3D66;}
	.st1{fill:url(#SVGID_1_);}
</style>
<title>akropolis landscape color</title>
<g id="Layer_2_1_">
	<g id="Layer_1-2">
		<path class="st0" d="M114.7,24.3c0-0.4,0.3-0.8,0.8-0.8c0,0,0,0,0,0h3c0.4,0,0.8,0.4,0.8,0.8v22.1c0,0.4-0.4,0.8-0.8,0.8h-3
			c-0.4,0-0.8-0.3-0.8-0.8c0,0,0,0,0,0V24.3z"/>
		<path class="st0" d="M130.6,23.8c0.1-0.2,0.4-0.3,0.6-0.3h3.4c0.4,0,0.7,0.3,0.7,0.7c0,0.2-0.1,0.4-0.2,0.5l-8.2,9.2
			c-0.4,0.5-0.4,1.1,0,1.6l8.8,10.6c0.2,0.3,0.2,0.8-0.2,1c-0.1,0.1-0.3,0.1-0.5,0.1h-3.7c-0.2,0-0.5-0.1-0.6-0.2l-9.1-11.2
			c-0.5-0.7-0.5-1.6,0.1-2.2L130.6,23.8z"/>
		<path class="st0" d="M178.2,23.1c6.7,0,12.2,5.4,12.2,12.2c0,6.7-5.4,12.2-12.2,12.2c-6.7,0-12.2-5.4-12.2-12.2
			C166,28.7,171.5,23.2,178.2,23.1C178.2,23.1,178.2,23.1,178.2,23.1z M178.2,43.1c4.3,0,7.8-3.5,7.8-7.8s-3.5-7.8-7.8-7.8
			c-4.3,0-7.8,3.5-7.8,7.8c0,0,0,0,0,0.1C170.5,39.7,173.9,43.2,178.2,43.1L178.2,43.1z"/>
		<path class="st0" d="M232.3,23.1c6.7,0,12.2,5.4,12.2,12.2c0,6.7-5.4,12.2-12.2,12.2c-6.7,0-12.2-5.4-12.2-12.2
			C220.1,28.7,225.5,23.2,232.3,23.1C232.2,23.1,232.3,23.1,232.3,23.1z M232.3,43.1c4.3,0,7.8-3.5,7.8-7.8s-3.5-7.8-7.8-7.8
			c-4.3,0-7.8,3.5-7.8,7.8c0,0,0,0.1,0,0.1C224.5,39.7,228,43.1,232.3,43.1L232.3,43.1z"/>
		<path class="st0" d="M252.4,24.1c0-0.4,0.3-0.6,0.6-0.6h3.1c0.4,0,0.6,0.3,0.6,0.6v19h8.7c0.4,0,0.6,0.3,0.6,0.7v2.8
			c0,0.4-0.3,0.6-0.6,0.6l0,0H253c-0.4,0-0.6-0.3-0.6-0.6L252.4,24.1z"/>
		<path class="st0" d="M275.8,24.1c0-0.4,0.3-0.6,0.6-0.6h3.2c0.3,0,0.6,0.3,0.6,0.6v22.5c0,0.3-0.3,0.6-0.6,0.6h-3.2
			c-0.4,0-0.6-0.3-0.6-0.6V24.1z"/>
		<path class="st0" d="M291.1,43.9l1.2-2.1c0.2-0.4,0.7-0.5,1.1-0.3c0,0,0,0,0.1,0c0.2,0.1,2.9,2.1,5.1,2.1c1.6,0.1,2.9-1,3.1-2.5
			c0,0,0,0,0-0.1c0-1.7-1.5-2.9-4.3-4.1c-3.2-1.3-6.4-3.3-6.4-7.3c0-3,2.2-6.5,7.6-6.5c2.4,0,4.8,0.8,6.8,2.3
			c0.3,0.3,0.4,0.8,0.2,1.1l-1.3,1.9c-0.2,0.4-0.7,0.6-1.2,0.4v0c-0.3-0.2-2.9-1.9-4.7-1.9s-3,1.3-3,2.4c0,1.6,1.3,2.7,4,3.8
			c3.3,1.3,7.1,3.3,7.1,7.7c0,3.5-3,6.7-7.8,6.7c-2.7,0.1-5.4-0.8-7.5-2.6C291,44.6,290.8,44.5,291.1,43.9z"/>
		<path class="st0" d="M108.2,46.4L97.8,23.5c-0.1-0.2-0.3-0.4-0.6-0.4h-0.3c-0.2,0-0.5,0.1-0.6,0.4L85.7,46.4
			c-0.2,0.3,0,0.7,0.2,0.8c0.1,0.1,0.2,0.1,0.3,0.1h3c0.4,0,0.9-0.3,1-0.7l1.7-3.7l1.7-3.8l3.3-7.5h0l3.2,7c0.1,0.3,0.1,0.6-0.2,0.8
			l-3.7,2.8c-0.2,0.1-0.2,0.3-0.1,0.5c0.1,0.1,0.2,0.1,0.3,0.1h5.2c0.3,0,0.5,0.1,0.6,0.4l1.5,3.3c0.1,0.4,0.6,0.7,1,0.7h3
			c0.3,0,0.6-0.3,0.6-0.6C108.3,46.5,108.3,46.5,108.2,46.4z"/>
		<path class="st0" d="M155.9,39.9h-3.6c-0.2,0-0.3,0.2-0.3,0.3c0,0.1,0,0.1,0,0.1l3.3,6.6c0.1,0.2,0.3,0.3,0.6,0.3h3.6
			c0.4,0,0.7-0.2,0.7-0.6c0-0.1,0-0.3-0.1-0.4l-3-5.7C156.8,40.2,156.4,39.9,155.9,39.9z"/>
		<path class="st0" d="M155.4,37.6c3-0.9,5.1-3.7,5-6.9c0-4.1-3.3-7.3-7.4-7.3c0,0,0,0,0,0h-9.7c-0.4,0-0.6,0.3-0.6,0.6v22.5
			c0,0.4,0.3,0.6,0.6,0.6h3.1c0.3,0,0.6-0.3,0.6-0.6V38h3.8C152.3,38,153.9,37.9,155.4,37.6z M147.1,27.6h5.5c1.8,0,3.3,1.5,3.4,3.3
			c0,1.9-1.5,3.4-3.4,3.5h-5.5V27.6z"/>
		<path class="st0" d="M210,37.6c3-0.9,5.1-3.7,5-6.9c0-4.1-3.3-7.3-7.4-7.3h-9.7c-0.4,0-0.6,0.3-0.6,0.6v22.5
			c0,0.4,0.3,0.6,0.6,0.6h3.1c0.4,0,0.6-0.3,0.6-0.6V38h3.8C207,38,208.5,37.9,210,37.6z M201.7,27.6h5.5c1.8,0,3.3,1.5,3.4,3.3
			c0,1.9-1.5,3.4-3.4,3.5h-5.5V27.6z"/>
		
			<linearGradient id="SVGID_1_" gradientUnits="userSpaceOnUse" x1="0" y1="38.1912" x2="64.66" y2="38.1912" gradientTransform="matrix(1 0 0 -1 0 73.975)">
			<stop  offset="0" style="stop-color:#E168FD"/>
			<stop  offset="1" style="stop-color:#7B00FC"/>
		</linearGradient>
		<path class="st1" d="M32.3,71.6c-1.8,0-3.5-0.5-5-1.3L5,57.4c-3.1-1.8-5-5.1-5-8.7V22.9c0-3.6,1.9-6.9,5-8.7L27.3,1.3
			c3.1-1.8,6.9-1.8,10,0l22.3,12.9c3.1,1.8,5,5.1,5,8.7v25.7c0,3.6-1.9,6.9-5,8.7L37.4,70.2C35.8,71.1,34.1,71.6,32.3,71.6z
			 M32.3,3.5c-1.2,0-2.3,0.3-3.3,0.9L6.8,17.2c-2,1.2-3.3,3.3-3.3,5.7v25.7c0,2.3,1.3,4.5,3.3,5.7l22.3,12.9c2,1.2,4.5,1.2,6.6,0
			l22.3-12.9c2-1.2,3.3-3.3,3.3-5.7V22.9c0-2.3-1.3-4.5-3.3-5.7L35.6,4.4C34.6,3.8,33.5,3.5,32.3,3.5z M32.3,59.9
			c-1,0-1.9-0.2-2.7-0.7l-16.2-9.4c-1.7-1-2.7-2.8-2.7-4.7V26.4c0-1.9,1-3.7,2.7-4.7l16.2-9.4c1.7-1,3.7-1,5.4,0l16.2,9.4
			c1.7,1,2.8,2.7,2.8,4.7v18.7c0,1.9-1,3.7-2.7,4.7l-16.2,9.4C34.2,59.6,33.3,59.9,32.3,59.9z M32.3,14.3c-0.5,0-1,0.1-1.4,0.4
			L14.8,24c-0.9,0.5-1.4,1.4-1.4,2.4v18.7c0,1,0.5,1.9,1.4,2.4l16.2,9.3c0.9,0.5,1.9,0.5,2.8,0l16.2-9.3c0.9-0.5,1.4-1.4,1.4-2.4
			V26.4c0-1-0.5-1.9-1.4-2.4l-16.2-9.3C33.3,14.4,32.8,14.3,32.3,14.3L32.3,14.3z M32.3,48c-0.5,0-0.9-0.1-1.3-0.4l-8.2-4.7
			c-0.9-0.5-1.4-1.4-1.4-2.4V31c0-1,0.5-1.9,1.4-2.4l8.2-4.7c0.9-0.5,1.9-0.5,2.8,0l8.2,4.7c0.9,0.5,1.4,1.4,1.4,2.4v9.5
			c0,1-0.5,1.9-1.4,2.4l-8.2,4.7C33.4,47.9,32.9,48,32.3,48L32.3,48z M32.3,25.3c-0.2,0-0.4,0-0.5,0.1l-8.2,4.7
			c-0.3,0.2-0.5,0.5-0.5,0.9v9.5c0,0.4,0.2,0.7,0.5,0.9l8.2,4.7c0.3,0.2,0.7,0.2,1,0l8.2-4.7c0.3-0.2,0.5-0.5,0.5-0.9V31
			c0-0.4-0.2-0.7-0.5-0.9l-8.2-4.7C32.7,25.3,32.5,25.3,32.3,25.3L32.3,25.3z"/>
	</g>
</g>
</svg>
