<?xml version="1.0" encoding="UTF-8"?>
<svg xmlns:xodm="http://www.corel.com/coreldraw/odm/2003" xmlns="http://www.w3.org/2000/svg" xmlns:xlink="http://www.w3.org/1999/xlink" version="1.1" id="Layer_1" x="0px" y="0px" viewBox="0 0 2500 589" style="enable-background:new 0 0 2500 589;" xml:space="preserve">
<g id="Layer_x0020_1">
	<path d="M1915.4,197.3h-51.7c-5.9,0-11.8-2.5-16-7.1l-21-23.5c-6.3-6.7-16.4-7.6-23.5-1.3c-0.4,0.4-0.8,0.8-1.3,1.3l-18.1,20.2   c-5.9,6.7-14.3,10.5-23.1,10.5h-283.5c-8,23.5-13.4,47.9-15.5,72.7h267.5c4.6,0,9.2-2.1,12.6-5.5l24.8-26c2.9-3.4,7.5-5,11.7-5h0.8   c4.6,0,9.2,2.1,12.6,5.5l21,23.5c3.8,4.6,9.7,7.1,16,7.1h218.4c-2.1-24.8-7.1-49.1-15.5-72.7h-116.3V197.3L1915.4,197.3z    M1624,422.4c4.6,0,9.2-2.1,12.6-5.5l24.8-26c2.9-3.4,7.6-5,11.8-5h1.3c4.6,0,9.2,2.1,12.6,5.5l21,23.5c4.2,4.6,9.7,7.1,16,7.1   H2020c11.3-23.1,19.3-47.9,24.4-73.1l-284.3,0c-5.9,0-11.8-2.5-15.5-7.1l-21-23.5c-2.9-3.4-7.6-5.5-12.6-5.5   c-4.6,0-9.2,2.1-12.2,5.5l-18.1,20.2c-5.9,6.7-14.3,10.5-23.5,10.5h-190.7c4.6,25.2,13,50,23.9,73.5H1624L1624,422.4z    M1833.9,117.9c4.6,0,9.2-2.1,12.6-5.5l24.8-26c2.9-3.4,7.6-5,11.8-5h1.3c4.6,0,9.2,2.1,12.2,5.5l21,23.5c4.2,4.6,9.7,7.1,15.9,7.1   h56.3c-97.4-129.8-281.4-155.8-411.1-58.4c-22.2,16.8-42,36.1-58.4,58.4h313.7L1833.9,117.9L1833.9,117.9z M1720.6,495h-76.9   c-5.9,0-11.8-2.5-15.5-7.1l-21-23.5c-6.3-6.7-16.8-7.6-23.5-1.3c-0.4,0.4-0.8,0.8-1.3,1.3l-18.1,20.6c-5.9,6.7-14.3,10.5-23.1,10.5   h-1.3c110.4,118.4,296.5,125.1,414.9,14.7c5-4.6,10.1-9.7,14.7-14.7L1720.6,495L1720.6,495z M455.6,569.4L396,424.1H128.9   L69.3,569.4H0L262,20.1l262.9,549.3H455.6z M151.6,369h221.3L261.6,134.7L151.6,369z M620.3,569.4V20.1h152.9   c119.7,0,182.3,54.6,182.3,157.9c0,99.5-66.8,156.6-183.1,156.6h-87.8v234.3h-64.3L620.3,569.4L620.3,569.4z M685,277.5H758   c92.4,0,133.1-30.2,133.1-99.5c0-71.4-41.2-100.8-132.7-100.8h-73.1L685,277.5L685,277.5z M1189.7,78.4h-189.4V19.6h443.5v58.8   h-189.4v490.9h-64.3V78.4H1189.7z M2138,469l55.4-37.8l4.2,8.8c34,62.2,71.4,86.9,128.1,86.9c63,0,107.1-43.7,107.1-96.2   c0-49.6-24.8-83.1-124.3-124.3c-114.2-47.5-152.9-96.2-152.9-166.3c0-76,59.6-135.6,162.9-135.6c76,0,128.1,32.3,157.5,85.2   l-44.9,31.1l-13-3.4C2394.6,81,2366,60,2317.3,60c-59.6,0-94.5,33.6-94.5,78.5c0,42,22.3,65.9,119.7,110.4   c126.4,57.5,157.5,104.6,157.5,181c0,83.2-71.4,153.7-173,153.7C2241.3,584.5,2182.5,551.7,2138,469L2138,469z"></path>
</g>
</svg>
