<?xml version="1.0" encoding="UTF-8"?>
<svg xmlns:xodm="http://www.corel.com/coreldraw/odm/2003" xmlns="http://www.w3.org/2000/svg" xmlns:xlink="http://www.w3.org/1999/xlink" version="1.1" id="Layer_1" x="0px" y="0px" viewBox="0 0 2500 621" style="enable-background:new 0 0 2500 621;" xml:space="preserve">
<style type="text/css">
	.st0{fill-rule:evenodd;clip-rule:evenodd;fill:#3164FA;}
	.st1{fill:#3164FA;}
</style>
<g id="Layer_x0020_1">
	<g id="_2431271869616">
		<path class="st0" d="M246.4,31.8L217.9,2.2c49.3-6.6,178.5,2.2,303.3,84.3c1.1,11,1.1,23,1.1,23l8.8,5.5l0,0l0,0l0,0    c5.5,8.8,11,21.9,14.2,37.2c4.4,18.6,5.5,40.5,0,61.3c-4.4,20.8-14.2,38.3-23,50.4c-6.6,9.9-13.1,15.3-16.4,19.7    c-16.4,0-46,11-54.8,48.2c-25.2,14.2-65.7,29.6-119.4,29.6c-50.4,0-102.9-14.2-141.3-42.7s-64.6-70.1-64.6-125.9    c0-43.8,19.7-78.8,44.9-104s59.1-46,78.8-52.6l-5.5-4.4H246.4z M466.5,104.1c-9.9,11-18.6,16.4-21.9,17.5    c-58-13.1-78.8-43.8-78.8-43.8c54.8,0,102.9,13.1,139.1,36.1c0,0-19.7-6.6-39.4-9.9H466.5z"></path>
		<path class="st1" d="M217.9,40.6C94.2,65.8,0,176.4,0,311c0,169.7,143.5,309.9,320.8,309.9c132.5,0,242-81,300-189.4    c-76.7,18.6-167.5-14.2-168.6-84.3c-27.4,14.2-66.8,26.3-117.2,26.3c-52.6,0-107.3-15.3-148.9-46s-70.1-75.6-70.1-135.8    c0-48.2,21.9-85.4,48.2-112.8c15.3-15.3,36.1-30.7,53.7-39.4V40.6z"></path>
		<path class="st1" d="M558.5,150.1c-2.2-7.7-3.3-15.3-6.6-21.9c32.9,25.2,59.1,59.1,56.9,106.2c-3.3,67.9-43.8,95.3-70.1,99.6    c13.1-20.8,2.2-35-2.2-39.4c-2.2-2.2-6.6-5.5-13.1-7.7c3.3-4.4,7.7-8.8,11-14.2c9.9-14.2,19.7-32.9,24.1-54.8    c5.5-23,4.4-47.1,0-66.8V150.1z"></path>
		<path class="st1" d="M1787.1,158.8c44.9,0,74.5,13.1,100.7,36.1l-29.6,35c-20.8-17.5-40.5-28.5-73.4-28.5    c-48.2,0-85.4,42.7-85.4,93.1v3.3c1.1,53.7,36.1,92,89.8,92c25.2,0,47.1-7.7,63.5-19.7v-49.3l44.9-40.5v111.7    c-26.3,21.9-63.5,41.6-109.5,41.6c-82.1,0-135.8-59.1-135.8-135.8v-3.3c1.1-73.4,56.9-134.7,135.8-134.7L1787.1,158.8z     M2083.9,158.8c81,0,136.9,61.3,136.9,135.8v3.3c-1.1,73.4-58,134.7-138,134.7c-81,0-136.9-61.3-136.9-135.8v-3.3    C1947,220.2,2003.9,158.8,2083.9,158.8z M920.9,161L1037,427.1h-47.1L899,215.8l-89.8,211.3h-46L879.3,161H922H920.9z M1516.6,161    l116.1,266.1h-47.1l-90.9-211.3l-89.8,211.3h-46L1475,161h42.7H1516.6z M2313.8,163.2l141.3,182.9V163.2h44.9v265h-38.3    l-144.5-188.3v188.3h-44.9v-265h42.7H2313.8z M2083.9,201.5c-52.6,0-88.7,41.6-88.7,93.1v3.3c1.1,50.4,37.2,92,89.8,92    c52.6,0,88.7-41.6,88.7-93.1v-3.3C2172.6,243.2,2136.4,201.5,2083.9,201.5z"></path>
		<path class="st1" d="M1210,158.8c32.9,0,59.1,9.9,75.6,27.4c14.2,15.3,21.9,35,21.9,58v2.2c0,42.7-25.2,67.9-60.2,78.8l-2.2,1.1    l71.2,101.8h-54.8l-64.6-94.2h-33.9l24.1-41.6h19.7c32.9,0,53.7-16.4,53.7-42.7v-2.2v-2.2c0-28.5-20.8-43.8-54.8-43.8h-66.8v83.2    l0,0V345l0,0v83.2h-46V158.8H1210z"></path>
	</g>
</g>
</svg>
