<svg id="Capa_1" data-name="Capa 1" xmlns="http://www.w3.org/2000/svg" xmlns:xlink="http://www.w3.org/1999/xlink" viewBox="0 0 322.62 295.15"><defs><linearGradient id="linear-gradient" x1="1683.89" y1="-1704.42" x2="1865.33" y2="-1704.42" gradientTransform="matrix(-0.3, 0.96, 0.96, 0.3, 2334.74, -1100.04)" gradientUnits="userSpaceOnUse"><stop offset="0.04" stop-color="#2cf4e1"/><stop offset="1" stop-color="#2cb2e1"/></linearGradient><linearGradient id="linear-gradient-2" x1="219.85" y1="199.63" x2="299.59" y2="90.65" gradientTransform="matrix(1, 0, 0, -1, 0, 291.37)" xlink:href="#linear-gradient"/><linearGradient id="linear-gradient-3" x1="86.58" y1="185.93" x2="199.25" y2="31.93" gradientTransform="matrix(1, 0, 0, -1, 0, 291.37)" gradientUnits="userSpaceOnUse"><stop offset="0" stop-color="#2ce5e1"/><stop offset="1" stop-color="#2cb2e1"/></linearGradient><linearGradient id="linear-gradient-4" x1="161.64" y1="78.88" x2="161.64" y2="276.18" gradientTransform="matrix(1, 0, 0, -1, 0, 291.37)" gradientUnits="userSpaceOnUse"><stop offset="0"/><stop offset="1" stop-color="#0d0d0d"/></linearGradient><linearGradient id="linear-gradient-5" x1="161.29" y1="63.89" x2="161.29" y2="329.66" gradientTransform="matrix(1, 0, 0, -1, 0, 291.37)" xlink:href="#linear-gradient"/><linearGradient id="linear-gradient-6" x1="0" y1="143.79" x2="322.62" y2="143.79" gradientTransform="matrix(1, 0, 0, -1, 0, 291.37)" xlink:href="#linear-gradient"/></defs><title>aragon</title><circle cx="172.14" cy="117.78" r="90.7" style="fill:url(#linear-gradient)"/><path d="M235.84,90.58a50.2,50.2,0,0,1,9.9,30c0,13.1-5.4,25.2-14.6,35l5.6,20.9h17l17.9-20.3,4.8-29.7,1-17.7-17.7-20Z" style="fill:url(#linear-gradient-2)"/><path d="M38.84,178.88l3.1,12.3s36.6,75.1,119,103c0,0,77.2-32,110.5-86.3l-48.2-40.1s-22,17.5-54.7,17.5-77.1-19.5-77.1-59.7,46-54.9,46-54.9l-19.6-4.8H67.74l-31.8,76.6Z" style="fill:url(#linear-gradient-3)"/><path d="M280.54,206.78" style="fill:#20201e"/><path d="M315.74,98.18c-1.4-1.4-42-44.4-153.3-82.7l-0.7-.3c-107.8,37-154.2,83-154.2,83,4.2,24.5,14.8,51.8,24.4,73,0.8,1.8,13.6,24.4,23.1,36.7-5.6-12.3-11.7-23-11.7-41.4,0-51.9,40.2-94.1,90.5-95.9,1.2,0,2.5,0,3.7.1l-12-12s48.3-8.1,110.3,29.4c0,0,.9,1.9,0,7.5,0,0,29.2,12.6,31.7,37.1s-13,38.5-25.5,40.5c0,0,6.5-10.1-3.5-15.5a13.27,13.27,0,0,0-7.1-1.6h0c-19.1,0-21.3,21.8-21.3,21.8a18.29,18.29,0,0,0-.2,3.3s-3.2,31.9,53.6,31.3c0,0,28.8-32.6,36.4-61.9,2.8-10.8,4.8-18.9,6.1-24.9q4.8-12.75,9.3-26.4Z" style="fill:url(#linear-gradient-4)"/><path d="M211.74,94.68" style="fill:#353534"/><path d="M211.14,97.78a23,23,0,0,0,6.4-4.8,78.35,78.35,0,0,1,11.9,2.7c-10.9-6.6-25.8-10.5-42.3-10.4,0,0,6.3,9,23.8,12.7Z" style="fill:#282828"/><path d="M161.24,20c10.6,3.3,87.6,28.9,149.2,79.8l6.9-2-0.5-.4c-60.2-51-136.3-77.5-152.1-82.6l-1.5-.5-2-.6-3.5,1.1c-15.8,5.1-91.9,31.6-152.1,82.6l-0.7.6,6.7,2.2C73.24,49,150.64,23.28,161.24,20Z" style="fill:#282828"/><path d="M316.84,87.88c-60.2-51-136.3-77.5-152.1-82.6l-1.5-.5-2-.6-3.5,1.1c-15.8,5.1-91.9,31.6-152.1,82.6L4.34,89l0.3,1.7c0.1,0.4,6.6,39.1,28.8,82.8,13.1,25.7,29,48,47.2,66.5a205.75,205.75,0,0,0,77.2,49.7l1.7,0.6,1.7,0.6,1.8-.7,1.7-.6c28.9-10.4,54.8-27.1,77.2-49.7,18.2-18.4,34.1-40.8,47.2-66.5,22.2-43.6,28.8-82.4,28.8-82.8l0.3-1.7Zm-33.2,82.8c-12.8,25.1-28.3,47-46.1,65-22.1,22.3-47.7,38.7-76.3,48.8a200.75,200.75,0,0,1-76.3-48.7c-17.8-18-33.3-39.8-46.1-64.9a316.45,316.45,0,0,1-28-79.5c61.7-51.7,139.7-77.5,150.4-80.9,10.6,3.4,88.7,29.2,150.4,80.9A320.59,320.59,0,0,1,283.64,170.68Z" style="stroke-miterlimit:10;stroke-width:8px;fill:url(#linear-gradient-5);stroke:url(#linear-gradient-6)"/></svg>