<?xml version="1.0" encoding="utf-8"?>
<!-- Generator: Adobe Illustrator 24.0.0, SVG Export Plug-In . SVG Version: 6.00 Build 0)  -->
<svg version="1.1" id="Layer_1" xmlns="http://www.w3.org/2000/svg" xmlns:xlink="http://www.w3.org/1999/xlink" x="0px" y="0px"
	 viewBox="0 0 360 120" style="enable-background:new 0 0 360 120;" xml:space="preserve">
<style type="text/css">
	.st0{fill-rule:evenodd;clip-rule:evenodd;fill:#0E0E21;}
	.st1{fill:#2AE7A8;}
	.st2{fill:#0E0E21;}
</style>
<path class="st0" d="M167.8,35.7c3.1,1.4,5.4,3.3,7.1,5.7c1.6,2.4,2.5,5.2,2.5,8.3v31.5c0,1-0.5,1.5-1.5,1.5h-8
	c-1,0-1.5-0.5-1.5-1.5v-2.4c0-0.3-0.1-0.4-0.2-0.4c-0.1,0-0.3,0-0.5,0.1c-3.4,3.3-8,4.9-13.7,4.9c-4.7,0-8.5-1.2-11.5-3.6
	c-3-2.4-4.5-6-4.5-10.7c0-4.9,1.7-8.8,5.2-11.5c3.4-2.7,8.3-4.1,14.6-4.1h10.1c0.4,0,0.6-0.2,0.6-0.6v-2.2c0-2.5-0.7-4.4-2.2-5.7
	c-1.5-1.4-3.7-2-6.6-2c-2.2,0-4,0.4-5.5,1.2c-1.5,0.8-2.4,1.9-2.9,3.3c-0.3,0.9-0.8,1.3-1.7,1.2l-8.5-1c-0.5-0.1-0.9-0.2-1.1-0.4
	c-0.3-0.2-0.4-0.5-0.3-0.8c0.6-3.8,2.7-6.9,6.3-9.3c3.6-2.4,8.1-3.6,13.5-3.6C161.2,33.6,164.8,34.3,167.8,35.7z M163.1,72.4
	c2.2-1.6,3.3-3.7,3.3-6.3v-4.4c0-0.4-0.2-0.6-0.6-0.6h-7.9c-3.4,0-6,0.6-8,1.9c-2,1.3-2.9,3.1-2.9,5.4c0,2,0.8,3.6,2.3,4.7
	c1.5,1.1,3.4,1.7,5.8,1.7C158.2,74.8,160.8,74,163.1,72.4z M216.4,34.4h7.9c1,0,1.5,0.5,1.5,1.5v45.4c0,1-0.5,1.5-1.5,1.5h-7.9
	c-1,0-1.5-0.5-1.5-1.5v-2.5c0-0.3-0.1-0.4-0.2-0.5c-0.2-0.1-0.3,0-0.4,0.3c-2.5,3.2-6.4,4.8-11.6,4.8c-4.8,0-8.8-1.4-12.1-4.2
	c-3.3-2.8-4.9-6.7-4.9-11.8V35.9c0-1,0.5-1.5,1.5-1.5h8c1,0,1.5,0.5,1.5,1.5v28.4c0,3,0.8,5.3,2.3,7.1c1.5,1.8,3.7,2.7,6.5,2.7
	c2.8,0,5.1-0.9,6.8-2.7c1.7-1.8,2.6-4.1,2.6-7.1V35.9C214.9,34.9,215.4,34.4,216.4,34.4z M273.3,34.4h-8c-1,0-1.5,0.5-1.5,1.5v1.7
	c0,0.3-0.1,0.4-0.2,0.5c-0.1,0.1-0.3,0-0.5-0.2c-2.9-2.8-6.7-4.3-11.6-4.3c-4.2,0-7.8,1.2-10.9,3.5s-5.3,5.4-6.6,9.2
	c-1,2.8-1.5,6.8-1.5,12c0,4.7,0.4,8.5,1.2,11.5c1.3,4.3,3.7,7.5,7.1,9.6c3.4,2.1,7.2,3.1,11.3,3.1c4.7,0,8.3-1.4,10.9-4.1
	c0.2-0.2,0.3-0.3,0.5-0.2c0.1,0.1,0.2,0.2,0.2,0.5v0.6c0,4.4-1.1,7.6-3.4,9.4c-2.3,1.9-5.8,2.8-10.6,2.8c-0.8,0-2.3-0.1-4.5-0.2
	c-0.5-0.1-0.9,0-1.2,0.3c-0.3,0.3-0.5,0.6-0.5,1l-0.3,7c0,1.1,0.4,1.6,1.3,1.7c1.8,0.2,3.6,0.3,5.4,0.3c7.3,0,13.3-1.7,17.9-5.1
	c4.6-3.4,6.8-9.1,6.8-17V35.9C274.9,34.9,274.4,34.4,273.3,34.4z M263.9,58.3c0,2.5-0.1,4.2-0.1,5.4c-0.1,1.1-0.3,2.1-0.5,3.1
	c-0.5,2-1.5,3.7-3,4.9s-3.5,1.9-6,1.9c-2.3,0-4.3-0.7-6-1.9c-1.7-1.3-2.8-2.9-3.5-5c-0.6-1.6-0.9-4.3-0.9-8.2c0-3.8,0.4-6.6,1.1-8.3
	c0.7-2.1,1.8-3.8,3.4-5c1.6-1.3,3.5-1.9,5.8-1.9c2.4,0,4.4,0.6,5.9,1.9c1.5,1.3,2.6,2.9,3.1,5c0.3,1,0.5,2,0.6,3.1
	C263.8,54.1,263.9,55.9,263.9,58.3z M313.8,34.4h7.9c1,0,1.5,0.5,1.5,1.5v45.4c0,1-0.5,1.5-1.5,1.5h-7.9c-1,0-1.5-0.5-1.5-1.5v-2.5
	c0-0.3-0.1-0.4-0.2-0.5c-0.2-0.1-0.3,0-0.4,0.3c-2.5,3.2-6.4,4.8-11.6,4.8c-4.8,0-8.8-1.4-12.1-4.2c-3.3-2.8-4.9-6.7-4.9-11.8V35.9
	c0-1,0.5-1.5,1.5-1.5h8c1,0,1.5,0.5,1.5,1.5v28.4c0,3,0.8,5.3,2.3,7.1c1.5,1.8,3.7,2.7,6.5,2.7c2.8,0,5.1-0.9,6.8-2.7
	c1.7-1.8,2.6-4.1,2.6-7.1V35.9C312.3,34.9,312.8,34.4,313.8,34.4z M359.9,36.8c0.2-0.9-0.1-1.5-0.9-1.9c-1.5-0.7-3.2-1-5-1
	c-4.7,0-8.3,2-11,6c-0.1,0.3-0.3,0.3-0.4,0.3c-0.1-0.1-0.2-0.2-0.2-0.5v-3.7c0-1-0.5-1.5-1.5-1.5h-8c-1,0-1.5,0.5-1.5,1.5v45.4
	c0,1,0.5,1.5,1.5,1.5h8c1,0,1.5-0.5,1.5-1.5V54.8c0-2.8,0.9-5,2.7-6.8c1.8-1.7,4-2.7,6.6-2.8c0.4-0.1,1-0.1,1.8-0.1
	c1.3,0,2.3,0.1,3,0.4c0.6,0.1,1,0.1,1.3,0c0.3-0.1,0.5-0.4,0.5-0.9L359.9,36.8z"/>
<path class="st1" d="M19.9,52.1l7.4,4.8c0.7,0.5,1.6,0.2,2.1-0.5l24-40.7c0.3-0.5,1-0.5,1.3,0l24,40.7c0.4,0.7,1.4,0.9,2.1,0.5
	l7.4-4.8c0.7-0.4,0.9-1.3,0.5-2L59.9,1.4C59.4,0.6,58.4,0,57.4,0h-6.8c-1,0-2,0.6-2.5,1.4L19.4,50.1C19,50.8,19.2,51.7,19.9,52.1z"
	/>
<path class="st2" d="M107.6,82.3L96.2,62.9c-0.4-0.7-1.4-0.9-2.1-0.5l-7.4,4.8c-0.7,0.4-0.9,1.3-0.5,2l6.5,11.1
	c0.2,0.3,0.1,0.8-0.2,1l-38.1,24.7c-0.2,0.2-0.6,0.2-0.8,0L15.5,81.4c-0.3-0.2-0.4-0.7-0.2-1l6.5-11.1c0.4-0.7,0.2-1.6-0.5-2
	l-7.4-4.8c-0.7-0.5-1.6-0.2-2.1,0.5L0.4,82.3c-0.8,1.4-0.4,3.2,0.9,4l51.1,33.2c1,0.6,2.2,0.6,3.2,0l51.1-33.2
	C108,85.5,108.4,83.7,107.6,82.3z"/>
</svg>
