<?xml version="1.0" encoding="utf-8"?>
<!-- Generator: Adobe Illustrator 24.0.0, SVG Export Plug-In . SVG Version: 6.00 Build 0)  -->
<svg version="1.1" id="Layer_1" xmlns="http://www.w3.org/2000/svg" xmlns:xlink="http://www.w3.org/1999/xlink" x="0px" y="0px"
	 viewBox="0 0 110.5 20" style="enable-background:new 0 0 110.5 20;" xml:space="preserve">
<style type="text/css">
	.st0{fill-rule:evenodd;clip-rule:evenodd;fill:#0F1117;}
	.st1{fill:#0F1117;}
</style>
<path class="st0" d="M0.2,1.8C0,2.4,0,3.1,0,4.6L0,10l0,5.4c0,1.5,0,2.2,0.2,2.8c0.3,0.7,0.9,1.3,1.6,1.6C2.4,20,3.1,20,4.6,20H10
	h5.4c1.5,0,2.2,0,2.8-0.2c0.7-0.3,1.3-0.9,1.6-1.6c0.2-0.6,0.2-1.3,0.2-2.8V10V4.6c0-1.5,0-2.2-0.2-2.8c-0.3-0.7-0.9-1.3-1.6-1.6
	C17.6,0,16.9,0,15.4,0H10H4.6C3.1,0,2.3,0,1.8,0.2C1.1,0.5,0.5,1.1,0.2,1.8z M13.2,8.6c-1,0-1.8-0.8-1.8-1.8c0-1,0.8-1.8,1.8-1.8
	c1,0,1.8,0.8,1.8,1.8C15,7.8,14.2,8.6,13.2,8.6z M8.6,6.8c0,1-0.8,1.8-1.8,1.8C5.8,8.6,5,7.8,5,6.8S5.8,5,6.8,5
	C7.8,5,8.6,5.8,8.6,6.8z M13.2,11.4c-1,0-1.8,0.8-1.8,1.8c0,1,0.8,1.8,1.8,1.8c1,0,1.8-0.8,1.8-1.8C15,12.2,14.2,11.4,13.2,11.4z
	 M6.8,11.4c1,0,1.8,0.8,1.8,1.8c0,1-0.8,1.8-1.8,1.8S5,14.2,5,13.2C5,12.2,5.8,11.4,6.8,11.4z"/>
<path class="st1" d="M29.6,16h4.5c2.7,0,3.9-1.3,3.9-3.1c0-1.8-1.3-2.8-2.4-2.9V9.9c1.1-0.3,2-1,2-2.5c0-1.7-1.2-3.1-3.7-3.1h-4.3
	V16z M31.4,14.5v-3.7H34c1.4,0,2.3,0.9,2.3,2c0,1-0.7,1.7-2.4,1.7H31.4z M31.4,9.4V5.9h2.4c1.4,0,2.1,0.7,2.1,1.7
	c0,1.1-0.9,1.8-2.1,1.8H31.4z M41.5,4.4h-1.7V16h1.7V4.4z M47.3,16.2c2.5,0,4.1-1.8,4.1-4.5c0-2.7-1.6-4.5-4.1-4.5
	c-2.5,0-4.1,1.8-4.1,4.5C43.3,14.4,44.9,16.2,47.3,16.2z M47.3,14.8c-1.6,0-2.4-1.4-2.4-3.1c0-1.7,0.8-3.1,2.4-3.1
	c1.6,0,2.3,1.4,2.3,3.1C49.7,13.3,48.9,14.8,47.3,14.8z M56.8,16.2c2.1,0,3.4-1.2,3.6-2.9h-1.7c-0.2,0.9-0.9,1.5-1.9,1.5
	c-1.4,0-2.4-1.2-2.4-3.1c0-1.9,0.9-3,2.4-3c1.1,0,1.7,0.7,1.9,1.5h1.7c-0.2-1.8-1.6-2.9-3.6-2.9c-2.5,0-4.1,1.9-4.1,4.5
	C52.7,14.3,54.3,16.2,56.8,16.2z M62,16h1.7v-3.1l0.8-0.8l3,3.9h2.1l-3.8-5l3.5-3.7h-2L63.9,11h-0.1V4.4H62V16z M77.3,9.4
	C77,8,75.9,7.2,74,7.2c-2,0-3.4,1-3.4,2.6c0,1.2,0.8,2.1,2.4,2.4l1.5,0.3c0.8,0.2,1.2,0.6,1.2,1.1c0,0.7-0.7,1.2-1.8,1.2
	c-1,0-1.7-0.4-1.9-1.3l-1.6,0.3c0.3,1.5,1.6,2.4,3.5,2.4c2.1,0,3.6-1.1,3.6-2.7c0-1.2-0.8-2-2.4-2.4l-1.4-0.3
	c-1-0.2-1.4-0.6-1.4-1.1c0-0.7,0.7-1.1,1.7-1.1c1.1,0,1.5,0.6,1.7,1.2L77.3,9.4z M83.3,7.3h-1.8V5.2h-1.7v2.1h-1.3v1.4h1.3v5.2
	c0,1.6,1.2,2.4,2.5,2.3c0.5,0,0.9-0.1,1.1-0.2l-0.3-1.4c-0.1,0-0.3,0.1-0.6,0.1c-0.6,0-1-0.2-1-1.2V8.6h1.8V7.3z M87.5,16.2
	c1.4,0,2.3-0.7,2.6-1.4h0.1V16h1.7v-5.8c0-2.5-2-3-3.4-3c-1.6,0-3,0.6-3.6,2.2l1.6,0.4c0.3-0.6,0.9-1.2,2-1.2c1.1,0,1.7,0.6,1.7,1.6
	v0c0,0.6-0.6,0.6-2.2,0.8c-1.7,0.2-3.3,0.6-3.3,2.6C84.6,15.3,85.9,16.2,87.5,16.2z M87.9,14.8c-1,0-1.7-0.4-1.7-1.3
	c0-0.9,0.8-1.2,1.8-1.4c0.6-0.1,1.9-0.2,2.1-0.5v1.1C90.1,13.9,89.3,14.8,87.9,14.8z M97.6,16.2c2.1,0,3.4-1.2,3.6-2.9h-1.7
	c-0.2,0.9-0.9,1.5-1.9,1.5c-1.4,0-2.4-1.2-2.4-3.1c0-1.9,0.9-3,2.4-3c1.1,0,1.7,0.7,1.9,1.5h1.7c-0.2-1.8-1.6-2.9-3.6-2.9
	c-2.5,0-4.1,1.9-4.1,4.5C93.6,14.3,95.1,16.2,97.6,16.2z M102.9,16h1.7v-3.1l0.8-0.8l3,3.9h2.1l-3.8-5l3.5-3.7h-2l-3.5,3.7h-0.1V4.4
	h-1.7V16z"/>
</svg>
