<?xml version="1.0" encoding="utf-8"?>
<!-- Generator: Adobe Illustrator 24.0.0, SVG Export Plug-In . SVG Version: 6.00 Build 0)  -->
<svg version="1.1" id="Layer_1" xmlns="http://www.w3.org/2000/svg" xmlns:xlink="http://www.w3.org/1999/xlink" x="0px" y="0px"
	 viewBox="0 0 184 60" style="enable-background:new 0 0 184 60;" xml:space="preserve">
<style type="text/css">
	.st0{fill:url(#SVGID_1_);}
	.st1{fill:#FFFFFF;}
	.st2{fill:#283049;}
</style>
<linearGradient id="SVGID_1_" gradientUnits="userSpaceOnUse" x1="56.1653" y1="5.8432" x2="8.1654" y2="53.9477" gradientTransform="matrix(1 0 0 -1 0 62)">
	<stop  offset="0.1594" style="stop-color:#003CDA"/>
	<stop  offset="1" style="stop-color:#33DFCC"/>
</linearGradient>
<path class="st0" d="M0,12C0,5.4,5.4,0,12,0h36.1c6.6,0,12,5.4,12,12v36c0,6.6-5.4,12-12,12H12C5.4,60,0,54.6,0,48V12z"/>
<path class="st1" d="M24.1,0h-6v13.8h6V0z"/>
<path class="st1" d="M34.2,42.5h-8c-4.5,0-8.2-3.7-8.2-8.2v-5.8h6v5.8c0,1.2,0.9,2.2,2.2,2.2h8c1.2,0,2.2-0.9,2.2-2.2v-7.9
	c0-1.2-0.9-2.2-2.2-2.2H0v-6h34.2c4.5,0,8.2,3.7,8.2,8.2v8C42.4,38.9,38.7,42.5,34.2,42.5z"/>
<path class="st2" d="M154.8,48.2c-0.3-0.3-0.4-0.5-0.4-0.9s0.1-0.7,0.4-1l9.7-12.8l-9-12c-0.2-0.3-0.4-0.6-0.4-1
	c0-0.4,0.1-0.6,0.4-0.9c0.3-0.3,0.5-0.4,0.9-0.4h5c0.4,0,0.7,0.1,0.9,0.3c0.2,0.2,0.4,0.4,0.7,0.7l6.4,8.4l6.3-8.4
	c0.1-0.1,0.2-0.2,0.4-0.5c0.3-0.3,0.6-0.5,1.2-0.5h4.9c0.4,0,0.6,0.1,0.9,0.4c0.2,0.3,0.4,0.5,0.4,0.8c0,0.4-0.1,0.7-0.4,1
	l-9.1,12.1l9.8,12.7c0.2,0.3,0.4,0.6,0.4,1s-0.1,0.6-0.4,0.9c-0.3,0.3-0.5,0.4-0.9,0.4h-5.2c-0.6,0-1.1-0.3-1.5-0.9l-6.8-8.9
	l-6.9,8.9c-0.4,0.6-0.9,0.9-1.5,0.9h-5.1C155.3,48.6,155,48.5,154.8,48.2z"/>
<path class="st2" d="M113.3,32c-0.1-4-1.4-7.2-3.4-9.6c-2.1-2.5-5.1-3.7-8.9-3.7c-3.7,0-6.6,1.2-8.8,3.8V9.8c0-0.8-0.8-1.3-1.6-1
	l-6.2,2.5v36.1c0,0.4,0.2,0.7,0.4,1s0.6,0.4,1,0.4h4.6c0.4,0,0.8-0.2,1-0.4s0.4-0.6,0.4-1v-2.1c2.1,2.7,5.2,4,9.1,4
	c3.9,0,6.8-1.2,8.9-3.7c2.1-2.4,3.2-5.7,3.3-9.8C113.5,34.5,113.3,33.2,113.3,32z M105.3,35.6c-0.3,5-2.5,7.5-6.5,7.5
	c-2.2,0-3.8-0.7-4.9-2.1c-1.1-1.4-1.7-3.1-1.7-5.1c-0.1-0.5-0.1-1.2-0.1-2.2c0-1,0-1.7,0.1-2.2c0.1-1.9,0.7-3.5,1.8-4.8
	c1.1-1.3,2.7-2,4.8-2c4.1,0,6.3,2.5,6.5,7.5c0.1,0.4,0.1,0.9,0.1,1.7C105.4,34.7,105.4,35.2,105.3,35.6z"/>
<path class="st2" d="M149,42.1h-20.4l5.5-7.3c0.7-0.9,0.1-2.3-1.1-2.3h-7.2l-6.8,8.9c-0.2,0.3-0.4,0.6-0.6,0.9
	c-0.2,0.3-0.3,0.7-0.3,1.2v4c0,0.4,0.1,0.8,0.4,1c0.3,0.3,0.6,0.4,1,0.4h26.2c0.7,0,1.4-0.4,1.8-0.9l2.7-3.6
	C150.8,43.4,150.1,42.1,149,42.1z"/>
<path class="st2" d="M118.5,15.3h20.6l-5.6,7.2c-0.7,0.9-0.1,2.2,1.1,2.2h7.2l6.9-8.7c0.2-0.3,0.4-0.6,0.6-0.9
	c0.2-0.3,0.3-0.7,0.3-1.2v-3.9c0-0.4-0.1-0.8-0.4-1c-0.3-0.3-0.6-0.4-1-0.4h-26.5c-0.7,0-1.4,0.4-1.8,0.9l-2.7,3.5
	C116.7,14,117.3,15.3,118.5,15.3z"/>
</svg>
