<svg xmlns="http://www.w3.org/2000/svg" viewBox="0 0 1884.36 637.21">
  <path d="m699.71 209.67-115.24-18.86 88-36.83 19.86-79.48-23.23-41.29L555.65 0l57.76 82.88.34.48-45.09 11.27-111.27-76.49L363 29.38l-94.42-11.24-111.27 76.49-45-11.26.34-.48L170.32 0 56.87 33.21 33.64 74.5 53.51 154l88 36.83-115.25 18.84L0 280.58l79 38.24 74.65-26.35 10.73 79.76 49.1 114.47 23.89 62.12L353 630.1l9.83 6.92v.14l.08.05.1-.07.1.07.07-.05V637l9.82-6.9 115.6-81.28 23.89-62.12 49.07-114.47 10.73-79.76 74.65 26.35 79-38.24ZM64.68 43l77.23-22.61L100 80.56l-51.1-9.47Zm-17 39.65 45 8.33L61 136Zm105 197.84-72.9 25.71-65.21-31.49 20.25-54.66 117.81-19.28Zm0-97.66-85.27-35.7 37.73-53.61 47.54 11.89ZM477.4 214l-11 36.89H259.56l-11-36.89L363 48.68ZM367.54 364.85H293l-29.82-102.32h199.61l-29.85 102.32Zm61.88 11.63-37 98.09L363 498.76l-29.43-24.19-37-98.09h132.85Zm-265.16-207V104l107.29-73.8 82.94 9.87.55.07-.24.23-116.61 167.54Zm60 312.88L175.72 369.1l-10.83-80.16 87.23-22.84 30.35 104.06-24.56 51.35-33.09 62.29Zm6.1 15.85 34.54-65 89 73.21-3 2.46-105.21 29.18ZM363 622.93l-107.44-75.54L363 517.55l107.42 29.84Zm117.29-84.87L375 508.83l-3-2.46 89-73.21 34.54 65Zm70-169-48.57 113.27-.57 1.47-33.09-62.29-24.56-51.35 30.35-104.06 87.23 22.84Zm11.46-199.65-73.93 38.46-116.65-167.5-.24-.23.55-.07 82.94-9.87L561.71 104ZM665 136l-31.69-45 45-8.33ZM584.06 20.43 661.29 43l15.78 28.05L626 80.56Zm-10.72 85 47.54-11.89 37.73 53.61-85.27 35.7Zm72.91 200.79-72.91-25.71v-79.74l117.81 19.28 20.25 54.66ZM1103.89 270.41c-.36 35-1.44 46.86-6.49 57.68-9.37 20.54-28.84 30.28-66.33 32.8-14.78 1.45-43.62 1.81-91.56 1.81-69.22 0-91.57-3.25-111-15.87-23.79-15.14-30.64-40.37-30.64-111.75 0-63.45 7.21-86.16 32.45-100.58 21.63-12.61 44.7-15.86 112.11-15.86 89.76 0 109.23 1.8 129.78 11.9 19.47 9.73 28.48 31 28.48 66.33v7.93h-69.94c-1.44-26.32-6.85-28.48-70.3-28.48-59.84 0-70.65 1.44-79.66 9.37-8.66 7.93-10.46 17.67-10.46 56.6 0 57.68 5.41 62 75.7 62 54.44 0 62.37-.36 72.47-4.68 10.45-4.33 14.42-11.9 14.42-29.2ZM1338.47 191.1c19.82 3.61 35.69 14.06 42.17 28.12 4.69 10.45 6.13 23.07 6.13 50.83 0 52.27-4.32 66.69-24.15 78.59-11.54 7.2-21.27 9.73-43.62 11.9-14.42 1.08-38.57 2.16-55.88 2.16-55.87 0-80.75-4.33-96.61-16.59-16.22-12.25-19.83-25.95-19.83-72.46 0-49 6.49-66 29.2-76.42 16.95-7.57 44.7-10.81 90.13-10.81 27.75 0 55.15 1.8 72.46 4.68ZM1209.05 274c0 38.22 6.49 42.9 58.76 42.9 50.11 0 56.6-4.68 56.6-41.45 0-38.94-5.77-43.26-58.77-43.26-49.02.01-56.59 5.81-56.59 41.81ZM1457.53 122.25l69.94 183.13 62-183.13h88.32L1738 305.38l72.1-183.13h74.26l-99.5 240.45h-98l-53.35-173-55.88 173h-97.34l-97-240.45ZM799 443.47h56.1c14.19 0 17.82.44 22.44 2.75 7.37 3.63 10.12 10.34 10.12 24.2s-2.53 21.23-8.58 25c-4.29 2.64-9.24 3.41-22 3.41h-35.89v18H799ZM853.64 481c9.13 0 11.77-2 11.77-8.91 0-8.8-2.2-10.78-11.77-10.78h-32.45V481ZM931 443.47h63.25c10.56 0 15.51.66 19.8 2.64 6.38 3 9.35 9.68 9.35 21.12 0 7.92-1.43 13.2-4.62 16.61-2.53 2.64-5.94 3.74-15.84 5.17 1.65.11 3.08.22 3.63.22 7.7.44 10.56 1.32 12.76 4s3.08 5.83 3.08 12.1v11.55h-22.69v-9.13c0-4.18-.77-6.49-2.75-7.92-1.76-1.21-3.52-1.43-9.57-1.43h-34.21v18.48H931Zm57.09 37c10.78 0 12.87-1.32 12.87-8.58 0-4.73-.44-6.71-1.87-8.25-1.65-1.76-3.52-2.09-10.23-2.09h-35.67v18.92ZM1148.44 443.8c11.33 2.09 16.83 7.92 18.37 19.69q.66 4.45.66 17.82c0 17.71-1.87 24.86-8.14 30-4.4 3.74-10.56 5.5-21.23 5.94-4 .22-13.75.33-20.9.33-17.49 0-26.4-.33-30.8-1.21-8.14-1.43-12.87-4.51-15.62-9.9s-3.52-10.78-3.52-26.84c0-12.32.22-15.4 1.54-20.35 2.09-7.81 6.38-12 14.63-14.41 6.16-1.76 12.87-2.2 32.23-2.2 21.12.03 27.61.25 32.78 1.13Zm-54.78 19.47c-3 2.31-3.85 5.94-3.85 16.5 0 10.78.88 14.74 3.63 17.05 3 2.42 6.6 2.86 23.43 2.86 19.25 0 23.21-.66 25.74-4.18 2.09-2.64 2.64-6.38 2.64-16.17 0-18.48-.33-18.7-27.83-18.7-16.42 0-20.9.55-23.76 2.64ZM1240.73 461.62h-32.67v-18.15h87.67v18.15h-32.67v55.22h-22.33ZM1417.49 443.8c11.33 2.09 16.83 7.92 18.37 19.69q.66 4.45.66 17.82c0 17.71-1.87 24.86-8.14 30-4.4 3.74-10.56 5.5-21.23 5.94-4 .22-13.75.33-20.9.33-17.49 0-26.4-.33-30.8-1.21-8.14-1.43-12.87-4.51-15.62-9.9s-3.52-10.78-3.52-26.84c0-12.32.22-15.4 1.54-20.35 2.09-7.81 6.38-12 14.63-14.41 6.16-1.76 12.87-2.2 32.23-2.2 21.12.03 27.61.25 32.78 1.13Zm-54.78 19.47c-3 2.31-3.85 5.94-3.85 16.5 0 10.78.88 14.74 3.63 17.05 3 2.42 6.6 2.86 23.43 2.86 19.25 0 23.21-.66 25.74-4.18 2.09-2.64 2.64-6.38 2.64-16.17 0-18.48-.33-18.7-27.83-18.7-16.39 0-20.9.55-23.76 2.64ZM1573.47 489.23c-.11 10.67-.44 14.3-2 17.6-2.86 6.27-8.8 9.24-20.24 10-4.51.44-13.31.55-27.94.55-21.12 0-27.94-1-33.88-4.84-7.26-4.62-9.35-12.32-9.35-34.1 0-19.36 2.2-26.29 9.9-30.69 6.6-3.85 13.64-4.84 34.21-4.84 27.39 0 33.33.55 39.6 3.63 5.94 3 8.69 9.46 8.69 20.24v2.42h-21.34c-.44-8-2.09-8.69-21.45-8.69-18.26 0-21.56.44-24.31 2.86s-3.19 5.39-3.19 17.27c0 17.6 1.65 18.92 23.1 18.92 16.61 0 19-.11 22.11-1.43s4.4-3.63 4.4-8.91ZM1698.1 443.8c11.33 2.09 16.83 7.92 18.37 19.69q.66 4.45.66 17.82c0 17.71-1.87 24.86-8.14 30-4.4 3.74-10.56 5.5-21.23 5.94-4 .22-13.75.33-20.9.33-17.49 0-26.4-.33-30.8-1.21-8.14-1.43-12.87-4.51-15.62-9.9s-3.52-10.78-3.52-26.84c0-12.32.22-15.4 1.54-20.35 2.09-7.81 6.38-12 14.63-14.41 6.16-1.76 12.87-2.2 32.23-2.2 21.12.03 27.61.25 32.78 1.13Zm-54.78 19.47c-3 2.31-3.85 5.94-3.85 16.5 0 10.78.88 14.74 3.63 17.05 3 2.42 6.6 2.86 23.43 2.86 19.25 0 23.21-.66 25.74-4.18 2.09-2.64 2.64-6.38 2.64-16.17 0-18.48-.33-18.7-27.83-18.7-16.39 0-20.9.55-23.76 2.64ZM1762.23 443.47h22.33v55.22h50.49v18.15h-72.82Z"/>
</svg>