<?xml version="1.0" encoding="utf-8"?>
<!-- Generator: Adobe Illustrator 24.0.0, SVG Export Plug-In . SVG Version: 6.00 Build 0)  -->
<svg version="1.1" id="图层_1" xmlns="http://www.w3.org/2000/svg" xmlns:xlink="http://www.w3.org/1999/xlink" x="0px" y="0px"
	 viewBox="0 0 1095.4 195.8" style="enable-background:new 0 0 1095.4 195.8;" xml:space="preserve">
<style type="text/css">
	.st0{fill:#2C089B;}
</style>
<title>Asset 21</title>
<g>
	<path class="st0" d="M82,150.3l-0.2-0.3c-0.1,0-0.2,0-0.3,0c-3.9-2.5-8.5-4-13.4-4c-0.1,0-0.2,0-0.3,0c-5.9-3.4-11.4-8.8-15.5-15.8
		c-3.8-6.4-5.8-13.1-6.2-19.4c2.3-3.8,3.6-8.2,3.6-12.9c0-4.8-1.3-9.2-3.7-13c0.3-6.5,2.3-13.4,6.2-20s9-11.7,14.4-15.1
		c0.4,0,0.9,0,1.3,0C81.8,49.8,93,38.6,93,24.9S81.8,0,68.1,0S43.2,11.2,43.2,24.9c0,5.3,1.6,10.1,4.4,14.2
		c-0.4,6.3-2.4,13-6.2,19.4c-3.7,6.3-8.6,11.3-13.8,14.7c-0.9-0.1-1.9-0.2-2.8-0.2C11.2,73,0,84.2,0,97.9s11.2,24.9,24.9,24.9
		c1.2,0,2.4-0.1,3.6-0.3c4.9,3.4,9.4,8.2,13,14.2c3.9,6.6,5.9,13.6,6.2,20c-2.8,4-4.5,8.9-4.5,14.2c0,13.7,11.2,24.9,24.9,24.9
		S93,184.6,93,170.9C93,162.3,88.6,154.7,82,150.3z"/>
	<path class="st0" d="M151.4,49.8c13.7,0,24.9-11.2,24.9-24.9S165.1,0,151.4,0s-24.9,11.2-24.9,24.9
		C126.6,38.6,137.7,49.8,151.4,49.8z"/>
	<path class="st0" d="M193.5,73c-13.7,0-24.9,11.2-24.9,24.9c0,5.2,1.6,10,4.3,14c-0.4,6.3-2.4,13.2-6.2,19.6
		c-3.7,6.2-8.4,11.2-13.6,14.6c-0.5,0-1-0.1-1.5-0.1c-5.9-3.4-11.4-8.8-15.5-15.8c-3.6-6.1-5.6-12.6-6.2-18.7
		c2.6-3.9,4.1-8.6,4.1-13.7c0-13.7-11.2-24.9-24.9-24.9S84.2,84.1,84.2,97.8s11.2,24.9,24.9,24.9c1.1,0,2.1-0.1,3.2-0.2
		c4.9,3.4,9.4,8.2,12.9,14.1c3.8,6.4,5.8,13.2,6.2,19.5c-3,4.1-4.8,9.2-4.8,14.7c0,13.7,11.2,24.9,24.9,24.9s24.9-11.2,24.9-24.9
		c0-5.5-1.8-10.6-4.9-14.8c0.6-5.9,2.6-12.2,6.1-18.2c3.9-6.6,9-11.8,14.5-15.2c0.5,0,0.9,0,1.4,0c13.7,0,24.9-11.2,24.9-24.9
		C218.3,84.2,207.2,73,193.5,73z"/>
</g>
<g>
	<path class="st0" d="M1085.7,171.4c-11.5,0-13.1-6.5-14-9.5l-22.4-72.7v82.2H1033c-2.5,0-4.5-2-4.5-4.5V24.2h9.6
		c11.6,0,13.7,4,14.8,8.2l21.5,76.5V24.2h16.3c2.6,0,4.7,2.1,4.7,4.7v133C1095.3,163.4,1094.7,171.4,1085.7,171.4z"/>
	<path class="st0" d="M844.2,24.5h-17h-0.1c-0.1,0-0.3,0-0.4,0.1c-1.9,0.3-3.4,1.8-3.7,3.7l-0.4,1.9c0,0.1,0,0.1,0,0.1l-19.4,92.1
		L785,36.8l-1.8-8.6l0,0v-0.1l0,0c-0.5-2.1-2.3-3.6-4.5-3.6l0,0l0,0h-14.6l0,0h-2.6l27.6,129.8l1.3,6.4c0.1,0.4,0.2,0.9,0.3,1.3v0.1
		l0,0c0.5,1.9,1.4,3.6,2.6,5c1.3,1.6,3,2.8,5,3.6c1.5,0.6,3.1,0.9,4.8,0.9s3.2-0.3,4.7-0.9c2.8-1.1,5.1-3.2,6.5-5.8l0,0
		c0.1-0.2,0.2-0.3,0.3-0.5l0,0c0.8-1.6,1.1-2.9,1.1-3.2c0.3-0.9,28.9-136.7,28.9-136.7S844.5,24.5,844.2,24.5z"/>
	<g>
		<path class="st0" d="M338.8,70.5l0.1-0.1L338.8,70.5z"/>
		<path class="st0" d="M338.8,117.9V117l-4.8,1.8l-8.8,3.4l-0.6,0.2l-3.6,1.4c-1.8,0.6-3,2.3-3,4.3l0,0v2.9l0,0v19.4l0,0
			c0,4.5-5,8-11.3,8c-6.1,0-11-3.5-11-8V45.2c0-4.3,4.9-7.8,11-7.8c6.4,0,11.3,3.5,11.3,7.8l0,0v15.9l0,0V65v12.5l0,0v0.1v0.9
			l4.8-1.8l8.8-3.4l0.6-0.2l3.6-1.4c1.8-0.6,3-2.3,3-4.3l0,0V65c0-0.1,0-0.2,0-0.3v-22c0-0.1,0-0.2,0-0.3c-0.2-8.7-9.1-16-20.9-17.7
			l0,0c-1.4-0.2-2.9-0.3-4.3-0.3h-12.8c-14.5,0-26.2,8.2-26.2,18.3V153c0,10.1,11.6,18.3,26.2,18.3h12.8c1.5,0,2.9-0.2,4.4-0.4
			c12-1.8,20.9-9.1,20.9-17.9v-22.6v-11.6v-0.6l0,0L338.8,117.9C338.8,118,338.8,118,338.8,117.9L338.8,117.9z"/>
	</g>
	<path class="st0" d="M424.1,24.4c-2.2,0-4,1.5-4.5,3.5l-0.2,0.9c-0.1,0.2-0.1,0.5-0.2,0.7l-1.5,6.3l0,0L405.9,85v0.1l-0.1-0.6
		L394,35.8l-1.5-6.3c0-0.2-0.1-0.5-0.2-0.7l-0.2-0.9c-0.5-2-2.3-3.5-4.5-3.5h-17.2l1.1,3.9c0.2,0.8,0.4,1.3,0.4,1.3l1.8,6.1
		l21.5,73.9l0.2,0.7v61.1h6h0.1c0,0,4.4,0,8.9,0c0.1,0,0.1,0,0.2,0h5.8v-61.1l0,0l0,0l6.8-23.4L438,35.8l0,0l1.8-6.1
		c0,0,0.2-0.6,0.4-1.3l1.1-3.9h-17.2V24.4z"/>
	<path class="st0" d="M622.2,24.5L622.2,24.5c-8,0-25.5,0-35.8,0l0,0h-7h-1.1h-0.8h-0.1c-3,0-5.5,2.5-5.5,5.5v6.5v35.2v52.7v4.3
		v30.9v6.5v0.1v5.4h5.3c0.1,0,0.2,0,0.2,0h0.1h0.8h1.1h7l0,0c1.4,0,2.9,0,4.5,0l0,0c10.3,0,24.4,0,31.3,0l0,0h8l0,0v-2.9v-0.8v-6.5
		v-0.7c-0.2-2.3-2-4.1-4.3-4.3h-0.6H615l0,0h-16.5c-3.1,0-5.5-2.5-5.5-5.5l0,0v-11.7v-10.6v-4.3v-18.8l0,0V104v-2.1h15h8.1
		c2.5,0,4.6-2.1,4.6-4.6v-6.9v-0.1v-3.4h-4.1c-0.6,0-1.2,0-1.8,0c-6.5,0-14.4,0-16.8,0h-0.4c-2.5,0-4.6-2.1-4.6-4.6V71.6v-2.1V56.8
		V45.1l0,0c0-3.1,2.5-5.5,5.5-5.5H615l0,0h10.3h0.6c2.3-0.1,4.1-2,4.3-4.3v-0.7v-6.5v-0.8v-2.9l0,0h-8V24.5z"/>
	<path class="st0" d="M927.3,24.5L927.3,24.5c-8,0-25.5,0-35.8,0l0,0h-7h-1.1h-0.8h-0.1c-3,0-5.5,2.5-5.5,5.5v6.5v35.2v52.7v4.3
		v30.9v6.5v0.1v5.4h5.3c0.1,0,0.2,0,0.2,0h0.1h0.8h1.1h7l0,0c1.4,0,2.9,0,4.5,0l0,0c10.3,0,24.4,0,31.3,0l0,0h8l0,0v-2.9v-0.8v-6.5
		v-0.7c-0.2-2.3-2-4.1-4.3-4.3h-0.6h-10.3l0,0h-16.5c-3.1,0-5.5-2.5-5.5-5.5l0,0v-11.7v-10.6v-4.3v-18.8l0,0V104v-2.1h15h8.1
		c2.5,0,4.6-2.1,4.6-4.6v-6.9v-0.1v-3.4h-4.1c-0.6,0-1.2,0-1.8,0c-6.5,0-14.4,0-16.8,0h-0.4c-2.5,0-4.6-2.1-4.6-4.6V71.6v-2.1V56.8
		V45.1l0,0c0-3.1,2.5-5.5,5.5-5.5H920l0,0h10.3h0.6c2.3-0.1,4.1-2,4.3-4.3v-0.7v-6.5v-0.8v-2.9l0,0h-7.9V24.5z"/>
	<path class="st0" d="M992.4,171.5H976c-2.5,0-4.6-2-4.6-4.6V24.4h16.4c2.5,0,4.5,2,4.5,4.5L992.4,171.5L992.4,171.5z"/>
	<path class="st0" d="M535.9,109.9c0-4.4-4.9-9.2-17-12c12.1-2.7,17-6.8,17-12c0-5.1,0-12,0-21.9c0-10.7,0-21.2,0-21.2
		c-0.3-10.3-11.5-18.5-25.6-18.5H473v147h37.4c14.1,0,25.3-8.2,25.6-18.5C535.9,153,535.9,114.3,535.9,109.9z M515.7,148.8
		c0,1.4-0.3,2.6-0.9,3.5c-1.3,2.5-3.9,4.2-6.9,4.2h-2.1c-0.3,0-0.6,0-0.9,0h-11.3v-51.7h11.3c5.5,0,10.8,1.9,10.8,8.4V148.8z
		 M515.7,82.4c0,0.1,0,0.2,0,0.3v0.1c0,1-0.2,1.9-0.5,2.8c0,0.1-0.1,0.2-0.1,0.2c0,0.1-0.1,0.2-0.1,0.2c-0.2,0.5-0.4,0.9-0.7,1.3
		c-1.4,2.2-3.9,3.6-6.6,3.7l0,0h-1.8c-0.3,0-0.7,0-1,0h-11.3V39.6h11.3c5.5,0,10.8,2.1,10.8,7.6L515.7,82.4L515.7,82.4z"/>
	<path class="st0" d="M729.9,88.1c0.1-4.3,0-45.4,0-45.4c0-10.3-11.6-18.5-25.6-18.5h-38.1v147.2h20.9v-63.3h11
		c5.5,0,10.8,2.3,10.8,9.5v53.8h20.9c0,0-0.1-51.4,0-56.4s-4.7-10.9-12.8-13.9C725.5,99.7,729.8,92.5,729.9,88.1z M709,85.4
		c0,0.1,0,0.3,0,0.4s0,0.1,0,0.2c0,4.3-3.5,7.8-7.8,7.8l0,0h-2.7c-0.1,0-0.1,0-0.2,0h-11V38.3h11c5.5,0,10.8,2.1,10.8,7.6L709,85.4
		L709,85.4z"/>
</g>
</svg>
