<?xml version="1.0" encoding="utf-8"?>
<!-- Generator: Adobe Illustrator 23.0.3, SVG Export Plug-In . SVG Version: 6.00 Build 0)  -->
<svg version="1.1" xmlns="http://www.w3.org/2000/svg" xmlns:xlink="http://www.w3.org/1999/xlink" x="0px" y="0px"
	 viewBox="0 0 447.14 141.73" style="enable-background:new 0 0 447.14 141.73;" xml:space="preserve">
<style type="text/css">
	.st0{fill:#7866D5;}
	.st1{fill:#FFFFFF;}
</style>
<g id="图层_1">
	<circle class="st0" cx="70.87" cy="70.87" r="70.87"/>
	<g>
		<path class="st1" d="M99.6,36.37c2.42,0.29,4.87,0.45,7.26,0.91c4.74,0.92,6.31,3.28,5.5,8.07c-0.22,1.8-1.63,3.23-3.43,3.46
			c-1.13,0.18-2.27,0.26-3.41,0.24c-15.56,0.05-31.11,0.09-46.68,0.12c-2.34,0.02-4.67,0.23-6.97,0.62
			c-7.7,1.26-10.63,4.45-11.24,12.22c-0.29,3.64-0.29,3.64,3.36,3.64H106c0.6,0,1.2,0,1.8,0c0.99,0,1.95,0.27,2.8,0.77
			c2.82,1.8,2.12,4.66,1.96,7.25c-0.13,2.1-1.4,3.25-3.56,3.67c-0.91,0.15-1.83,0.21-2.75,0.19c-21.21,0-42.42,0-63.62,0
			c-2.35,0-2.31,0-2.14,2.33c0.08,2.12,0.35,4.23,0.8,6.31c0.96,3.83,3.33,6.23,7.15,7.29c4.23,1.19,8.58,1.45,12.92,1.48
			c15.17,0.1,30.34,0.06,45.52,0.06c1.92,0,3.73,0.24,4.87,2.03c1.86,3,0.94,6.94-2.06,8.81c-0.41,0.25-0.85,0.46-1.3,0.62
			c-3.3,1.06-6.73,1.31-10.15,1.37c-14.25,0.26-28.49,0.26-42.74,0c-4.4-0.11-8.79-0.62-13.09-1.53
			c-10.14-2.1-15.21-7.25-16.94-17.46c-0.4-2.35-0.6-4.73-0.89-7.1V63.13c0.19-1.83,0.37-3.66,0.58-5.47
			C26.48,46.13,31.66,40.42,43,37.9c4.04-0.9,8.15-1.1,12.23-1.53L99.6,36.37z"/>
		<path class="st1" d="M76.85,109.8c-7.15,0-14.3-0.06-21.4-0.19c-4.51-0.11-9.03-0.63-13.43-1.56
			c-10.85-2.25-16.51-8.08-18.34-18.92c-0.28-1.67-0.47-3.37-0.65-5c-0.08-0.73-0.16-1.45-0.25-2.18l-0.01-0.22l0.01-18.78
			l0.18-1.76c0.13-1.25,0.26-2.49,0.4-3.72c1.43-12.25,7.19-18.63,19.25-21.31c3.16-0.7,6.35-0.99,9.44-1.27c1-0.09,2-0.18,3-0.29
			l0.19-0.01l44.48,0l0.11,0.01c0.74,0.09,1.49,0.17,2.24,0.24c1.68,0.17,3.42,0.35,5.15,0.69c5.71,1.11,7.91,4.33,6.93,10.13
			c-0.3,2.54-2.35,4.61-4.97,4.95c-1.17,0.19-2.43,0.28-3.67,0.25c-15.52,0.05-31.08,0.09-46.64,0.12c-2.22,0.02-4.47,0.22-6.67,0.6
			c-6.92,1.14-9.2,3.61-9.75,10.59c-0.05,0.62-0.1,1.24-0.11,1.67c0.43,0.03,1.06,0.03,1.68,0.03h63.8c0,0,0,0,0,0
			c1.31,0,2.59,0.35,3.72,1.02c3.42,2.19,3.13,5.5,2.92,7.92c-0.03,0.33-0.06,0.65-0.08,0.98c-0.17,2.84-1.95,4.74-5.01,5.33
			c-1.07,0.17-2.11,0.24-3.14,0.22l-63.57,0c-0.12,0-0.25,0-0.37,0c0.01,0.09,0.01,0.19,0.02,0.28l0.01,0.12
			c0.08,2.08,0.34,4.1,0.76,6.06c0.79,3.14,2.66,5.04,5.87,5.94c4.29,1.2,8.7,1.39,12.45,1.41c11.82,0.08,23.85,0.07,35.48,0.06
			l10.03,0c1.48,0,4.56,0,6.38,2.86c1.17,1.88,1.53,4.08,1.03,6.21c-0.5,2.13-1.8,3.94-3.66,5.09c-0.52,0.32-1.08,0.59-1.67,0.79
			c-3.7,1.19-7.48,1.41-10.7,1.47C91.15,109.74,84,109.8,76.85,109.8z M26.36,81.62c0.09,0.7,0.16,1.41,0.24,2.11
			c0.18,1.59,0.36,3.23,0.62,4.8c1.59,9.41,6.09,14.04,15.53,16c4.2,0.89,8.49,1.39,12.77,1.49c14.15,0.25,28.51,0.25,42.66,0
			c2.95-0.05,6.41-0.25,9.63-1.28c0.3-0.1,0.61-0.25,0.9-0.43c1.04-0.65,1.77-1.66,2.05-2.86c0.28-1.2,0.08-2.43-0.57-3.47
			c-0.56-0.88-1.41-1.18-3.34-1.18l-10.02,0c-11.63,0.01-23.67,0.01-35.5-0.06c-3.99-0.03-8.7-0.23-13.39-1.55
			c-4.46-1.24-7.29-4.13-8.41-8.58c-0.48-2.23-0.76-4.46-0.85-6.67l-0.01-0.06c-0.11-1.41-0.18-2.43,0.61-3.29
			c0.8-0.86,1.86-0.86,3.33-0.86h63.62c0.85,0.02,1.67-0.03,2.47-0.16c1.62-0.31,1.99-1,2.05-2c0.02-0.36,0.05-0.71,0.08-1.07
			c0.22-2.54,0.17-3.66-1.22-4.55c-0.52-0.31-1.17-0.49-1.83-0.49c0,0,0,0,0,0h-63.8c-2.2,0-3.53,0-4.49-1.03
			c-0.95-1.03-0.85-2.36-0.67-4.55c0.68-8.57,4.26-12.45,12.75-13.84c2.38-0.41,4.82-0.63,7.25-0.65
			c15.57-0.03,31.13-0.07,46.69-0.12c1.07,0.02,2.11-0.05,3.13-0.22c1.04-0.14,1.81-0.92,1.93-1.9c0.67-3.95-0.28-5.35-4.05-6.09
			c-1.57-0.3-3.15-0.47-4.83-0.64c-0.73-0.08-1.46-0.15-2.19-0.24l-44.16,0c-0.98,0.1-1.97,0.19-2.95,0.28
			c-3.11,0.28-6.05,0.55-8.98,1.2c-10.59,2.36-15.21,7.47-16.46,18.22c-0.14,1.22-0.27,2.44-0.39,3.67l-0.17,1.68V81.62z"/>
	</g>
	<g>
		<g>
			<g>
				<path class="st0" d="M221.72,47.21c1.64,0.2,3.31,0.31,4.93,0.62c3.22,0.63,4.28,2.22,3.73,5.47c-0.15,1.22-1.11,2.19-2.33,2.35
					c-0.76,0.12-1.54,0.18-2.31,0.16c-10.56,0.03-21.12,0.06-31.69,0.08c-1.59,0.01-3.17,0.15-4.73,0.42
					c-5.22,0.86-7.21,3.02-7.63,8.29c-0.2,2.47-0.2,2.47,2.28,2.47h42.09c0.41,0,0.81,0,1.22,0c0.67,0,1.33,0.18,1.9,0.52
					c1.92,1.22,1.44,3.16,1.33,4.92c-0.09,1.43-0.95,2.21-2.41,2.49c-0.62,0.1-1.24,0.14-1.87,0.13c-14.4,0-28.79,0-43.19,0
					c-1.6,0-1.57,0-1.45,1.58c0.06,1.44,0.24,2.87,0.54,4.28c0.65,2.6,2.26,4.23,4.85,4.95c2.87,0.8,5.83,0.98,8.77,1
					c10.3,0.07,20.6,0.04,30.9,0.04c1.3,0,2.53,0.17,3.3,1.38c1.26,2.04,0.64,4.71-1.4,5.98c-0.28,0.17-0.57,0.31-0.88,0.42
					c-2.24,0.72-4.57,0.89-6.89,0.93c-9.67,0.17-19.34,0.17-29.01,0c-2.99-0.07-5.96-0.42-8.89-1.04
					c-6.89-1.43-10.32-4.92-11.5-11.85c-0.27-1.6-0.41-3.21-0.61-4.82V65.38c0.13-1.24,0.25-2.48,0.39-3.71
					c0.91-7.83,4.43-11.7,12.12-13.42c2.74-0.61,5.53-0.75,8.3-1.04L221.72,47.21z"/>
				<path class="st0" d="M206.28,96.66c-4.85,0-9.7-0.04-14.52-0.13c-3.03-0.07-6.07-0.43-9.05-1.05
					c-7.28-1.51-10.91-5.25-12.14-12.52c-0.19-1.12-0.32-2.24-0.44-3.37c-0.05-0.5-0.11-0.99-0.17-1.49l-0.01-12.72l0.13-1.3
					c0.09-0.84,0.17-1.68,0.27-2.51c0.95-8.12,4.76-12.35,12.76-14.13c2.12-0.47,4.27-0.67,6.36-0.86c0.68-0.06,1.36-0.12,2.04-0.19
					l30.25-0.01l0.05,0.01c0.51,0.06,1.02,0.11,1.53,0.17c1.13,0.12,2.3,0.24,3.46,0.46c3.67,0.71,5.02,2.69,4.39,6.43
					c-0.19,1.56-1.44,2.83-3.04,3.03c-0.79,0.13-1.62,0.19-2.43,0.17c-10.54,0.03-21.1,0.06-31.67,0.08
					c-1.53,0.01-3.08,0.15-4.59,0.41c-4.87,0.8-6.56,2.63-6.95,7.54c-0.06,0.69-0.11,1.41-0.05,1.59c0.08-0.01,0.81-0.01,1.5-0.01
					h43.31c0,0,0,0,0.01,0c0.81,0,1.62,0.22,2.32,0.64c2.11,1.35,1.93,3.38,1.79,5.01c-0.02,0.23-0.04,0.45-0.05,0.67
					c-0.07,1.23-0.67,2.79-3.08,3.25c-0.69,0.11-1.37,0.16-2.05,0.14h-43.17c-0.24,0-0.49,0-0.67,0.01c0.01,0.17,0.02,0.4,0.04,0.61
					c0.06,1.5,0.24,2.89,0.53,4.25c0.57,2.26,1.97,3.69,4.27,4.33c2.95,0.83,5.98,0.96,8.55,0.97c8.06,0.05,16.13,0.04,24.19,0.04
					l6.7,0c1.42,0,3.01,0.21,4,1.76c1.51,2.43,0.76,5.62-1.66,7.13c-0.33,0.21-0.68,0.37-1.05,0.5c-2.45,0.79-4.99,0.93-7.14,0.97
					C215.99,96.62,211.13,96.66,206.28,96.66z M221.67,48.04l-30.07,0c-0.6,0.07-1.29,0.13-1.97,0.19
					c-2.03,0.19-4.14,0.38-6.15,0.82c-7.39,1.64-10.61,5.21-11.48,12.7c-0.1,0.82-0.18,1.65-0.27,2.48l-0.13,1.22l0,12.54
					c0.06,0.4,0.11,0.9,0.17,1.41c0.12,1.09,0.24,2.19,0.43,3.27c1.11,6.57,4.26,9.81,10.85,11.18c2.87,0.61,5.81,0.95,8.74,1.02
					c9.61,0.17,19.36,0.17,28.98,0c2.03-0.04,4.42-0.17,6.65-0.89c0.23-0.08,0.48-0.19,0.7-0.33c1.65-1.02,2.15-3.19,1.13-4.84
					c-0.53-0.82-1.35-0.99-2.6-0.99l-6.7,0c-8.07,0-16.14,0.01-24.2-0.04c-2.68-0.02-5.85-0.16-8.99-1.04
					c-2.88-0.8-4.71-2.67-5.43-5.54c-0.32-1.48-0.51-2.97-0.57-4.45c-0.08-0.97-0.12-1.53,0.3-1.99c0.43-0.46,1.01-0.46,1.97-0.46
					h43.19c0.59,0.01,1.17-0.02,1.74-0.11c1.44-0.28,1.68-1.03,1.72-1.72c0.01-0.24,0.04-0.48,0.06-0.72
					c0.14-1.65,0.17-2.7-1.01-3.45c-0.42-0.25-0.93-0.39-1.45-0.39c0,0,0,0,0,0h-43.31c-1.44,0-2.23,0-2.76-0.58
					c-0.53-0.58-0.47-1.36-0.35-2.79c0.45-5.67,2.71-8.12,8.32-9.04c1.6-0.27,3.23-0.42,4.86-0.43c10.57-0.02,21.13-0.05,31.69-0.08
					c0.74,0.01,1.47-0.04,2.18-0.15c0.87-0.11,1.54-0.78,1.64-1.63c0.48-2.85-0.32-4.03-3.07-4.56c-1.08-0.21-2.21-0.33-3.31-0.44
					C222.68,48.15,222.18,48.1,221.67,48.04z"/>
			</g>
			<g>
				<path class="st0" d="M299.92,71.02c0,6.38,0,12.77,0,19.15c0,3.33-1.39,5-4.73,5.39c-3.14,0.37-6.34,0.21-9.51,0.08
					c-1.8-0.07-3.18-1.06-4.34-2.39c-9.49-10.97-18.98-21.94-28.47-32.9c-0.51-0.59-1.02-1.17-1.55-1.74
					c-0.36-0.37-0.76-0.77-1.34-0.56c-0.59,0.21-0.6,0.78-0.61,1.3c0,1.4,0,2.81,0,4.21c0,9.27,0,18.53,0,27.79
					c0,3.33-1.04,4.37-4.36,4.37c-0.96,0-1.92,0.03-2.88-0.02c-2.02-0.09-3.12-1.14-3.31-3.14c-0.06-0.62-0.09-1.25-0.09-1.88
					c0-12.29,0-24.58,0-36.87c0-0.41,0-0.81,0.02-1.22c0.19-2.74,1.51-4.34,4.23-4.74c3.41-0.51,6.85-0.31,10.28-0.13
					c1.79,0.09,3.11,1.2,4.26,2.53c9.82,11.36,19.65,22.72,29.49,34.07c0.21,0.26,0.44,0.5,0.69,0.72c0.31,0.27,0.66,0.52,1.1,0.3
					c0.38-0.19,0.6-0.59,0.57-1.01c0-0.37,0-0.74,0-1.11c0-10.48,0-20.96,0-31.45c0-3.11,1.07-4.17,4.21-4.17c0.89,0,1.77,0,2.66,0
					c2.47,0.03,3.68,1.22,3.69,3.69C299.93,57.88,299.92,64.45,299.92,71.02z"/>
				<path class="st0" d="M290.77,96.62c-1.6,0-3.19-0.07-4.76-0.13l-0.36-0.02c-1.82-0.08-3.43-0.95-4.93-2.68
					c-9.49-10.97-18.98-21.94-28.47-32.9c-0.5-0.58-1-1.16-1.52-1.71c-0.34-0.35-0.41-0.37-0.46-0.35
					c-0.06,0.07-0.06,0.38-0.06,0.52v32c0,3.79-1.41,5.19-5.19,5.19l-0.81,0c-0.7,0.01-1.41,0.01-2.11-0.02
					c-2.4-0.11-3.86-1.49-4.1-3.89c-0.06-0.65-0.09-1.31-0.09-1.96V53.82c0-0.42,0-0.85,0.03-1.26c0.22-3.21,1.88-5.06,4.93-5.51
					c3.45-0.51,6.95-0.33,10.33-0.15c2.35,0.12,3.88,1.58,4.96,2.83c9.82,11.36,19.65,22.72,29.49,34.07
					c0.2,0.24,0.39,0.45,0.61,0.64c0.15,0.13,0.22,0.17,0.25,0.18c0.01-0.03,0.05-0.12,0.05-0.21l0-32.61c0-3.55,1.46-5,5.04-5h2.66
					c2.95,0.04,4.5,1.6,4.51,4.52l0,7.04c0,4.22-0.01,8.44-0.01,12.67v19.15c0,3.8-1.73,5.77-5.46,6.21
					C293.79,96.56,292.28,96.62,290.77,96.62z M250.31,57.16c0.78,0,1.33,0.57,1.62,0.88c0.54,0.57,1.06,1.17,1.57,1.77
					c9.49,10.96,18.98,21.93,28.47,32.9c1.19,1.38,2.39,2.05,3.74,2.11l0.36,0.02c2.98,0.12,6.06,0.25,9.01-0.09
					c2.88-0.34,4-1.62,4-4.57V71.02c0-4.22,0-8.45,0.01-12.67l0-7.04c-0.01-2-0.84-2.83-2.87-2.86h-2.65
					c-2.69,0-3.38,0.69-3.38,3.35v32.55c0.05,0.7-0.35,1.4-1.03,1.75c-0.97,0.47-1.73-0.17-2.01-0.41
					c-0.29-0.26-0.55-0.53-0.79-0.82c-9.83-11.33-19.66-22.69-29.48-34.05c-1.3-1.51-2.4-2.18-3.68-2.25
					c-3.41-0.18-6.82-0.36-10.11,0.12c-2.27,0.34-3.35,1.56-3.52,3.98c-0.02,0.38-0.02,0.77-0.02,1.16v36.87
					c0,0.6,0.02,1.2,0.08,1.8c0.16,1.58,0.94,2.32,2.53,2.39c0.67,0.03,1.35,0.03,2.02,0.02l0.82,0c2.87,0,3.53-0.66,3.53-3.54v-32
					c0-0.54,0.01-1.67,1.15-2.08C249.92,57.2,250.13,57.16,250.31,57.16z"/>
			</g>
			<g>
				<path class="st0" d="M385.24,72.3V53.58c0-3.96,1.44-5.66,5.38-5.9c2.87-0.17,5.76-0.1,8.63-0.02c1.83,0.05,3.29,0.98,4.48,2.36
					c9.61,11.11,19.22,22.21,28.83,33.32c0.46,0.53,0.92,1.06,1.41,1.56c0.33,0.34,0.71,0.71,1.26,0.45
					c0.47-0.22,0.53-0.67,0.53-1.14c0-0.37,0-0.74,0-1.11c0-10.41,0-20.82,0-31.23c0-3.2,1.06-4.26,4.23-4.28c0.88,0,1.77,0,2.66,0
					c2.46,0.03,3.66,1.22,3.67,3.71c0,6.02,0,12.03,0,18.05c0,6.98,0,13.95,0,20.93c0,3.14-1.4,4.85-4.51,5.24
					c-3.23,0.41-6.49,0.24-9.73,0.1c-1.83-0.08-3.22-1.11-4.4-2.48c-9.79-11.34-19.59-22.67-29.4-33.99
					c-0.15-0.17-0.29-0.34-0.44-0.5c-0.39-0.39-0.81-0.83-1.43-0.61c-0.62,0.23-0.61,0.86-0.61,1.41c0,8.82,0,17.65,0,26.46
					c0,2,0,4,0,5.99c-0.03,2.62-1.2,3.79-3.8,3.81c-1.07,0-2.14,0.02-3.21,0c-2.35-0.06-3.53-1.25-3.53-3.6
					C385.25,85.52,385.24,78.91,385.24,72.3z"/>
				<path class="st0" d="M437.21,96.6c-1.6,0-3.19-0.07-4.76-0.14l-0.41-0.02c-1.85-0.08-3.44-0.96-5-2.77
					c-9.79-11.34-19.59-22.67-29.4-33.99l-0.15-0.17c-0.09-0.1-0.17-0.2-0.26-0.29c-0.39-0.39-0.48-0.43-0.55-0.41
					c-0.06,0.08-0.06,0.42-0.06,0.59v32.5c-0.03,3.05-1.59,4.61-4.62,4.64l-1.07,0c-0.72,0-1.44,0.01-2.16,0
					c-2.8-0.07-4.34-1.64-4.34-4.42c-0.01-6.6-0.02-13.21-0.02-19.83V53.58c0-4.45,1.84-6.47,6.16-6.73c3-0.18,6.03-0.1,8.71-0.02
					c1.9,0.05,3.61,0.94,5.08,2.64l28.83,33.32c0.45,0.52,0.89,1.04,1.37,1.52c0.08,0.08,0.26,0.26,0.34,0.29
					c0-0.03,0.03-0.1,0.04-0.41V51.87c0-3.66,1.42-5.09,5.06-5.11h2.66c2.93,0.03,4.48,1.6,4.49,4.54v38.98
					c0,3.59-1.76,5.63-5.24,6.06C440.34,96.54,438.77,96.6,437.21,96.6z M396.74,57.15c0.77,0,1.32,0.55,1.65,0.88
					c0.16,0.16,0.27,0.29,0.38,0.42l0.13,0.15c9.81,11.33,19.61,22.66,29.4,34c1.24,1.44,2.45,2.14,3.82,2.2l0.41,0.02
					c3.03,0.13,6.16,0.27,9.18-0.11c2.66-0.33,3.79-1.65,3.79-4.42V51.3c0-2.03-0.83-2.86-2.85-2.88h-2.65
					c-2.71,0.01-3.41,0.72-3.41,3.45v32.33c0,0.39-0.01,1.41-1,1.89c-1.1,0.52-1.87-0.28-2.2-0.61c-0.5-0.51-0.98-1.06-1.44-1.6
					l-28.83-33.32c-1.17-1.35-2.44-2.03-3.87-2.07c-2.64-0.07-5.63-0.16-8.56,0.02c-3.44,0.21-4.6,1.49-4.6,5.08V72.3
					c0,6.61,0.01,13.22,0.02,19.82c0,1.9,0.82,2.72,2.72,2.77c0.7,0.01,1.41,0.01,2.12,0l1.07,0c2.14-0.02,2.95-0.83,2.97-2.99
					V59.45c0-0.6,0-1.77,1.15-2.19C396.34,57.18,396.54,57.15,396.74,57.15z"/>
			</g>
			<g>
				<path class="st0" d="M343.17,64.59c0-4.43,0-8.85,0-13.28c0-2.53,1.12-3.66,3.63-3.69c1.22,0,2.44-0.03,3.65,0
					c1.92,0.06,3.01,1.01,3.31,2.9c0.08,0.55,0.12,1.1,0.11,1.65c0,7.34,0.03,14.68,0,22.03c0.01,2.95-0.2,5.9-0.63,8.81
					c-1.11,7.07-4.65,10.61-12.04,12.08c-2.82,0.55-5.69,0.84-8.56,0.86c-6.28,0.06-12.54,0.27-18.81-0.17
					c-1.73-0.12-3.46-0.29-5.09-0.95c-1.96-0.78-2.69-2.43-2.26-4.96c0.29-1.67,1.51-2.57,3.59-2.59c6.46-0.03,12.91,0,19.37-0.05
					c2.14,0.02,4.28-0.18,6.38-0.59c5.11-1.08,6.97-3.3,7.16-8.56c0.08-2.25,0.16-4.5,0.19-6.75S343.17,66.84,343.17,64.59z"/>
				<path class="st0" d="M322.91,96.88c-3.04,0-6.1-0.06-9.13-0.27c-1.82-0.13-3.6-0.3-5.34-1.01c-1.61-0.65-3.4-2.19-2.76-5.87
					c0.21-1.21,1.05-3.24,4.39-3.28c2.63-0.01,5.26-0.01,7.89-0.02c3.83,0,7.65-0.01,11.48-0.04c2.1,0.02,4.19-0.18,6.23-0.58
					c4.73-1,6.31-2.89,6.49-7.78c0.08-2.24,0.16-4.49,0.19-6.73c0.02-1.46,0.01-2.91,0-4.37l-0.01-15.65c0-2.96,1.5-4.48,4.45-4.51
					l1.22-0.01c0.82-0.01,1.64-0.01,2.46,0.01c2.32,0.07,3.74,1.31,4.11,3.6c0.09,0.6,0.13,1.2,0.13,1.79l0.01,7.33
					c0,4.9,0.01,9.79-0.01,14.69c0.01,2.98-0.2,5.98-0.64,8.93c-1.16,7.41-4.96,11.23-12.7,12.77c-2.87,0.56-5.8,0.85-8.72,0.87
					l-3.5,0.04C327.09,96.85,325,96.88,322.91,96.88z M329.44,88.06c-3.82,0.03-7.65,0.04-11.48,0.04c-2.63,0-5.25,0-7.88,0.02
					c-2.45,0.03-2.69,1.44-2.77,1.9c-0.48,2.77,0.68,3.62,1.75,4.05c1.52,0.62,3.15,0.77,4.84,0.89c5.06,0.35,10.23,0.28,15.23,0.21
					l3.51-0.04c2.82-0.02,5.65-0.3,8.41-0.84c7.03-1.4,10.33-4.7,11.38-11.4c0.43-2.86,0.64-5.78,0.62-8.68
					c0.02-4.9,0.01-9.79,0.01-14.69l-0.01-7.34c0.01-0.51-0.03-1.03-0.11-1.53c-0.24-1.49-1-2.15-2.52-2.2
					c-0.8-0.02-1.6-0.01-2.4-0.01l-1.23,0.01c-2.04,0.02-2.8,0.8-2.8,2.86L344,66.94c0.01,1.47,0.02,2.94,0,4.4
					c-0.03,2.25-0.11,4.51-0.19,6.76c-0.21,5.65-2.32,8.19-7.81,9.34C333.83,87.88,331.62,88.08,329.44,88.06z"/>
			</g>
			<g>
				<path class="st0" d="M374.77,71.69c0,6.64,0,13.28,0,19.92c0,3.07-1.05,4.1-4.14,4.11c-1.03,0-2.07,0.03-3.1,0
					c-2.2-0.09-3.38-1.28-3.49-3.48c-0.03-0.59,0-1.18,0-1.77V51.94c0-3.28,1.04-4.32,4.28-4.33c0.92,0,1.85,0,2.77,0
					c2.44,0.03,3.67,1.24,3.68,3.71C374.78,58.11,374.77,64.9,374.77,71.69z"/>
				<path class="st0" d="M368.57,96.56c-0.35,0-0.7,0-1.05-0.01c-2.64-0.11-4.16-1.62-4.3-4.26c-0.02-0.41-0.01-0.82-0.01-1.23
					l0.01-0.58V51.94c0-3.75,1.38-5.15,5.11-5.15h2.77c2.9,0.04,4.5,1.65,4.51,4.54c0,4.29,0,8.57,0,12.86l0,27.43
					c0,3.5-1.44,4.93-4.96,4.94l-1.03,0.01C369.26,96.56,368.91,96.56,368.57,96.56z M371.08,48.44h-2.76
					c-2.78,0-3.45,0.69-3.45,3.5l-0.01,39.14c-0.01,0.38-0.01,0.75,0,1.12c0.09,1.79,0.92,2.62,2.7,2.69
					c0.66,0.02,1.34,0.01,2.02,0.01l1.04-0.01c2.63,0,3.31-0.68,3.31-3.28l0-27.43c0-4.29,0-8.57,0-12.86
					C373.94,49.33,373.09,48.47,371.08,48.44z"/>
			</g>
		</g>
	</g>
</g>
<g id="Layer_2">
</g>
</svg>
