<?xml version="1.0" encoding="utf-8"?>
<!-- Generator: Adobe Illustrator 26.0.1, SVG Export Plug-In . SVG Version: 6.00 Build 0)  -->
<svg version="1.1" id="Layer_1" xmlns="http://www.w3.org/2000/svg" xmlns:xlink="http://www.w3.org/1999/xlink" x="0px" y="0px"
	 viewBox="0 0 319.6 533.3" style="enable-background:new 0 0 319.6 533.3;" xml:space="preserve">
<style type="text/css">
	.st0{fill-rule:evenodd;clip-rule:evenodd;fill:#5A9DED;}
	.st1{fill-rule:evenodd;clip-rule:evenodd;fill:#D895D3;}
	.st2{fill-rule:evenodd;clip-rule:evenodd;fill:#FF9C92;}
	.st3{fill-rule:evenodd;clip-rule:evenodd;fill:#53D3E0;}
	.st4{fill-rule:evenodd;clip-rule:evenodd;fill:#A6E275;}
	.st5{fill-rule:evenodd;clip-rule:evenodd;fill:#FFE94D;}
</style>
<g>
	<path class="st0" d="M159.6,402.5L319.6,302L159.6,533.3V402.5z M183.4,415.6v41.8l51.3-74L183.4,415.6z"/>
	<path class="st1" d="M175.9,193.8l118.2,66.9l-11.7,20.6l-118.2-66.9L175.9,193.8z"/>
	<path class="st2" d="M159.6,0l159.6,274.6L159.6,375.3V0z M183.1,87.9v244.7l104.2-65.7L183.1,87.9z"/>
	<path class="st3" d="M160.1,402.5L0,302l160.1,231.3V402.5z M136.3,415.6v41.8l-51.3-74L136.3,415.6z"/>
	<path class="st4" d="M138.7,196L20.5,262.9l11.7,20.6l118.2-66.9L138.7,196z"/>
	<path class="st5" d="M159.6,0L0,274.6l159.6,100.6V0z M136,87.9v244.7L31.8,266.9L136,87.9z"/>
</g>
</svg>
