<svg xmlns="http://www.w3.org/2000/svg" viewBox="0 0 960.1 658.7"><title>ethereum-eth-logo-full-vertical</title><g id="Layer_2" data-name="Layer 2"><g id="Layer_1-2" data-name="Layer 1"><path d="M86.7,611.5a3.88,3.88,0,0,1-3.9,3.8H7.9c1.9,18.5,15.8,35.4,35.4,35.4,13.4,0,23.3-5.1,30.8-15.8a3.74,3.74,0,0,1,4.8-1.5,3.63,3.63,0,0,1,2.1,2.7,3.51,3.51,0,0,1-.5,2.6C73,651.8,58,658.3,43.2,658.3,18,658.3,0,635.8,0,611.6s18-46.7,43.2-46.7,43.5,22.5,43.5,46.6Zm-8-3.7c-1.6-18.5-15.8-35.4-35.4-35.4S9.8,589.3,7.9,607.8Z" style="fill:#3b3b3b"/><path d="M177.6,566.8a3.93,3.93,0,0,1,3.8,3.8,3.74,3.74,0,0,1-3.8,3.8H157.5v78.8a3.86,3.86,0,0,1-3.8,3.8,3.93,3.93,0,0,1-3.8-3.8V574.4H130.6a3.74,3.74,0,0,1-3.8-3.8,3.86,3.86,0,0,1,3.8-3.8h19.3V537.9a3.77,3.77,0,0,1,3-3.8,3.72,3.72,0,0,1,4.5,3.7v29Z" style="fill:#3b3b3b"/><path d="M300.2,604.9v47.7a3.93,3.93,0,0,1-3.8,3.8,3.74,3.74,0,0,1-3.8-3.8V604.9c0-16.1-9.1-32.2-27.1-32.2-23.1,0-33,20.1-31.6,40.8,0,.5.3,2.9.3,3.2v35.8a3.77,3.77,0,0,1-3,3.8,3.72,3.72,0,0,1-4.5-3.7V495.7a3.86,3.86,0,0,1,3.8-3.8,3.93,3.93,0,0,1,3.8,3.8v88.8c6.4-11.5,18-19.3,31.4-19.3,21.9,0,34.5,19.3,34.5,39.7Z" style="fill:#3b3b3b"/><path d="M434.5,611.5a3.88,3.88,0,0,1-3.9,3.8H355.7c1.9,18.5,15.8,35.4,35.4,35.4,13.4,0,23.3-5.1,30.8-15.8a3.74,3.74,0,0,1,4.8-1.5,3.63,3.63,0,0,1,2.1,2.7,3.51,3.51,0,0,1-.5,2.6c-7.5,13.1-22.5,19.6-37.3,19.6-25.2,0-43.2-22.5-43.2-46.7s18-46.7,43.2-46.7,43.5,22.5,43.5,46.6Zm-8-3.7c-1.6-18.5-15.8-35.4-35.4-35.4s-33.5,16.9-35.4,35.4Z" style="fill:#3b3b3b"/><path d="M526.5,570.3a3.61,3.61,0,0,1-3.5,4c-22,3.2-31.9,21.2-31.9,42.1v35.8a3.77,3.77,0,0,1-3,3.8,3.72,3.72,0,0,1-4.5-3.7V570.6a3.77,3.77,0,0,1,3-3.8,3.72,3.72,0,0,1,4.5,3.7v16.6c6.2-10.5,18.5-20.4,31.4-20.4,1.8.1,4,1.4,4,3.6Z" style="fill:#3b3b3b"/><path d="M649.6,611.5a3.88,3.88,0,0,1-3.9,3.8H570.8c1.9,18.5,15.8,35.4,35.4,35.4,13.4,0,23.3-5.1,30.8-15.8a3.74,3.74,0,0,1,4.8-1.5,3.63,3.63,0,0,1,2.1,2.7,3.51,3.51,0,0,1-.5,2.6c-7.5,13.1-22.5,19.6-37.3,19.6-25.2,0-43.2-22.5-43.2-46.7s18-46.7,43.2-46.7,43.4,22.5,43.5,46.6Zm-8.1-3.7c-1.6-18.5-15.8-35.4-35.4-35.4s-33.5,16.9-35.4,35.4Z" style="fill:#3b3b3b"/><path d="M770.5,571.2v81.9a3.93,3.93,0,0,1-3.8,3.8,3.74,3.74,0,0,1-3.8-3.8V637.5c-6.2,12.3-17.2,21.2-31.1,21.2-22.3,0-34.6-19.3-34.6-39.7V571a3.8,3.8,0,0,1,7.6,0v48c0,16.1,9.1,32.2,27.1,32.2,25.2,0,31.1-23.6,31.1-49.6V571a3.77,3.77,0,0,1,4.8-3.6,3.87,3.87,0,0,1,2.7,3.8Z" style="fill:#3b3b3b"/><path d="M960.1,604.6v48a3.93,3.93,0,0,1-3.8,3.8,3.74,3.74,0,0,1-3.8-3.8v-48c0-16.1-9.1-31.9-27.1-31.9-22.5,0-31.1,24.1-31.1,42.9v37a3.93,3.93,0,0,1-3.8,3.8,3.74,3.74,0,0,1-3.8-3.8v-48c0-16.1-9.1-31.9-27.1-31.9-22.8,0-32.2,18-31.4,41.8,0,.5.3,1.6,0,1.9v36.1a3.77,3.77,0,0,1-3,3.8,3.72,3.72,0,0,1-4.5-3.7v-82a3.77,3.77,0,0,1,3-3.8,3.72,3.72,0,0,1,4.5,3.7v13.7c6.4-11.5,18-19,31.4-19,15.3,0,27.1,9.7,31.9,23.9,6.2-13.9,18.2-23.9,33.8-23.9C947.5,565.2,960.1,584.2,960.1,604.6Z" style="fill:#3b3b3b"/><path d="M480.1,150.9,354.9,207.8l125.2,74.1,125.3-74.1Z" style="opacity:0.6000000238418579;isolation:isolate"/><path d="M354.9,207.8l125.2,74.1V0Z" style="opacity:0.44999998807907104;isolation:isolate"/><path d="M480.1,0V281.9l125.2-74.1Z" style="opacity:0.800000011920929;isolation:isolate"/><path d="M354.9,231.6,480.1,408V305.6Z" style="opacity:0.44999998807907104;isolation:isolate"/><path d="M480.1,305.6V408L605.4,231.6Z" style="opacity:0.800000011920929;isolation:isolate"/></g></g></svg>