<?xml version="1.0" encoding="utf-8"?>
<!-- Generator: Adobe Illustrator 24.0.0, SVG Export Plug-In . SVG Version: 6.00 Build 0)  -->
<svg version="1.1" id="Layer_1" xmlns="http://www.w3.org/2000/svg" xmlns:xlink="http://www.w3.org/1999/xlink" x="0px" y="0px"
	 viewBox="0 0 180 41" style="enable-background:new 0 0 180 41;" xml:space="preserve">
<style type="text/css">
	.st0{fill:#06142E;}
</style>
<path class="st0" d="M45.7,0h-21c-1.4,0-2.5,1.1-2.5,2.5v21.6h-7.6c-1.4,0-2.6,1-2.6,2.3s1.2,2.3,2.6,2.3h10.2
	c1.4,0,2.5-1.1,2.5-2.5V15.1h12.4c1.3,0,2.3-1,2.3-2.3c0-1.3-1-2.3-2.3-2.3H27.2V4.6h18.5c1.3,0,2.3-1,2.3-2.3C48,1,47,0,45.7,0z
	 M24.9,36.4H14.2c-1.3,0-2.3,1-2.3,2.3c0,1.3,1,2.3,2.3,2.3h10.7c1.3,0,2.3-1,2.3-2.3C27.2,37.4,26.2,36.4,24.9,36.4L24.9,36.4z
	 M13,10.5H2.3c-1.3,0-2.3,1-2.3,2.3c0,1.3,1,2.3,2.3,2.3H13c1.3,0,2.3-1,2.3-2.3C15.3,11.6,14.3,10.5,13,10.5z M66.6,30.8
	c0.8,0,1.5-0.7,1.5-1.5v-5.7h7.5c0.8,0,1.4-0.6,1.4-1.4c0-0.8-0.6-1.4-1.4-1.4h-7.5v-4.8h8.6c0.8,0,1.4-0.6,1.4-1.4
	s-0.6-1.4-1.4-1.4H66.6c-0.9,0-1.6,0.7-1.6,1.6v14.5C65,30.2,65.7,30.8,66.6,30.8L66.6,30.8z M95.5,29.4c0-0.2-0.1-0.5-0.2-0.7
	l-6.4-14.4c-0.4-0.8-0.9-1.2-1.8-1.2h-0.2c-0.9,0-1.5,0.4-1.8,1.2l-6.4,14.4c-0.1,0.2-0.2,0.4-0.2,0.7c0,0.8,0.6,1.4,1.4,1.4
	c0.7,0,1.2-0.3,1.4-1l1.5-3.4H91l1.4,3.2c0.3,0.7,0.8,1.1,1.5,1.1c0.8,0.1,1.4-0.5,1.5-1.2C95.5,29.5,95.5,29.4,95.5,29.4L95.5,29.4
	z M83.8,23.8l3.1-7l3.1,7H83.8L83.8,23.8z M106.1,31c2.8,0,4.7-0.9,6.3-2.3c0.3-0.2,0.5-0.6,0.5-1.1c0-0.8-0.7-1.4-1.5-1.4
	c-0.4,0-0.7,0.2-0.9,0.3c-1.3,1.1-2.5,1.7-4.4,1.7c-3.4,0-5.8-2.7-5.8-6.1v-0.1c0-3.4,2.5-6.1,5.8-6.1c1.7,0,3,0.6,4.1,1.6
	c0.2,0.2,0.5,0.3,0.9,0.3c0.8,0,1.5-0.7,1.5-1.5c0-0.6-0.3-0.9-0.6-1.2c-1.5-1.1-3.2-1.9-5.9-1.9c-5.3,0-9,4.1-9,9v0.1
	C97.2,27,101,31,106.1,31z M117.9,30.7h10.2c0.7,0,1.3-0.6,1.3-1.3c0-0.7-0.6-1.3-1.3-1.3h-8.7v-4.7h7.5c0.7,0,1.3-0.6,1.3-1.3
	c0-0.8-0.6-1.4-1.3-1.4h-7.5V16h8.6c0.7,0,1.3-0.6,1.3-1.3c0-0.7-0.6-1.3-1.3-1.3h-10.1c-0.9,0-1.6,0.7-1.6,1.6v14.3
	C116.4,30.1,117.1,30.7,117.9,30.7L117.9,30.7z M140.4,16.1h4.2c0.8,0,1.4-0.7,1.4-1.4c0-0.8-0.6-1.4-1.4-1.4h-11.6
	c-0.8,0-1.4,0.7-1.4,1.4c0,0.8,0.6,1.4,1.4,1.4h4.2v13.2c0,0.8,0.7,1.5,1.6,1.5c0.8,0,1.6-0.7,1.6-1.5L140.4,16.1L140.4,16.1
	L140.4,16.1z M150.7,30.7h10.2c0.7,0,1.3-0.6,1.3-1.3c0-0.7-0.6-1.3-1.3-1.3h-8.7v-4.7h7.5c0.7,0,1.3-0.6,1.3-1.3
	c0-0.8-0.6-1.4-1.3-1.4h-7.5V16h8.6c0.7,0,1.3-0.6,1.3-1.3c0-0.7-0.6-1.3-1.3-1.3h-10.1c-0.9,0-1.6,0.7-1.6,1.6v14.3
	C149.2,30.1,149.8,30.7,150.7,30.7L150.7,30.7z M180,18.9c0-1.6-0.5-2.9-1.5-3.8c-1.1-1.1-2.8-1.7-5-1.7h-6.2
	c-0.9,0-1.6,0.7-1.6,1.6v14.5c0,0.8,0.7,1.5,1.6,1.5c0.8,0,1.5-0.7,1.5-1.5v-4.7h3.9l4.2,5.4c0.3,0.4,0.8,0.8,1.5,0.8
	c0.7,0,1.5-0.6,1.5-1.4c0-0.4-0.2-0.8-0.5-1.2l-3.4-4.2C178.4,23.3,180,21.6,180,18.9z M176.9,19c0,1.8-1.4,2.9-3.6,2.9h-4.5v-5.9
	h4.5C175.6,16.1,176.9,17.1,176.9,19z"/>
</svg>
