<svg xmlns="http://www.w3.org/2000/svg" xmlns:xlink="http://www.w3.org/1999/xlink" x="0" y="0" enable-background="new 0 0 311 120" version="1.1" viewBox="0 0 311 120" xml:space="preserve"><style type="text/css">.st0{fill:#168dff}</style><g id="Layer_1"><g><path d="M108.3,33.3c-4.3,12.9-14.5,39-14.5,39s-11.3-26-16.3-39l-15.9,0C63.2,37.1,86.5,91,86.5,91 c-1.6,4-3.2,8.8-5.4,12.6c-1.3,2.3-3.4,3.6-6,3.9c-2.1,0.2-4.1,0.1-6.1-0.4c-0.4-0.1-1.1-0.5-1.1-0.5l-1.2,12.5 c0,0,0.8,0.2,1.7,0.4c3.1,0.5,6.3,0.6,9.5,0.3c6.6-0.7,11.6-3.7,14.9-9.5c1.3-2.3,2.4-4.7,3.3-7.1c2.9-7.3,5.7-14.6,8.6-22 c6-15.5,12.6-32.5,18.7-48L108.3,33.3z" class="st0"/><path d="M53.1,55.3c0-1.8,0-3.5-0.3-5.3c-0.8-5.2-2.7-9.9-6.8-13.5c-4.7-4.2-10.3-5.4-16.4-4.8 c-5.8,0.5-10.6,3.2-14,8c-0.3,0.4-1.3,1.7-1.3,1.7V0h0H0.1c0,14.4,0,91,0,91h14.3V59.1c0-2.9,0.7-5.7,2.1-8.4 c2.8-5.2,8.2-7.8,14-6.6c4.4,0.9,6.5,4,7.6,8c0.6,2.4,0.7,4.8,0.7,7.2c0,4,0,8.1,0,12.1h0V91h14.3V71.5h0 C53.1,66.1,53.1,60.7,53.1,55.3z" class="st0"/><path d="M281.8,32.2c-16.6-0.9-31.3,11.9-32.3,29.1c-1,17.7,12.9,31.7,29.4,32.4c17.2,0.7,31.5-13,32-29.5 C311.7,47.7,299,33.1,281.8,32.2z M280.1,83.1c-9.9,0-17.5-10-15-19.6c0.8-3,2.2-5.7,3.9-8.3c2.9-4.5,6.3-8.6,9.9-12.5 c0.9-1,1.6-1,2.5-0.1c4.2,4.6,8.2,9.3,11.2,14.7c1.8,3.3,3.2,6.7,3.1,10.5C295.3,76.3,288.3,83.1,280.1,83.1z" class="st0"/><path d="M176.6,0v41.2c0,0-1-1.2-1.3-1.6c-2.1-2.4-4.5-4.3-7.4-5.6c-12.6-5.7-27.3-1.1-34.5,10.7 c-4.2,7-5.3,14.6-4.2,22.5c2.1,15.8,14.4,26.9,30.5,25.4c6.9-0.6,12.7-3.4,16.8-9.2c0.1-0.1,0.2-0.3,0.3-0.4V91h14.3V0H176.6z M169.8,77.5c-7.9,6.1-19.1,3.8-23.9-4.9c-1.8-3.3-2.6-6.9-2.7-10.8c0.2-5.3,1.6-10.4,5.8-14.3c6.3-5.9,15.7-5.6,22.2,0.5 C179.5,55.8,178.8,70.5,169.8,77.5z" class="st0"/><path d="M241.7,31.7c-1.6-0.1-3.1-0.1-4.7,0.1c-6.1,0.9-10.4,4.4-13.5,9.5c-0.2,0.3-0.5,0.7-0.7,1.1v-9.1h-14.3v1.2 c0,0.1,0,0.2,0,0.3c0,18.3,0,36.5,0,54.8c0,0.1,0,0.2,0,0.3V91h1.1c0.1,0,0.2,0,0.4,0c1.4,0,2.7,0,4.1,0h8.7v-0.6 c0.1-0.3,0.1-0.6,0.1-1.2c0-9.5,0-19,0-28.5c0-1.1,0.1-2.3,0.3-3.4c1.1-6.9,6.1-12.3,13.3-12.9c1.7-0.1,3.4-0.1,5.1,0.2 c0.4,0.1,1.3,0.3,1.3,0.3V31.8C243,31.8,242.2,31.7,241.7,31.7z" class="st0"/></g></g></svg>