<svg width="496" height="198" viewBox="0 0 496 198" fill="none" xmlns="http://www.w3.org/2000/svg">
<path fill-rule="evenodd" clip-rule="evenodd" d="M63.8369 0.467015V158.986L0.00126934 158.986V38.8958L63.8369 0.467015Z" fill="#0414D1"/>
<path fill-rule="evenodd" clip-rule="evenodd" d="M76.6028 197.733L76.6028 38.2539H140.438V40.0753V159.305L76.6028 197.733Z" fill="#0414D1"/>
<rect x="210.829" y="56.8472" width="20.4262" height="102.471" fill="black"/>
<rect x="210.829" y="56.8472" width="20.4262" height="102.471" fill="black"/>
<path d="M346.939 107.758C346.939 136.065 323.903 159.013 295.487 159.013C267.07 159.013 244.034 136.065 244.034 107.758C244.034 79.4507 267.07 56.503 295.487 56.503C323.903 56.503 346.939 79.4507 346.939 107.758ZM264.615 107.758C264.615 124.742 278.437 138.511 295.487 138.511C312.537 138.511 326.358 124.742 326.358 107.758C326.358 90.7736 312.537 77.005 295.487 77.005C278.437 77.005 264.615 90.7736 264.615 107.758Z" fill="black"/>
<path d="M326.357 26.8277L346.938 26.8277V159.574H326.357V26.8277Z" fill="black"/>
<path d="M359.435 26.2803H380.016V159.027H359.435L359.435 26.2803Z" fill="black"/>
<path d="M494.722 116.054C496.678 103.49 493.939 90.6451 487.033 79.9835C480.126 69.3219 469.538 61.5955 457.301 58.2874C445.063 54.9794 432.04 56.3228 420.729 62.0597C409.419 67.7967 400.619 77.523 396.019 89.3715C391.419 101.22 391.342 114.356 395.805 126.257C400.267 138.159 408.953 147.987 420.196 153.856C431.439 159.725 444.447 161.22 456.721 158.056C468.996 154.891 479.673 147.289 486.703 136.709L469.592 125.263C465.374 131.611 458.968 136.173 451.603 138.071C444.238 139.97 436.434 139.073 429.688 135.552C422.942 132.03 417.73 126.133 415.053 118.992C412.376 111.852 412.421 103.97 415.181 96.8609C417.941 89.7518 423.221 83.9161 430.008 80.4739C436.794 77.0317 444.608 76.2256 451.95 78.2105C459.293 80.1953 465.646 84.8311 469.79 91.2281C473.934 97.625 475.577 105.332 474.404 112.87L494.722 116.054Z" fill="black"/>
<path d="M402.403 98.1797H493.364L494.648 116.036H402.403V98.1797Z" fill="black"/>
</svg>
