<?xml version="1.0" encoding="utf-8"?>
<!-- Generator: Adobe Illustrator 22.1.0, SVG Export Plug-In . SVG Version: 6.00 Build 0)  -->
<svg version="1.1" id="Слой_1" xmlns="http://www.w3.org/2000/svg" xmlns:xlink="http://www.w3.org/1999/xlink" x="0px" y="0px"
	 viewBox="0 0 619.5 175.1" style="enable-background:new 0 0 619.5 175.1;" xml:space="preserve">
<style type="text/css">
	.st0{fill:#345D9D;}
</style>
<path class="st0" d="M87.6,0.5c-48.1,0-87.1,39-87.1,87.1c0,48.1,39,87.1,87.1,87.1c48.1,0,87.1-39,87.1-87.1
	C174.6,39.5,135.7,0.5,87.6,0.5 M88.9,90.4l-9,30.6l48.4,0c1.7,0,2.8,1.6,2.4,3.2l-4.2,14.5c-0.4,1.4-1.7,2.4-3.2,2.4l-74,0
	l12.5-42.3L48,103.1l3-10l13.9-4.3l17.6-59.4c0.4-1.4,1.7-2.4,3.2-2.4l18.7,0c1.7,0,2.8,1.6,2.4,3.2L91.9,80.4l13.8-4.3l-3,10.1
	L88.9,90.4z"/>
<path class="st0" d="M225,26.9h-5.4c-1,0-1.7,0.6-1.9,1.6l-14,110.9c-0.1,1.1,0.2,1.6,1.3,1.6h5.4c1.1,0,1.7-0.5,1.9-1.6l14.1-110.9
	C226.7,27.4,226.1,26.9,225,26.9"/>
<path class="st0" d="M253.3,58.9h-5.4c-1,0-1.7,0.5-1.9,1.6L236,139.5c-0.1,1.1,0.5,1.6,1.5,1.6h5.4c1,0,1.7-0.5,1.9-1.6l9.9-78.9
	C254.8,59.5,254.4,58.9,253.3,58.9"/>
<path class="st0" d="M489.9,57.6c-7.5,0-14,2.1-19.5,6.4c-5.5,4.3-9.1,9.9-10.9,16.9c-1.5,5.7-2.8,13.7-3.4,19.1
	c-0.8,7.3-1.5,13.3-1.5,19.1c0.1,7.1,2.4,12.7,6.7,17c4.4,4.2,10.4,6.4,18,6.4c7.4,0,13.9-2.1,19.4-6.4c5.5-4.2,9.1-9.9,10.9-17
	c1.2-4.7,2.4-11,3.4-19.1c1-8.4,1.5-14.8,1.5-19.2c0-7-2.2-12.6-6.6-16.8C503.4,59.7,497.4,57.6,489.9,57.6 M505.1,92.3
	c-0.5,4-0.8,6.6-0.9,7.7c-1,8.2-1.9,14-2.7,17.5c-1.2,5.2-3.8,9.4-7.7,12.6c-3.9,3.2-8.5,4.7-13.6,4.7c-5.2,0-9.3-1.6-12.4-4.7
	c-3.1-3.1-4.6-7.2-4.6-12.3c0-2.7,0.3-6.1,0.8-10.1c0.5-4,0.8-6.6,0.9-7.7c1-7.8,1.9-13.6,2.7-17.5c1.2-5.2,3.8-9.4,7.7-12.6
	c3.9-3.2,8.5-4.7,13.6-4.7c5.2,0,9.3,1.6,12.4,4.6c3.1,3.1,4.6,7.2,4.6,12.3C505.9,85,505.6,88.3,505.1,92.3"/>
<path class="st0" d="M545.3,58.9H540c-1,0-1.7,0.6-1.9,1.6L528,139.5c-0.1,1.1,0.5,1.6,1.5,1.6h5.4c1,0,1.7-0.5,1.9-1.6l9.9-78.9
	C546.8,59.5,546.4,58.9,545.3,58.9"/>
<path class="st0" d="M613.5,63.6c-3.7-3.9-8.9-5.8-15.7-5.8c-4.4,0-8.4,0.8-12.1,2.5c-3.7,1.7-6.8,4.2-9.4,7.6
	c-0.5,0.4-0.7,0.3-0.7-0.3l0.8-7c0.1-1-0.3-1.6-1.3-1.6h-5.4c-1,0-1.7,0.6-1.9,1.6l-9.9,78.9c-0.1,1,0.2,1.6,1.3,1.6h5.4
	c1,0,1.7-0.6,1.8-1.6l7.2-56.6c1.2-5.3,3.7-9.6,7.4-12.7c3.7-3.1,8.1-4.7,13.3-4.7c4.8,0,8.6,1.5,11.4,4.5c2.8,3,4.2,7,4.2,12.1
	c0,1.5-0.1,2.7-0.2,3.6l-6.9,53.8c0,0.5,0,0.8,0.2,1.1c0.3,0.3,0.7,0.5,1.3,0.5h5.4c1,0,1.7-0.5,1.8-1.6l6.9-55.1
	c0.2-2.2,0.3-3.8,0.3-4.9C619,72.7,617.2,67.4,613.5,63.6"/>
<path class="st0" d="M256.8,27c-3.2-1.7-7.3-0.5-8.9,2.8c-1.7,3.2-0.4,7.3,2.8,9c3.2,1.7,7.2,0.4,8.9-2.8
	C261.3,32.7,260.1,28.7,256.8,27"/>
<path class="st0" d="M549.2,27c-3.2-1.7-7.3-0.5-8.9,2.8c-1.7,3.2-0.4,7.3,2.8,9c3.2,1.7,7.3,0.4,9-2.8
	C553.7,32.7,552.4,28.7,549.2,27"/>
<path class="st0" d="M419.5,57.6c-7.5,0-14,2.2-19.5,6.4c-5.5,4.3-9.1,9.9-10.9,16.9c-1.5,5.7-2.9,14.7-3.4,19.1
	c-0.7,6.4-1.5,13.3-1.5,19.1c0.1,7.1,2.4,12.7,6.7,17c4.4,4.2,10.4,6.4,18,6.4c7.4,0,13.9-2.1,19.4-6.4c5.5-4.2,9.1-9.9,10.9-17
	c0.1-0.6,0.3-1.2,0.4-1.8c0.1-0.5-0.3-0.9-0.7-0.9h-6.7c-0.4,0-0.9,0.2-1,0.8c0,0.1-0.1,0.3-0.1,0.3c-1.2,5.2-3.8,9.4-7.7,12.6
	c-3.9,3.2-8.5,4.7-13.6,4.7c-5.2,0-9.3-1.6-12.4-4.7c-3.1-3.1-4.6-7.2-4.6-12.3c0-2.7,0.3-6.1,0.8-10.1c0.4-3.4,0.8-6.6,0.9-7.7
	c1-7.8,1.9-13.6,2.7-17.5c1.2-5.2,3.8-9.4,7.7-12.6c3.9-3.2,8.5-4.7,13.6-4.7s9.3,1.5,12.4,4.6c3.1,3.1,4.6,7.2,4.6,12.3v0.1
	c0,0.7,0.6,1.3,1.3,1.3h6.3c0.5,0,1-0.4,1-1c0-0.7,0-1.3,0-1.9c0-7-2.2-12.6-6.6-16.8C433,59.7,427.1,57.6,419.5,57.6"/>
<path class="st0" d="M365.2,64c-4.4-4.2-10.4-6.4-17.9-6.4c-7.5,0-14,2.1-19.5,6.4c-5.5,4.3-9.1,9.9-10.9,16.9
	c-1.5,5.7-2.2,10.8-3.4,19.1c-1.1,8.2-1.5,13.3-1.5,19.1c0.1,7.1,2.4,12.7,6.7,17c4.4,4.2,10.4,6.4,18,6.4c7.4,0,13.9-2.1,19.4-6.4
	c5.5-4.2,9.1-9.9,10.9-17c0.1-0.6,0.3-1.2,0.4-1.8c0.1-0.5-0.2-0.9-0.7-0.9H360c-0.4,0-0.9,0.2-1,0.8c0,0.1-0.1,0.3-0.1,0.3
	c-1.2,5.2-3.8,9.4-7.7,12.6c-3.9,3.2-8.5,4.7-13.6,4.7c-5.2,0-9.3-1.6-12.4-4.7c-3.1-3.1-4.6-7.2-4.6-12.3c0-2.4,0.2-5.4,0.6-8.8
	l48.6-15.1c1-0.3,1.4-0.8,1.6-2c0.3-2.5,0.5-6.8,0.5-11.2C371.8,74.4,369.6,68.2,365.2,64 M363.3,86.7c0,0.5-0.3,0.9-0.8,1
	l-40.3,12.5c0-0.1,0-0.1,0-0.2c1-7.8,1.9-13.6,2.7-17.5c1.2-5.2,3.8-9.4,7.7-12.6c3.9-3.2,8.5-4.7,13.6-4.7c5.2,0,9.3,1.6,12.4,4.6
	C363.5,74.9,363.6,80.1,363.3,86.7"/>
<path class="st0" d="M293.5,132.4c1-0.5,2.1,0.2,1.9,1.3l-0.7,5.4c-0.1,0.7-0.6,1.3-1.2,1.6c-4.8,1.8-11.5,2.6-16.9,0.2
	c-6.2-2.8-7.8-8.9-6.9-16.5l7.1-57.9l1-8.3l2.4-18.4c0.1-1.1,0.8-1.6,1.9-1.6h5.2c1.2,0,1.5,0.7,1.3,1.6L285.5,66l16.9,0
	c1,0,1.4,0.6,1.4,1.6l-0.5,3.8c-0.1,0.6-0.2,0.9-0.5,1.3c-0.3,0.3-0.9,0.4-1.3,0.4l-16.8,0l-5.9,47.5c-0.6,5.1-1.3,9.7,1.3,12.2
	C283.5,135.6,290.1,134,293.5,132.4"/>
</svg>
