<?xml version="1.0" encoding="utf-8"?>
<!-- Generator: Adobe Illustrator 24.0.0, SVG Export Plug-In . SVG Version: 6.00 Build 0)  -->
<svg version="1.1" id="Layer_1" xmlns="http://www.w3.org/2000/svg" xmlns:xlink="http://www.w3.org/1999/xlink" x="0px" y="0px"
	 viewBox="0 0 123 34" style="enable-background:new 0 0 123 34;" xml:space="preserve">
<style type="text/css">
	.st0{fill-rule:evenodd;clip-rule:evenodd;}
	.st1{fill-rule:evenodd;clip-rule:evenodd;fill:#131418;}
</style>
<path class="st0" d="M3.3,0H0v26.5h3.3V0z M43.4,6.9c-3.3,0-5.9,1.7-7.3,4c-1.1,1.8-1.5,3.8-1.5,6.1c0,2.7,0.8,5.2,2.4,7.1
	c1.5,1.7,3.7,2.9,6.4,2.9c1.8,0,3.5-0.5,4.9-1.5c1.6-1.1,2.7-2.8,3-4.7h-3.2c-0.2,1-0.6,1.6-1.1,2.1c-0.8,0.8-2.1,1.3-3.6,1.3
	c-1.5,0-2.7-0.5-3.5-1.4c-1.2-1.2-1.9-3.1-1.9-4.8h13.7l0-1.9c0-2.6-0.9-5.1-2.5-6.7C47.9,7.8,45.9,6.9,43.4,6.9z M38.1,15.2
	c0.1-2.8,1.8-5.6,5.3-5.6c1.7,0,3,0.7,3.8,1.7c0.8,1,1.2,2.5,1.2,3.9H38.1z M63,7.1c-2.2,0-4.6,1.1-5.8,3l-0.6-2.5h-2.5V34h3.2v-9.6
	c1,1.7,3.5,2.7,5.6,2.7c2.2,0,4-0.8,5.3-1.9c2-1.8,2.9-4.8,2.9-8.1c0-3.1-0.9-6.1-2.8-7.9C67.2,7.8,65.4,7.1,63,7.1z M62.5,24.4
	c-1.4,0-2.3-0.6-3.1-1.3c-1.6-1.4-2.2-3.7-2.2-6.1c0-2.4,0.5-4.7,2.2-6.1c0.8-0.7,1.7-1.3,3.1-1.3c4.3,0,5.4,3.8,5.4,7.3
	C67.9,20.6,66.8,24.4,62.5,24.4z M75,10.9c1.4-2.3,4-4,7.3-4c2.5,0,4.5,0.9,5.9,2.4c1.6,1.7,2.5,4.2,2.5,6.7l0,1.9H76.9
	c0,1.7,0.7,3.6,1.9,4.8c0.9,0.9,2.1,1.4,3.5,1.4c1.5,0,2.8-0.4,3.6-1.3c0.5-0.5,0.9-1.1,1.1-2.1h3.2c-0.3,1.9-1.4,3.6-3,4.7
	c-1.4,0.9-3.1,1.5-4.9,1.5c-2.8,0-5-1.1-6.4-2.9c-1.6-1.8-2.4-4.4-2.4-7.1C73.5,14.7,73.9,12.7,75,10.9z M82.3,9.6
	c-3.5,0-5.2,2.8-5.3,5.6h10.3c0-1.4-0.4-2.9-1.2-3.9C85.3,10.3,84,9.6,82.3,9.6z M101.6,6.9c-3.3,0-6,1.7-7.3,4
	c-1.1,1.8-1.5,3.8-1.5,6.1c0,2.7,0.8,5.2,2.4,7.1c1.5,1.7,3.7,2.9,6.4,2.9c1.8,0,3.5-0.5,4.9-1.5c1.6-1.1,2.7-2.8,3-4.7h-3.2
	c-0.2,1-0.6,1.6-1.1,2.1c-0.8,0.8-2.1,1.3-3.6,1.3c-1.5,0-2.7-0.5-3.5-1.4c-1.2-1.2-1.9-3.1-1.9-4.8H110l0-1.9
	c0-2.6-0.9-5.1-2.5-6.7C106.1,7.8,104.1,6.9,101.6,6.9z M96.3,15.2c0.1-2.8,1.8-5.6,5.3-5.6c1.7,0,3,0.7,3.8,1.7
	c0.8,1,1.2,2.5,1.2,3.9H96.3z M123,9.9l-0.7-2.3l-6.8,2.4l-0.6-2.5h-2.5v19.1h3.2V13L123,9.9z M6.6,7.4h3.3v19.1H6.6V7.4z M10.3,0
	H6.6v3.6h3.7V0z"/>
<path class="st1" d="M16.8,7.4h-3.7v3.6h3.7V7.4z M25.3,7.4h-3.7v3.6h3.7V7.4z M25.3,23.1h-3.7v3.6h3.7V23.1z M30,7.4h3.7v3.6H30
	V7.4z M25.9,15.3h3.7v3.6h-3.7V15.3z M21.1,15.3h-3.7v3.6h3.7V15.3z"/>
</svg>
