<?xml version="1.0" encoding="utf-8"?>
<!-- Generator: Adobe Illustrator 24.0.0, SVG Export Plug-In . SVG Version: 6.00 Build 0)  -->
<svg version="1.1" id="Layer_1" xmlns="http://www.w3.org/2000/svg" xmlns:xlink="http://www.w3.org/1999/xlink" x="0px" y="0px"
	 viewBox="0 0 422.9 126.3" style="enable-background:new 0 0 422.9 126.3;" xml:space="preserve">
<style type="text/css">
	.st0{fill-rule:evenodd;clip-rule:evenodd;fill:#1C42FF;}
</style>
<title>logo-blue</title>
<desc>Created with Sketch.</desc>
<g id="Page-1">
	<g id="logo-blue" transform="translate(0.000000, -1.000000)">
		<g id="Fill-17">
			<path id="path-1_1_" class="st0" d="M168,62.4v64.4h24.6v-8.8h-14.2V62.4H168z M422.9,85.4V74.7c0-7.8-5.2-12.9-14.7-12.9
				c-9.5,0-14.7,5.2-14.7,12.9v39.7c0,7.7,5.2,12.9,14.7,12.9c9.5,0,14.7-5.1,14.7-12.9V94.7h-14.5v8.8h4.4v10.9
				c0,2.5-1.9,3.8-4.6,3.8c-2.9,0-4.2-1.3-4.2-3.8V74.7c-0.7-5.1,9.1-4.9,8.8,0v10.7H422.9z M377.1,81.3c0,5,0.1,10.4,0.3,16.3
				l-9.6-35.2h-11.3v64.4h9.5v-18.9c0-5.2-0.1-10.9-0.3-16.9l9.8,35.9h11V62.4h-9.5V81.3z M338.5,126.7h10.4V62.4h-10.4V126.7z
				 M321.3,89.5c0,2.5-1.3,3.8-3.8,3.8h-4.7V71.2h4.7c2.5,0,3.8,1.3,3.8,3.8V89.5z M331.7,89.5V75c0-7.8-4.9-12.6-14.2-12.6h-15.1
				v64.4h10.4v-24.6h3.2l6.6,24.6h10.4l-7.1-26.5C329.8,98.2,331.7,94.4,331.7,89.5z M286.9,89.5c0,2.5-1.3,3.8-3.8,3.8h-4.7V71.2
				h4.7c2.5,0,3.8,1.3,3.8,3.8V89.5z M283.2,62.4h-15.1v64.4h10.4v-24.6h4.7c9.3,0,14.2-4.8,14.2-12.6V75
				C297.3,67.2,292.4,62.4,283.2,62.4z M250.8,114.4c0.6,5-9.2,5-8.6,0V74.7c-0.6-5,9.1-5,8.6,0V114.4z M246.5,61.8
				c-9.5,0-14.7,5.1-14.7,12.9v39.7c0,7.7,5.2,12.9,14.7,12.9c9.5,0,14.7-5.1,14.7-12.9V74.7C261.2,66.9,255.9,61.8,246.5,61.8z
				 M215.2,114.4c0.6,5-9.2,5-8.6,0V74.7c-0.6-5,9.1-5,8.6,0V114.4z M210.9,61.8c-9.5,0-14.7,5.1-14.7,12.9v39.7
				c0,7.7,5.2,12.9,14.7,12.9s14.7-5.1,14.7-12.9V74.7C225.6,66.9,220.3,61.8,210.9,61.8z"/>
		</g>
		<path id="Path" class="st0" d="M91.7,62.3h66.8v0.4L54.2,126.3L106,85L91.7,62.3z M52.8,1v126.2L0,85L52.8,1z"/>
	</g>
</g>
</svg>
