<svg id="Layer_1" data-name="Layer 1" xmlns="http://www.w3.org/2000/svg" width="6.67in" height="7.04in" viewBox="0 0 480.51 506.75">
  <defs>
    <style>
      .cls-1 {
        fill-rule: evenodd;
      }
    </style>
  </defs>
  <title>Monolith_Logo</title>
  <g>
    <path class="cls-1" d="M463.09,505.64a2.9,2.9,0,0,1-2-.78,2.62,2.62,0,0,1-.83-2V488.22a2.85,2.85,0,0,1,2.88-2.89h14.65a2.61,2.61,0,0,1,2,.84,2.92,2.92,0,0,1,.77,2.05v14.65a2.81,2.81,0,0,1-.77,1.94,2.64,2.64,0,0,1-2,.83Zm-72,0a2.9,2.9,0,0,1-2.05-.78,2.62,2.62,0,0,1-.83-2V429.64a2.62,2.62,0,0,1,.83-2,2.9,2.9,0,0,1,2.05-.78h15a2.9,2.9,0,0,1,2.06.78,2.62,2.62,0,0,1,.83,2v24.74q6.44-7.54,17.42-7.55a22.9,22.9,0,0,1,11.43,2.89,19.85,19.85,0,0,1,8,8.54,29.66,29.66,0,0,1,2.89,13.65v31a2.62,2.62,0,0,1-.83,2,2.9,2.9,0,0,1-2.06.78H430.7a2.84,2.84,0,0,1-2.78-2.77V472.58c0-3.26-.81-5.79-2.44-7.61a8.92,8.92,0,0,0-7-2.71,9.12,9.12,0,0,0-7,2.71c-1.7,1.82-2.55,4.35-2.55,7.61v30.29a2.62,2.62,0,0,1-.83,2,2.9,2.9,0,0,1-2.06.78Zm-37.41-3.91-.51-38.7H344.4a2.85,2.85,0,0,1-2.78-2.77v-9.54a2.6,2.6,0,0,1,.84-2,2.74,2.74,0,0,1,1.94-.78h8.76v-18.3a2.6,2.6,0,0,1,.84-2,2.74,2.74,0,0,1,1.94-.78h13.64a2.67,2.67,0,0,1,2.78,2.78v18.3h9.24a2.9,2.9,0,0,1,2.06.78,2.62,2.62,0,0,1,.83,2v9.54a2.64,2.64,0,0,1-.83,2,2.94,2.94,0,0,1-2.06.77h-9.24v38.66a3.08,3.08,0,0,1-3.08,3.08H356.75A3.08,3.08,0,0,1,353.67,501.73Zm-32.05,3.91a2.84,2.84,0,0,1-2.78-2.77V450.72a2.62,2.62,0,0,1,.83-2,2.78,2.78,0,0,1,1.95-.78h13.87a2.9,2.9,0,0,1,2.05.78,2.62,2.62,0,0,1,.83,2v52.15a2.62,2.62,0,0,1-.83,2,2.9,2.9,0,0,1-2.05.78ZM321.16,443a2.64,2.64,0,0,1-2-.83,2.89,2.89,0,0,1-.77-2.05V429.75a2.78,2.78,0,0,1,.83-2.06,2.67,2.67,0,0,1,1.94-.83H335a2.84,2.84,0,0,1,2.88,2.89v10.32A2.84,2.84,0,0,1,335,443Zm-27,62.69a2.9,2.9,0,0,1-2.05-.78,2.62,2.62,0,0,1-.83-2V429.64a2.62,2.62,0,0,1,.83-2,2.9,2.9,0,0,1,2.05-.78H308a2.67,2.67,0,0,1,2.78,2.78v73.23a2.77,2.77,0,0,1-.78,1.94,2.62,2.62,0,0,1-2,.83Zm-38.65-12.87c3,0,5.29-.94,6.77-2.83s2.33-4.79,2.55-8.71q.12-1.11.12-4.44t-.12-4.44c-.22-3.84-1.07-6.73-2.55-8.65s-3.73-2.89-6.77-2.89-5.28,1-6.76,2.89-2.33,4.81-2.56,8.65l-.11,4.44.11,4.44q.35,5.88,2.56,8.71T255.52,492.77Zm0,14q-14,0-21.46-6.49t-8.16-18.48c-.07-1-.11-2.62-.11-5s0-4,.11-5q.66-11.76,8.38-18.36t21.24-6.61q13.54,0,21.25,6.61t8.38,18.36c.15,1.92.22,3.59.22,5s-.07,3.07-.22,5q-.66,12-8.16,18.48T255.52,506.75Zm-92-1.11a2.85,2.85,0,0,1-2.78-2.77V450.72a2.6,2.6,0,0,1,.84-2,2.74,2.74,0,0,1,1.94-.78h13.65a2.67,2.67,0,0,1,2.77,2.78v4.21a21.8,21.8,0,0,1,7.71-5.88,25.11,25.11,0,0,1,10.82-2.22,22,22,0,0,1,11.26,2.89,19.9,19.9,0,0,1,7.77,8.54,30.32,30.32,0,0,1,2.83,13.65v31a2.77,2.77,0,0,1-.78,1.94,2.62,2.62,0,0,1-2,.83H202.79a2.9,2.9,0,0,1-2.06-.78,2.62,2.62,0,0,1-.83-2V472.58c0-3.33-.79-5.89-2.39-7.66s-3.9-2.66-6.93-2.66a9.12,9.12,0,0,0-7,2.71c-1.7,1.82-2.55,4.35-2.55,7.61v30.29a2.77,2.77,0,0,1-.78,1.94,2.62,2.62,0,0,1-2,.83ZM125,492.77q4.54,0,6.77-2.83t2.55-8.71c.07-.74.11-2.22.11-4.44s0-3.7-.11-4.44c-.22-3.84-1.07-6.73-2.55-8.65s-3.74-2.89-6.77-2.89-5.29,1-6.77,2.89-2.33,4.81-2.55,8.65l-.11,4.44.11,4.44q.33,5.88,2.55,8.71T125,492.77Zm0,14q-14,0-21.47-6.49t-8.15-18.48c-.08-1-.12-2.62-.12-5s0-4,.12-5Q96,460,103.72,453.44T125,446.83q13.53,0,21.25,6.61t8.37,18.36c.15,1.92.23,3.59.23,5s-.08,3.07-.23,5q-.66,12-8.15,18.48T125,506.75ZM2.77,505.64a2.68,2.68,0,0,1-1.94-.83A2.7,2.7,0,0,1,0,502.87V450.72a2.62,2.62,0,0,1,.83-2,2.75,2.75,0,0,1,1.94-.78H15.64a2.67,2.67,0,0,1,2.78,2.78v3.77a22.1,22.1,0,0,1,6.88-5.44,20.16,20.16,0,0,1,9.54-2.22q12.21,0,16.75,9.55A20.28,20.28,0,0,1,59,449.5a20.56,20.56,0,0,1,10.2-2.67A19.31,19.31,0,0,1,84.05,453q5.72,6.17,5.71,18.36v31.52a2.77,2.77,0,0,1-.78,1.94,2.6,2.6,0,0,1-2,.83H73.34a2.88,2.88,0,0,1-2-.78,2.58,2.58,0,0,1-.83-2V472.13c0-3.4-.73-5.9-2.17-7.49a7.46,7.46,0,0,0-5.82-2.38,7.23,7.23,0,0,0-5.61,2.38Q54.7,467,54.7,472.13v30.74a2.77,2.77,0,0,1-.78,1.94,2.6,2.6,0,0,1-2,.83H38.28a2.88,2.88,0,0,1-2.05-.78,2.59,2.59,0,0,1-.84-2V472.13q0-5.1-2.22-7.49a7.49,7.49,0,0,0-5.76-2.38,7.38,7.38,0,0,0-5.66,2.38Q19.53,467,19.53,472v30.85a2.77,2.77,0,0,1-.78,1.94,2.62,2.62,0,0,1-2,.83Z"/>
    <path d="M184.33,52.28l74.88,42.93a9.88,9.88,0,0,1,5,8.56V245.63a1.23,1.23,0,0,1-.63,1.07l-81.14,46a1.23,1.23,0,0,1-1.68-.46,1.21,1.21,0,0,1-.16-.61l.08-237.23A2.47,2.47,0,0,1,183.11,52,2.38,2.38,0,0,1,184.33,52.28ZM180.71,43a3.7,3.7,0,0,0-5.54,3.21l-.36,248.56a4.94,4.94,0,0,0,2.48,4.28l86.85,49.83a3.7,3.7,0,0,0,5.54-3.21V101.19a12.33,12.33,0,0,0-6.19-10.69ZM317.17,70.31V332.78a12.32,12.32,0,0,1-6.21,10.7L276.29,363.3a12.35,12.35,0,0,1-12.28,0l-94.5-54.48a12.35,12.35,0,0,1-6.17-10.68v-269a12.33,12.33,0,0,1,6.48-10.85L201,1.48a12.34,12.34,0,0,1,12.13.24l98,58A12.33,12.33,0,0,1,317.17,70.31Z"/>
  </g>
</svg>
