<svg xmlns:xlink="http://www.w3.org/1999/xlink" xmlns="http://www.w3.org/2000/svg" width="106" height="21" viewBox="0 0 106 21" fill="none">
<path d="M60.512 2.64731C60.5364 3.18458 60.3654 3.72186 60.2677 4.23472C59.8282 6.26172 59.706 8.36199 59.1688 10.3646C59.9747 9.65634 60.8783 8.92369 62.0017 8.826C63.3937 8.63063 64.8346 9.53423 65.2986 10.8286C65.5917 11.9031 65.4696 13.0265 65.2498 14.1011C65.8115 14.1499 66.3488 14.1255 66.9105 14.0522C66.7639 12.7579 67.1058 11.4147 67.9606 10.4134C69.0351 9.09464 70.9156 8.55736 72.5519 8.94811C73.9683 9.36328 74.7742 11.2193 73.8951 12.4404C72.9426 13.808 71.3308 14.4918 69.8411 15.1268C70.2318 15.5664 70.7935 15.8839 71.404 15.835C73.1136 15.7373 74.6277 14.8093 75.9953 13.8813C75.9221 12.2939 76.3372 10.5111 77.7048 9.53423C79.0969 8.53294 81.0751 8.72831 82.4427 9.65634C83.1753 9.11906 84.372 9.1679 84.7627 10.0959C84.8604 11.7078 84.4208 13.344 84.8848 14.9314C85.0069 15.3466 85.4465 15.835 85.9105 15.5664C86.9607 15.0047 87.6201 14.0034 88.2794 13.051C88.6702 12.0252 88.5481 10.8774 88.8656 9.82729C89.0854 9.33885 89.7448 9.09464 90.2088 9.43654C90.7216 9.68076 90.7705 10.2669 90.8682 10.7553C91.552 9.85171 92.4311 8.87484 93.6767 8.89926C94.7512 8.75273 95.7525 9.3877 96.1677 10.3401C96.827 9.43654 97.8772 8.75273 99.0494 8.92369C100.368 8.87484 101.516 9.99824 101.516 11.2682C101.638 12.6846 100.344 13.7103 100.295 15.078C100.271 15.7618 101.101 15.835 101.589 15.6641C102.981 15.1756 103.69 13.8324 104.618 12.8067C105.13 13.0998 105.765 13.6859 105.399 14.3209C104.618 15.4443 103.69 16.5677 102.493 17.3003C101.589 17.862 100.368 18.033 99.3669 17.5934C98.39 17.2026 97.8772 16.1037 97.926 15.1024C97.9993 13.979 98.7319 13.0754 99.025 12.0008C99.1715 11.6101 98.9762 11.0728 98.5366 10.9995C97.7795 10.9263 97.0713 11.4147 96.6317 12.0008C95.9723 12.9044 95.6548 13.979 95.3373 15.0291C95.1175 15.8106 95.1908 16.6898 94.8489 17.4469C94.3605 18.326 92.8952 17.6178 92.8952 16.7631C92.7975 15.7618 93.0905 14.8337 93.4569 13.9301L93.7011 13.2952C93.8964 12.8067 94.0674 12.2939 94.1895 11.781C94.2628 11.3659 93.872 10.9751 93.4569 10.9995C92.5044 11.0728 91.7962 11.8299 91.381 12.6358C90.7216 13.9301 90.3064 15.3466 90.1843 16.7875C90.1355 17.3248 89.7692 18.033 89.0854 17.8376C88.2306 17.6911 87.8887 16.7875 88.0352 16.0304C87.962 16.1037 87.8887 16.1525 87.8154 16.2258L87.5956 16.4212C86.8386 17.1294 86.0327 17.862 84.9337 17.8376C83.5416 17.6667 82.7846 16.2502 82.6136 15.0291C81.9786 16.1769 81.246 17.4713 79.854 17.7888C78.3642 18.033 76.9234 17.0561 76.264 15.7862C74.7498 16.9829 72.8693 17.8865 70.8912 17.8376C69.4992 17.7888 68.3513 16.8607 67.5698 15.835C66.5197 16.1525 65.3719 16.299 64.3706 15.7373C63.4181 17.7155 60.805 18.5703 58.8024 17.6911C57.9233 17.3248 57.386 16.5188 56.9952 15.6885C55.7741 16.7631 54.3088 17.6178 52.6726 17.862C51.769 18.0086 50.9875 17.2515 50.8165 16.4212C50.4014 14.8337 51.3294 13.3196 51.5003 11.781C51.598 11.3414 51.1585 10.9263 50.7189 11.0484C49.6443 11.1216 48.9361 12.0741 48.4721 12.9288C47.9348 14.0034 47.4952 15.1512 47.2998 16.3235C47.2021 16.8119 47.1533 17.3492 46.787 17.7399C46.0787 18.1795 45.1263 17.569 45.053 16.8119C45.0042 16.0304 45.1751 15.2489 45.3217 14.4674C44.6134 15.3466 43.3679 15.5176 42.4155 14.907C41.7805 16.934 39.5093 18.1795 37.409 17.7888C35.9926 17.5201 34.7226 16.3967 34.454 14.9803C34.1365 13.4417 34.3563 11.7322 35.2843 10.4134C36.8229 8.38641 40.3641 8.45967 41.927 10.4378C42.5376 11.2193 42.6108 12.2206 42.562 13.1731C43.0016 13.3684 43.5144 13.4905 43.9052 13.1486C44.9798 12.3427 45.7612 11.1461 46.1276 9.87613C46.3229 9.36328 47.0312 9.14348 47.4708 9.48539C47.9348 9.75403 48.0325 10.2913 48.0325 10.7553C49.0093 9.55865 50.5967 8.75274 52.1842 8.94811C53.0389 9.0458 53.625 9.80287 53.7227 10.6088C53.9181 11.7322 53.6006 12.7823 53.2587 13.8325L53.1366 14.2476C53.0145 14.5895 52.9168 14.9559 52.8435 15.2978C52.7703 15.8595 53.4785 15.7129 53.7716 15.5176C54.8217 15.0291 55.7741 14.3453 56.6289 13.5394C56.8487 9.90055 57.5325 6.31056 57.9965 2.69615C58.2652 1.42622 60.341 1.47506 60.512 2.64731ZM8.86004 0.742411C10.0567 4.06376 10.7161 7.55607 11.2534 11.024C11.5953 10.6332 11.6685 10.0959 11.8639 9.6075C12.6454 7.50723 13.3781 5.38254 14.2572 3.30669C14.5991 2.50077 14.941 1.67044 15.4783 0.937785C15.6737 0.620303 16.0644 0.473771 16.4308 0.547036C17.0169 0.913362 17.139 1.64601 17.2123 2.25656C17.5542 5.99308 17.7495 9.75402 18.067 13.4905C18.1403 14.6139 18.6287 15.7129 18.5799 16.8363C18.3845 17.9109 16.4063 18.033 16.2842 16.8363C15.8935 13.1486 15.6004 9.41212 15.4539 5.70002C14.3793 8.41083 13.6467 11.2682 12.5477 13.979C12.1325 14.7116 11.5953 15.7862 10.594 15.6641C9.98344 15.6397 9.95902 14.9558 9.86133 14.5163C9.25079 11.8787 8.68909 9.24117 8.20065 6.5792C7.41916 9.48538 6.5644 12.3916 5.0991 15.0535C4.46413 16.1281 3.70706 17.3003 2.38829 17.6422C1.75332 17.862 0.703186 17.9109 0.507812 17.105C0.507812 16.2746 1.5091 16.1037 1.97312 15.5664C2.82788 14.5651 3.36515 13.344 3.87801 12.1474C5.29447 8.55736 6.24692 4.79642 7.15052 1.05989C7.22378 0.278399 8.51814 0.00975937 8.86004 0.742411ZM37.873 11.0972C36.3345 11.952 36.4077 14.272 37.6288 15.371C38.3126 15.9327 39.3872 15.6152 39.9 14.9558C40.706 13.9546 40.5838 12.4893 39.9 11.4635C39.436 10.8286 38.508 10.7309 37.873 11.0972ZM60.8539 10.9995C59.3397 11.6345 58.5826 13.6615 59.4863 15.0535C59.9503 15.7862 61.0004 15.7373 61.7086 15.4443C63.2472 14.7605 63.8089 12.6358 62.8564 11.2682C62.4169 10.6088 61.4888 10.7065 60.8539 10.9995ZM79.5121 11.0484C77.8025 11.6833 77.6804 14.1255 78.8771 15.2978C79.2434 15.6397 79.9028 15.7618 80.2935 15.371C81.2216 14.5163 81.7589 13.2952 81.9787 12.0741C81.6856 11.1461 80.3912 10.7797 79.5121 11.0484ZM70.2074 10.9018C69.4747 11.6589 69.4015 12.7579 69.2305 13.7348C70.1585 13.1731 71.0133 12.4893 71.8192 11.781C72.1123 11.5368 72.3565 11.1216 72.1611 10.7309C71.6483 10.1448 70.6958 10.4378 70.2074 10.9018ZM29.472 9.02137C31.0838 9.70518 32.1584 11.3903 32.0362 13.0998C29.1545 13.0998 26.2727 13.1242 23.391 13.0754C23.391 11.9276 23.7817 10.7553 24.612 9.9494C25.8331 8.70389 27.8601 8.31314 29.472 9.02137Z" fill="#5FC0C1"/>
<path d="M29.3502 20.0117C29.5211 20.0117 29.6677 20.1094 29.6677 20.2315C29.6677 20.3536 29.5211 20.4513 29.3502 20.4513H24.7101C24.5391 20.4513 24.3926 20.3536 24.3926 20.2315C24.3926 20.1094 24.5391 20.0117 24.7101 20.0117H29.3502Z" fill="#E1177C"/>
<path d="M23.7079 20.4509C23.8831 20.4509 24.0251 20.3088 24.0251 20.1336C24.0251 19.9584 23.8831 19.8164 23.7079 19.8164C23.5327 19.8164 23.3906 19.9584 23.3906 20.1336C23.3906 20.3088 23.5327 20.4509 23.7079 20.4509Z" fill="#E1177C"/>
<path d="M26.4911 19.279C26.6663 19.279 26.8083 19.137 26.8083 18.9618C26.8083 18.7866 26.6663 18.6445 26.4911 18.6445C26.3159 18.6445 26.1738 18.7866 26.1738 18.9618C26.1738 19.137 26.3159 19.279 26.4911 19.279Z" fill="#E1177C"/>
<path d="M31.9378 18.6445C32.1088 18.6445 32.2553 18.7911 32.2553 18.962C32.2553 19.133 32.1088 19.2795 31.9378 19.2795H27.3954C27.2244 19.2795 27.0779 19.133 27.0779 18.962C27.0779 18.7911 27.2244 18.6445 27.3954 18.6445H31.9378Z" fill="#E1177C"/>
<path d="M20.534 18.1052C20.7092 18.1052 20.8513 17.9631 20.8513 17.7879C20.8513 17.6127 20.7092 17.4707 20.534 17.4707C20.3588 17.4707 20.2168 17.6127 20.2168 17.7879C20.2168 17.9631 20.3588 18.1052 20.534 18.1052Z" fill="#E1177C"/>
<path d="M25.0501 17.4707C25.2211 17.4707 25.3676 17.6172 25.3676 17.7882C25.3676 17.9591 25.2211 18.1057 25.0501 18.1057H21.3136C21.1426 18.1057 20.9961 17.9591 20.9961 17.7882C20.9961 17.6172 21.1426 17.4707 21.3136 17.4707H25.0501Z" fill="#E1177C"/>
<path d="M33.4292 17.4707C33.6001 17.4707 33.7467 17.6172 33.7467 17.7882C33.7467 17.9591 33.6001 18.1057 33.4292 18.1057H26.005C25.834 18.1057 25.6875 17.9591 25.6875 17.7882C25.6875 17.6172 25.834 17.4707 26.005 17.4707H33.4292Z" fill="#E1177C"/>
<path d="M32.0362 16.2988C32.2071 16.2988 32.3536 16.4454 32.3536 16.6163C32.3536 16.7873 32.2071 16.9338 32.0362 16.9338H22.9269C22.7559 16.9338 22.6094 16.7873 22.6094 16.6163C22.6094 16.4454 22.7559 16.2988 22.9269 16.2988H32.0362Z" fill="#E1177C"/>
<path d="M21.9247 16.9333C22.0999 16.9333 22.2419 16.7913 22.2419 16.6161C22.2419 16.4409 22.0999 16.2988 21.9247 16.2988C21.7495 16.2988 21.6074 16.4409 21.6074 16.6161C21.6074 16.7913 21.7495 16.9333 21.9247 16.9333Z" fill="#E1177C"/>
<path d="M30.1338 15.1523C30.3048 15.1523 30.4513 15.2989 30.4513 15.4698C30.4513 15.6408 30.3048 15.7873 30.1338 15.7873H21.0245C20.8536 15.7873 20.707 15.6408 20.707 15.4698C20.707 15.2989 20.8536 15.1523 21.0245 15.1523H30.1338Z" fill="#E1177C"/>
<path d="M19.9207 15.7868C20.096 15.7868 20.238 15.6448 20.238 15.4696C20.238 15.2944 20.096 15.1523 19.9207 15.1523C19.7455 15.1523 19.6035 15.2944 19.6035 15.4696C19.6035 15.6448 19.7455 15.7868 19.9207 15.7868Z" fill="#E1177C"/>
<path d="M21.9247 14.613C22.0999 14.613 22.2419 14.471 22.2419 14.2957C22.2419 14.1205 22.0999 13.9785 21.9247 13.9785C21.7495 13.9785 21.6074 14.1205 21.6074 14.2957C21.6074 14.471 21.7495 14.613 21.9247 14.613Z" fill="#E1177C"/>
<path d="M32.9143 13.9785C33.0853 13.9785 33.2318 14.125 33.2318 14.296C33.2318 14.467 33.0853 14.6135 32.9143 14.6135H22.9991C22.8282 14.6135 22.6816 14.467 22.6816 14.296C22.6816 14.125 22.8282 13.9785 22.9991 13.9785H32.9143Z" fill="#E1177C"/>
</svg>