<svg id="Layer_1" data-name="Layer 1" xmlns="http://www.w3.org/2000/svg" viewBox="0 0 537.9286 354.8954">
  <g>
    <g id="logoMark">
      <polygon id="logoMark_PathItem_" data-name="logoMark &lt;PathItem&gt;" points="170.265 0 170.265 206.318 223.416 206.318 223.416 93.897 264.161 93.897 170.265 0"/>
      <polygon id="logoMark_PathItem_2" data-name="logoMark &lt;PathItem&gt;" points="324.79 0 324.79 112.422 284.046 112.422 377.941 206.318 377.941 0 324.79 0"/>
    </g>
    <g id="type">
      <polygon id="type_PathItem_" data-name="type &lt;PathItem&gt;" points="64.613 270.296 64.613 318.529 0 270.296 0 352.823 17.69 352.823 17.69 304.591 82.302 352.823 82.302 270.296 64.613 270.296"/>
      <polygon id="type_PathItem_2" data-name="type &lt;PathItem&gt;" points="98.595 352.823 98.595 270.296 170.265 270.296 170.265 285.44 117.09 285.44 117.09 302.774 170.265 302.774 170.265 317.918 117.09 317.918 117.09 337.679 170.265 337.679 170.265 352.823 98.595 352.823"/>
      <polygon id="type_PathItem_3" data-name="type &lt;PathItem&gt;" points="299.136 352.823 263.651 270.296 284.336 270.296 310.111 334.553 336.008 270.296 355.994 270.296 320.508 352.823 299.136 352.823"/>
      <path id="type_PathItem_4" data-name="type &lt;PathItem&gt;" d="M517.9306,293.5274a16.2436,16.2436,0,0,0-7.281-8.502q-4.8675-2.592-13.523-2.592-9.8385,0-15.025,2.427c-3.469,1.609-5.21,3.966-5.21,7.045a7.1832,7.1832,0,0,0,3.185,6.476q3.18,2.079,11.616,3.351l16.99,2.664q15.132,2.4165,22.19,8.49,7.05,6.075,7.056,16.707,0,12.024-10.23,18.66-10.2285,6.642-29.187,6.642-13.7625,0-22.827-3.233-9.0765-3.231-13.878-9.826-4.7955-6.591-5.718-16.755h18.613q1.155,8.1,6.819,11.853,5.6655,3.747,16.993,3.753c6.772,0,11.887-.912,15.309-2.722,3.433-1.801,5.15-4.489,5.15-8.029a7.7588,7.7588,0,0,0-3.411-6.702c-2.272-1.621-5.884-2.782-10.809-3.469l-13.878-1.965q-16.872-2.3085-24.674-8.383-7.797-6.0585-7.803-17.05a19.182,19.182,0,0,1,4.63-12.823q4.617-5.436,13.462-8.384a67.027,67.027,0,0,1,21.099-2.947q16.8735,0,26.12,5.611,9.237,5.5965,12.136,17.619Z"/>
      <path id="type_CompoundPathItem_" data-name="type &lt;CompoundPathItem&gt;" d="M449.5054,311.56q0,13.0545-5.719,22.828a38.458,38.458,0,0,1-16.529,15.145q-10.7985,5.361-25.717,5.362-14.334,0-25.019-5.139a38.5532,38.5532,0,0,1-16.647-14.906q-5.952-9.7695-5.957-23.29,0-13.0725,5.732-22.828a38.4554,38.4554,0,0,1,16.528-15.145q10.8015-5.379,25.718-5.374,14.3145,0,25.019,5.15a38.6289,38.6289,0,0,1,16.647,14.907q5.95,9.77,5.944,23.29m-19.182,0q0-13.41-7.518-20.804-7.5135-7.407-21.147-7.399-13.5165,0-21.041,7.458-7.512,7.443-7.505,20.745,0,13.41,7.505,20.804,7.5135,7.3875,21.159,7.399,13.5165,0,21.029-7.46,7.512-7.458,7.518-20.743"/>
      <path id="type_CompoundPathItem_2" data-name="type &lt;CompoundPathItem&gt;" d="M245.2043,352.8238l-18.033-30.867h-24.155v30.867H185.22v-82.527h40.566q34.563,0,34.562,25.776,0,8.3115-3.872,13.866-3.8715,5.5575-11.853,8.667l20.804,34.218ZM224.4,307.7468q9.129,0,13.463-2.841,4.3335-2.8245,4.333-8.952,0-6.126-4.096-8.785-4.104-2.664-13.463-2.652h-21.621v23.23Z"/>
    </g>
  </g>
</svg>
