<svg xmlns="http://www.w3.org/2000/svg" xmlns:xlink="http://www.w3.org/1999/xlink" viewBox="0 0 115.2 30.46"><defs><style>.cls-1{fill:#fff;fill-rule:evenodd;}.cls-2{fill:#030305;}.cls-3{mask:url(#mask);}</style><mask id="mask" x="0" y="0" width="115.2" height="30.46" maskUnits="userSpaceOnUse"><g id="mask-2"><polygon id="path-1" class="cls-1" points="0 30.46 115.2 30.46 115.2 0 0 0 0 30.46"/></g></mask></defs><title>black_Noia</title><g id="Layer_2" data-name="Layer 2"><g id="Layer_1-2" data-name="Layer 1"><g id="Page-1"><g id="Landing-page-Copy"><g id="noia-logo-white-svg"><polygon id="Fill-1" class="cls-2" points="56.57 8.18 59.63 8.18 66.91 19.97 66.91 8.18 69.72 8.18 69.72 24.75 66.86 24.75 59.38 12.63 59.38 24.75 56.57 24.75 56.57 8.18"/><g id="Group-40"><path id="Fill-2" class="cls-2" d="M84.4,21.85c.65,0,.9-.24.9-.88V11.29c0-.64-.25-.88-.9-.88H79.33c-.68,0-.92.24-.92.88V21c0,.64.24.88.92.88Zm-8.89-.72v-10c0-2.26,1.09-3.34,3.38-3.34h5.92c2.3,0,3.38,1.08,3.38,3.34v10c0,2.27-1.08,3.34-3.38,3.34H78.89C76.6,24.47,75.51,23.4,75.51,21.13Z"/><g id="Fill-4-Clipped"><g class="cls-3"><polygon id="Fill-4" class="cls-2" points="93.76 24.47 96.66 24.47 96.66 7.78 93.76 7.78 93.76 24.47"/></g></g><g id="Fill-6-Clipped"><g class="cls-3"><path id="Fill-6" class="cls-2" d="M109.94,17.77l-2.32-7.41-2.32,7.41Zm.82,2.62H104.5l-1.28,4.08h-3l5.48-16.69h4.06l5.48,16.69H112Z"/></g></g><g id="Fill-7-Clipped"><g class="cls-3"><polygon id="Fill-7" class="cls-2" points="1.86 28.51 2.77 28.51 2.77 14.79 1.86 14.79 1.86 28.51"/></g></g><g id="Fill-8-Clipped"><g class="cls-3"><polygon id="Fill-8" class="cls-2" points="41.23 16.24 42.14 16.24 42.14 2.3 41.23 2.3 41.23 16.24"/></g></g><g id="Fill-9-Clipped"><g class="cls-3"><polygon id="Fill-9" class="cls-2" points="21.68 22.19 35.88 22.19 35.88 21.29 21.68 21.29 21.68 22.19"/></g></g><g id="Fill-10-Clipped"><g class="cls-3"><polygon id="Fill-10" class="cls-2" points="2.32 22.19 9.47 22.19 9.47 21.29 2.32 21.29 2.32 22.19"/></g></g><g id="Fill-11-Clipped"><g class="cls-3"><polygon id="Fill-11" class="cls-2" points="2.32 15.71 41.69 15.71 41.69 14.82 2.32 14.82 2.32 15.71"/></g></g><g id="Fill-12-Clipped"><g class="cls-3"><polygon id="Fill-12" class="cls-2" points="34.91 9.24 41.69 9.24 41.69 8.34 34.91 8.34 34.91 9.24"/></g></g><g id="Fill-13-Clipped"><g class="cls-3"><polygon id="Fill-13" class="cls-2" points="8.79 9.24 23.56 9.24 23.56 8.34 8.79 8.34 8.79 9.24"/></g></g><g id="Fill-14-Clipped"><g class="cls-3"><polygon id="Fill-14" class="cls-2" points="34.67 22.07 35.58 22.07 35.58 7.67 34.67 7.67 34.67 22.07"/></g></g><g id="Fill-15-Clipped"><g class="cls-3"><polygon id="Fill-15" class="cls-2" points="28.11 28.21 29.02 28.21 29.02 14.39 28.11 14.39 28.11 28.21"/></g></g><g id="Fill-16-Clipped"><g class="cls-3"><polygon id="Fill-16" class="cls-2" points="21.55 22.69 22.46 22.69 22.46 8.12 21.55 8.12 21.55 22.69"/></g></g><g id="Fill-17-Clipped"><g class="cls-3"><polygon id="Fill-17" class="cls-2" points="14.99 15.63 15.9 15.63 15.9 1.17 14.99 1.17 14.99 15.63"/></g></g><g id="Fill-18-Clipped"><g class="cls-3"><polygon id="Fill-18" class="cls-2" points="8.43 22.55 9.34 22.55 9.34 8.06 8.43 8.06 8.43 22.55"/></g></g><g id="Fill-19-Clipped"><g class="cls-3"><path id="Fill-19" class="cls-2" d="M4.66,21.7a2.32,2.32,0,0,0-2.33-2.3,2.3,2.3,0,1,0,0,4.59A2.31,2.31,0,0,0,4.66,21.7"/></g></g><g id="Fill-20-Clipped"><g class="cls-3"><path id="Fill-20" class="cls-2" d="M11.22,21.7A2.33,2.33,0,1,0,8.89,24a2.32,2.32,0,0,0,2.33-2.29"/></g></g><g id="Fill-21-Clipped"><g class="cls-3"><path id="Fill-21" class="cls-2" d="M24.34,21.7A2.33,2.33,0,1,0,22,24a2.32,2.32,0,0,0,2.33-2.29"/></g></g><g id="Fill-22-Clipped"><g class="cls-3"><path id="Fill-22" class="cls-2" d="M30.9,21.7A2.33,2.33,0,1,0,28.57,24,2.32,2.32,0,0,0,30.9,21.7"/></g></g><g id="Fill-23-Clipped"><g class="cls-3"><path id="Fill-23" class="cls-2" d="M37.46,21.7A2.33,2.33,0,1,0,35.13,24a2.32,2.32,0,0,0,2.33-2.29"/></g></g><g id="Fill-24-Clipped"><g class="cls-3"><path id="Fill-24" class="cls-2" d="M4.66,28.16a2.31,2.31,0,0,0-2.33-2.29,2.3,2.3,0,1,0,0,4.59,2.32,2.32,0,0,0,2.33-2.3"/></g></g><g id="Fill-25-Clipped"><g class="cls-3"><path id="Fill-25" class="cls-2" d="M30.9,28.16a2.33,2.33,0,1,0-2.33,2.3,2.31,2.31,0,0,0,2.33-2.3"/></g></g><g id="Fill-26-Clipped"><g class="cls-3"><path id="Fill-26" class="cls-2" d="M4.66,15.23a2.32,2.32,0,0,0-2.33-2.3,2.3,2.3,0,1,0,0,4.6,2.32,2.32,0,0,0,2.33-2.3"/></g></g><g id="Fill-27-Clipped"><g class="cls-3"><path id="Fill-27" class="cls-2" d="M11.22,15.23a2.33,2.33,0,1,0-2.33,2.3,2.32,2.32,0,0,0,2.33-2.3"/></g></g><g id="Fill-28-Clipped"><g class="cls-3"><path id="Fill-28" class="cls-2" d="M17.78,15.23a2.33,2.33,0,1,0-2.33,2.3,2.32,2.32,0,0,0,2.33-2.3"/></g></g><g id="Fill-29-Clipped"><g class="cls-3"><path id="Fill-29" class="cls-2" d="M24.34,15.23A2.33,2.33,0,1,0,22,17.53a2.32,2.32,0,0,0,2.33-2.3"/></g></g><g id="Fill-30-Clipped"><g class="cls-3"><path id="Fill-30" class="cls-2" d="M30.9,15.23a2.33,2.33,0,1,0-2.33,2.3,2.32,2.32,0,0,0,2.33-2.3"/></g></g><g id="Fill-31-Clipped"><g class="cls-3"><path id="Fill-31" class="cls-2" d="M37.46,15.23a2.33,2.33,0,1,0-2.33,2.3,2.32,2.32,0,0,0,2.33-2.3"/></g></g><g id="Fill-32-Clipped"><g class="cls-3"><path id="Fill-32" class="cls-2" d="M44,15.23a2.33,2.33,0,1,0-2.33,2.3A2.32,2.32,0,0,0,44,15.23"/></g></g><g id="Fill-33-Clipped"><g class="cls-3"><path id="Fill-33" class="cls-2" d="M11.22,8.76a2.33,2.33,0,1,0-2.33,2.3,2.31,2.31,0,0,0,2.33-2.3"/></g></g><g id="Fill-34-Clipped"><g class="cls-3"><path id="Fill-34" class="cls-2" d="M17.78,8.76a2.33,2.33,0,1,0-2.33,2.3,2.31,2.31,0,0,0,2.33-2.3"/></g></g><g id="Fill-35-Clipped"><g class="cls-3"><path id="Fill-35" class="cls-2" d="M24.34,8.76A2.33,2.33,0,1,0,22,11.06a2.31,2.31,0,0,0,2.33-2.3"/></g></g><g id="Fill-36-Clipped"><g class="cls-3"><path id="Fill-36" class="cls-2" d="M37.46,8.76a2.33,2.33,0,1,0-2.33,2.3,2.31,2.31,0,0,0,2.33-2.3"/></g></g><g id="Fill-37-Clipped"><g class="cls-3"><path id="Fill-37" class="cls-2" d="M44,8.76a2.33,2.33,0,1,0-2.33,2.3A2.31,2.31,0,0,0,44,8.76"/></g></g><g id="Fill-38-Clipped"><g class="cls-3"><path id="Fill-38" class="cls-2" d="M17.78,2.3a2.33,2.33,0,0,0-4.66,0,2.33,2.33,0,0,0,4.66,0"/></g></g><g id="Fill-39-Clipped"><g class="cls-3"><path id="Fill-39" class="cls-2" d="M44,2.3a2.33,2.33,0,0,0-4.66,0A2.33,2.33,0,0,0,44,2.3"/></g></g></g></g></g></g></g></g></svg>