<?xml version="1.0" encoding="utf-8"?>
<!-- Generator: Adobe Illustrator 26.0.1, SVG Export Plug-In . SVG Version: 6.00 Build 0)  -->
<svg version="1.1" id="Layer_1" xmlns="http://www.w3.org/2000/svg" xmlns:xlink="http://www.w3.org/1999/xlink" x="0px" y="0px"
	 viewBox="0 0 330 100" style="enable-background:new 0 0 330 100;" xml:space="preserve">
<style type="text/css">
	.st0{fill:#48A3FF;}
	.st1{fill:#02101C;}
</style>
<g>
	<g>
		<path class="st0" d="M79.2,66.8L79.2,66.8l7.3,7.3V49.2c0-6.4-2.4-12.8-7.3-17.6c-9.7-9.7-25.5-9.7-35.2,0L79.2,66.8z"/>
		<path class="st0" d="M41.7,31.6L41.7,31.6l-7.3-7.3v24.9c0,6.4,2.4,12.8,7.3,17.6c9.7,9.7,25.5,9.7,35.2,0L41.7,31.6z"/>
	</g>
	<path class="st1" d="M123.6,33.9c2,0,4,0.4,5.8,1.2c1.8,0.8,3.4,1.9,4.8,3.2c1.4,1.4,2.4,2.9,3.2,4.7s1.2,3.7,1.2,5.8
		s-0.4,4.1-1.2,5.9c-0.8,1.8-1.9,3.4-3.2,4.7c-1.4,1.3-2.9,2.4-4.8,3.1c-1.8,0.8-3.8,1.1-5.8,1.1c-2.1,0-4-0.4-5.8-1.1
		c-1.8-0.8-3.4-1.8-4.8-3.1s-2.4-2.9-3.2-4.7c-0.8-1.8-1.2-3.8-1.2-5.9c0-2,0.4-4,1.2-5.8c0.8-1.8,1.9-3.4,3.2-4.7
		c1.4-1.4,2.9-2.4,4.8-3.2C119.6,34.3,121.5,33.9,123.6,33.9 M123.6,60.4c1.5,0,3-0.3,4.4-0.9c1.4-0.6,2.6-1.4,3.6-2.4
		s1.9-2.3,2.5-3.7s0.9-2.9,0.9-4.6c0-1.6-0.3-3.1-0.8-4.5c-0.6-1.4-1.3-2.6-2.4-3.7c-1-1-2.2-1.9-3.6-2.5c-1.4-0.6-2.9-0.9-4.6-0.9
		s-3.2,0.3-4.6,0.9c-1.4,0.6-2.6,1.5-3.6,2.5s-1.8,2.3-2.3,3.7c-0.6,1.4-0.8,2.9-0.8,4.5s0.3,3.2,0.9,4.6c0.6,1.4,1.4,2.6,2.5,3.7
		c1,1,2.3,1.9,3.6,2.4C120.6,60.1,122,60.4,123.6,60.4"/>
	<polygon class="st1" points="143.4,33.1 164.9,55.6 164.9,34.5 168.4,34.5 168.4,64.3 147,41.8 147,63.7 143.4,63.7 	"/>
	<polygon class="st1" points="187.5,63.7 184,63.7 184,37.8 173.3,37.8 173.3,34.5 198.1,34.5 198.1,37.8 187.5,37.8 	"/>
	<path class="st1" d="M212,44.3c1.4,0,2.8,0.3,4,0.8c1.3,0.5,2.3,1.2,3.3,2.1c0.9,0.9,1.6,2,2.2,3.2c0.5,1.3,0.8,2.6,0.8,4
		s-0.3,2.8-0.8,4c-0.5,1.3-1.3,2.3-2.2,3.2s-2,1.6-3.3,2.1s-2.6,0.8-4,0.8s-2.7-0.3-4-0.8c-1.2-0.5-2.3-1.3-3.2-2.2s-1.6-2-2.2-3.2
		c-0.5-1.2-0.8-2.5-0.8-3.9s0.3-2.7,0.8-4c0.5-1.2,1.2-2.3,2.2-3.3c0.9-0.9,2-1.7,3.2-2.2C209.2,44.5,210.6,44.3,212,44.3 M211.8,46
		c-1.2,0-2.2,0.2-3.2,0.7s-1.9,1.1-2.6,1.8c-0.7,0.8-1.3,1.7-1.7,2.7s-0.6,2.1-0.6,3.2c0,1.1,0.2,2.2,0.6,3.2c0.4,1,1,1.9,1.7,2.7
		s1.6,1.4,2.6,1.8c1,0.5,2.1,0.7,3.2,0.7c1.2,0,2.3-0.2,3.3-0.6c1-0.4,1.9-1,2.7-1.8s1.4-1.7,1.8-2.7c0.4-1,0.7-2.1,0.7-3.3
		s-0.2-2.3-0.7-3.4c-0.4-1-1-1.9-1.8-2.7s-1.7-1.4-2.7-1.8C214.2,46.2,213.1,46,211.8,46"/>
	<rect x="227.7" y="29.3" class="st1" width="1.9" height="35"/>
	<path class="st1" d="M245.3,44.3c1.4,0,2.8,0.3,4,0.8c1.3,0.5,2.3,1.2,3.3,2.1c0.9,0.9,1.6,2,2.2,3.2c0.5,1.3,0.8,2.6,0.8,4
		s-0.3,2.8-0.8,4c-0.5,1.3-1.3,2.3-2.2,3.2s-2,1.6-3.3,2.1s-2.6,0.8-4,0.8s-2.7-0.3-4-0.8c-1.2-0.5-2.3-1.3-3.2-2.2s-1.6-2-2.2-3.2
		c-0.5-1.2-0.8-2.5-0.8-3.9s0.3-2.7,0.8-4c0.5-1.2,1.2-2.3,2.2-3.3c0.9-0.9,2-1.7,3.2-2.2C242.6,44.5,243.9,44.3,245.3,44.3
		 M245.2,46c-1.2,0-2.2,0.2-3.2,0.7s-1.9,1.1-2.6,1.8c-0.7,0.8-1.3,1.7-1.7,2.7s-0.6,2.1-0.6,3.2c0,1.1,0.2,2.2,0.6,3.2
		c0.4,1,1,1.9,1.7,2.7s1.6,1.4,2.6,1.8c1,0.5,2.1,0.7,3.2,0.7c1.2,0,2.3-0.2,3.3-0.6c1-0.4,1.9-1,2.7-1.8s1.4-1.7,1.8-2.7
		c0.4-1,0.7-2.1,0.7-3.3s-0.2-2.3-0.7-3.4c-0.4-1-1-1.9-1.8-2.7s-1.7-1.4-2.7-1.8C247.5,46.2,246.4,46,245.2,46"/>
	<path class="st1" d="M278.6,63.3c0,1.5-0.1,3-0.3,4.3c-0.2,1.4-0.7,2.7-1.7,4c-0.9,1.3-2,2.2-3.4,2.8c-1.4,0.6-2.8,0.9-4.4,0.9
		c-1.3,0-2.5-0.2-3.6-0.6s-2.2-0.9-3-1.6c-0.9-0.7-1.6-1.6-2.1-2.6s-0.8-2.2-0.9-3.6h1.9c0.1,1,0.3,1.9,0.7,2.8
		c0.4,0.8,1,1.5,1.7,2.1s1.5,1,2.4,1.3s1.8,0.5,2.8,0.5c1.2,0,2.4-0.2,3.5-0.7s2-1.2,2.8-2.2c0.8-1.1,1.2-2.3,1.4-3.6
		c0.2-1.2,0.3-2.5,0.3-3.9v-2.4h-0.1c-0.9,1.2-2,2.1-3.3,2.8c-1.4,0.7-2.8,1-4.3,1c-1.4,0-2.7-0.3-3.9-0.8c-1.2-0.6-2.2-1.3-3-2.2
		s-1.5-2-1.9-3.3c-0.5-1.2-0.7-2.5-0.7-3.9s0.2-2.7,0.7-4c0.5-1.2,1.2-2.3,2-3.2c0.9-0.9,1.9-1.6,3.1-2.2c1.2-0.5,2.5-0.8,3.9-0.8
		c1.6,0,3,0.3,4.2,1s2.3,1.6,3.2,2.8h0.1v-3.4h1.9L278.6,63.3L278.6,63.3z M269,46c-1.1,0-2.2,0.2-3.1,0.7s-1.7,1.1-2.4,1.9
		c-0.7,0.8-1.2,1.7-1.5,2.7c-0.4,1-0.6,2-0.6,3.1s0.2,2.2,0.5,3.2c0.4,1,0.9,1.9,1.5,2.7c0.7,0.8,1.5,1.4,2.4,1.9s2,0.7,3.2,0.7
		s2.3-0.2,3.3-0.7s1.8-1.1,2.4-1.9c0.7-0.8,1.1-1.7,1.5-2.8c0.3-1.1,0.5-2.2,0.5-3.4c0-1.1-0.2-2.2-0.6-3.2s-0.9-1.8-1.6-2.6
		c-0.7-0.7-1.5-1.3-2.5-1.7C271.2,46.2,270.1,46,269,46"/>
	<polygon class="st1" points="282.4,44.7 284.4,44.7 292.7,62.4 300.2,44.7 302.2,44.7 289.1,75.7 287.1,75.7 291.8,64.6 	"/>
</g>
</svg>
