<svg xmlns="http://www.w3.org/2000/svg" viewBox="0 0 220 65" class="logo"><g id="logo-perlin_svg__Page-1" stroke="none" stroke-width="1" fill="none" fill-rule="evenodd"><g id="logo-perlin_svg__Perlin---Homepage" transform="translate(-272 -77)"><g id="logo-perlin_svg__Perlin-Logo" transform="translate(272 77)"><g id="logo-perlin_svg__Group" transform="translate(1.527 1.532)"><path d="M0,0 L0.0247629245,1.37500262 C0.483160547,1.22534244 0.916795286,0.91666836 1.37500381,0.607994327 C0.916795286,0.617348109 0.458397643,0 0,0 L0,0 Z" transform="translate(28.916 .03)" fill="#000" id="logo-perlin_svg__Shape"></path><path d="M30.5416551,0.0907213178 C30.0562795,0.0426331447 29.5722726,0.00822450412 29.0703853,0 C29.0195072,0.00276947604 28.9713777,0.00688172811 28.9205194,0.00688172811 C12.8109378,0.860719546 0,14.1954938 0,30.520969 C0,40.9297494 5.20440492,50.1119882 13.154689,55.6339874 C11.2544256,53.9055824 10.060925,51.4196005 10.060925,48.6476065 C10.060925,43.4198432 14.2973107,39.2989488 19.5182277,39.1903517 C20.1273472,39.1765868 20.8203683,39.1545981 21.4116103,39.1270716 L21.4116103,38.7228127 C21.4116103,34.556515 24.1258738,31.024172 27.883767,29.7880636 C28.8022713,29.482835 29.7964114,29.3191816 30.8139034,29.3191816 C34.635055,29.3191816 37.9268159,31.5920844 39.3939513,34.8618265 L39.3966999,34.8687106 C44.4374734,31.4284343 47.7374802,25.6479494 47.7374802,19.090585 C47.7374802,9.18089657 40.1914361,1.04635832 30.5416551,0.0907213178 L30.5416551,0.0907213178 Z" transform="translate(0 .036)" fill="#B4E1FF" id="logo-perlin_svg__Shape"></path><path d="M11.8635658,0 C28.3870173,1.96078855 33.4965465,14.1336409 33.5075427,25.0828045 C33.5102892,36.2849136 24.0942548,44.44832 15.8662041,46.6098534 C12.4878113,47.4981005 8.5126584,48.0508187 6.54227578,48.2941976 C5.77363877,48.389031 5.29101423,48.438545 5.29101423,48.438545 C4.99814153,48.4770667 4.70938095,48.5499122 4.41789295,48.6296391 C2.62626758,49.1549187 1.16874308,50.4776352 0.467497219,52.1909326 C0.166378826,52.9086462 0,53.7020599 0,54.5270264 C0,57.2110686 1.71875839,59.490767 4.1181381,60.3281566 C4.55538105,60.428528 4.99539311,60.5179072 5.4395176,60.5990614 C7.20090885,60.9152858 9.0200403,61.0858192 10.8735384,61.0858192 C27.7558684,61.0858192 41.4385681,47.4086375 41.4385681,30.529103 C41.4413344,13.9865228 28.2852808,0.519738208 11.8635658,0 L11.8635658,0 Z" transform="translate(19.68 .025)" fill="#90D595" id="logo-perlin_svg__Shape"></path><path d="M21.4844797,0.0247574364 C21.1531065,0.0137634556 20.82998,0 20.4944732,0 L20.4889758,0 C19.9981062,0 19.5086002,0.0137634556 19.0094634,0.0329819389 C19.5113483,0.0453186962 19.9980856,0.0756150856 20.4807304,0.123703253 C30.1318996,1.07934028 37.6765614,9.21387855 37.6765614,19.1234817 C37.6765614,25.6808457 34.3765516,31.4614125 29.3357772,34.9016074 L29.3357772,34.9016074 L29.3330292,34.8947225 C27.8658957,31.6249821 24.5741326,29.3520801 20.7529798,29.3520801 C19.7341035,29.3520801 18.7413476,29.5157307 17.8228452,29.8209614 C14.0649486,31.0570714 11.3506875,34.5908389 11.3506875,38.7557083 L11.3506875,39.1599703 C10.759444,39.1874957 10.0664229,39.2094851 9.45730433,39.2232478 C4.23640785,39.3318457 0,43.45274 0,48.6791605 C0,51.4525806 1.19350061,53.9385633 3.09376498,55.6668857 C3.68914118,56.0834787 4.30102937,56.4726327 4.93215667,56.848024 C7.62854296,58.4485289 10.5848198,59.6434335 13.7390727,60.3501511 C11.3396928,59.5155333 9.6209344,57.2329802 9.6209344,54.5490212 C9.6209344,53.7212847 9.78731379,52.9306421 10.0884316,52.2129281 C10.7896775,50.4997138 12.2472031,49.1769125 14.0388281,48.6516352 C14.3303368,48.5719079 14.619077,48.5017455 14.9119494,48.4605402 C14.9119494,48.4605402 15.397323,48.4110254 16.1632106,48.3161902 C18.136342,48.0728143 22.1087459,47.5200943 25.4871402,46.6318466 C33.7151702,44.4703124 43.1312245,36.3069885 43.128479,25.1047946 C43.1188467,14.1583995 38.0079551,1.9854623 21.4844797,0.0247574364 L21.4844797,0.0247574364 Z" transform="translate(10.059)" fill="#FFF" id="logo-perlin_svg__Shape"></path><path d="M1.10000229,1.09999847 L1.10000229,1.09999847 L0,0 L1.10000229,1.09999847 Z" transform="translate(39.393 34.9)" fill="#000" id="logo-perlin_svg__Polygon"></path></g><path d="M32.0844001,0 C31.5646386,0 31.0490123,0.015106229 30.5347689,0.0385208862 C30.5100113,0.0385208862 30.4907718,0.034408633 30.467399,0.034408633 L30.467399,0.0399475851 C13.5259462,0.885560767 0,14.9367038 0,32.0884858 C0,42.9799097 5.45739239,52.6131508 13.7748214,58.41562 C14.3564548,58.9312471 14.9820853,59.4070114 15.6764494,59.7961646 C15.856571,59.8951924 16.0449591,59.9432795 16.2347109,59.9693792 C18.9187181,61.5011509 21.8433542,62.6561096 24.9371196,63.3629107 C25.4266247,63.5265622 25.9353711,63.6516935 26.4675095,63.7135438 L26.4716427,63.6750236 C28.2962715,63.9981302 30.167665,64.1768875 32.0858059,64.1768875 C49.7835177,64.1768875 64.1784515,49.7833335 64.1784515,32.0884858 C64.1770438,14.3948939 49.7834756,0 32.0844001,0 L32.0844001,0 Z M20.0975205,58.4937325 C18.4915144,57.7608291 16.9597594,56.895997 15.5256287,55.8963852 C14.0076163,54.4210087 13.1152344,52.3763814 13.1152344,50.210736 C13.1152344,45.8546854 16.6091261,42.3773132 21.0778969,42.2824804 C21.6952813,42.2701443 22.4102696,42.2508412 23.004282,42.2178583 C23.8224121,42.1807653 24.4659182,41.5097119 24.4659182,40.6916272 L24.4659182,40.2873669 C24.4659182,35.9450808 27.9928128,32.4099702 32.3433352,32.4099702 C35.4425959,32.4099702 38.2668617,34.2359787 39.538745,37.0629414 C39.88663,37.8370536 40.7886226,38.1780328 41.5627561,37.8288277 C41.6480011,37.7930755 41.7043756,37.7271126 41.7758792,37.6775988 L41.7910059,37.6995864 C47.4340391,33.8468252 50.7931703,27.4764427 50.7931703,20.6591683 C50.7931703,17.2313128 49.9337895,13.9904386 48.4309048,11.1331787 C52.5119273,16.415912 53.1870531,22.9471749 53.1884384,26.6377113 C53.1939321,36.8388674 44.6881368,44.58148 36.6911096,46.6866192 C32.1659628,47.8746405 26.4101793,48.4658818 26.2946798,48.4824128 C22.5244058,49.000809 19.6836506,52.2718971 19.6836506,56.0820225 C19.6863784,56.9262106 19.8458964,57.7306183 20.0975205,58.4937325 L20.0975205,58.4937325 Z M3.05859375,32.0883801 C3.05859375,16.4807081 15.4501443,3.74959686 30.8983456,3.1184082 C40.2250216,3.50344921 47.7380447,11.2667088 47.7380447,20.6606856 C47.7380447,25.9090933 45.3854091,30.8301993 41.3800226,34.1576823 C39.3656437,31.20005 35.995495,29.3575099 32.3434703,29.3575099 C26.6743157,29.3575099 22.0006661,33.6914879 21.4616661,39.2162539 C21.3076655,39.2231356 21.1495318,39.2259072 21.0175418,39.228593 C14.8685106,39.3606041 10.0628697,44.1841076 10.0628697,50.2135069 C10.0628697,50.4802148 10.0972364,50.7428954 10.1164966,51.0054932 C5.73160713,45.9195603 3.05859375,39.315452 3.05859375,32.0883801 L3.05859375,32.0883801 Z M32.0861517,61.1176262 C29.8930143,61.1176262 27.7631342,60.8522602 25.7102542,60.3888332 C23.9612411,59.7219779 22.7402344,58.0403186 22.7402344,56.083726 C22.7402344,53.7901791 24.4507474,51.8225923 26.660376,51.5187067 C26.9037547,51.492605 32.7035372,50.8944815 37.4651815,49.6418401 C46.5746012,47.2506924 56.2505291,38.3723389 56.242283,26.6394137 C56.2381496,20.5563854 54.7944084,15.3355037 52.1392702,11.1445312 C57.6599225,16.4328033 61.1166992,23.8550825 61.1166992,32.0857973 C61.1180442,48.0963876 48.1022243,61.1176262 32.0861517,61.1176262 L32.0861517,61.1176262 Z" id="logo-perlin_svg__Shape" fill="#41474E"></path><g class="logo-perlin_svg__logo-name" transform="translate(84.96 18.404)" fill="#41474E"><g id="logo-perlin_svg__Shape"><path d="M15.3244364.761773658C16.6375702 1.2650629 17.579447 2.14365804 18.1541989 3.37431238 18.7289507 4.61184838 19.0135784 6.3759205 19.0135784 8.66535345 19.0135784 10.9588991 18.7426931 12.7175157 18.1899499 13.9605072 17.646817 15.1925039 16.7558196 16.0643011 15.5196854 16.5757311 14.2849362 17.0790196 12.5689253 17.3347346 10.3881672 17.3347346 8.4617806 17.3347346 6.62338889 17.2315936 4.8771456 17.0198541L4.8771456 27.2910843 0 27.2910843 0 .350632395C1.48500998.193863296 2.87101083.0990297353 4.15802352.0549698918 5.44778473.0205612579 7.3205437 0 9.75980923 0 12.1495587.0027694756 14.0113026.25294543 15.3244364.761773658L15.3244364.761773658zM12.3385492 12.9234557C12.9641802 12.660859 13.4124379 12.1988599 13.6846867 11.5346893 13.9514383 10.8747149 14.0930595 9.91353952 14.0930595 8.66509337 14.0930595 7.41799018 13.9514383 6.45958387 13.6846867 5.79684016 13.4138016 5.13132686 12.9655648 4.67075468 12.3385492 4.41084363 11.7129187 4.15235926 10.8205367 4.01757813 9.64077817 4.01757813 7.38027089 4.01757813 5.78525806 4.03134158 4.875 4.05609901L4.875 13.3511295 9.64077817 13.3511295C10.819173 13.327715 11.7129187 13.18194 12.3385492 12.9234557L12.3385492 12.9234557zM42.9877651 23.3477787L43.2187653 27.0506517C41.649873 27.1867753 39.9586205 27.26516 38.1422365 27.3091364 36.3217206 27.344887 34.0557154 27.3641052 31.3428167 27.3641052 29.578676 27.3641052 28.1830446 26.9089884 27.1559225 26.0000968 26.1219187 25.085751 25.6035425 23.8413321 25.5664062 22.2518213L25.5664062 5.38604972C25.6035215 3.79376937 26.1219187 2.5466658 27.1559225 1.63643157 28.1830446.720658241 29.578676.266967773 31.3428167.266967773 34.0584642.266967773 36.3217206.286186257 38.1422365.328819401 39.9586205.365913589 41.6526212.452606572 43.2187653.581848776L42.9877651 4.33146708 32.4359658 4.33146708C31.7347194 4.33146708 31.2383317 4.50468537 30.9344645 4.83886846 30.6360944 5.17850701 30.4807094 5.76152364 30.4807094 6.59203084L30.4807094 11.3179312 41.5398904 11.3179312 41.5398904 15.0675496 30.4807094 15.0675496 30.4807094 21.080417C30.4807094 21.9150358 30.6360944 22.4980521 30.9344645 22.8349215 31.2383317 23.1745609 31.7347194 23.3450088 32.4359658 23.3450088L42.9877651 23.3477787 42.9877651 23.3477787 42.9877651 23.3477787zM70.4680691 27.2910843L65.2719123 27.2910843 63.1255206 18.9338134C62.8670158 18.0772061 62.4847643 17.4584383 61.9952583 17.0789366 61.5016401 16.7035471 60.8388731 16.5096832 60.0111332 16.5096832L55.1642457 16.5096832 55.1642457 27.2910843 50.3242188 27.2910843 50.3242188.350632395C51.7748401.193863296 53.1677219.0990297353 54.4808551.0549698918 55.7939883.0205612579 57.6749911 0 60.1183882 0 62.411897 0 64.2241454.233726946 65.5757783.698495325 66.9122852 1.1714882 67.9036544 1.97723776 68.5320331 3.12396847 69.174175 4.26658694 69.4931695 5.85475526 69.4931695 7.88562044 69.4931695 9.96734281 69.099903 11.5609658 68.3189087 12.6692596 67.5420267 13.7775534 66.2536509 14.4416403 64.4510126 14.6781362L64.4510126 14.8747703C65.230643 15.0576395 65.9580095 15.4756626 66.6427643 16.1246426 67.3192513 16.7777349 67.786749 17.6838565 68.0425067 18.8540022L70.4680691 27.2910843 70.4680691 27.2910843zM62.7334532 12.0820381C63.3810712 11.8373171 63.8513375 11.4096432 64.1263343 10.7923017 64.3958338 10.1831853 64.5360918 9.31692688 64.5360918 8.19629651 64.5360918 7.0784356 64.3958338 6.2190592 64.1263343 5.61950973 63.8513375 5.01861751 63.3810712 4.60890305 62.7334532 4.37097994 62.0817019 4.13448355 61.1700812 4.01757812 60.0109481 4.01757812L55.1640625 4.01757812 55.1640625 12.4917526 60.0109481 12.4917526C61.1728296 12.468422 62.0844503 12.3281855 62.7334532 12.0820381L62.7334532 12.0820381zM82.0189502 21.0031914C82.0189502 21.8378098 82.1935957 22.4139447 82.5318089 22.7425896 82.8672938 23.0656951 83.470958 23.2306891 84.3275678 23.2306891L93.7009735 23.2306891 93.8866119 27.0147154C91.3456105 27.2484424 87.7788498 27.3666916 83.200052 27.3666916 79.1616394 27.3666916 77.1445312 25.5062745 77.1445312 21.7828413L77.1445312.350708008 82.021678.350708008 82.0189502 21.0031914 82.0189502 21.0031914 82.0189502 21.0031914zM104.780502 27.2911606L99.8964844 27.2911606 99.8964844.350708008 104.780502.350708008 104.780502 27.2911606 104.780502 27.2911606zM135.037811 25.4955253C135.037811 26.6917704 134.435576 27.2940063 133.246168 27.2940063L129.379638 27.2940063C128.850247 27.2940063 128.436378 27.1771004 128.128378 26.9379185 127.813497 26.7027657 127.550858 26.330144 127.341887 25.810407L119.773863 9.29249778C119.487851 8.69571773 119.174354 8.00964352 118.85536 7.24375771 118.529485 6.47652861 118.301212 5.82066648 118.177467 5.27197485L117.700361 5.27197485C117.855746 6.36507852 117.936858 7.71532393 117.936858 9.33101894L117.936858 27.2926639 113.136719 27.2926639 113.136719 2.15077573C113.136719 1.5759836 113.293488 1.13186038 113.601488.818406062 113.919097.504867855 114.3756.352294922 114.976493.352294922L118.753645.352294922C119.284378.352294922 119.684526.46777366 119.988414.700157858 120.278538.936654265 120.549401 1.31615638 120.788668 1.83455183L128.128463 17.8808105 128.754071 19.3273162C129.167941 20.1578223 129.58458 21.0969272 129.999834 22.1391728L130.472827 22.1391728C130.335318 20.4988039 130.276194 19.0413045 130.276194 17.762562L130.276194.352294922 135.035084.352294922 135.037811 25.4955253 135.037811 25.4955253 135.037811 25.4955253z"></path></g></g></g></g></g></svg>