<?xml version="1.0" encoding="utf-8"?>
<!-- Generator: Adobe Illustrator 24.0.0, SVG Export Plug-In . SVG Version: 6.00 Build 0)  -->
<svg version="1.1" id="Layer_1" xmlns="http://www.w3.org/2000/svg" xmlns:xlink="http://www.w3.org/1999/xlink" x="0px" y="0px"
	 viewBox="0 0 360 187.8" style="enable-background:new 0 0 360 187.8;" xml:space="preserve">
<g transform="matrix(2.89792 0 0 2.89792 100.052 105.682)">
	<path d="M83.2,0.7h2.9v-12h-2.9V0.7z M80.1-10H88c0.6,0,0.8,0,1.3-0.2c0.2-0.2,0.4-0.6,0.4-1v-0.6c0-0.2,0-0.4-0.2-0.6h-9.4V-10z
		 M78.2-12.5h-1c-0.6,0-1,0.2-1.3,0.4c-0.2,0.2-0.4,0.6-0.4,1.5v6.5c0,0.6,0,1.3,0.2,1.9h-0.2l-0.8,3.1h2.7c0.4,0,0.6,0,0.8-0.2
		V-12.5z M74.9,0.7L77.4-1l-1.5-1.7c-0.2-0.4-0.4-0.8-0.6-1.3c-0.2-0.4-0.4-1-0.6-1.7l-3.1-7.1l-2.3,1.9l1.5,1.7
		c0.2,0.4,0.2,0.8,0.4,1.3c0.2,0.4,0.4,1,0.6,1.5L74.9,0.7z M68,0.7h2.7v-8.2c0-0.6,0-1.3-0.2-1.9h0.2l0.8-3.4h-2.7
		c-0.4,0-0.6,0-0.8,0.2V0.7z M56.4-2h7.9l-0.8-2.3h-6.3L56.4-2z M54.5,0.5c0.2,0.2,0.4,0.2,0.8,0.2h2.1l2.1-6.9c0-0.4,0.2-0.6,0.4-1
		s0.2-0.8,0.4-1.3c0-0.4,0.2-0.8,0.2-1.3h0.2c0.2,0.6,0.4,1.3,0.6,2.1C61.6-7,61.8-6.4,62-5.8l1.5,5.2c0.2,0.6,0.4,1,0.6,1.3
		c0.2,0.2,0.6,0.4,1,0.4h0.8c0.4,0,0.6-0.2,0.8-0.2l-4.2-13h-3.3L54.5,0.5z M53.2-12.5h-2.9v8.4c0,0.8-0.2,1.7-0.4,2.1
		c-0.4,0.4-0.8,0.6-1.7,0.6c-0.8,0-1.5-0.2-1.7-0.6c-0.4-0.4-0.4-1-0.4-2.1v-6.7c0-0.6-0.2-1-0.4-1.5c-0.2-0.2-0.6-0.4-1.3-0.4h-1
		l-0.2,0.2v8.4c0,1,0.2,2.1,0.6,2.7c0.4,0.8,1,1.3,1.7,1.7c0.8,0.4,1.7,0.6,2.7,0.6s2.1-0.2,2.7-0.6c0.8-0.4,1.5-1,1.7-1.7
		c0.4-0.8,0.6-1.7,0.6-2.7V-12.5z"/>
	<path d="M-21-32.6l16.5,19.3l11-6.5c0,0-13.3-17.8-16.9-16.6C-13.7-35.1-21-32.6-21-32.6z"/>
	<path d="M7-19.8c0,0,2.5-4.4,3.8-10.3c0,0,12.5,5,7.7,17.6L7-19.8z"/>
	<path d="M18.4-12.5l1,13.2l4.8-0.6c0,0,1.3-0.4,1-2.7c-0.2-2.5-0.6-7.8-0.6-7.8s0.2-1.3-2.7-1.7C18.4-12.7,18.4-12.5,18.4-12.5z"/>
	<path d="M19.5,0.7L9.9,8.5l4.4,8.6c0,0,1,3.4,4.2-0.4c2.9-3.8,4.2-4.4,4-6.7C22.2,7.6,21.6,2.2,19.5,0.7L19.5,0.7z"/>
	<path d="M9.7,8.5L-3.5,2.6l-11.5,23.3c0,0-0.8,1.7,2.1,1.9c2.9,0.4,7.7,1.5,10.2-1C-0.1,24.4,9.7,8.5,9.7,8.5z"/>
	<path d="M-3.5,2.4l-1.3-15.5L-33-11.2c0,0-1.7,0.2-1.5,3.4c0.2,4.2,0.6,8.8,0.6,8.8s-0.2,1.9,3.5,2.1C-26.6,3.2-3.9,3.2-3.5,2.4
		L-3.5,2.4z"/>
	<path d="M40.9-6c0-1-0.2-1.9-0.4-2.7c-0.2-0.8-0.6-1.5-1-2.1c-0.4-0.6-1-1-1.7-1.5c-0.6-0.4-1.5-0.4-2.5-0.4
		c-1.3,0-2.3,0.2-3.1,0.8c-0.8,0.6-1.5,1.5-1.9,2.3c-0.4,1-0.6,2.3-0.6,3.6c0,1,0.2,1.9,0.4,2.7s0.6,1.5,1,2.1s1,1,1.7,1.5
		c0.6,0.4,1.5,0.4,2.5,0.4h0.8c-0.4-0.6-1-1.5-1.5-2.3c-0.2,0-0.4-0.2-0.6-0.4c-0.4-0.2-0.6-0.6-0.8-1c-0.2-0.4-0.2-1-0.4-1.5v-3.4
		c0-0.6,0.2-1,0.4-1.5c0.2-0.4,0.4-0.8,0.8-1s0.8-0.4,1.5-0.4c0.6,0,1,0.2,1.5,0.4c0.4,0.2,0.6,0.6,0.8,1s0.2,1,0.4,1.5v3.4L39.9-1
		c0.4-0.4,0.6-0.8,0.8-1.5C40.7-3.3,40.9-4.5,40.9-6z"/>
	<path d="M34.5-3.5L37.4-5l2.5,5.5c0,0,0.2,0.4-0.4,0.4c-0.6,0-1.7,0.4-2.3-0.2C36.6,0.3,34.5-3.5,34.5-3.5z"/>
</g>
</svg>
