<?xml version="1.0" encoding="utf-8"?>
<!-- Generator: Adobe Illustrator 24.0.0, SVG Export Plug-In . SVG Version: 6.00 Build 0)  -->
<svg version="1.1" id="Layer_1" xmlns="http://www.w3.org/2000/svg" xmlns:xlink="http://www.w3.org/1999/xlink" x="0px" y="0px"
	 viewBox="0 0 876.5 317" style="enable-background:new 0 0 876.5 317;" xml:space="preserve">
<style type="text/css">
	.st0{fill:#0D285A;}
	.st1{fill:#00B5D1;}
</style>
<g id="XMLID_1_">
	<g id="XMLID_3_">
		<path id="XMLID_25_" class="st0" d="M413.5,161.6c5.1-7.8,7.6-16.7,7.6-26.4c0-8.5-1.9-16.3-5.7-23.5c-3.8-7.2-9.8-12.9-17.8-17.4
			c-8.1-4.5-18-6.6-29.9-6.6H312v148h30v-53h19.6l31.6,53H424l-33.5-57.2C400.7,175,408.4,169.4,413.5,161.6z M384.1,153
			c-5.7,3.5-12.7,5.6-20.9,5.6H342v-45h21.2c8.3,0,15.3,1.3,21,4.6s8.5,9.1,8.5,17.3C392.7,143.7,389.9,149.6,384.1,153z"/>
		<path id="XMLID_28_" class="st0" d="M483.1,87.6l-53.5,148h29.7l11.9-36h50.9l12.1,36h29.7l-53.2-148H483.1z M478.6,176.6l17.2-53
			h1.3l17.6,53H478.6z"/>
		<polygon id="XMLID_29_" class="st0" points="661.5,178.6 660.9,178.6 628,87.6 584,87.6 584,235.6 613,235.6 613,129.6 
			614.2,129.6 651.7,235.6 670.8,235.6 708.2,129.6 709,129.6 709,235.6 738,235.6 738,87.6 694.4,87.6 		"/>
		<path id="XMLID_32_" class="st0" d="M870.8,113.3c-3.8-7.7-9.7-13.9-17.8-18.7s-18-7-29.9-7H768v148h29v-47h26.1
			c12,0,22.1-2.4,30.1-7.1c8.1-4.7,14-10.8,17.7-18.4s5.6-15.8,5.6-24.7C876.6,129.5,874.7,121.1,870.8,113.3z M839.7,158.5
			c-5.7,4-12.7,6.1-21,6.1H797v-51h21.7c8.5,0,15.5,1.6,21.1,5.4c5.6,3.7,8.4,10.3,8.4,19.6C848.1,147.9,845.3,154.5,839.7,158.5z"
			/>
	</g>
</g>
<g id="XMLID_689_">
	<g id="XMLID_435_">
		<g id="XMLID_4_">
			<polygon id="XMLID_11_" class="st1" points="178,183.1 136,207.6 94,183.1 94,134 136,109.4 178,134 			"/>
		</g>
		<path id="XMLID_14_" class="st0" d="M136.5,0L0,79.3v158.4L136.5,317L273,237.7V79.3L136.5,0z M70,196.9v-77.2l66-38.5l66,38.5
			v77.2l-66,38.5L70,196.9z M70,241.4v-26.8l89.3,52.2l-22.8,13.3L70,241.4z M241,219.3L174.5,258l-23.6-13.8l66.2-38.7v-94.4
			l-81-47.3l-81,47.3v3.4v91v27.2l-23-13.4V97.7L136.6,37L241,97.7V219.3z"/>
	</g>
</g>
</svg>
