<?xml version="1.0" encoding="utf-8"?>
<!-- Generator: Adobe Illustrator 24.0.0, SVG Export Plug-In . SVG Version: 6.00 Build 0)  -->
<svg version="1.1" id="Layer_1" xmlns="http://www.w3.org/2000/svg" xmlns:xlink="http://www.w3.org/1999/xlink" x="0px" y="0px"
	 viewBox="0 0 159.5 48.7" style="enable-background:new 0 0 159.5 48.7;" xml:space="preserve">
<style type="text/css">
	.st0{fill:url(#SVGID_1_);}
	.st1{fill:url(#SVGID_2_);}
	.st2{fill:url(#SVGID_3_);}
	.st3{fill:#282828;}
</style>
<linearGradient id="SVGID_1_" gradientUnits="userSpaceOnUse" x1="21.4506" y1="9.925" x2="21.4506" y2="44.3876" gradientTransform="matrix(1 0 0 -1 0 50.05)">
	<stop  offset="0" style="stop-color:#05AAC5"/>
	<stop  offset="1" style="stop-color:#71E0EC"/>
</linearGradient>
<path class="st0" d="M21.5,40.1c-7.4,0-13.4-6-13.4-13.4c0-7.2,12.1-19.9,12.6-20.4l0.6-0.7l0.6,0.7c0.5,0.5,12.9,13.2,12.9,20.4
	C34.9,34.1,28.9,40.1,21.5,40.1z M21.4,8.2c-1.1,1.2-3.3,3.6-5.5,6.6c-3.9,5.2-6,9.3-6,11.9c0,6.4,5.2,11.6,11.6,11.6
	s11.6-5.2,11.6-11.6c0-2.6-2.1-6.7-6.1-11.9C24.8,11.9,22.5,9.4,21.4,8.2z"/>
<linearGradient id="SVGID_2_" gradientUnits="userSpaceOnUse" x1="21.55" y1="5.625" x2="21.55" y2="47.1541" gradientTransform="matrix(1 0 0 -1 0 50.05)">
	<stop  offset="0" style="stop-color:#05AAC5"/>
	<stop  offset="1" style="stop-color:#71E0EC"/>
</linearGradient>
<path class="st1" d="M21.5,44.4c-9.8,0-17.7-7.9-17.7-17.7c0-9.5,13.3-22.8,13.9-23.4C18.1,3,18.6,3,19,3.3c0.3,0.4,0.3,0.9,0,1.3
	C18.8,4.7,5.6,17.9,5.6,26.7s7.1,15.9,15.9,15.9s15.9-7.1,15.9-15.9c0-3.6-2.3-8.6-6.7-14.4c-3.4-4.5-6.8-7.9-6.8-7.9
	c-0.4-0.3-0.4-0.9,0-1.3c0.3-0.4,0.9-0.4,1.3,0c0.6,0.6,14.1,14.1,14.1,23.6C39.2,36.5,31.3,44.4,21.5,44.4z"/>
<linearGradient id="SVGID_3_" gradientUnits="userSpaceOnUse" x1="21.5" y1="1.325" x2="21.5" y2="50.0008" gradientTransform="matrix(1 0 0 -1 0 50.05)">
	<stop  offset="0" style="stop-color:#05AAC5"/>
	<stop  offset="1" style="stop-color:#71E0EC"/>
</linearGradient>
<path class="st2" d="M21.5,48.7C9.7,48.7,0,39,0,27.2c0-4.9,2.5-10.9,7.3-17.9c3.6-5.1,7.1-8.8,7.3-9c0.3-0.4,0.9-0.4,1.3,0
	c0.4,0.3,0.4,0.9,0,1.3c0,0-3.6,3.7-7.1,8.8c-4.6,6.6-7,12.4-7,16.9C1.8,38.2,10.7,47,21.5,47s19.7-9,19.7-19.8
	c0-4.5-2.4-10.3-7-16.9c-3.5-5-7.1-8.7-7.1-8.8c-0.3-0.4-0.3-0.9,0-1.3c0.4-0.3,0.9-0.3,1.3,0C28.9,0.9,43,15.5,43,27.2
	C43,39,33.4,48.7,21.5,48.7z"/>
<g>
	<path class="st3" d="M52.3,31.5l4.3-0.4c0.3,1.4,0.8,2.5,1.6,3.2s1.9,1,3.2,1c1.4,0,2.5-0.3,3.2-0.9c0.7-0.6,1.1-1.3,1.1-2.1
		c0-0.5-0.2-1-0.5-1.3c-0.3-0.4-0.8-0.7-1.6-0.9c-0.5-0.2-1.7-0.5-3.5-1c-2.4-0.6-4-1.3-5-2.2c-1.3-1.2-2-2.7-2-4.4
		c0-1.1,0.3-2.2,0.9-3.1s1.5-1.7,2.7-2.2s2.6-0.8,4.3-0.8c2.8,0,4.8,0.6,6.2,1.8s2.1,2.8,2.2,4.8L65,23.2c-0.2-1.1-0.6-1.9-1.2-2.4
		S62.3,20,61,20s-2.3,0.3-3,0.8c-0.5,0.3-0.7,0.8-0.7,1.4c0,0.5,0.2,1,0.7,1.3c0.6,0.5,1.9,1,4.1,1.5s3.7,1,4.8,1.6
		c1,0.5,1.8,1.3,2.4,2.2s0.9,2.1,0.9,3.5c0,1.3-0.3,2.4-1,3.5s-1.7,1.9-3,2.4S63.3,39,61.4,39c-2.8,0-4.9-0.6-6.4-1.9
		S52.6,34,52.3,31.5z"/>
	<path class="st3" d="M73.8,38.7v-22H90v3.7H78.2v4.9h11V29h-11v6h12.2v3.7H73.8z"/>
	<path class="st3" d="M94.3,38.7v-22h9.3c2.3,0,4,0.2,5.1,0.6s1.9,1.1,2.5,2.1s1,2.2,1,3.5c0,1.6-0.5,3-1.5,4.1s-2.4,1.7-4.3,2
		c1,0.6,1.7,1.2,2.4,1.8c0.6,0.7,1.5,1.9,2.5,3.6l2.7,4.3h-5.3l-3.2-4.8c-1.1-1.7-1.9-2.8-2.3-3.2s-0.9-0.7-1.3-0.9
		c-0.5-0.2-1.2-0.2-2.2-0.2h-0.9v9.1H94.3z M98.7,26h3.3c2.1,0,3.4-0.1,4-0.3c0.5-0.2,0.9-0.5,1.2-0.9s0.4-1,0.4-1.6
		c0-0.7-0.2-1.3-0.6-1.8s-0.9-0.7-1.7-0.9c-0.4,0-1.4-0.1-3.2-0.1h-3.5L98.7,26L98.7,26z"/>
	<path class="st3" d="M116.3,16.7h4.4v11.9c0,1.9,0.1,3.1,0.2,3.7c0.2,0.9,0.6,1.6,1.4,2.2c0.7,0.5,1.7,0.8,2.9,0.8
		c1.3,0,2.2-0.3,2.8-0.8c0.6-0.5,1-1.1,1.2-1.9c0.1-0.7,0.2-2,0.2-3.7V16.7h4.4v11.5c0,2.6-0.1,4.5-0.4,5.6c-0.2,1.1-0.7,2-1.3,2.8
		c-0.6,0.7-1.5,1.3-2.6,1.8s-2.5,0.7-4.2,0.7c-2.1,0-3.7-0.2-4.8-0.7s-1.9-1.1-2.6-1.9c-0.6-0.8-1-1.6-1.2-2.4
		c-0.3-1.3-0.4-3.1-0.4-5.6L116.3,16.7z"/>
	<path class="st3" d="M138.4,38.7v-22h6.6l4,14.9l3.9-14.9h6.6v21.9h-4.1V21.4l-4.3,17.3h-4.3l-4.3-17.3v17.3L138.4,38.7z"/>
</g>
</svg>
