<svg width="61" height="32" viewBox="0 0 61 32" fill="none" xmlns="http://www.w3.org/2000/svg">
<path d="M39.4979 12.3047C39.3879 11.3756 38.9416 10.6543 38.1592 10.1409C37.3768 9.6274 36.4171 9.37067 35.2802 9.37067C34.4489 9.37067 33.7215 9.50515 33.098 9.7741C32.4806 10.0431 31.9977 10.4129 31.6493 10.8835C31.307 11.3542 31.1359 11.8891 31.1359 12.4881C31.1359 12.9893 31.2551 13.4203 31.4935 13.7809C31.738 14.1354 32.0497 14.4319 32.4287 14.6703C32.8077 14.9026 33.205 15.0951 33.6206 15.2479C34.0363 15.3946 34.4183 15.5138 34.7667 15.6055L36.6739 16.119C37.1629 16.2473 37.7069 16.4246 38.3059 16.6508C38.9111 16.8769 39.4887 17.1856 40.0389 17.5768C40.5951 17.9619 41.0535 18.457 41.4142 19.0622C41.7748 19.6673 41.9551 20.41 41.9551 21.2902C41.9551 22.3049 41.6892 23.2218 41.1575 24.0409C40.6318 24.86 39.8616 25.511 38.8469 25.9939C37.8383 26.4768 36.6127 26.7182 35.1702 26.7182C33.8254 26.7182 32.661 26.5012 31.6768 26.0672C30.6988 25.6332 29.9286 25.0281 29.3663 24.2518C28.81 23.4755 28.4952 22.5739 28.4219 21.5469H30.7691C30.8302 22.256 31.0686 22.8428 31.4843 23.3074C31.9061 23.7658 32.4378 24.1081 33.0797 24.3343C33.7276 24.5543 34.4244 24.6644 35.1702 24.6644C36.0382 24.6644 36.8175 24.5238 37.5082 24.2426C38.199 23.9553 38.746 23.558 39.1495 23.0506C39.5529 22.5372 39.7546 21.9382 39.7546 21.2535C39.7546 20.6301 39.5804 20.1227 39.232 19.7315C38.8836 19.3403 38.4251 19.0224 37.8567 18.7779C37.2882 18.5334 36.6739 18.3195 36.0137 18.1361L33.7032 17.476C32.2361 17.0542 31.0747 16.4521 30.219 15.6697C29.3632 14.8873 28.9353 13.8634 28.9353 12.5981C28.9353 11.5468 29.2196 10.6299 29.788 9.84745C30.3626 9.05893 31.1328 8.44767 32.0986 8.01368C33.0705 7.57357 34.1555 7.35352 35.3536 7.35352C36.5638 7.35352 37.6397 7.57051 38.581 8.00451C39.5223 8.43239 40.2681 9.0192 40.8182 9.76493C41.3745 10.5107 41.6679 11.3573 41.6984 12.3047H39.4979Z" fill="#011829"/>
<path d="M52.7267 20.6301V12.3047H54.8905V26.3881H52.7267V24.0042H52.58C52.2499 24.7194 51.7364 25.3276 51.0396 25.8288C50.3427 26.3239 49.4625 26.5715 48.3989 26.5715C47.5187 26.5715 46.7363 26.379 46.0517 25.9939C45.3671 25.6027 44.8292 25.0158 44.438 24.2334C44.0468 23.4449 43.8512 22.4516 43.8512 21.2535V12.3047H46.015V21.1068C46.015 22.1338 46.3023 22.9528 46.8769 23.5641C47.4576 24.1754 48.1972 24.481 49.0958 24.481C49.6337 24.481 50.1808 24.3435 50.737 24.0684C51.2994 23.7933 51.77 23.3716 52.149 22.8031C52.5341 22.2346 52.7267 21.5103 52.7267 20.6301Z" fill="#011829"/>
<path d="M57.3046 26.3881V12.3047H59.4684V26.3881H57.3046ZM58.4049 9.95748C57.9831 9.95748 57.6194 9.81383 57.3138 9.52654C57.0142 9.23925 56.8645 8.89389 56.8645 8.49046C56.8645 8.08703 57.0142 7.74167 57.3138 7.45437C57.6194 7.16708 57.9831 7.02344 58.4049 7.02344C58.8266 7.02344 59.1873 7.16708 59.4868 7.45437C59.7924 7.74167 59.9452 8.08703 59.9452 8.49046C59.9452 8.89389 59.7924 9.23925 59.4868 9.52654C59.1873 9.81383 58.8266 9.95748 58.4049 9.95748Z" fill="#011829"/>
<path fill-rule="evenodd" clip-rule="evenodd" d="M39.352 12.4634L39.3352 12.321C39.2307 11.4392 38.8108 10.7604 38.0682 10.2731C37.3173 9.78028 36.39 9.52935 35.2777 9.52935C34.4637 9.52935 33.759 9.66102 33.1597 9.91947C32.5647 10.1787 32.1061 10.5319 31.777 10.9763C31.4556 11.4184 31.2948 11.9196 31.2948 12.4854C31.2948 12.9595 31.407 13.3579 31.6247 13.6879C31.856 14.0229 32.151 14.3037 32.5113 14.5305C32.8808 14.7568 33.2679 14.9445 33.6729 15.0934C34.0849 15.2388 34.4623 15.3565 34.8053 15.4468L34.8062 15.447L36.7124 15.9602C36.7125 15.9602 36.7127 15.9603 36.7128 15.9603C37.2083 16.0904 37.7575 16.2695 38.3602 16.497C38.9787 16.7282 39.5683 17.0434 40.1291 17.442C40.7047 17.8407 41.1785 18.353 41.5503 18.9769C41.9292 19.6125 42.114 20.3854 42.114 21.2875C42.114 22.3319 41.8399 23.2794 41.2906 24.1256C40.7464 24.9735 39.9514 25.643 38.9141 26.1367C37.8784 26.6326 36.6276 26.8769 35.1677 26.8769C33.8059 26.8769 32.6183 26.6572 31.6092 26.2122L31.6089 26.212C30.608 25.7679 29.8141 25.1457 29.2331 24.3437L29.2326 24.3431C28.6577 23.5407 28.3337 22.61 28.2584 21.5558L28.2461 21.3829H30.9147L30.9274 21.5304C30.9859 22.2094 31.2127 22.7615 31.6014 23.1963C32.0033 23.6329 32.5115 23.961 33.13 24.1791C33.7595 24.3928 34.4384 24.5003 35.1677 24.5003C36.0179 24.5003 36.7759 24.3627 37.4442 24.0908C38.1133 23.8124 38.6366 23.4304 39.0205 22.9477C39.4002 22.4643 39.5908 21.901 39.5908 21.2509C39.5908 20.659 39.4263 20.1924 39.109 19.8361C38.7789 19.4655 38.3411 19.1604 37.7904 18.9235C37.2293 18.6822 36.6219 18.4706 35.968 18.2889L35.9669 18.2886L33.6563 17.6284L33.6561 17.6284C32.1724 17.2018 30.9866 16.5898 30.1076 15.7861C29.2152 14.9701 28.7715 13.9014 28.7715 12.5954C28.7715 11.5131 29.0647 10.5623 29.655 9.74991L29.6551 9.74973C30.2476 8.93667 31.0407 8.30837 32.0298 7.86389C33.025 7.41327 34.133 7.18945 35.3511 7.18945C36.5807 7.18945 37.68 7.40994 38.6457 7.85509C39.6088 8.29293 40.3772 8.89604 40.9454 9.66613C41.5216 10.4388 41.8256 11.3172 41.8572 12.2968L41.8626 12.4634H39.352ZM40.8157 9.76224C40.2656 9.01651 39.5199 8.4297 38.5785 8.00182C37.6372 7.56782 36.5614 7.35083 35.3511 7.35083C34.153 7.35083 33.068 7.57088 32.0961 8.01099C31.1303 8.44498 30.3602 9.05624 29.7856 9.84476C29.2171 10.6272 28.9329 11.5441 28.9329 12.5954C28.9329 13.8607 29.3607 14.8846 30.2165 15.667C31.0723 16.4494 32.2337 17.0515 33.7007 17.4733L36.0112 18.1334C36.6714 18.3168 37.2857 18.5308 37.8542 18.7753C38.4227 19.0198 38.8811 19.3376 39.2295 19.7288C39.5779 20.12 39.7521 20.6274 39.7521 21.2509C39.7521 21.9355 39.5504 22.5345 39.147 23.048C38.7436 23.5553 38.1965 23.9526 37.5058 24.2399C36.815 24.5211 36.0357 24.6617 35.1677 24.6617C34.422 24.6617 33.7251 24.5517 33.0772 24.3316C32.4354 24.1054 31.9036 23.7631 31.4818 23.3047C31.0662 22.8401 30.8278 22.2533 30.7666 21.5443H28.4194C28.4233 21.5984 28.4278 21.6522 28.433 21.7056C28.5266 22.6659 28.8369 23.5137 29.3638 24.2491C29.9262 25.0254 30.6963 25.6305 31.6744 26.0645C32.6585 26.4985 33.8229 26.7155 35.1677 26.7155C36.6103 26.7155 37.8358 26.4741 38.8444 25.9912C39.8591 25.5083 40.6293 24.8573 41.155 24.0382C41.6868 23.2191 41.9527 22.3022 41.9527 21.2875C41.9527 20.4073 41.7724 19.6646 41.4117 19.0595C41.0511 18.4543 40.5926 17.9592 40.0364 17.5741C39.4862 17.1829 38.9086 16.8742 38.3035 16.6481C37.7044 16.4219 37.1604 16.2446 36.6714 16.1163L34.7643 15.6028C34.4159 15.5111 34.0338 15.3919 33.6182 15.2452C33.2025 15.0924 32.8052 14.8999 32.4262 14.6676C32.0472 14.4292 31.7355 14.1327 31.491 13.7782C31.2526 13.4176 31.1334 12.9866 31.1334 12.4854C31.1334 11.8864 31.3045 11.3515 31.6469 10.8808C31.9953 10.4102 32.4782 10.0404 33.0955 9.77141C33.719 9.50246 34.4464 9.36798 35.2777 9.36798C36.4147 9.36798 37.3743 9.62471 38.1568 10.1382C38.9392 10.6516 39.3854 11.3729 39.4954 12.302H41.6959C41.6942 12.2479 41.6916 12.1941 41.6881 12.1407C41.631 11.2582 41.3402 10.4654 40.8157 9.76224ZM52.5628 12.1407H55.0494V26.5468H52.5628V24.3853C52.2228 24.9921 51.7446 25.516 51.1313 25.9571L51.1306 25.9577C50.4004 26.4765 49.4853 26.7302 48.3965 26.7302C47.492 26.7302 46.6817 26.5321 45.9701 26.1318L45.9692 26.1313C45.2539 25.7226 44.695 25.1106 44.2912 24.3029L44.291 24.3025C43.8854 23.4851 43.6873 22.4653 43.6873 21.2509V12.1407H46.1739V21.1042C46.1739 22.0995 46.4515 22.8756 46.9917 23.4505C47.5397 24.0273 48.2359 24.3169 49.0933 24.3169C49.6029 24.3169 50.1256 24.1868 50.663 23.921L50.6636 23.9207C51.198 23.6594 51.6477 23.2578 52.0123 22.7109L52.0129 22.7099C52.3755 22.1748 52.5628 21.4844 52.5628 20.6274V12.1407ZM46.8744 23.5614C46.2999 22.9502 46.0126 22.1311 46.0126 21.1042V12.302H43.8487V21.2509C43.8487 22.4489 44.0443 23.4422 44.4355 24.2307C44.8267 25.0132 45.3646 25.6 46.0492 25.9912C46.7339 26.3763 47.5163 26.5688 48.3965 26.5688C49.4601 26.5688 50.3403 26.3212 51.0371 25.8261C51.7237 25.3323 52.2323 24.7345 52.5628 24.033C52.5677 24.0225 52.5726 24.012 52.5775 24.0015H52.7242V26.3854H54.888V12.302H52.7242V20.6274C52.7242 21.5076 52.5316 22.2319 52.1465 22.8004C51.7676 23.3689 51.2969 23.7906 50.7345 24.0657C50.1783 24.3408 49.6312 24.4783 49.0933 24.4783C48.1948 24.4783 47.4551 24.1727 46.8744 23.5614ZM57.1407 26.5468V12.1407H59.6273V26.5468H57.1407ZM57.2008 9.64143L57.1996 9.64032C56.8694 9.32357 56.7006 8.93657 56.7006 8.48777C56.7006 8.03897 56.8694 7.65196 57.1996 7.33522L57.2008 7.3341C57.5365 7.01851 57.9398 6.85938 58.4024 6.85938C58.8648 6.85938 59.2655 7.01843 59.5955 7.33473C59.9317 7.65104 60.1041 8.03815 60.1041 8.48777C60.1041 8.9374 59.9317 9.32452 59.5955 9.64084C59.2655 9.95712 58.8648 10.1162 58.4024 10.1162C57.9398 10.1162 57.5365 9.95703 57.2008 9.64143ZM59.4843 9.52385C59.7899 9.23656 59.9428 8.8912 59.9428 8.48777C59.9428 8.08434 59.7899 7.73898 59.4843 7.45168C59.1848 7.16439 58.8242 7.02075 58.4024 7.02075C57.9806 7.02075 57.6169 7.16439 57.3113 7.45168C57.0118 7.73898 56.862 8.08434 56.862 8.48777C56.862 8.8912 57.0118 9.23656 57.3113 9.52385C57.6169 9.81114 57.9806 9.95479 58.4024 9.95479C58.8242 9.95479 59.1848 9.81114 59.4843 9.52385ZM57.3021 26.3854H59.466V12.302H57.3021V26.3854Z" fill="#011829"/>
<path fill-rule="evenodd" clip-rule="evenodd" d="M19.497 12.9894L19.4964 12.9907C20.767 14.5839 21.5264 16.6018 21.5264 18.7966C21.5264 21.024 20.7443 23.0693 19.4394 24.6733L19.3271 24.8114L19.2973 24.6359C19.2719 24.4866 19.2422 24.3359 19.2076 24.184C18.5545 21.3147 16.4268 18.8543 12.9249 16.8621C10.5601 15.5205 9.20649 13.905 8.8511 12.0696C8.62158 10.8827 8.79222 9.69055 9.12199 8.66946C9.45165 7.64869 9.94207 6.79344 10.3587 6.27854L10.359 6.27821L11.7212 4.61247C11.9601 4.32035 12.4072 4.32035 12.6461 4.61247L19.497 12.9894ZM21.6517 11.3251L21.6519 11.3245L12.5211 0.159879C12.3468 -0.053293 12.0204 -0.0532931 11.8461 0.159879L2.71522 11.3246L2.71547 11.3252L2.68576 11.3621C1.00551 13.4471 0 16.0968 0 18.9812C0 25.6989 5.45467 31.1449 12.1836 31.1449C18.9126 31.1449 24.3672 25.6989 24.3672 18.9812C24.3672 16.0968 23.3617 13.4471 21.6815 11.3621L21.6517 11.3251ZM4.89996 12.9534L4.90033 12.9529L5.71703 11.9543L5.74171 12.1386C5.76126 12.2847 5.78497 12.4315 5.81309 12.5789C6.34152 15.3515 8.22924 17.6633 11.3853 19.4538C14.1287 21.0152 15.726 22.8106 16.1862 24.7798C16.3782 25.6016 16.4125 26.4101 16.3293 27.117L16.3242 27.1608L16.2846 27.1801C15.0464 27.785 13.6545 28.1245 12.1833 28.1245C7.02345 28.1245 2.84031 23.9484 2.84031 18.7966C2.84031 16.5847 3.61145 14.5523 4.89996 12.9534Z" fill="#011829"/>
</svg>
