<svg width="481" height="136" xmlns="http://www.w3.org/2000/svg" xmlns:xlink="http://www.w3.org/1999/xlink"><defs><path id="a" d="M.33.94h22.418v12.655H.329z"/><path d="M67.851.249a33.727 33.727 0 00-3.942.243c-6.317.75-11.707 3.352-16.223 7.777-3.224 3.16-6.38 6.389-9.575 9.579a668.803 668.803 0 01-4.941 4.879c-1.734 1.7-3.492 3.377-5.215 5.087-1.6 1.585-3.159 3.214-4.756 4.803-2.481 2.469-4.997 4.903-7.463 7.385-1.921 1.934-3.788 3.923-5.684 5.881-1.111 1.148-2.307 2.222-3.34 3.435C2.217 54.593.087 60.746.021 68.931c-.202 3.124 1.099 7.189 2.997 11.051 1.011 2.061 2.389 3.956 3.728 5.836.918 1.288 1.589 1.279 2.819.283.23-.185.431-.406.637-.619 1.196-1.239 2.385-2.485 3.585-3.717 1.739-1.783 3.494-3.547 5.222-5.339 1.81-1.875 3.588-3.781 5.396-5.66.861-.894 1.78-1.735 2.639-2.631 1.85-1.927 3.656-3.896 5.518-5.807 1.817-1.869 3.696-3.674 5.519-5.532 2.038-2.078 4.025-4.205 6.069-6.275 1.877-1.897 3.831-3.72 5.703-5.623 2.458-2.495 4.853-5.049 7.304-7.552 1.494-1.528 3.049-2.995 4.557-4.51 2.051-2.06 4.063-4.156 6.124-6.207 1.763-1.757 3.59-3.452 5.355-5.207 3.954-3.928 7.891-7.875 11.829-11.817.251-.252.487-.522.711-.798.953-1.182 1.033-1.456-.151-2.308-1.871-1.347-3.77-2.736-5.846-3.701C75.978 1.05 72.053.259 68.004.249h-.153zm30.333 24.564c-3.675.139-6.859 1.276-9.252 4.203-.187.227-.42.419-.634.624-2.135 2.057-4.284 4.099-6.402 6.173-2.202 2.159-4.371 4.351-6.563 6.522-1.813 1.797-3.649 3.571-5.452 5.379-1.888 1.889-3.726 3.826-5.624 5.702-1.983 1.959-4.026 3.856-6.018 5.807-2.41 2.365-4.792 4.758-7.187 7.139-4.426 4.398-8.854 8.794-13.279 13.193-5.856 5.823-11.709 11.65-17.572 17.467-1.112 1.105-1.152 1.255.011 2.424 2.807 2.824 5.641 5.621 8.456 8.438 1.726 1.731 3.76 2.914 6.173 3.335 2.301.403 4.624.424 6.89-.226 1.664-.477 3.248-1.159 4.528-2.387 2.315-2.218 4.625-4.438 6.943-6.651 1.631-1.557 3.295-3.08 4.905-4.659 3.217-3.156 6.393-6.356 9.617-9.505 2.633-2.571 5.316-5.091 7.964-7.645 3.631-3.503 7.253-7.016 10.877-10.526 3.413-3.304 6.819-6.616 10.239-9.913 1.497-1.445 2.895-1.292 3.974.424 1.952 3.107 3.046 6.473 2.594 10.161-.379 3.115-1.477 6.03-3.661 8.344-2.522 2.673-5.199 5.2-7.823 7.776-1.863 1.83-3.764 3.621-5.622 5.456-2.405 2.372-4.786 4.766-7.172 7.157-.375.378-.718.792-1.088 1.176-.783.811-1.565 1.621-2.365 2.417-1.768 1.751-3.564 3.476-5.319 5.243-1.879 1.892-3.721 3.819-5.582 5.728-.166.17-.361.31-.532.474-2.003 1.936-4.008 3.869-6.003 5.813-.934.906-1.842 1.839-2.762 2.758-1.593 1.593-3.219 3.153-4.764 4.792-.93.982-.921 1.584.179 2.356 1.89 1.325 3.786 2.714 5.865 3.683 3.812 1.777 7.795 2.529 11.893 2.535h.086a37.752 37.752 0 004.211-.25c5.634-.647 10.519-2.96 14.711-6.621 3.083-2.688 5.852-5.737 8.754-8.632 2.145-2.14 4.279-4.292 6.421-6.434 2.013-2.014 4.032-4.023 6.047-6.036 1.846-1.844 3.677-3.703 5.54-5.529 2.074-2.031 4.203-4.01 6.266-6.052 2.108-2.086 4.209-4.185 6.235-6.35 2.505-2.685 3.715-4.068 4.617-5.401.891-1.311 3.959-6.075 4.749-13.062.398-3.526.059-6.231-.043-6.978-.179-1.302-.948-6.204-4.419-11.549-1.286-1.984-1.95-2.821-5.86-6.679-5.797-5.716-11.583-11.449-17.251-17.291-2.783-2.869-5.99-4.335-9.89-4.335-.2 0-.402.004-.606.012z" id="d"/><linearGradient x1="50%" y1="0%" x2="50%" y2="100%" id="c"><stop stop-color="#FF4920" offset="0%"/><stop stop-color="#FF4920" offset="100%"/></linearGradient></defs><g fill="none" fill-rule="evenodd"><path d="M166.811 55.082c0 1.906 1.048 3.411 3.145 4.517 2.096 1.105 4.65 2.058 7.661 2.858 3.011.801 6.042 1.735 9.091 2.802 3.05 1.067 5.622 2.878 7.72 5.431 2.095 2.555 3.143 5.775 3.143 9.663 0 5.49-2.115 9.796-6.346 12.922-4.23 3.125-9.548 4.688-15.952 4.688-5.64 0-10.482-1.18-14.523-3.545-4.04-2.363-6.975-5.64-8.804-9.834l10.634-6.175c1.982 5.49 6.213 8.233 12.693 8.233 6.48 0 9.72-2.134 9.72-6.403 0-1.83-1.048-3.316-3.145-4.46-2.097-1.143-4.65-2.115-7.662-2.916a123.18 123.18 0 01-9.09-2.802c-3.05-1.067-5.622-2.839-7.719-5.317-2.096-2.477-3.145-5.622-3.145-9.433 0-5.26 2.002-9.492 6.004-12.693 4.002-3.202 8.976-4.803 14.923-4.803 4.726 0 8.938 1.048 12.635 3.144 3.698 2.097 6.538 5.013 8.52 8.748l-10.406 5.832c-1.983-4.345-5.565-6.518-10.749-6.518-2.364 0-4.346.515-5.947 1.544-1.6 1.03-2.4 2.535-2.4 4.517zm107.49-15.78h13.035l-17.953 57.174h-12.12L245.37 57.94l-12.007 38.536h-12.12l-17.954-57.175h13.036l11.091 39.451 12.007-39.45h11.78l11.891 39.45 11.206-39.45zm33.846-10.864c-1.524 1.525-3.354 2.287-5.488 2.287-2.135 0-3.983-.78-5.546-2.344-1.563-1.563-2.344-3.41-2.344-5.546 0-2.134.762-3.983 2.287-5.546 1.524-1.562 3.392-2.344 5.603-2.344s4.078.782 5.603 2.344c1.525 1.563 2.287 3.412 2.287 5.546 0 2.135-.8 4.002-2.402 5.603zm-11.663 68.038h12.35V39.301h-12.35v57.175zm59.004-58.66c7.852 0 14.561 2.915 20.126 8.746 5.565 5.832 8.347 12.941 8.347 21.327 0 8.462-2.782 15.59-8.347 21.383-5.565 5.794-12.274 8.691-20.126 8.691-8.69 0-15.36-3.202-20.01-9.605v30.988h-12.35V39.301h12.35v8.234c4.65-6.48 11.32-9.72 20.01-9.72zm-14.865 43.223c3.431 3.431 7.737 5.146 12.921 5.146 5.184 0 9.492-1.734 12.922-5.203 3.43-3.468 5.146-7.833 5.146-13.093s-1.716-9.624-5.146-13.093c-3.43-3.469-7.738-5.203-12.922-5.203s-9.49 1.734-12.92 5.203c-3.432 3.47-5.146 7.833-5.146 13.093s1.714 9.644 5.145 13.15zm64.265-7.89c.915 4.346 3.011 7.681 6.29 10.006 3.277 2.325 7.28 3.487 12.006 3.487 6.556 0 11.473-2.363 14.751-7.089l10.177 5.946c-5.642 8.31-13.989 12.464-25.043 12.464-9.3 0-16.809-2.839-22.527-8.519-5.717-5.679-8.576-12.864-8.576-21.555 0-8.538 2.821-15.685 8.462-21.44 5.641-5.756 12.883-8.634 21.727-8.634 8.385 0 15.265 2.935 20.64 8.805 5.374 5.87 8.061 12.998 8.061 21.383 0 1.296-.152 3.012-.457 5.146h-45.51zm-.115-10.063h33.62c-.84-4.65-2.765-8.157-5.775-10.52-3.012-2.363-6.537-3.545-10.577-3.545-4.575 0-8.386 1.258-11.436 3.774-3.049 2.516-4.993 5.946-5.832 10.291z" fill="#FF4920"/><g transform="translate(458 83.751)"><mask id="b" fill="#fff"><use xlink:href="#a"/></mask><path d="M9.37.94v1.193H5.481v11.462H4.217V2.133H.33V.94h9.04zm13.378 0v12.655h-1.266V2.856l-4.429 7.413h-.18l-4.43-7.413v10.739h-1.266V.94h1.573l4.213 7.051L21.175.94h1.573z" fill="#FF4920" mask="url(#b)"/></g><use fill="url(#c)" xlink:href="#d" transform="translate(0 -.249)"/></g></svg>