<?xml version="1.0" encoding="utf-8"?>
<!-- Generator: Adobe Illustrator 24.0.0, SVG Export Plug-In . SVG Version: 6.00 Build 0)  -->
<svg version="1.1" id="Layer_1" xmlns="http://www.w3.org/2000/svg" xmlns:xlink="http://www.w3.org/1999/xlink" x="0px" y="0px"
	 viewBox="0 0 321 46" style="enable-background:new 0 0 321 46;" xml:space="preserve">
<style type="text/css">
	.st0{fill-rule:evenodd;clip-rule:evenodd;fill:#063C4F;}
</style>
<title></title>
<path class="st0" d="M298.8,7.9c-8.3,0-12.5,6.3-12.5,15.2v0.6c0.1,5.4,2.4,14.4,12.5,14.4c8.1,0,12.4-6.3,12.4-15.1
	S307.1,7.9,298.8,7.9z M275.7,0.9v7.8h-24.4v9.7h22.5v7.5h-22.5v11.5h25v7.8h-34.6V0.9L275.7,0.9z M211.3,0.9v17.2h18.2V0.9h9.6
	v44.3h-9.6V25.9h-18.2v19.3h-9.6V0.9L211.3,0.9z M155.6,0.9v44.3H147V16.3l-28.8,28.8l-6.8-6.8l28.8-28.8h-28.9V0.9L155.6,0.9z
	 M108.3,0.9v44.3h-9.6V0.9L108.3,0.9z M45.9,0.9L53,31.5h0.1l8-30.6h10.2L79.2,32h0.1l7.2-31.1H96L84.3,45.1h-9.9l-6.8-25.6
	l-1.6-6.4H66l-1.6,6.4l-6.7,25.6h-10L36.3,0.9H45.9z M18.3,0c10.3,0,17.5,4.5,17.9,13.4v0.4L26.8,14c-0.6-4.9-3.8-6.6-8.6-6.6
	c-3.6,0-7.3,1.4-7.3,4.7c0,1.7,0.7,2.7,3.2,3.6c3.6,1.4,13.4,3.4,17.4,5.6c3.7,2,6.2,5.4,6.2,10.7c0,9.5-8,13.9-18.5,13.9
	S0.7,41.1,0,31v-0.4l9.3-0.4c0.4,5.9,4.3,8.3,10,8.3c4.1,0,8.9-1.7,8.9-5.8c0-2.6-1.9-4.1-5.6-5.1l-3.9-1c-4.6-1.2-10.5-3-12.9-5
	c-2.8-2.1-4.3-5.3-4.2-8.8C1.6,5,8.9,0,18.3,0z M298.7,0c14.1,0,22.1,9.8,22.3,22.8v0.4c0,7.7-4.1,22.9-22.2,22.9
	c-12.8,0-22.3-8.4-22.3-22.8C276.5,10.6,284.1,0,298.7,0z M180,0c9.5,0,17.1,4.9,19,14l0.1,0.4l-9.4,1.1c-0.8-4.5-4.8-7.6-9.7-7.6
	c-7.9,0-11.9,5.9-11.9,15s4,15.2,11.8,15.2c5.4,0,8.9-3.4,10.2-9.3l0.1-0.4l9.3,1.4c-2,10.3-9.5,16.2-19.4,16.2
	c-13.4,0-21.6-9.7-21.6-22.7C158.3,10,166.3,0,180,0z"/>
</svg>
