<svg width="608" height="95" viewBox="0 0 608 95" fill="none" xmlns="http://www.w3.org/2000/svg">
<g clip-path="url(#clip0_2083_19688)">
<path d="M559.696 61.1128H550.714V34.8403H559.716C569.107 34.8403 573.376 35.6912 573.376 48.042C573.376 59.4059 569.172 61.1329 559.716 61.1329L559.696 61.1128ZM560.96 70.9864C576.795 70.9864 584.02 65.9967 584.02 48.0621C584.02 28.748 576.07 25.007 560.96 25.007H540.533V70.9864H560.96ZM532.321 60.8056H506.356V25.007H496.175V70.9864H532.301L532.321 60.8056ZM463.81 62.1198C454.088 62.1198 450.342 60.1511 450.342 48.0621C450.342 35.515 454.088 33.8736 463.81 33.8736C473.533 33.8736 477.339 35.5804 477.339 48.0621C477.339 60.1461 473.533 62.1198 463.81 62.1198ZM463.81 71.9732C480.295 71.9732 487.978 66.6513 487.978 48.0621C487.978 28.748 479.57 24.0201 463.81 24.0201C448.051 24.0201 439.703 28.748 439.703 48.0621C439.703 66.6513 447.321 71.9732 463.81 71.9732ZM431.491 70.9662V24.9868H421.315V42.9416H398.32V24.9868H388.139V70.9662H398.32V53.0367H421.315V70.9662H431.491ZM357.789 71.9732C374.54 71.9732 379.202 66.5858 379.202 57.3265C379.202 48.8526 374.671 45.8971 365.668 44.1852L353.081 41.7583C349.013 40.9679 347.497 39.7846 347.497 37.4182C347.497 35.1877 349.209 33.219 357.814 33.219C364.712 33.219 367.884 34.5936 368.256 40.706H378.769C378.306 28.2898 371.806 24.0201 357.683 24.0201C342.115 24.0201 336.924 29.9312 336.924 37.6146C336.924 45.2979 340.67 49.195 348.811 50.8163L362.345 53.5754C365.824 54.2954 368.518 54.7586 368.518 57.9105C368.518 61.0624 366.504 62.7693 357.748 62.7693C350.523 62.7693 347.175 61.0624 346.908 54.8241H335.806C335.937 67.3058 342.442 71.943 357.814 71.943L357.789 71.9732ZM328.384 60.7754H297.792V53.0367H327.664V42.9416H297.792V35.1676H328.002V24.9868H287.611V70.9662H328.339L328.384 60.7754ZM225.535 70.9662V24.9868H215.354V42.9416H192.365V24.9868H182.184V70.9662H192.365V53.0367H215.354V70.9662H225.535ZM174.954 24.9868H133.964V35.1676H149.336V70.9662H159.496V35.1676H174.954V24.9868ZM246.883 44.8901V35.1676H262.21C265.956 35.1676 268.186 37.3981 268.186 40.0918C268.186 42.7855 265.956 44.8901 262.21 44.8901H246.883ZM246.883 55.0708H259.889L268.362 70.9662H280.059L270.402 53.2331C275.724 50.6048 278.352 45.4137 278.352 39.9609C278.352 32.1466 272.813 24.9868 261.993 24.9868H236.703V70.9662H246.883V55.0708Z" fill="#7C47EE"/>
<path d="M92.9741 24.9868H69.9844V32.65H92.9741V24.9868ZM54.658 32.65H46.9947V40.3133H54.658V32.65ZM46.9947 70.9662H54.658V47.9765H46.9947V70.9662ZM62.3212 32.65V40.3133H69.9844V32.65H62.3212ZM62.3212 70.9662H69.9844V47.9765H62.3212V70.9662ZM62.3212 24.9868H54.658V32.65H62.3212V24.9868ZM24 24.9868V32.65H46.9947V24.9868H24ZM92.9792 47.9765V40.3133H69.9844V47.9765H92.9792ZM54.663 40.3133V47.9765H62.3212V40.3133H54.663ZM24.005 40.3133V47.9765H46.9998V40.3133H24.005Z" fill="#7C47EE"/>
</g>
<defs>
<clipPath id="clip0_2083_19688">
<rect width="560" height="47.9531" fill="white" transform="translate(24 24)"/>
</clipPath>
</defs>
</svg>
