<?xml version="1.0" encoding="utf-8"?>
<!-- Generator: Adobe Illustrator 23.0.1, SVG Export Plug-In . SVG Version: 6.00 Build 0)  -->
<svg version="1.1" id="圖層_1" xmlns="http://www.w3.org/2000/svg" xmlns:xlink="http://www.w3.org/1999/xlink" x="0px" y="0px"
	 viewBox="0 0 743.9 695.9" style="enable-background:new 0 0 743.9 695.9;" xml:space="preserve">
<style type="text/css">
	.st0{clip-path:url(#SVGID_2_);fill:url(#SVGID_3_);}
	.st1{opacity:0.1;}
	.st2{clip-path:url(#SVGID_5_);fill:#FFFFFF;}
	.st3{clip-path:url(#SVGID_7_);fill:#FFFFFF;}
	.st4{fill:#15BDFF;}
	.st5{clip-path:url(#SVGID_9_);fill:url(#SVGID_10_);}
	.st6{clip-path:url(#SVGID_12_);fill:#FFFFFF;}
	.st7{clip-path:url(#SVGID_14_);fill:#FFFFFF;}
</style>
<g>
	<g>
		<defs>
			<path id="SVGID_1_" d="M590.9,63.9c-3.6,0-6.8,2-8.4,5.2L443,352.3c-12.5,25.4-48.6,25.4-61.1,0L242,69.2
				c-1.6-3.2-4.8-5.2-8.4-5.2l-66.3,0c-6.9,0-11.5,7.3-8.4,13.5l191.5,390.3c12.5,25.4,48.6,25.4,61.1,0L605,73.4
				c2.1-4.3-1-9.4-5.9-9.4H590.9z"/>
		</defs>
		<clipPath id="SVGID_2_">
			<use xlink:href="#SVGID_1_"  style="overflow:visible;"/>
		</clipPath>
		
			<linearGradient id="SVGID_3_" gradientUnits="userSpaceOnUse" x1="-1107.4435" y1="1981.463" x2="-1106.4435" y2="1981.463" gradientTransform="matrix(447.823 0 0 -447.823 496096.625 887623.1875)">
			<stop  offset="0" style="stop-color:#9D4ABE"/>
			<stop  offset="3.282318e-02" style="stop-color:#9155C4"/>
			<stop  offset="0.146" style="stop-color:#6B74D6"/>
			<stop  offset="0.2641" style="stop-color:#4C8FE5"/>
			<stop  offset="0.3868" style="stop-color:#34A3F0"/>
			<stop  offset="0.5161" style="stop-color:#22B2F9"/>
			<stop  offset="0.6561" style="stop-color:#18BAFD"/>
			<stop  offset="0.8268" style="stop-color:#15BDFF"/>
			<stop  offset="1" style="stop-color:#28BAD5"/>
		</linearGradient>
		<rect x="155.8" y="63.9" class="st0" width="451.4" height="429.1"/>
	</g>
	<g class="st1">
		<g>
			<defs>
				<rect id="SVGID_4_" x="157.9" y="63.9" width="192.5" height="403.8"/>
			</defs>
			<clipPath id="SVGID_5_">
				<use xlink:href="#SVGID_4_"  style="overflow:visible;"/>
			</clipPath>
			<path class="st2" d="M350.4,467.7L242,69.2c-1.5-3.2-5-5-7.9-5.2h-66.6c-7.3,0-11.6,7.4-8.6,13.5L350.4,467.7z"/>
		</g>
	</g>
	<g class="st1">
		<g>
			<defs>
				<rect id="SVGID_6_" x="158" y="63.9" width="224" height="288.4"/>
			</defs>
			<clipPath id="SVGID_7_">
				<use xlink:href="#SVGID_6_"  style="overflow:visible;"/>
			</clipPath>
			<path class="st3" d="M381.9,352.3L158.8,77.4c-2.7-6.5,1.3-12.9,7.7-13.5h67.6c3.7,0.3,6.6,2.6,7.9,5.2L381.9,352.3z"/>
		</g>
	</g>
	<path class="st4" d="M339.1,620.3c-6.7,16.4-23.5,27.7-42.6,26.1c-20.4-1.8-36.8-18.6-38.1-39c-1.5-24.3,17.8-44.6,41.8-44.6
		c17.6,0,32.7,10.9,38.9,26.3c0.7,1.7-0.2,3.6-2,4.2l-2.4,0.8c-1.6,0.5-3.2-0.3-3.9-1.8c-5.2-12.8-18.3-21.6-33.2-20.5
		c-15.6,1.2-28.5,13.6-30.3,29.2c-2.2,19.9,13.4,36.8,32.8,36.8c13.8,0,25.6-8.5,30.6-20.5c0.6-1.5,2.3-2.3,3.9-1.8l2.4,0.8
		C338.9,616.7,339.8,618.6,339.1,620.3 M85.7,625.4l-29.9-59.3c-1-1.9-3.4-2.6-5.2-1.4l-1.4,0.9c-1.6,1-2.1,3-1.3,4.7l37.8,74.9
		c1,1.9,3.7,1.9,4.7,0l37.8-74.9c0.8-1.7,0.3-3.7-1.3-4.7l-1.4-0.9c-1.8-1.1-4.2-0.5-5.2,1.4l-29.9,59.3
		C89.4,627.4,86.7,627.4,85.7,625.4 M539.2,579c-8.3-10.7-21.7-17.3-36.6-16.1c-20.6,1.6-37.1,18.2-38.7,38.7
		c-1.9,24.7,17.7,45.4,42,45.4c13.5,0,25.5-6.4,33.2-16.3V644c0,1.5,1.2,2.6,2.6,2.6h3.6c1.5,0,2.6-1.2,2.6-2.6v-69.4
		c0-1.5-1.2-2.6-2.6-2.6h-3.6c-1.5,0-2.6,1.2-2.6,2.6V579z M506,638.1c-18.3,0-33.2-14.9-33.2-33.2c0-18.3,14.9-33.2,33.2-33.2
		c18.3,0,33.2,14.9,33.2,33.2C539.2,623.2,524.3,638.1,506,638.1 M593.2,646.6h3.6c1.5,0,2.6-1.2,2.6-2.6v-69.4
		c0-1.5-1.2-2.6-2.6-2.6h-3.6c-1.5,0-2.6,1.2-2.6,2.6V644C590.6,645.5,591.8,646.6,593.2,646.6 M401.8,566.2
		c-12-0.3-22.8,5.1-29.9,13.6v-26c0-1.5-1.2-2.6-2.6-2.6h-3.6c-1.5,0-2.6,1.2-2.6,2.6V644c0,1.5,1.2,2.6,2.6,2.6h3.6
		c1.5,0,2.6-1.2,2.6-2.6v-39.2c0-16.3,13.3-30,29.6-29.7c15.8,0.3,28.6,13.2,28.6,29.1V644c0,1.5,1.2,2.6,2.6,2.6h3.6
		c1.5,0,2.6-1.2,2.6-2.6v-39.1C439,584.1,422.6,566.6,401.8,566.2 M593.2,562.5h3.6c1.5,0,2.6-1.2,2.6-2.6v-6c0-1.5-1.2-2.6-2.6-2.6
		h-3.6c-1.5,0-2.6,1.2-2.6,2.6v6C590.6,561.3,591.8,562.5,593.2,562.5 M679.1,566.3c-12-0.3-22.8,5.1-29.9,13.6v-5.3
		c0-1.5-1.2-2.6-2.6-2.6h-3.6c-1.5,0-2.6,1.2-2.6,2.6V644c0,1.5,1.2,2.6,2.6,2.6h3.6c1.5,0,2.6-1.2,2.6-2.6v-39.1
		c0-16.3,13.3-30,29.6-29.7c15.8,0.3,28.6,13.2,28.6,29.1V644c0,1.5,1.2,2.6,2.6,2.6h3.6c1.5,0,2.6-1.2,2.6-2.6v-39
		C716.3,584.2,699.9,566.7,679.1,566.3 M232,619.9c0.6-1.5-0.2-3.3-1.8-3.7l-3.1-1c-1.4-0.4-2.9,0.3-3.4,1.7
		c-5,12.6-17,20.9-30.7,20.9c-18.2,0-33.1-14.8-33.1-33.1c0-2.2,0.2-4.5,0.7-6.7c3.1-15.3,16.8-26.4,32.4-26.4
		c12.8,0,24.3,7.5,29.8,18.6c0.8,1.7-0.1,3.7-1.9,4l-26.4,5.5c-1.5,0.3-2.5,1.8-2.2,3.3l0.7,3.2c0.3,1.5,1.8,2.5,3.3,2.2l35.9-7.4
		c1.5-0.3,2.5-1.8,2.2-3.3l-0.3-1.6c-4-19.3-21.3-33.3-41.1-33.3c-19.8,0-37.1,14.1-41.1,33.5c-0.6,2.8-0.9,5.6-0.9,8.4
		c0,23.1,18.8,41.9,41.9,41.9C210.5,646.6,225.8,636,232,619.9"/>
	<g>
		<defs>
			<path id="SVGID_8_" d="M590.9,63.9c-3.6,0-6.8,2-8.4,5.2L443,352.3c-12.5,25.4-48.6,25.4-61.1,0L242,69.2
				c-1.6-3.2-4.8-5.2-8.4-5.2l-66.3,0c-6.9,0-11.5,7.3-8.4,13.5l191.5,390.3c12.5,25.4,48.6,25.4,61.1,0L605,73.4
				c2.1-4.3-1-9.4-5.9-9.4H590.9z"/>
		</defs>
		<clipPath id="SVGID_9_">
			<use xlink:href="#SVGID_8_"  style="overflow:visible;"/>
		</clipPath>
		
			<linearGradient id="SVGID_10_" gradientUnits="userSpaceOnUse" x1="-1107.4435" y1="1981.463" x2="-1106.4435" y2="1981.463" gradientTransform="matrix(447.823 0 0 -447.823 496096.625 887623.1875)">
			<stop  offset="0" style="stop-color:#9D4ABE"/>
			<stop  offset="3.282318e-02" style="stop-color:#9155C4"/>
			<stop  offset="0.146" style="stop-color:#6B74D6"/>
			<stop  offset="0.2641" style="stop-color:#4C8FE5"/>
			<stop  offset="0.3868" style="stop-color:#34A3F0"/>
			<stop  offset="0.5161" style="stop-color:#22B2F9"/>
			<stop  offset="0.6561" style="stop-color:#18BAFD"/>
			<stop  offset="0.8268" style="stop-color:#15BDFF"/>
			<stop  offset="1" style="stop-color:#28BAD5"/>
		</linearGradient>
		<rect x="155.8" y="63.9" class="st5" width="451.4" height="429.1"/>
	</g>
	<g class="st1">
		<g>
			<defs>
				<rect id="SVGID_11_" x="157.9" y="63.9" width="192.5" height="403.8"/>
			</defs>
			<clipPath id="SVGID_12_">
				<use xlink:href="#SVGID_11_"  style="overflow:visible;"/>
			</clipPath>
			<path class="st6" d="M350.4,467.7L242,69.2c-1.5-3.2-5-5-7.9-5.2h-66.6c-7.3,0-11.6,7.4-8.6,13.5L350.4,467.7z"/>
		</g>
	</g>
	<g class="st1">
		<g>
			<defs>
				<rect id="SVGID_13_" x="158" y="63.9" width="224" height="288.4"/>
			</defs>
			<clipPath id="SVGID_14_">
				<use xlink:href="#SVGID_13_"  style="overflow:visible;"/>
			</clipPath>
			<path class="st7" d="M381.9,352.3L158.8,77.4c-2.7-6.5,1.3-12.9,7.7-13.5h67.6c3.7,0.3,6.6,2.6,7.9,5.2L381.9,352.3z"/>
		</g>
	</g>
	<path class="st4" d="M339.1,620.3c-6.7,16.4-23.5,27.7-42.6,26.1c-20.4-1.8-36.8-18.6-38.1-39c-1.5-24.3,17.8-44.6,41.8-44.6
		c17.6,0,32.7,10.9,38.9,26.3c0.7,1.7-0.2,3.6-2,4.2l-2.4,0.8c-1.6,0.5-3.2-0.3-3.9-1.8c-5.2-12.8-18.3-21.6-33.2-20.5
		c-15.6,1.2-28.5,13.6-30.3,29.2c-2.2,19.9,13.4,36.8,32.8,36.8c13.8,0,25.6-8.5,30.6-20.5c0.6-1.5,2.3-2.3,3.9-1.8l2.4,0.8
		C338.9,616.7,339.8,618.6,339.1,620.3 M85.7,625.4l-29.9-59.3c-1-1.9-3.4-2.6-5.2-1.4l-1.4,0.9c-1.6,1-2.1,3-1.3,4.7l37.8,74.9
		c1,1.9,3.7,1.9,4.7,0l37.8-74.9c0.8-1.7,0.3-3.7-1.3-4.7l-1.4-0.9c-1.8-1.1-4.2-0.5-5.2,1.4l-29.9,59.3
		C89.4,627.4,86.7,627.4,85.7,625.4 M539.2,579c-8.3-10.7-21.7-17.3-36.6-16.1c-20.6,1.6-37.1,18.2-38.7,38.7
		c-1.9,24.7,17.7,45.4,42,45.4c13.5,0,25.5-6.4,33.2-16.3V644c0,1.5,1.2,2.6,2.6,2.6h3.6c1.5,0,2.6-1.2,2.6-2.6v-69.4
		c0-1.5-1.2-2.6-2.6-2.6h-3.6c-1.5,0-2.6,1.2-2.6,2.6V579z M506,638.1c-18.3,0-33.2-14.9-33.2-33.2c0-18.3,14.9-33.2,33.2-33.2
		c18.3,0,33.2,14.9,33.2,33.2C539.2,623.2,524.3,638.1,506,638.1 M593.2,646.6h3.6c1.5,0,2.6-1.2,2.6-2.6v-69.4
		c0-1.5-1.2-2.6-2.6-2.6h-3.6c-1.5,0-2.6,1.2-2.6,2.6V644C590.6,645.5,591.8,646.6,593.2,646.6 M401.8,566.2
		c-12-0.3-22.8,5.1-29.9,13.6v-26c0-1.5-1.2-2.6-2.6-2.6h-3.6c-1.5,0-2.6,1.2-2.6,2.6V644c0,1.5,1.2,2.6,2.6,2.6h3.6
		c1.5,0,2.6-1.2,2.6-2.6v-39.2c0-16.3,13.3-30,29.6-29.7c15.8,0.3,28.6,13.2,28.6,29.1V644c0,1.5,1.2,2.6,2.6,2.6h3.6
		c1.5,0,2.6-1.2,2.6-2.6v-39.1C439,584.1,422.6,566.6,401.8,566.2 M593.2,562.5h3.6c1.5,0,2.6-1.2,2.6-2.6v-6c0-1.5-1.2-2.6-2.6-2.6
		h-3.6c-1.5,0-2.6,1.2-2.6,2.6v6C590.6,561.3,591.8,562.5,593.2,562.5 M679.1,566.3c-12-0.3-22.8,5.1-29.9,13.6v-5.3
		c0-1.5-1.2-2.6-2.6-2.6h-3.6c-1.5,0-2.6,1.2-2.6,2.6V644c0,1.5,1.2,2.6,2.6,2.6h3.6c1.5,0,2.6-1.2,2.6-2.6v-39.1
		c0-16.3,13.3-30,29.6-29.7c15.8,0.3,28.6,13.2,28.6,29.1V644c0,1.5,1.2,2.6,2.6,2.6h3.6c1.5,0,2.6-1.2,2.6-2.6v-39
		C716.3,584.2,699.9,566.7,679.1,566.3 M232,619.9c0.6-1.5-0.2-3.3-1.8-3.7l-3.1-1c-1.4-0.4-2.9,0.3-3.4,1.7
		c-5,12.6-17,20.9-30.7,20.9c-18.2,0-33.1-14.8-33.1-33.1c0-2.2,0.2-4.5,0.7-6.7c3.1-15.3,16.8-26.4,32.4-26.4
		c12.8,0,24.3,7.5,29.8,18.6c0.8,1.7-0.1,3.7-1.9,4l-26.4,5.5c-1.5,0.3-2.5,1.8-2.2,3.3l0.7,3.2c0.3,1.5,1.8,2.5,3.3,2.2l35.9-7.4
		c1.5-0.3,2.5-1.8,2.2-3.3l-0.3-1.6c-4-19.3-21.3-33.3-41.1-33.3c-19.8,0-37.1,14.1-41.1,33.5c-0.6,2.8-0.9,5.6-0.9,8.4
		c0,23.1,18.8,41.9,41.9,41.9C210.5,646.6,225.8,636,232,619.9"/>
</g>
</svg>
