<?xml version="1.0" encoding="utf-8"?>
<!-- Generator: Adobe Illustrator 24.0.0, SVG Export Plug-In . SVG Version: 6.00 Build 0)  -->
<svg version="1.1" id="Lag_1" xmlns="http://www.w3.org/2000/svg" xmlns:xlink="http://www.w3.org/1999/xlink" x="0px" y="0px"
	 viewBox="0 0 222.2 53.5" style="enable-background:new 0 0 222.2 53.5;" xml:space="preserve">
<style type="text/css">
	.st0{fill:#37BDE2;}
	.st1{fill:#0F1E2D;}
</style>
<g>
	<polygon class="st0" points="39.1,0 23.2,36.6 7.4,0 0,0 23.2,53.5 46.4,0 	"/>
	<g>
		<polygon class="st1" points="93.5,10.7 114.6,10.7 114.6,15.7 99.2,15.7 99.2,23.8 113.8,23.8 113.8,28.5 99.2,28.5 99.2,37.5 
			115.4,37.5 115.4,42.6 93.5,42.6 		"/>
		<path class="st1" d="M127,10.7h11c1.5,0,3,0.2,4.4,0.5s2.7,0.8,3.8,1.6c1.1,0.7,2,1.7,2.6,2.8c0.7,1.2,1,2.6,1,4.3
			c0,2.3-0.7,4.2-2,5.6c-1.3,1.5-3.1,2.4-5.3,2.9l8.5,14.1h-6.8L136.8,29h-4.1v13.5H127V10.7z M137.3,24.5c0.8,0,1.6-0.1,2.4-0.2
			c0.8-0.1,1.5-0.3,2.2-0.7c0.6-0.3,1.2-0.8,1.6-1.4c0.4-0.6,0.6-1.4,0.6-2.4c0-0.9-0.2-1.6-0.6-2.1c-0.4-0.6-0.9-1-1.5-1.3
			s-1.3-0.6-2-0.7c-0.8-0.1-1.5-0.2-2.2-0.2h-5.1v9L137.3,24.5L137.3,24.5z"/>
		<path class="st1" d="M188.3,40.9c-1.6,0.8-3.4,1.4-5.3,1.8c-1.9,0.4-4.2,0.7-6.7,0.7c-2.6,0-4.9-0.4-7.1-1.2c-2.1-0.8-4-2-5.5-3.5
			s-2.7-3.3-3.6-5.3c-0.9-2.1-1.3-4.3-1.3-6.8s0.4-4.9,1.3-6.9c0.9-2.1,2.1-3.8,3.6-5.2s3.4-2.5,5.5-3.3s4.4-1.2,6.8-1.2
			c2.5,0,4.9,0.4,7,1.1s3.8,1.7,5.1,2.9l-3.9,4.2c-0.8-0.9-1.9-1.7-3.4-2.3s-3-0.9-4.7-0.9s-3.2,0.3-4.6,0.9
			c-1.4,0.6-2.5,1.4-3.5,2.5s-1.7,2.3-2.2,3.7S165,25,165,26.7c0,1.7,0.3,3.3,0.8,4.7s1.3,2.7,2.2,3.7c1,1.1,2.2,1.9,3.6,2.5
			c1.4,0.6,3,0.9,4.7,0.9c2.4,0,4.5-0.4,6.3-1.1v-8.1h-6.7v-4.7h12.2v16.3H188.3z"/>
		<polygon class="st1" points="200.3,10.7 221.4,10.7 221.4,15.7 206,15.7 206,23.8 220.6,23.8 220.6,28.5 206,28.5 206,37.5 
			222.2,37.5 222.2,42.6 200.3,42.6 		"/>
		<polygon class="st1" points="55.3,10.7 69.5,42.8 84.3,10.7 77.8,10.7 69.8,28.8 61.8,10.7 		"/>
	</g>
	<polygon class="st0" points="23.2,19.7 31.5,0 14.9,0 	"/>
</g>
</svg>
