<?xml version="1.0" encoding="UTF-8"?>
<svg width="3435px" height="684px" viewBox="0 0 3435 684" version="1.1" xmlns="http://www.w3.org/2000/svg" xmlns:xlink="http://www.w3.org/1999/xlink">
    <!-- Generator: Sketch 49.2 (51160) - http://www.bohemiancoding.com/sketch -->
    <title>Group 20 Copy 3</title>
    <desc>Created with Sketch.</desc>
    <defs></defs>
    <g id="Page-1" stroke="none" stroke-width="1" fill="none" fill-rule="evenodd">
        <g id="Group-20-Copy-3">
            <path d="M828.692208,117.695455 L932.482244,117.695455 L1044.20917,421.629955 L1155.93609,117.695455 L1257.284,117.695455 L1084.50412,552.327955 L1001.47209,552.327955 L828.692208,117.695455 Z M1497.52433,358.130455 C1494.67517,337.16935 1487.34889,320.215769 1475.54526,307.269205 C1463.74163,294.32264 1448.07152,287.849455 1428.53448,287.849455 C1408.99743,287.849455 1393.22558,294.219891 1381.21843,306.960955 C1369.21129,319.702018 1361.37624,336.758348 1357.71304,358.130455 L1497.52433,358.130455 Z M1437.69242,556.643455 C1413.27112,556.643455 1390.57999,552.533496 1369.61837,544.313455 C1348.65675,536.093413 1330.54455,524.380031 1315.28123,509.172955 C1300.01792,493.965879 1288.11271,475.984808 1279.56525,455.229205 C1271.01779,434.473601 1266.74413,411.355082 1266.74413,385.872955 L1266.74413,384.639955 C1266.74413,361.212837 1270.71253,339.019059 1278.64946,318.057955 C1286.58638,297.09685 1297.67756,278.807533 1311.92332,263.189455 C1326.16908,247.571376 1343.16199,235.2415 1362.90254,226.199455 C1382.6431,217.157409 1404.52019,212.636455 1428.53448,212.636455 C1455.80494,212.636455 1479.41185,217.568405 1499.35592,227.432455 C1519.29998,237.296504 1535.88587,250.551121 1549.11408,267.196705 C1562.34229,283.842288 1572.11066,302.953597 1578.4195,324.531205 C1584.72834,346.108812 1587.88271,368.610837 1587.88271,392.037955 C1587.88271,395.736973 1587.78096,399.641434 1587.57745,403.751455 C1587.37394,407.861475 1587.06867,412.176932 1586.66165,416.697955 L1358.9341,416.697955 C1363.41134,438.070061 1372.67095,454.20165 1386.7132,465.093205 C1400.75545,475.984759 1418.15537,481.430455 1438.91348,481.430455 C1454.38031,481.430455 1468.21884,478.758981 1480.4295,473.415955 C1492.64015,468.072928 1505.25764,459.442014 1518.28233,447.522955 L1571.39841,494.993455 C1555.93158,514.310551 1537.20886,529.41465 1515.22969,540.306205 C1493.25051,551.197759 1467.40501,556.643455 1437.69242,556.643455 Z M1656.87256,218.801455 L1749.67306,218.801455 L1749.67306,285.383455 C1759.03456,262.778342 1771.85556,244.694522 1788.13643,231.131455 C1804.4173,217.568387 1826.39615,211.403448 1854.07363,212.636455 L1854.07363,310.659955 L1849.18939,310.659955 C1818.25573,310.659955 1793.93655,320.11286 1776.2311,339.018955 C1758.52565,357.925049 1749.67306,387.311255 1749.67306,427.178455 L1749.67306,549.245455 L1656.87256,549.245455 L1656.87256,218.801455 Z M2053.41463,554.793955 C2039.16887,554.793955 2026.24612,553.25272 2014.646,550.170205 C2003.04588,547.087689 1993.074,541.641994 1984.73005,533.832955 C1976.3861,526.023916 1969.87385,515.851767 1965.1931,503.316205 C1960.51235,490.780642 1958.17201,474.854551 1958.17201,455.537455 L1958.17201,298.946455 L1919.09811,298.946455 L1919.09811,218.801455 L1958.17201,218.801455 L1958.17201,134.340955 L2050.97251,134.340955 L2050.97251,218.801455 L2127.89925,218.801455 L2127.89925,298.946455 L2050.97251,298.946455 L2050.97251,440.124955 C2050.97251,461.497061 2060.9444,472.182955 2080.88846,472.182955 C2097.16934,472.182955 2112.43242,468.278494 2126.67819,460.469455 L2126.67819,535.682455 C2116.90966,541.436483 2106.12375,546.060187 2094.32012,549.553705 C2082.51648,553.047222 2068.88146,554.793955 2053.41463,554.793955 Z M2353.32842,556.643455 C2328.90711,556.643455 2306.21599,552.1225 2285.25437,543.080455 C2264.29274,534.038409 2246.2823,521.811282 2231.22249,506.398705 C2216.16269,490.986127 2204.35923,472.902308 2195.81178,452.146705 C2187.26432,431.391101 2182.99065,409.300072 2182.99065,385.872955 L2182.99065,384.639955 C2182.99065,361.212837 2187.26432,339.019059 2195.81178,318.057955 C2204.35923,297.09685 2216.16269,278.807533 2231.22249,263.189455 C2246.2823,247.571376 2264.29274,235.2415 2285.25437,226.199455 C2306.21599,217.157409 2329.31413,212.636455 2354.54948,212.636455 C2385.48313,212.636455 2411.12512,217.568405 2431.47621,227.432455 C2451.8273,237.296504 2469.73599,250.859368 2485.20282,268.121455 L2428.42356,329.771455 C2417.841,318.674399 2406.95333,309.837987 2395.76023,303.261955 C2384.56713,296.685922 2370.62684,293.397955 2353.93895,293.397955 C2342.13532,293.397955 2331.45116,295.761181 2321.88614,300.487705 C2312.32113,305.214228 2303.97731,311.687413 2296.85443,319.907455 C2289.73155,328.127496 2284.23684,337.68315 2280.37013,348.574705 C2276.50342,359.466259 2274.5701,371.076893 2274.5701,383.406955 L2274.5701,384.639955 C2274.5701,397.381018 2276.50342,409.299899 2280.37013,420.396955 C2284.23684,431.49401 2289.8333,441.152413 2297.15969,449.372455 C2304.48609,457.592496 2313.23692,464.065681 2323.41247,468.792205 C2333.58801,473.518728 2344.98445,475.881955 2357.60213,475.881955 C2373.06895,475.881955 2386.60223,472.696736 2398.20235,466.326205 C2409.80247,459.955673 2421.30066,451.427508 2432.69727,440.741455 L2487.03441,496.226455 C2471.16056,513.899543 2453.04836,528.387148 2432.69727,539.689705 C2412.34618,550.992261 2385.89016,556.643455 2353.32842,556.643455 Z M2707.18343,474.340705 C2720.61515,474.340705 2732.52035,471.977478 2742.89941,467.250955 C2753.27847,462.524431 2762.13106,456.051246 2769.45745,447.831205 C2776.78384,439.611163 2782.38031,430.055509 2786.24701,419.163955 C2790.11372,408.2724 2792.04704,396.661766 2792.04704,384.331705 L2792.04704,383.098705 C2792.04704,370.768643 2790.01197,359.158009 2785.94175,348.266455 C2781.87153,337.3749 2775.9698,327.716497 2768.23639,319.290955 C2760.50298,310.865412 2751.34512,304.186729 2740.76256,299.254705 C2730.17999,294.32268 2718.58004,291.856705 2705.96237,291.856705 C2692.53065,291.856705 2680.62544,294.219931 2670.24638,298.946455 C2659.86733,303.672978 2651.01474,310.146163 2643.68835,318.366205 C2636.36195,326.586246 2630.76549,336.1419 2626.89878,347.033455 C2623.03207,357.925009 2621.09875,369.535643 2621.09875,381.865705 L2621.09875,383.098705 C2621.09875,395.428766 2623.13383,407.0394 2627.20405,417.930955 C2631.27426,428.822509 2637.17599,438.480912 2644.90941,446.906455 C2652.64282,455.331997 2661.69892,462.01068 2672.07797,466.942705 C2682.45703,471.874729 2694.15873,474.340705 2707.18343,474.340705 Z M2706.58387,555.590267 C2681.34852,555.590267 2657.94512,551.172061 2636.37296,542.335517 C2614.80081,533.498973 2596.17984,521.374594 2580.5095,505.962017 C2564.83916,490.54944 2552.52694,472.465621 2543.57246,451.710017 C2534.61798,430.954413 2530.14081,408.657886 2530.14081,384.819767 L2530.14081,383.586767 C2530.14081,359.748648 2534.61798,337.452121 2543.57246,316.696517 C2552.52694,295.940913 2564.94092,277.754345 2580.81477,262.136267 C2596.68861,246.518189 2615.41134,234.188312 2636.98349,225.146267 C2658.55564,216.104222 2682.16255,211.583267 2707.80493,211.583267 C2733.04028,211.583267 2756.44368,216.001473 2778.01583,224.838017 C2799.58799,233.674561 2818.20896,245.79894 2833.87929,261.211517 C2849.54963,276.624094 2861.86186,294.707913 2870.81634,315.463517 C2879.77082,336.219121 2884.24799,358.515648 2884.24799,382.353767 L2884.24799,383.586767 C2884.24799,407.424886 2879.77082,429.721413 2870.81634,450.477017 C2861.86186,471.232621 2849.44788,489.419189 2833.57403,505.037267 C2817.70018,520.655345 2798.97746,532.985222 2777.4053,542.027267 C2755.83315,551.069312 2732.22624,555.590267 2706.58387,555.590267 Z M2956.13318,218.801455 L3048.93368,218.801455 L3048.93368,549.245455 L2956.13318,549.245455 L2956.13318,218.801455 Z M2952.11424,99.2004545 L3049.79898,99.2004545 L3049.79898,182.427955 L2952.11424,182.427955 L2952.11424,99.2004545 Z M3134.66259,218.801455 L3227.4631,218.801455 L3227.4631,265.655455 C3232.75438,258.66842 3238.55435,251.989736 3244.86319,245.619205 C3251.17203,239.248673 3258.19305,233.597479 3265.92646,228.665455 C3273.65988,223.73343 3282.20721,219.828969 3291.56871,216.951955 C3300.93021,214.07494 3311.51262,212.636455 3323.31625,212.636455 C3358.72714,212.636455 3386.09895,223.527846 3405.43248,245.310955 C3424.76602,267.094063 3434.43264,297.096763 3434.43264,335.319955 L3434.43264,549.245455 L3341.63214,549.245455 L3341.63214,364.911955 C3341.63214,342.717844 3336.74795,325.969761 3326.97943,314.667205 C3317.2109,303.364648 3303.37237,297.713455 3285.46341,297.713455 C3267.55445,297.713455 3253.41066,303.364648 3243.0316,314.667205 C3232.65255,325.969761 3227.4631,342.717844 3227.4631,364.911955 L3227.4631,549.245455 L3134.66259,549.245455 L3134.66259,218.801455 Z" id="Vertcoin" fill="#000000"></path>
            <g id="Group-Copy-4">
                <path d="M576.031626,98.192779 C574.065958,96.3046102 572.08112,94.4529214 570.077112,92.6377126 L334.000883,422.945754 L243.796029,306.70832 L96.9649951,306.70832 L55.699638,354.171939 L132.472395,354.171939 L315.767353,593.427324 C321.88383,599.239196 327.961674,602.145132 334.000883,602.145132 C340.040093,602.145132 345.79805,599.239196 351.274754,593.427324 L641.091912,188.533596 C639.417857,185.06098 637.687158,181.627299 635.899816,178.232555 C662.189869,226.83582 677.132855,282.594421 677.132855,341.877273 C677.132855,530.690877 525.551502,683.754545 338.566427,683.754545 C151.581353,683.754545 0,530.690877 0,341.877273 C0,153.063669 151.581353,0 338.566427,0 C431.077409,0 514.922333,37.4666461 576.031604,98.1927575 Z" id="Combined-Shape" fill="#048657"></path>
                <path d="M55.699638,354.171939 L96.9649951,306.70832 L243.796029,306.70832 L334.000883,422.945754 L570.077112,92.6377126 C584.135918,105.372026 597.251264,119.901706 609.42315,136.22675 C621.595036,152.551795 632.15129,169.98741 641.091912,188.533596 L351.274754,593.427324 C345.79805,599.239196 340.040093,602.145132 334.000883,602.145132 C327.961674,602.145132 321.88383,599.239196 315.767353,593.427324 L132.472395,354.171939 L55.699638,354.171939 Z" id="Path-2-Copy-6" fill="#FFFFFF"></path>
            </g>
        </g>
    </g>
</svg>