<?xml version="1.0" encoding="UTF-8"?>
<svg width="2607px" height="2507px" viewBox="0 0 2607 2507" version="1.1" xmlns="http://www.w3.org/2000/svg" xmlns:xlink="http://www.w3.org/1999/xlink">
    <!-- Generator: Sketch 49.2 (51160) - http://www.bohemiancoding.com/sketch -->
    <title>Group 35</title>
    <desc>Created with Sketch.</desc>
    <defs></defs>
    <g id="Page-1" stroke="none" stroke-width="1" fill="none" fill-rule="evenodd">
        <g id="Group-35">
            <g id="Group-34">
                <path d="M0.692208259,2067.69545 L104.482244,2067.69545 L216.209165,2371.62995 L327.936086,2067.69545 L429.284004,2067.69545 L256.50412,2502.32795 L173.472092,2502.32795 L0.692208259,2067.69545 Z M669.524327,2308.13045 C666.675174,2287.16935 659.348892,2270.21577 647.54526,2257.2692 C635.741629,2244.32264 620.071525,2237.84945 600.534479,2237.84945 C580.997434,2237.84945 565.225576,2244.21989 553.218434,2256.96095 C541.211291,2269.70202 533.376239,2286.75835 529.713043,2308.13045 L669.524327,2308.13045 Z M609.692424,2506.64345 C585.271117,2506.64345 562.579993,2502.5335 541.618371,2494.31345 C520.656749,2486.09341 502.544551,2474.38003 487.281234,2459.17295 C472.017917,2443.96588 460.112709,2425.98481 451.565251,2405.2292 C443.017794,2384.4736 438.744129,2361.35508 438.744129,2335.87295 L438.744129,2334.63995 C438.744129,2311.21284 442.712532,2289.01906 450.649457,2268.05795 C458.586382,2247.09685 469.677559,2228.80753 483.923321,2213.18945 C498.169084,2197.57138 515.161988,2185.2415 534.902545,2176.19945 C554.643101,2167.15741 576.520194,2162.63645 600.534479,2162.63645 C627.804939,2162.63645 651.411848,2167.56841 671.355916,2177.43245 C691.299983,2187.2965 707.885872,2200.55112 721.11408,2217.1967 C734.342288,2233.84229 744.110664,2252.9536 750.419502,2274.5312 C756.728339,2296.10881 759.882711,2318.61084 759.882711,2342.03795 C759.882711,2345.73697 759.780957,2349.64143 759.577446,2353.75145 C759.373935,2357.86148 759.068673,2362.17693 758.661652,2366.69795 L530.934102,2366.69795 C535.411342,2388.07006 544.670949,2404.20165 558.7132,2415.0932 C572.755452,2425.98476 590.155372,2431.43045 610.913483,2431.43045 C626.380311,2431.43045 640.218844,2428.75898 652.429497,2423.41595 C664.640151,2418.07293 677.257637,2409.44201 690.282334,2397.52295 L743.398411,2444.99345 C727.931583,2464.31055 709.208862,2479.41465 687.229686,2490.3062 C665.250509,2501.19776 639.405014,2506.64345 609.692424,2506.64345 Z M828.872558,2168.80145 L921.673061,2168.80145 L921.673061,2235.38345 C931.034562,2212.77834 943.855556,2194.69452 960.136427,2181.13145 C976.417299,2167.56839 998.396145,2161.40345 1026.07363,2162.63645 L1026.07363,2260.65995 L1021.18939,2260.65995 C990.255734,2260.65995 965.936547,2270.11286 948.2311,2289.01895 C930.525652,2307.92505 921.673061,2337.31126 921.673061,2377.17845 L921.673061,2499.24545 L828.872558,2499.24545 L828.872558,2168.80145 Z M1225.41463,2504.79395 C1211.16887,2504.79395 1198.24612,2503.25272 1186.646,2500.1702 C1175.04588,2497.08769 1165.074,2491.64199 1156.73005,2483.83295 C1148.3861,2476.02392 1141.87385,2465.85177 1137.1931,2453.3162 C1132.51235,2440.78064 1130.17201,2424.85455 1130.17201,2405.53745 L1130.17201,2248.94645 L1091.09811,2248.94645 L1091.09811,2168.80145 L1130.17201,2168.80145 L1130.17201,2084.34095 L1222.97251,2084.34095 L1222.97251,2168.80145 L1299.89925,2168.80145 L1299.89925,2248.94645 L1222.97251,2248.94645 L1222.97251,2390.12495 C1222.97251,2411.49706 1232.9444,2422.18295 1252.88846,2422.18295 C1269.16934,2422.18295 1284.43242,2418.27849 1298.67819,2410.46945 L1298.67819,2485.68245 C1288.90966,2491.43648 1278.12375,2496.06019 1266.32012,2499.5537 C1254.51648,2503.04722 1240.88146,2504.79395 1225.41463,2504.79395 Z M1525.32842,2506.64345 C1500.90711,2506.64345 1478.21599,2502.1225 1457.25437,2493.08045 C1436.29274,2484.03841 1418.2823,2471.81128 1403.22249,2456.3987 C1388.16269,2440.98613 1376.35923,2422.90231 1367.81178,2402.1467 C1359.26432,2381.3911 1354.99065,2359.30007 1354.99065,2335.87295 L1354.99065,2334.63995 C1354.99065,2311.21284 1359.26432,2289.01906 1367.81178,2268.05795 C1376.35923,2247.09685 1388.16269,2228.80753 1403.22249,2213.18945 C1418.2823,2197.57138 1436.29274,2185.2415 1457.25437,2176.19945 C1478.21599,2167.15741 1501.31413,2162.63645 1526.54948,2162.63645 C1557.48313,2162.63645 1583.12512,2167.56841 1603.47621,2177.43245 C1623.8273,2187.2965 1641.73599,2200.85937 1657.20282,2218.12145 L1600.42356,2279.77145 C1589.841,2268.6744 1578.95333,2259.83799 1567.76023,2253.26195 C1556.56713,2246.68592 1542.62684,2243.39795 1525.93895,2243.39795 C1514.13532,2243.39795 1503.45116,2245.76118 1493.88614,2250.4877 C1484.32113,2255.21423 1475.97731,2261.68741 1468.85443,2269.90745 C1461.73155,2278.1275 1456.23684,2287.68315 1452.37013,2298.5747 C1448.50342,2309.46626 1446.5701,2321.07689 1446.5701,2333.40695 L1446.5701,2334.63995 C1446.5701,2347.38102 1448.50342,2359.2999 1452.37013,2370.39695 C1456.23684,2381.49401 1461.8333,2391.15241 1469.15969,2399.37245 C1476.48609,2407.5925 1485.23692,2414.06568 1495.41247,2418.7922 C1505.58801,2423.51873 1516.98445,2425.88195 1529.60213,2425.88195 C1545.06895,2425.88195 1558.60223,2422.69674 1570.20235,2416.3262 C1581.80247,2409.95567 1593.30066,2401.42751 1604.69727,2390.74145 L1659.03441,2446.22645 C1643.16056,2463.89954 1625.04836,2478.38715 1604.69727,2489.6897 C1584.34618,2500.99226 1557.89016,2506.64345 1525.32842,2506.64345 Z M1879.18343,2424.3407 C1892.61515,2424.3407 1904.52035,2421.97748 1914.89941,2417.25095 C1925.27847,2412.52443 1934.13106,2406.05125 1941.45745,2397.8312 C1948.78384,2389.61116 1954.38031,2380.05551 1958.24701,2369.16395 C1962.11372,2358.2724 1964.04704,2346.66177 1964.04704,2334.3317 L1964.04704,2333.0987 C1964.04704,2320.76864 1962.01197,2309.15801 1957.94175,2298.26645 C1953.87153,2287.3749 1947.9698,2277.7165 1940.23639,2269.29095 C1932.50298,2260.86541 1923.34512,2254.18673 1912.76256,2249.2547 C1902.17999,2244.32268 1890.58004,2241.8567 1877.96237,2241.8567 C1864.53065,2241.8567 1852.62544,2244.21993 1842.24638,2248.94645 C1831.86733,2253.67298 1823.01474,2260.14616 1815.68835,2268.3662 C1808.36195,2276.58625 1802.76549,2286.1419 1798.89878,2297.03345 C1795.03207,2307.92501 1793.09875,2319.53564 1793.09875,2331.8657 L1793.09875,2333.0987 C1793.09875,2345.42877 1795.13383,2357.0394 1799.20405,2367.93095 C1803.27426,2378.82251 1809.17599,2388.48091 1816.90941,2396.90645 C1824.64282,2405.332 1833.69892,2412.01068 1844.07797,2416.9427 C1854.45703,2421.87473 1866.15873,2424.3407 1879.18343,2424.3407 Z M1878.58387,2505.59027 C1853.34852,2505.59027 1829.94512,2501.17206 1808.37296,2492.33552 C1786.80081,2483.49897 1768.17984,2471.37459 1752.5095,2455.96202 C1736.83916,2440.54944 1724.52694,2422.46562 1715.57246,2401.71002 C1706.61798,2380.95441 1702.14081,2358.65789 1702.14081,2334.81977 L1702.14081,2333.58677 C1702.14081,2309.74865 1706.61798,2287.45212 1715.57246,2266.69652 C1724.52694,2245.94091 1736.94092,2227.75435 1752.81477,2212.13627 C1768.68861,2196.51819 1787.41134,2184.18831 1808.98349,2175.14627 C1830.55564,2166.10422 1854.16255,2161.58327 1879.80493,2161.58327 C1905.04028,2161.58327 1928.44368,2166.00147 1950.01583,2174.83802 C1971.58799,2183.67456 1990.20896,2195.79894 2005.87929,2211.21152 C2021.54963,2226.62409 2033.86186,2244.70791 2042.81634,2265.46352 C2051.77082,2286.21912 2056.24799,2308.51565 2056.24799,2332.35377 L2056.24799,2333.58677 C2056.24799,2357.42489 2051.77082,2379.72141 2042.81634,2400.47702 C2033.86186,2421.23262 2021.44788,2439.41919 2005.57403,2455.03727 C1989.70018,2470.65535 1970.97746,2482.98522 1949.4053,2492.02727 C1927.83315,2501.06931 1904.22624,2505.59027 1878.58387,2505.59027 Z M2128.13318,2168.80145 L2220.93368,2168.80145 L2220.93368,2499.24545 L2128.13318,2499.24545 L2128.13318,2168.80145 Z M2124.11424,2049.20045 L2221.79898,2049.20045 L2221.79898,2132.42795 L2124.11424,2132.42795 L2124.11424,2049.20045 Z M2306.66259,2168.80145 L2399.4631,2168.80145 L2399.4631,2215.65545 C2404.75438,2208.66842 2410.55435,2201.98974 2416.86319,2195.6192 C2423.17203,2189.24867 2430.19305,2183.59748 2437.92646,2178.66545 C2445.65988,2173.73343 2454.20721,2169.82897 2463.56871,2166.95195 C2472.93021,2164.07494 2483.51262,2162.63645 2495.31625,2162.63645 C2530.72714,2162.63645 2558.09895,2173.52785 2577.43248,2195.31095 C2596.76602,2217.09406 2606.43264,2247.09676 2606.43264,2285.31995 L2606.43264,2499.24545 L2513.63214,2499.24545 L2513.63214,2314.91195 C2513.63214,2292.71784 2508.74795,2275.96976 2498.97943,2264.6672 C2489.2109,2253.36465 2475.37237,2247.71345 2457.46341,2247.71345 C2439.55445,2247.71345 2425.41066,2253.36465 2415.0316,2264.6672 C2404.65255,2275.96976 2399.4631,2292.71784 2399.4631,2314.91195 L2399.4631,2499.24545 L2306.66259,2499.24545 L2306.66259,2168.80145 Z" id="Vertcoin" fill="#000000"></path>
                <g id="Group-Copy-4" transform="translate(457.000000, 0.000000)">
                    <path d="M1440.07906,245.481948 C1435.16489,240.761526 1430.2028,236.132304 1425.19278,231.594282 L835.002208,1057.36439 L609.490074,766.770801 L242.412488,766.770801 L139.249095,885.429848 L331.180988,885.429848 L789.418383,1483.56831 C804.709576,1498.09799 819.904184,1505.36283 835.002208,1505.36283 C850.100232,1505.36283 864.495124,1498.09799 878.186884,1483.56831 L1602.72978,471.333989 C1598.54464,462.652449 1594.21789,454.068248 1589.74954,445.581388 C1655.47467,567.089551 1692.83214,706.486052 1692.83214,854.693182 C1692.83214,1326.72719 1313.87875,1709.38636 846.416068,1709.38636 C378.953382,1709.38636 0,1326.72719 0,854.693182 C0,382.659172 378.953382,0 846.416068,0 C1077.69352,0 1287.30583,93.6666151 1440.07901,245.481894 Z" id="Combined-Shape" fill="#048657"></path>
                    <path d="M139.249095,885.429848 L242.412488,766.770801 L609.490074,766.770801 L835.002208,1057.36439 L1425.19278,231.594282 C1460.33979,263.430066 1493.12816,299.754264 1523.55787,340.566876 C1553.98759,381.379488 1580.37823,424.968526 1602.72978,471.333989 L878.186884,1483.56831 C864.495124,1498.09799 850.100232,1505.36283 835.002208,1505.36283 C819.904184,1505.36283 804.709576,1498.09799 789.418383,1483.56831 L331.180988,885.429848 L139.249095,885.429848 Z" id="Path-2-Copy-6" fill="#FFFFFF"></path>
                </g>
            </g>
        </g>
    </g>
</svg>