<?xml version="1.0" encoding="utf-8"?>
<!-- Generator: Adobe Illustrator 21.0.0, SVG Export Plug-In . SVG Version: 6.00 Build 0)  -->
<svg version="1.1" id="图层_1" xmlns="http://www.w3.org/2000/svg" xmlns:xlink="http://www.w3.org/1999/xlink" x="0px" y="0px"
	 viewBox="0 0 1417.3 566.9" style="enable-background:new 0 0 1417.3 566.9;" xml:space="preserve">
<style type="text/css">
	.st0{fill:#0432A9;}
</style>
<title>WaykiChain-logo</title>
<g>
	<g>
		<path class="st0" d="M521.5,381.2c0.6,0,1.1,0.2,1.5,0.6l4.3,4.5c-1.9,2.6-4.4,4.7-7.4,6.1c-3.3,1.5-6.9,2.2-10.5,2.1
			c-3.4,0-6.8-0.6-9.9-2c-2.9-1.3-5.4-3.2-7.5-5.6c-2.1-2.5-3.7-5.4-4.8-8.5c-1.1-3.5-1.7-7.1-1.6-10.8c0-3.7,0.6-7.3,1.8-10.8
			c1.1-3.1,2.8-6,5-8.5c2.2-2.4,4.8-4.2,7.7-5.5c3.1-1.3,6.5-2,9.9-2c3.3-0.1,6.6,0.6,9.7,1.9c2.7,1.2,5,2.9,7,5l-3.6,4.9
			c-0.3,0.3-0.5,0.6-0.8,0.8c-0.4,0.3-0.9,0.4-1.3,0.4c-0.6,0-1.2-0.2-1.7-0.6c-0.5-0.4-1.2-0.9-2-1.4c-0.9-0.6-1.9-1.1-2.8-1.4
			c-1.5-0.5-3-0.7-4.5-0.6c-1.9,0-3.7,0.4-5.4,1.2c-1.7,0.8-3.1,2-4.2,3.5c-1.2,1.7-2.2,3.6-2.7,5.6c-0.7,2.5-1,5-1,7.6
			c0,2.6,0.3,5.2,1.1,7.6c0.6,2,1.6,4,2.9,5.7c1.1,1.5,2.6,2.7,4.3,3.5c1.6,0.8,3.5,1.2,5.3,1.2c1,0,2-0.1,3-0.2
			c0.9-0.1,1.7-0.3,2.5-0.6c0.8-0.3,1.5-0.7,2.2-1.2c0.7-0.5,1.4-1.1,2-1.8c0.3-0.2,0.5-0.4,0.8-0.5
			C520.8,381.3,521.1,381.2,521.5,381.2z"/>
		<path class="st0" d="M576.3,393.9h-10.8v-22.7h-22v22.7h-10.8v-52.4h10.8v22.4h22v-22.4h10.8V393.9z"/>
		<path class="st0" d="M631.7,393.9h-8.3c-0.8,0-1.6-0.2-2.3-0.6c-0.6-0.4-1-1-1.3-1.6l-3.4-10.3h-20l-3.4,10.3
			c-0.3,0.6-0.7,1.2-1.3,1.6c-0.6,0.5-1.5,0.8-2.3,0.7h-8.4l19.8-52.4h11L631.7,393.9z M598.8,374.1H614l-5.5-16.6
			c-0.3-0.8-0.7-1.8-1-2.9s-0.7-2.3-1.1-3.6c-0.3,1.3-0.7,2.5-1,3.6c-0.4,1.1-0.7,2.1-1,2.9L598.8,374.1z"/>
		<path class="st0" d="M643.5,341.6c0.3,0,0.6,0.1,0.9,0.2c0.3,0.1,0.5,0.3,0.7,0.5c0.3,0.3,0.5,0.5,0.8,0.8l26.8,34
			c-0.2-1.7-0.2-3.4-0.2-4.9v-30.7h9.5v52.4h-5.5c-0.7,0-1.4-0.1-2.1-0.4c-0.6-0.3-1.2-0.8-1.7-1.4L646,358.4c0.2,1.5,0.2,3,0.3,4.5
			v31h-9.5v-52.3h5.6C642.8,341.6,643.2,341.6,643.5,341.6z"/>
		<path class="st0" d="M728,393.2c-3.2,0.9-6.5,1.3-9.8,1.3c-4.1,0.1-8.1-0.6-11.9-2c-3.4-1.2-6.5-3.1-9.1-5.6
			c-2.5-2.4-4.5-5.3-5.9-8.5c-1.4-3.4-2.1-7.1-2.1-10.8c0-3.7,0.6-7.4,2-10.8c1.2-3.2,3.2-6.1,5.6-8.5c2.5-2.4,5.5-4.3,8.8-5.5
			c3.7-1.4,7.6-2,11.6-2c2.1,0,4.1,0.2,6.2,0.5c1.8,0.3,3.6,0.8,5.3,1.4c1.6,0.6,3.1,1.3,4.5,2.2c1.3,0.8,2.5,1.7,3.7,2.8l-3.1,4.6
			c-0.4,0.7-1.1,1.2-1.9,1.4c-0.9,0.2-1.8,0-2.5-0.5c-0.8-0.5-1.7-1-2.5-1.4c-0.9-0.4-1.8-0.8-2.7-1.1c-1-0.3-2.1-0.6-3.2-0.8
			c-1.3-0.2-2.7-0.3-4-0.3c-2.4,0-4.7,0.4-6.9,1.3c-2,0.8-3.8,2-5.2,3.6c-1.5,1.6-2.6,3.6-3.3,5.7c-0.8,2.4-1.2,4.9-1.2,7.4
			c0,2.7,0.4,5.4,1.3,7.9c0.7,2.2,1.9,4.2,3.5,5.9c1.6,1.6,3.5,2.9,5.6,3.6c3.9,1.4,8.1,1.6,12.1,0.7c1.5-0.4,2.9-0.9,4.2-1.5v-9.1
			h-6.3c-0.6,0-1.1-0.2-1.6-0.5c-0.4-0.3-0.6-0.8-0.6-1.3v-5.8h18.2v21.5C734.1,390.8,731.1,392.3,728,393.2z"/>
		<path class="st0" d="M756.9,393.9h-10.8v-52.4h10.8V393.9z"/>
		<path class="st0" d="M774.5,341.6c0.3,0,0.6,0.1,0.9,0.2c0.3,0.1,0.5,0.3,0.7,0.5c0.3,0.3,0.5,0.5,0.8,0.8l26.8,34
			c-0.2-1.7-0.2-3.4-0.2-4.9v-30.7h9.5v52.4h-5.5c-0.7,0-1.4-0.1-2.1-0.4c-0.6-0.3-1.2-0.8-1.7-1.4l-26.7-33.8
			c0.2,1.5,0.2,3,0.3,4.5v31h-9.5v-52.3h5.6C773.7,341.6,774.1,341.6,774.5,341.6z"/>
		<path class="st0" d="M858.9,393.2c-3.2,0.9-6.5,1.3-9.8,1.3c-4.1,0.1-8.1-0.6-11.9-2c-3.4-1.2-6.5-3.1-9.1-5.6
			c-2.5-2.4-4.5-5.3-5.9-8.5c-1.4-3.4-2.1-7.1-2.1-10.8c0-3.7,0.6-7.4,2-10.8c1.2-3.2,3.2-6.1,5.6-8.5c2.5-2.4,5.5-4.3,8.8-5.5
			c3.7-1.4,7.6-2,11.6-2c2.1,0,4.1,0.2,6.2,0.5c1.8,0.3,3.6,0.8,5.3,1.4c1.6,0.6,3.1,1.3,4.5,2.2c1.3,0.8,2.5,1.7,3.7,2.8l-3.1,4.6
			c-0.4,0.7-1.1,1.2-1.9,1.4c-0.9,0.2-1.8,0-2.5-0.5c-0.8-0.5-1.7-1-2.5-1.4c-0.9-0.4-1.8-0.8-2.7-1.1c-1-0.3-2.1-0.6-3.2-0.8
			c-1.3-0.2-2.7-0.3-4-0.3c-2.4,0-4.7,0.4-6.9,1.3c-2,0.8-3.8,2-5.2,3.6c-1.5,1.6-2.6,3.6-3.3,5.7c-0.8,2.4-1.2,4.9-1.2,7.4
			c0,2.7,0.4,5.4,1.3,7.9c0.8,2.2,2,4.2,3.6,5.9c1.6,1.6,3.5,2.9,5.6,3.6c3.9,1.4,8.1,1.6,12.1,0.7c1.5-0.4,2.9-0.9,4.2-1.5v-9.1
			h-6.3c-0.6,0-1.1-0.2-1.6-0.5c-0.4-0.3-0.6-0.8-0.6-1.3v-5.8h18.2v21.5C865,390.8,862,392.3,858.9,393.2z"/>
		<path class="st0" d="M930.9,341.6v8.4h-14.6v43.9h-10.7V350h-14.6v-8.4H930.9z"/>
		<path class="st0" d="M979.9,393.9h-10.8v-22.7h-22v22.7h-10.8v-52.4h10.8v22.4h22v-22.4h10.8V393.9z"/>
		<path class="st0" d="M1022.5,341.6v8.3h-22.3v13.9h17.4v7.9h-17.4v14.1h22.4v8.3h-33.2v-52.4H1022.5z"/>
		<path class="st0" d="M1044.7,341.6h9c0.8,0,1.6,0.2,2.3,0.6c0.6,0.4,1,1,1.3,1.7l8,30.3c0.5,1.6,0.9,3.4,1.3,5.5
			c0.2-1,0.4-2,0.7-2.9c0.2-0.9,0.5-1.7,0.8-2.6l9.5-30.2c0.3-0.6,0.7-1.2,1.3-1.6c0.7-0.5,1.4-0.7,2.3-0.7h3.2
			c0.8,0,1.6,0.2,2.3,0.6c0.6,0.4,1,1,1.3,1.7l9.5,30.3c0.3,0.8,0.5,1.6,0.8,2.5c0.2,0.9,0.5,1.9,0.7,2.9c0.2-1,0.4-1.9,0.6-2.8
			s0.4-1.7,0.6-2.5l8-30.3c0.2-0.7,0.7-1.2,1.3-1.6c0.7-0.5,1.5-0.7,2.3-0.7h8.4l-16.1,52.4h-9.7l-10.8-34.8c-0.2-0.5-0.3-1-0.5-1.5
			s-0.3-1.1-0.4-1.7c-0.1,0.6-0.3,1.2-0.4,1.7l-0.4,1.5l-11,34.8h-9.7L1044.7,341.6z"/>
		<path class="st0" d="M1174,367.7c0,3.6-0.6,7.3-1.9,10.7c-1.2,3.2-3,6.1-5.3,8.5c-2.4,2.4-5.2,4.3-8.3,5.6c-7,2.7-14.6,2.7-21.6,0
			c-3.1-1.3-6-3.2-8.3-5.6c-2.4-2.4-4.2-5.3-5.4-8.5c-2.5-6.9-2.5-14.4,0-21.3c2.4-6.4,7.4-11.5,13.7-14.1c6.9-2.7,14.7-2.7,21.6,0
			c3.1,1.3,6,3.2,8.3,5.6c2.3,2.4,4.2,5.3,5.3,8.5C1173.4,360.5,1174,364.1,1174,367.7z M1163,367.7c0-2.5-0.3-5.1-1.1-7.5
			c-0.6-2.1-1.6-4-3-5.6c-1.3-1.5-3-2.8-4.8-3.6c-4.1-1.7-8.8-1.7-12.9,0c-1.9,0.8-3.5,2-4.8,3.6c-1.4,1.7-2.4,3.6-3,5.6
			c-0.7,2.4-1.1,5-1.1,7.5c0,2.6,0.3,5.1,1.1,7.5c0.6,2.1,1.6,4,3,5.6c1.3,1.5,3,2.7,4.8,3.5c4.1,1.6,8.8,1.6,12.9,0
			c1.9-0.8,3.5-2,4.8-3.5c1.4-1.7,2.4-3.6,3-5.6C1162.7,372.8,1163,370.3,1163,367.7z"/>
		<path class="st0" d="M1191.5,373.8v20.2h-10.8v-52.4h16.4c3.1-0.1,6.3,0.3,9.3,1.1c2.3,0.6,4.5,1.7,6.4,3.1
			c1.6,1.3,2.8,2.9,3.6,4.8c0.8,2,1.2,4,1.2,6.1c0,1.7-0.2,3.3-0.7,4.9c-0.5,1.5-1.2,2.9-2.2,4.2c-1,1.3-2.1,2.4-3.4,3.4
			c-1.4,1-3,1.8-4.7,2.4c0.7,0.4,1.3,0.8,1.9,1.3c0.6,0.6,1.2,1.2,1.7,1.9l12.2,19.1h-9.7c-1.6,0.1-3.1-0.7-4-2.1l-9.9-16.3
			c-0.3-0.6-0.8-1-1.4-1.3c-0.7-0.3-1.4-0.4-2.2-0.4L1191.5,373.8z M1191.5,366.4h5.5c1.5,0,3.1-0.2,4.5-0.7c1.2-0.4,2.2-1,3.1-1.9
			c0.8-0.8,1.4-1.8,1.8-2.8c0.4-1.1,0.6-2.4,0.6-3.6c0.1-2.2-0.8-4.4-2.5-5.9c-1.6-1.4-4.1-2.1-7.5-2.1h-5.6L1191.5,366.4z"/>
		<path class="st0" d="M1238.3,385.4h18.9v8.5h-29.6v-52.4h10.8V385.4z"/>
		<path class="st0" d="M1309.4,367.7c0,3.6-0.6,7.2-1.9,10.6c-2.4,6.3-7.4,11.3-13.7,13.7c-3.4,1.3-7.1,2-10.8,1.9h-19.8v-52.4h19.8
			c3.7,0,7.4,0.6,10.8,1.9c3.1,1.2,6,3.1,8.3,5.4c2.3,2.4,4.2,5.2,5.3,8.3C1308.8,360.5,1309.4,364.1,1309.4,367.7z M1298.5,367.7
			c0-2.5-0.3-5.1-1.1-7.5c-0.6-2.1-1.7-4-3.1-5.6c-1.3-1.5-3-2.8-4.8-3.6c-2-0.9-4.2-1.3-6.5-1.2h-9v35.9h9c2.2,0,4.4-0.4,6.5-1.2
			c1.9-0.8,3.5-2,4.8-3.5c1.4-1.7,2.4-3.6,3.1-5.7C1298.2,372.8,1298.5,370.3,1298.5,367.7L1298.5,367.7z"/>
	</g>
	<g>
		<path class="st0" d="M1015,285.5c-3.6,1.8-7.4,3.3-11.3,4.3c-4.9,1.3-10,1.9-15.2,1.8c-9.4,0-17.1-1.4-23.2-4.2
			c-5.8-2.6-11.2-6.1-15.9-10.4c-6.2-5.9-10.6-12.1-13.2-18.6c-2.7-6.8-4-14.1-3.9-21.4c0-9.5,1.7-17.7,5.1-24.5
			c3-6.2,7-11.8,12-16.5c5.1-4.8,11.3-8.5,18-10.7c6.9-2.2,14.1-3.2,21.3-3.1c4.1,0,8.2,0.5,12.2,1.3c4.9,1,9.6,2.8,14,5.2v23.9
			c-2.2-2.5-4.8-4.7-7.6-6.4c-2.4-1.5-4.9-2.6-7.5-3.5c-2.1-0.7-4.2-1.2-6.4-1.5c-1.4-0.2-2.8-0.3-4.2-0.3c-5-0.1-10,1-14.6,3
			c-4.3,1.9-8.1,4.6-11.2,8.1c-3.1,3.4-5.5,7.4-7.1,11.7c-1.7,4.4-2.5,9.1-2.5,13.8c-0.1,5.3,1,10.5,3.1,15.4
			c1.9,4.3,4.7,8.1,8.3,11.2c3.4,3,7.4,5.3,11.6,6.8c4.2,1.5,8.7,2.3,13.2,2.4c4.8,0,9.6-1,14-3c4.3-2,8-4.9,11.1-8.5L1015,285.5z"
			/>
		<path class="st0" d="M538,289.4h-14.7l-37.8-107h22.1l23.9,71.3l26.1-72.2h11.5l24.7,72.2l25.6-71.3h22.1l-40.2,107h-14.8
			l-23.7-68.7L538,289.4z"/>
		<path class="st0" d="M755.5,276.8l-33-57.8h22.8l21.5,38.6l19.2-38.6h22.1l-55.9,104.4H730L755.5,276.8z"/>
		<path class="st0" d="M837.2,163.6v80.3l26-24.8h25.3L856,248.9l35.1,38.1h-26l-25.8-29l-2.1,1.9v27.1h-19.5V163.6H837.2z"/>
		<path class="st0" d="M897.8,190.4c0-3.1,1.2-6,3.5-8.1c4.6-4.5,11.9-4.5,16.5,0c4.5,4.3,4.6,11.4,0.3,15.9
			c-0.1,0.1-0.2,0.2-0.3,0.3c-4.6,4.5-11.9,4.5-16.5,0C899,196.4,897.8,193.4,897.8,190.4z M919.3,219.1v68h-19.5v-68H919.3z"/>
		<path class="st0" d="M1027.3,163.6h19.6v64.3c1-1.3,2.2-2.6,3.4-3.8c1.4-1.4,2.9-2.6,4.6-3.5c1.9-1.1,3.9-2,6-2.6
			c2.4-0.7,5-1,7.5-1c3.6,0.1,7.1,0.6,10.5,1.6c7.4,2.3,12.9,8.4,14.6,15.9c0.6,3.3,0.9,6.6,0.9,9.9v42.7h-19.6v-37
			c0-2.3-0.2-4.5-0.5-6.8c-0.3-2.5-1.4-4.8-3.2-6.6c-1.3-1.5-3.1-2.5-5-2.9c-1.4-0.3-2.8-0.5-4.2-0.6c-2.3,0-4.7,0.4-6.8,1.4
			c-2.1,1-3.9,2.6-5.2,4.6c-1.4,2-2.3,4.3-2.6,6.8c-0.3,2.1-0.4,4.3-0.4,6.4v34.7h-19.6L1027.3,163.6z"/>
		<path class="st0" d="M1202.3,190.4c0-3.1,1.2-6,3.4-8.1c4.6-4.5,11.9-4.5,16.5,0c4.5,4.3,4.6,11.4,0.3,15.9
			c-0.1,0.1-0.2,0.2-0.3,0.3c-4.6,4.5-11.9,4.5-16.5,0C1203.6,196.4,1202.3,193.4,1202.3,190.4z M1223.8,219.1v68h-19.6v-68H1223.8z
			"/>
		<path class="st0" d="M1242.4,219.1h19.6v8.8c1-1.3,2.2-2.6,3.4-3.8c1.4-1.4,2.9-2.6,4.6-3.5c1.9-1.1,3.9-2,6-2.6
			c2.4-0.7,5-1,7.5-1c3.6,0.1,7.1,0.6,10.5,1.6c7.4,2.3,12.9,8.4,14.6,15.9c0.6,3.3,0.9,6.6,0.9,9.9v42.7h-19.6v-37
			c0-2.3-0.2-4.5-0.5-6.8c-0.3-2.5-1.4-4.8-3.2-6.6c-1.3-1.5-3.1-2.5-5-2.9c-1.4-0.3-2.8-0.5-4.2-0.6c-2.3,0-4.7,0.4-6.8,1.4
			c-2.1,1-3.9,2.6-5.2,4.6c-1.4,2-2.3,4.3-2.7,6.8c-0.3,2.1-0.4,4.3-0.4,6.4v34.7h-19.6L1242.4,219.1z"/>
		<path class="st0" d="M693.3,219.1v8.8c-1.4-2.3-3.3-4.4-5.5-6c-1.9-1.4-4-2.5-6.2-3.3c-1.9-0.7-3.9-1.2-5.9-1.4
			c-1.6-0.2-3.1-0.3-4.7-0.3c-4.8-0.1-9.6,0.9-14,2.8c-4.1,1.8-7.8,4.4-10.9,7.7c-3.1,3.3-5.5,7.2-7,11.5c-1.7,4.5-2.5,9.3-2.5,14.1
			c0,4.8,0.8,9.6,2.6,14.1c1.6,4.3,4.1,8.2,7.2,11.5c3.1,3.3,6.9,6,11.1,7.8c4.6,1.9,9.5,2.9,14.5,2.8c1.5,0,3-0.1,4.5-0.3
			c1.9-0.3,3.7-0.8,5.5-1.5c2.1-0.9,4-2,5.8-3.3c2.2-1.6,4-3.6,5.5-5.9v8.8h19.5v-68L693.3,219.1z M671.3,272.2
			c-10.6-0.2-19-9-18.8-19.6s9-19,19.6-18.8c10.5,0.2,18.8,8.8,18.8,19.2C690.8,263.7,682,272.3,671.3,272.2z"/>
		<path class="st0" d="M1166.1,219.1v8.8c-1.4-2.3-3.3-4.4-5.4-6c-1.9-1.4-4-2.5-6.2-3.3c-1.9-0.7-3.9-1.2-5.9-1.4
			c-1.6-0.2-3.1-0.3-4.7-0.3c-4.8-0.1-9.6,0.9-14,2.8c-4.1,1.8-7.8,4.4-10.9,7.7c-3.1,3.3-5.5,7.2-7.1,11.5
			c-1.7,4.5-2.5,9.3-2.5,14.1c0,4.8,0.8,9.6,2.6,14.1c1.6,4.3,4.1,8.2,7.2,11.5c3.1,3.3,6.9,6,11.1,7.8c4.6,1.9,9.5,2.9,14.5,2.8
			c1.5,0,3-0.1,4.5-0.3c1.9-0.3,3.7-0.8,5.4-1.5c2.1-0.9,4-2,5.8-3.3c2.2-1.6,4-3.6,5.5-5.9v8.8h19.6v-68L1166.1,219.1z
			 M1145.1,272.2c-10.6-0.2-19-9-18.8-19.6c0.2-10.6,9-19,19.6-18.8c10.5,0.2,18.8,8.8,18.8,19.2
			C1164.6,263.7,1155.8,272.3,1145.1,272.2z"/>
	</g>
</g>
<path class="st0" d="M460.6,272.1c-0.1,0-0.3,0-0.4,0l-12.6-60.9c2.8-1.1,4.2-4.2,3.2-7.1c-0.8-2.1-2.8-3.5-5-3.5
	c-1,0-1.9,0.3-2.8,0.8l-49.6-58.8c2.2-2.1,2.2-5.5,0.2-7.6s-5.5-2.2-7.6-0.2c-0.4,0.4-0.8,0.9-1.1,1.4l-49.9-22.6
	c0.2-0.6,0.3-1.1,0.3-1.7c0-3-2.5-5.5-5.5-5.5c-2.7,0-5,1.9-5.4,4.6H294c-2.2-1.8-5.3-1.8-7.5,0h-30.4c-0.5-3-3.2-5-6.2-4.6
	c-3,0.5-5,3.2-4.6,6.2c0,0.3,0.1,0.7,0.2,1l-49.9,22.7c-1.3-2.7-4.6-3.7-7.3-2.4s-3.7,4.6-2.4,7.3c0.3,0.5,0.6,1,1.1,1.5l-49.9,58.5
	c-0.8-0.5-1.8-0.8-2.8-0.8c-3,0-5.5,2.4-5.5,5.5c0,2.3,1.4,4.4,3.6,5.2l-12.4,61.1c-0.1,0-0.3,0-0.4,0c-3.8,0-6.9,3.1-6.9,6.9
	s3.1,6.9,6.9,6.9c0.1,0,0.3,0,0.4,0l12.5,61c-2.8,1-4.3,4.1-3.3,7c0.8,2.2,2.9,3.6,5.2,3.6c1,0,1.9-0.3,2.8-0.8l49.8,58.6
	c-2.2,2.1-2.2,5.5-0.2,7.6c2.1,2.2,5.5,2.2,7.6,0.2c0.4-0.4,0.8-0.9,1.1-1.4l49.9,22.7c-0.2,0.6-0.3,1.1-0.3,1.7
	c0,3,2.5,5.5,5.5,5.5c2.7,0,5-1.9,5.4-4.6h30.4c2.2,1.8,5.3,1.8,7.5,0h30.4c0.5,3,3.3,5,6.3,4.5c2.6-0.4,4.6-2.7,4.6-5.4
	c0-0.6-0.1-1.2-0.3-1.7l49.9-22.7c1.4,2.7,4.6,3.7,7.3,2.3c2.7-1.4,3.7-4.6,2.3-7.3c-0.3-0.5-0.6-1-1.1-1.4l49.7-58.4
	c0.8,0.5,1.8,0.8,2.8,0.8c3,0,5.5-2.4,5.5-5.5c0-2.3-1.4-4.4-3.6-5.2l12.6-61.3c0.1,0,0.3,0,0.4,0c3.8,0,6.9-3.1,6.9-6.9
	S464.5,272.1,460.6,272.1L460.6,272.1z M445.3,211.6l5.6,44.9l-17.8-37.3c2.3-1.7,3.2-4.8,2.2-7.5l5.7-2.7
	C442,210.5,443.6,211.4,445.3,211.6L445.3,211.6z M421,328.2l-1.2-44.9c1.8-0.1,3.3-1.3,3.8-3h9c0,0.2,0.1,0.4,0.2,0.7
	c0.1,0.3,0.1,0.5,0.2,0.7l0,0.1c0.7,1.8,2.1,3.1,3.8,3.8l-4.7,31.9l-8.5,15.4L421,328.2z M423.4,336.7L423.4,336.7L423.4,336.7
	L423.4,336.7z M156.7,333l-8.4-15.4l-4.7-31.9c2.3-0.9,3.9-2.9,4.3-5.4h9.1c0.1,0.3,0.3,0.5,0.4,0.8c0.6,1.2,1.8,2,3.2,2.2
	l-1.2,44.9L156.7,333z M157.1,336.7L157.1,336.7L157.1,336.7L157.1,336.7z M159.4,229.9l1.2,44.9c-1.4,0.2-2.5,1-3.2,2.2
	c-0.2,0.2-0.3,0.5-0.4,0.8h-9.1c-0.3-2.4-2-4.5-4.3-5.4l4.7-31.9l8.4-15.4L159.4,229.9z M157,221.4L157,221.4L157,221.4L157,221.4z
	 M423.7,225.2l8.5,15.4l4.7,31.9c-1.8,0.7-3.1,2.1-3.8,3.8l0,0.1c-0.1,0.2-0.2,0.5-0.2,0.7c-0.1,0.2-0.1,0.4-0.2,0.7h-9
	c-0.5-1.7-2-2.9-3.8-3l1.2-45L423.7,225.2z M423.4,221.5L423.4,221.5L423.4,221.5L423.4,221.5z M424.6,223.7l2-3.6
	c0.8,0.3,1.6,0.5,2.4,0.5h0.2l2.3,15.8L424.6,223.7z M449.4,278h-3.3c-0.3-2-1.5-3.8-3.3-4.9c-0.1-0.1-0.3-0.1-0.4-0.2
	s-0.3-0.2-0.5-0.2c-0.9-0.4-1.8-0.6-2.7-0.6c-0.1,0-0.3,0-0.4,0l-3.9-26.2l16,29.2C450.2,275.9,449.6,276.9,449.4,278L449.4,278z
	 M451,283l-16,29.2l3.9-26.2c0.1,0,0.2,0,0.4,0c0.9,0,1.9-0.2,2.7-0.6c0.2-0.1,0.3-0.1,0.5-0.2s0.3-0.1,0.4-0.2c1.8-1,3-2.8,3.3-4.9
	h3.3C449.6,281.2,450.2,282.3,451,283L451,283z M421.1,225.4l0.1-3.2c0.3,0,0.5-0.1,0.8-0.1l0.5,0.9L421.1,225.4z M422.3,213.8
	C422.3,213.8,422.3,213.9,422.3,213.8c-0.4-0.1-0.9-0.2-1.4-0.2c-0.3,0-0.7,0.1-1,0.1v-0.2l-1.3-2.9l4,1.4
	C422.4,212.7,422.3,213.3,422.3,213.8L422.3,213.8z M419.7,222.1l-0.1,6.1L401.8,259l-17.4-19.8c0.6-0.7,1-1.7,1-2.7
	c0-0.4-0.1-0.8-0.2-1.2l32.1-15.2C417.8,221.1,418.7,221.8,419.7,222.1L419.7,222.1z M361.5,369.7l2.3-0.8l-2.1,6
	c-0.2,0-0.4-0.1-0.6-0.1c-0.3,0-0.6,0-0.8,0.1C361.4,373.4,361.9,371.5,361.5,369.7L361.5,369.7z M360.8,367.7
	c-0.6-1-1.4-1.9-2.4-2.5l16.8-41.8l1.8-0.3c0.4,1,1.1,1.9,2.1,2.4l-14.3,40.9L360.8,367.7z M356.8,379.2l-9.6,1.8l4-4.4
	c1.8,1.2,4.1,1.4,6.1,0.6c-0.3,0.6-0.5,1.2-0.5,1.8L356.8,379.2L356.8,379.2z M294.4,392.2l47.8-8.8L314.4,414l-20.8-19.4
	C294.1,393.9,294.4,393.1,294.4,392.2C294.4,392.2,294.4,392.2,294.4,392.2L294.4,392.2z M294.1,390.8c-0.3-0.7-0.7-1.3-1.3-1.8
	l10.4-17h45.1c0.2,1.1,0.7,2.2,1.4,3.1l-5.9,6.5L294.1,390.8z M286.8,394.7L266,414l-27.8-30.7l47.8,8.8c0,0,0,0,0,0.1
	C286,393.1,286.3,393.9,286.8,394.7L286.8,394.7z M286.3,390.8l-49.7-9.2l-5.9-6.5c0.7-0.9,1.2-2,1.4-3.1h45.1l10.4,17
	C287,389.5,286.6,390.1,286.3,390.8L286.3,390.8z M223.5,379c0-0.6-0.2-1.2-0.5-1.8c2,0.8,4.3,0.6,6.1-0.6l4,4.4l-9.6-1.8l0,0
	L223.5,379z M220.1,375c-0.5-0.1-1-0.1-1.5,0l-2.1-6l2.3,0.8c-0.1,0.4-0.1,0.8-0.1,1.2C218.8,372.5,219.2,373.8,220.1,375L220.1,375
	z M219.6,367.8l-4-1.4l-14.3-40.9c1-0.5,1.7-1.3,2.1-2.4l1.8,0.3l16.9,41.7c-1,0.6-1.8,1.5-2.4,2.5V367.8z M218.9,188.5l-2.3,0.8
	l2.1-6c0.2,0,0.4,0.1,0.6,0.1c0.3,0,0.6,0,0.8-0.1c-0.9,1.2-1.4,2.6-1.4,4C218.7,187.7,218.8,188.1,218.9,188.5L218.9,188.5z
	 M219.6,190.5c0.6,1,1.4,1.9,2.4,2.5l-16.8,41.8l-1.8,0.3c-0.4-1-1.1-1.9-2.1-2.4l14.3-40.9L219.6,190.5z M223.6,179l9.6-1.8l-4,4.4
	c-1.8-1.2-4.1-1.4-6.1-0.6c0.3-0.6,0.5-1.2,0.5-1.8L223.6,179L223.6,179z M286,166l-47.8,8.8l27.8-30.7l20.8,19.4
	c-0.5,0.7-0.8,1.6-0.8,2.4C286,165.9,286,166,286,166L286,166z M286.3,167.4c0.3,0.7,0.7,1.3,1.3,1.8l-10.4,17h-45.1
	c-0.2-1.1-0.7-2.2-1.4-3.1l5.9-6.5L286.3,167.4z M293.6,163.5l20.8-19.4l27.8,30.7l-47.8-8.8c0,0,0,0,0-0.1
	C294.4,165.1,294.1,164.2,293.6,163.5L293.6,163.5z M294.1,167.4l49.7,9.2l5.9,6.5c-0.7,0.9-1.2,2-1.4,3.1h-45.1l-10.4-17
	C293.4,168.7,293.8,168.1,294.1,167.4L294.1,167.4z M356.9,179.2c0,0.6,0.2,1.2,0.5,1.8c-2-0.8-4.3-0.6-6.1,0.6l-4-4.4l9.6,1.8l0,0
	L356.9,179.2z M360.3,183.2c0.3,0.1,0.6,0.1,0.8,0.1c0.2,0,0.4,0,0.6-0.1l2.1,6l-2.3-0.8C361.9,186.6,361.5,184.7,360.3,183.2
	L360.3,183.2z M360.8,190.5l4,1.4l14.3,40.9c-1,0.5-1.7,1.3-2.1,2.4l-1.8-0.3L358.5,193C359.5,192.4,360.3,191.5,360.8,190.5
	L360.8,190.5z M394.1,272.5c-1.2-0.4-2.5-0.5-3.8-0.2l-6.7-16.7l-1.4-15c0.4-0.1,0.8-0.3,1.2-0.5l17.7,20.1L394.1,272.5z M402.7,262
	l13.1,14.8l-0.4,1l-16.7-0.1c-0.3-1.7-1.2-3.2-2.5-4.2L402.7,262z M386.4,275c-0.3-0.1-0.7-0.2-1-0.2l-1.1-11.3l3.9,9.6
	C387.5,273.7,386.9,274.3,386.4,275L386.4,275z M388.2,285l-3.9,9.6l1.1-11.3c0.3,0,0.7-0.1,1-0.2
	C386.9,283.9,387.5,284.5,388.2,285L388.2,285z M382.6,259.2l1.5,15.9c-1.3,0.4-2.4,1.4-2.9,2.7h-29.9c-0.2-0.4-0.4-0.8-0.6-1.2
	l25.7-32.8L382.6,259.2z M285.4,274.1c-1,1-1.7,2.2-1.9,3.6l-46.6,0.1c-0.4-0.8-1-1.5-1.8-1.9l17.1-44.8c0.9,0.2,1.8,0.2,2.7-0.2
	L285.4,274.1z M256.7,229.4c0.4-0.6,0.7-1.2,0.8-1.9h32.7h32.7c0.1,0.7,0.4,1.3,0.8,1.9L293,272.7c-0.9-0.4-1.8-0.6-2.8-0.6h-0.1
	c-1,0-1.9,0.2-2.8,0.6L256.7,229.4z M236.9,280.6l46.6,0.1c0.3,1.4,0.9,2.6,1.9,3.6l-30.6,43.2c-0.9-0.4-1.8-0.4-2.7-0.2l-17.1-44.8
	C235.9,282,236.5,281.3,236.9,280.6L236.9,280.6z M287.4,285.6c0.9,0.4,1.8,0.6,2.8,0.6h0.1c1,0,1.9-0.2,2.8-0.6l30.7,43.4
	c-0.4,0.6-0.7,1.2-0.8,1.9h-32.7h-32.7c-0.1-0.7-0.4-1.3-0.8-1.9L287.4,285.6z M295,284.2c1-1,1.7-2.2,1.9-3.6l46.4-0.1
	c0.3,0.9,1,1.7,1.9,2.3l-16.9,44.4c-0.9-0.2-1.8-0.2-2.7,0.2L295,284.2z M343.3,277.6h-46.4c-0.3-1.4-0.9-2.6-1.9-3.6l30.6-43.2
	c0.9,0.4,1.8,0.4,2.7,0.2l16.9,44.4C344.3,276,343.6,276.7,343.3,277.6z M327.2,222.5c-0.5,0-1,0.1-1.5,0.3l-21.1-34.4h43.7
	c0.2,1.4,0.9,2.7,1.9,3.7l-21.8,30.7C328,222.6,327.6,222.5,327.2,222.5z M324.5,223.5c-0.8,0.7-1.4,1.6-1.6,2.7h-32.8h-32.8
	c-0.2-1.1-0.7-2-1.6-2.7l21.5-35.1H303L324.5,223.5z M254.8,222.8c-0.9-0.4-1.9-0.4-2.8-0.1L230.3,192c1-1,1.6-2.3,1.9-3.7h43.7
	L254.8,222.8z M251,230.5l-17.1,44.8c-0.3-0.1-0.6-0.1-0.9-0.1c-0.8,0-1.6,0.2-2.2,0.6l-26.3-33.5l2.6-6.5l42-7.7
	C249.5,229.1,250.1,229.9,251,230.5z M233,283c0.3,0,0.6,0,0.9-0.1l17.1,44.8c-0.9,0.5-1.5,1.3-1.8,2.3l-42-7.7l-2.6-6.5l26.3-33.5
	C231.5,282.7,232.2,282.9,233,283z M252,335.4c0.9,0.3,1.9,0.3,2.8-0.1l21.1,34.4h-43.7c-0.2-1.4-0.9-2.7-1.9-3.7L252,335.4z
	 M255.9,334.7c0.8-0.7,1.4-1.6,1.6-2.7h32.8H323c0.2,1.1,0.7,2,1.6,2.7l-21.5,35h-25.6L255.9,334.7z M325.6,335.3
	c0.9,0.4,1.8,0.4,2.7,0.1l21.8,30.7c-1,1-1.6,2.3-1.9,3.7h-43.7L325.6,335.3z M329.4,327.7l16.9-44.5c1.2,0.3,2.5,0.1,3.5-0.7
	l26,33.3l-2.6,6.5l-42,7.7C330.9,329,330.3,328.2,329.4,327.7L329.4,327.7z M347.3,274.8c-0.3,0-0.7,0-1,0.1l-16.9-44.5
	c0.9-0.5,1.5-1.3,1.8-2.3l42,7.7l2.6,6.5l-26,33.3C349,275.1,348.2,274.8,347.3,274.8L347.3,274.8z M378,239.6l-0.5,0.7l-1.6-4
	l0.9,0.2c0,0,0,0.1,0,0.1C376.8,237.7,377.2,238.8,378,239.6z M378,241.7l1-1.3c0.6,0.3,1.2,0.5,1.8,0.5l1,10.4L378,241.7z
	 M372.6,234.3l-41.2-7.5c0,0,0,0,0-0.1c0-1.1-0.4-2.1-1.1-2.9l21.6-30.6c1.4,0.7,2.9,0.9,4.4,0.5L372.6,234.3z M301.6,186.2h-22.9
	l10-16.3c0.9,0.4,1.9,0.4,2.9,0L301.6,186.2z M224,193.9c1.5,0.3,3,0.2,4.4-0.5L250,224c-0.7,0.8-1.1,1.8-1.1,2.9c0,0,0,0,0,0.1
	l-41.2,7.5L224,193.9z M203.6,236.5l0.9-0.2l-1.6,4l-0.5-0.7c0.8-0.8,1.2-1.9,1.2-3C203.6,236.6,203.7,236.5,203.6,236.5
	L203.6,236.5z M201.4,240.4l1,1.3l-3.9,9.6l1-10.4C200.2,240.8,200.8,240.7,201.4,240.4L201.4,240.4z M204,243.7l25.9,32.9
	c-0.3,0.3-0.5,0.6-0.7,1h-30.3c-0.4-1.2-1.3-2.2-2.5-2.6l1.5-16L204,243.7z M196.8,255.7l-6.7,16.6c-1.2-0.3-2.6-0.3-3.8,0.2
	l-7-12.2l17.7-20.1c0.4,0.2,0.8,0.4,1.2,0.5L196.8,255.7z M195,274.8h-0.2c-0.3,0-0.6,0-0.9,0.1c-0.5-0.7-1.1-1.3-1.7-1.7l3.9-9.6
	L195,274.8z M196.1,294.6l-3.9-9.6c0.7-0.5,1.3-1,1.7-1.7c0.3,0.1,0.6,0.1,0.9,0.1h0.2L196.1,294.6z M184.3,273.5
	c-1.3,1-2.2,2.5-2.5,4.2l-16.6,0.1c-0.1-0.4-0.3-0.7-0.5-1.1l13-14.7L184.3,273.5z M163.8,275.8c-0.5-0.4-1.1-0.7-1.8-0.9l-1.1-42.2
	l16,28.1L163.8,275.8z M162.1,283.3c0.7-0.1,1.3-0.4,1.8-0.9l13.2,15l-16,28.1L162.1,283.3z M164.8,281.4c0.2-0.3,0.4-0.7,0.5-1.1
	l16.6,0.1c0.3,1.7,1.2,3.2,2.5,4.2l-6.6,11.5L164.8,281.4z M186.3,285.7c1.2,0.4,2.5,0.5,3.8,0.2l6.7,16.6l1.4,15
	c-0.4,0.1-0.8,0.3-1.2,0.5L179.3,298L186.3,285.7z M197.8,299.1l-1.5-16c1.2-0.4,2.1-1.4,2.5-2.6h30.3c0.2,0.4,0.4,0.7,0.7,1
	l-25.9,33L197.8,299.1z M202.4,318.6l0.5-0.7l1.6,4l-0.9-0.2c0,0,0-0.1,0-0.1C203.7,320.5,203.2,319.4,202.4,318.6L202.4,318.6z
	 M202.4,316.5l-1,1.3c-0.6-0.3-1.2-0.5-1.8-0.5l-1-10.4L202.4,316.5z M207.8,323.8l41.2,7.5c0,0,0,0,0,0c0,1.1,0.4,2.1,1.1,2.9
	l-21.7,30.6c-1.3-0.7-2.9-0.9-4.4-0.5L207.8,323.8z M278.8,372h22.8l-10,16.3c-0.9-0.4-1.9-0.4-2.9,0L278.8,372z M356.4,364.3
	c-1.5-0.3-3-0.2-4.4,0.5l-21.7-30.6c0.7-0.8,1.1-1.8,1.1-2.9c0,0,0,0,0,0l41.2-7.5L356.4,364.3z M376.7,321.6l-0.9,0.2l1.6-4
	l0.5,0.7c-0.8,0.8-1.2,1.9-1.2,3L376.7,321.6z M379,317.8l-1-1.3l3.9-9.6l-1,10.4C380.2,317.3,379.6,317.5,379,317.8L379,317.8z
	 M376.4,314.4l-25.7-32.8c0.3-0.4,0.5-0.8,0.6-1.2h29.9c0.4,1.3,1.5,2.3,2.9,2.7l-1.5,15.9L376.4,314.4z M383.6,302.4l6.7-16.6
	c1.2,0.3,2.6,0.3,3.8-0.2l7,12.2l-17.7,20.1c-0.4-0.2-0.8-0.4-1.2-0.5L383.6,302.4z M396.1,284.6c1.3-1,2.2-2.5,2.5-4.2l16.7-0.1
	l0.4,1l-13.1,14.8L396.1,284.6z M416.7,282.3c0.5,0.4,1,0.7,1.7,0.9l1.1,42.3l-16-28.1L416.7,282.3z M418.4,275
	c-0.6,0.2-1.2,0.5-1.7,0.9l-13.3-15.1l16-28.1L418.4,275z M417.7,215.1L402.1,205l13.5,4.7l0.1,0.1l2.2,5
	C417.9,215,417.8,215,417.7,215.1L417.7,215.1z M416.9,216.4c-0.3,0.8-0.4,1.7-0.2,2.5l-32.1,15.3c-0.9-1.4-2.6-2.2-4.2-1.9
	l-13.9-39.9l29.8,10.5L416.9,216.4z M365.6,189.9l-2.5-7.1c0.4-0.2,0.8-0.5,1.1-0.8l24.7,16.2L365.6,189.9z M362.4,174.9
	c-1.1-0.4-2.3-0.2-3.3,0.4l-31.1-38.4c0.4-0.4,0.6-0.9,0.8-1.4l53.2,7.3c0,1.1,0.4,2.2,1.2,3l-1.9,2.6L362.4,174.9z M382.2,141.2
	l-53.2-7.4l0,0c0-1.9-1.1-3.6-2.9-4.3l0.7-2.9l0,0l0.2-0.9l47.1,11l8,4.3L382.2,141.2z M326.7,137.9l31.2,38.4
	c-0.3,0.4-0.6,0.8-0.8,1.3l-11.5-2.1l-29.7-32.7l5.7-5.3C323,138.6,325,138.8,326.7,137.9L326.7,137.9z M324.7,129.1h-0.3
	c-1.4,0-2.8,0.7-3.7,1.8l-21.4-11.6l26.2,6.1L324.7,129.1z M314.9,141.6l-6.4-7.1h11.4c0.1,0.6,0.3,1.3,0.7,1.8L314.9,141.6z
	 M313.4,143l-20.8,19.5c-1.4-1.1-3.4-1.1-4.9,0L267,143l7.6-8.4h15.6h15.6L313.4,143z M265.5,141.6l-5.6-5.3
	c0.4-0.5,0.6-1.2,0.7-1.8H272L265.5,141.6z M256,138.5c1,0,2-0.4,2.9-1l5.7,5.3l-29.7,32.7l-11.5,2.1c-0.2-0.5-0.4-0.9-0.8-1.3
	l31.2-38.4C254.4,138.3,255.2,138.5,256,138.5z M254.9,125.5l26.2-6.1l-21.4,11.6c-0.9-1.1-2.2-1.8-3.7-1.8h-0.3L254.9,125.5z
	 M251.3,133.8L251.3,133.8l-53.1,7.4l-0.1-0.2l8-4.3l47.1-11l0.2,0.9l0,0l0.7,2.9C252.4,130.2,251.3,131.9,251.3,133.8L251.3,133.8z
	 M198.4,142.9l53.2-7.3c0.2,0.5,0.5,1,0.8,1.4l-31.1,38.4c-1-0.6-2.2-0.8-3.3-0.4l-18.9-26.5l-1.9-2.6
	C198,145,198.4,144,198.4,142.9L198.4,142.9z M214.8,189.9l-23.4,8.3l24.7-16.2c0.3,0.3,0.7,0.6,1.1,0.8L214.8,189.9z M213.9,192.5
	L200,232.3c-1.7-0.3-3.3,0.4-4.2,1.9l-32.1-15.3c0.1-0.3,0.1-0.7,0.1-1c0-0.5-0.1-1.1-0.3-1.6l20.6-13.5L213.9,192.5z M162.7,215.1
	c-0.1-0.1-0.2-0.2-0.3-0.3l2.2-5l0.1-0.1l13.5-4.7L162.7,215.1z M163.1,220.3l32.1,15.2c-0.1,0.4-0.2,0.8-0.2,1.2c0,1,0.4,1.9,1,2.7
	L178.6,259l-17.7-30.8l-0.1-6.1C161.7,221.8,162.6,221.1,163.1,220.3L163.1,220.3z M160.5,213.6v0.2c-0.3-0.1-0.7-0.1-1-0.1
	c-0.5,0-1,0.1-1.4,0.3c0,0,0-0.1,0-0.1c0-0.6-0.1-1.2-0.3-1.7l4-1.4L160.5,213.6z M159.3,225.4l-1.4-2.4l0.5-0.9
	c0.3,0.1,0.5,0.1,0.8,0.1L159.3,225.4z M141.1,272.1c-3.4,0-6.3,2.6-6.7,5.9H131c-0.2-1.2-0.7-2.2-1.6-3l16-29.2l-3.9,26.2
	C141.4,272.1,141.3,272.1,141.1,272.1L141.1,272.1z M145.4,312.3l-16-29.2c0.9-0.8,1.4-1.8,1.6-3h3.5c0.4,3.4,3.3,5.9,6.7,5.9
	c0.1,0,0.3,0,0.4,0L145.4,312.3z M148.9,236.4l2.3-15.8h0.2c0.8,0,1.6-0.2,2.4-0.5l2,3.6L148.9,236.4z M146,241.6l-17.9,32.6
	c-0.2-0.1-0.3-0.1-0.5-0.2l1.3-11.5l20.3-42.3l0,0L146,241.6z M128.1,284l17.9,32.6l3.1,21.4l0,0l-20.3-42.3l-1.3-11.5
	C127.7,284.1,127.9,284,128.1,284L128.1,284z M148.9,321.8l7,12.7l-2,3.5c-0.8-0.3-1.6-0.5-2.4-0.5h-0.2L148.9,321.8z M159.3,332.7
	l-0.1,3.2c-0.3,0-0.5,0.1-0.8,0.1l-0.5-0.9L159.3,332.7z M158.1,344.3C158.1,344.3,158.1,344.2,158.1,344.3c0.4,0.1,0.9,0.2,1.4,0.2
	c0.3,0,0.7-0.1,1-0.1v0.2l1.3,2.9l-4-1.4C158,345.5,158.1,344.9,158.1,344.3L158.1,344.3z M160.7,336.1l0.1-6.1l17.7-30.8l17.4,19.8
	c-0.6,0.7-1,1.7-1,2.7c0,0.4,0.1,0.8,0.2,1.2l-32.1,15.2C162.6,337,161.7,336.4,160.7,336.1L160.7,336.1z M162.7,343.1l15.5,10.1
	l-13.5-4.7l-0.1-0.1l-2.2-5C162.6,343.2,162.6,343.1,162.7,343.1L162.7,343.1z M163.5,341.8c0.2-0.5,0.3-1,0.3-1.6
	c0-0.3,0-0.7-0.1-1l32.1-15.3c0.9,1.4,2.6,2.2,4.2,1.9l13.9,39.8l-29.8-10.4L163.5,341.8z M214.8,368.3l2.5,7.1
	c-0.4,0.2-0.8,0.5-1.1,0.8L191.4,360L214.8,368.3z M218.1,383.3c1.1,0.4,2.3,0.2,3.3-0.4l31.1,38.4c-0.4,0.4-0.6,0.9-0.8,1.4
	l-53.2-7.3c0-1.1-0.4-2.2-1.2-3l1.9-2.6L218.1,383.3z M198.2,417l53.1,7.4l0,0c0,1.9,1.1,3.6,2.9,4.3l-0.7,2.9l0,0l-0.2,0.9
	l-47.1-11l-8-4.3L198.2,417z M253.8,420.4L222.5,382c0.3-0.4,0.6-0.8,0.8-1.3l11.5,2.1l29.7,32.7l-5.7,5.2c-1.5-1.2-3.5-1.3-5.1-0.4
	V420.4z M255.8,429.1h0.3c1.4,0,2.8-0.7,3.7-1.8l21.4,11.6l-26.2-6.1L255.8,429.1z M265.6,416.6l6.4,7.1h-11.4
	c-0.1-0.6-0.3-1.3-0.7-1.8L265.6,416.6z M267,415.2l20.8-19.6c1.4,1.1,3.4,1.1,4.9,0l20.8,19.5l-7.6,8.4h-15.6h-15.6L267,415.2z
	 M314.9,416.6l5.6,5.3c-0.4,0.5-0.6,1.2-0.7,1.8h-11.4L314.9,416.6z M324.4,419.8c-1,0-2,0.4-2.9,1l-5.7-5.3l29.7-32.7l11.5-2.2
	c0.2,0.5,0.4,0.9,0.8,1.3l-31.2,38.4c-0.7-0.4-1.5-0.7-2.3-0.7L324.4,419.8z M325.5,432.8l-26.2,6.1l21.4-11.6
	c0.9,1.1,2.2,1.8,3.7,1.8h0.3L325.5,432.8z M329.1,424.4L329.1,424.4l53.1-7.4l0,0.2l-8,4.3l-47.1,11l-0.2-0.9l0,0l-0.7-2.9
	C328,428,329.1,426.3,329.1,424.4L329.1,424.4z M381.9,415.4l-53.2,7.3c-0.2-0.5-0.5-1-0.8-1.4l31.1-38.4c1,0.6,2.2,0.8,3.3,0.4
	l18.9,26.5l1.9,2.6C382.4,413.2,382,414.2,381.9,415.4L381.9,415.4z M365.6,368.4L389,360l-24.7,16.2c-0.3-0.3-0.7-0.6-1.1-0.8
	L365.6,368.4z M366.5,365.8l13.9-39.9c1.7,0.3,3.3-0.4,4.2-1.9l32.1,15.3c-0.2,0.8-0.1,1.7,0.2,2.5l-20.6,13.4L366.5,365.8z
	 M417.7,343.1c0.1,0.1,0.2,0.2,0.3,0.3l-2.2,5l-0.1,0.1l-13.5,4.7L417.7,343.1z M417.2,338l-32.1-15.2c0.1-0.4,0.2-0.8,0.2-1.2
	c0-1-0.4-1.9-1-2.7l17.5-19.8l17.7,30.8l0.1,6.1C418.7,336.4,417.8,337,417.2,338L417.2,338z M419.9,344.6v-0.2
	c0.3,0.1,0.7,0.1,1,0.1c0.5,0,1-0.1,1.4-0.3c0,0,0,0.1,0,0.1c0,0.6,0.1,1.2,0.3,1.7l-4,1.4L419.9,344.6z M421.1,332.8l1.4,2.4
	l-0.5,0.9c-0.3-0.1-0.5-0.1-0.8-0.1L421.1,332.8z M431.5,321.9l-2.3,15.8H429c-0.8,0-1.6,0.2-2.4,0.5l-2-3.5L431.5,321.9z
	 M434.4,316.7l18-32.6c0.2,0.1,0.3,0.1,0.5,0.2l-1.3,11.4L431.3,338l0,0L434.4,316.7z M452.4,274.3l-18-32.7l-3.1-21.4l0,0
	l20.3,42.3l1.3,11.5C452.7,274.1,452.5,274.1,452.4,274.3L452.4,274.3z M441,202.6L441,202.6l0.1,0.1l0.2,0.3
	c-0.9,1.3-1.2,2.9-0.9,4.4l-5.9,2.6c-1.3-1.8-3.3-2.9-5.5-2.9c-0.6,0-1.2,0.1-1.8,0.3l-26.8-49.3l35.3,37.2L441,202.6z M415.5,171.5
	l-18-18.9l-3.3-6L415.5,171.5z M391.1,144.6l1.5,2.8l-2-2.1C390.8,145.2,390.9,144.9,391.1,144.6z M395.4,152.7l29.7,55.6
	c-0.7,0.5-1.3,1.2-1.8,1.9l-3.5-1.2l0,0l-2.5-0.9l-27.8-61.5L395.4,152.7z M386.7,147.5c0.5,0,0.9-0.1,1.4-0.2l26.4,59.9l-0.2-0.1
	l0,0l-19.5-6.9L365,180.7c0.7-1.6,0.4-3.5-0.8-4.7l20.5-28.9C385.3,147.3,386,147.5,386.7,147.5L386.7,147.5z M383.7,139
	c-0.3,0.2-0.5,0.5-0.7,0.7l-2.9-1.6L383.7,139z M379.9,136.2l-5.9-1.3l-13.6-7.4L379.9,136.2z M329.1,117.3c1.7,0.3,3.5-0.4,4.6-1.7
	l6.1,2.7l28.2,15.2l-40.5-9.5L329.1,117.3z M324.4,113.3c0.3,1.1,1,2.1,1.9,2.8l0.3,0.3h0.1c0.2,0.1,0.5,0.3,0.7,0.4l-1.5,6.7
	l-24-5.6l-5.7-1.5c0-0.1,0-0.1,0-0.2L324.4,113.3z M308.4,112.7l-12.6,1.1c-0.1-0.4-0.3-0.7-0.5-1.1L308.4,112.7z M295.3,118.9
	l24.7,13.4c-0.1,0.2-0.1,0.5-0.2,0.7h-12.8l-12.2-13.4C295,119.4,295.2,119.2,295.3,118.9L295.3,118.9z M287,121
	c2,1.3,4.5,1.3,6.5,0l11,12.1h-14.2h-14.2L287,121z M285.5,119.6L273.4,133h-12.8c0-0.2-0.1-0.5-0.2-0.7l24.6-13.3
	C285.2,119.2,285.4,119.4,285.5,119.6z M284.9,112.8c-0.2,0.3-0.3,0.7-0.5,1.1l-12.6-1.1L284.9,112.8z M253.6,116.5h0.1l0.3-0.3
	c0.9-0.7,1.6-1.7,1.9-2.8l28.2,2.9c0,0.1,0,0.1,0,0.2l-5.7,1.5l-24,5.6l-1.6-6.7C253.1,116.8,253.4,116.6,253.6,116.5L253.6,116.5z
	 M246.6,115.6c1.1,1.3,2.9,2,4.6,1.7l1.6,6.6l-40.5,9.5l28.2-15.1L246.6,115.6z M220,127.4l-13.6,7.4l-5.9,1.4L220,127.4z
	 M200.3,138.2l-2.9,1.6c-0.2-0.3-0.5-0.5-0.7-0.7L200.3,138.2z M193.7,147.5c0.7,0,1.4-0.2,2-0.4l20.5,28.9
	c-1.2,1.3-1.6,3.1-0.8,4.7l-29.8,19.4l-19.6,6.9l0,0l-0.2,0.1l26.4-59.9C192.7,147.5,193.2,147.5,193.7,147.5L193.7,147.5z
	 M189.3,144.6c0.1,0.3,0.3,0.5,0.4,0.8l-2,2.1L189.3,144.6z M190.8,146.6L163,208.2l-2.4,0.9l0,0l-3.4,1.2c-0.5-0.7-1.1-1.4-1.8-1.9
	l29.7-55.6L190.8,146.6z M186.2,146.6l-3.3,6l-18,18.9L186.2,146.6z M139.1,202.5l0.1-0.1l0,0l5.5-7.1l35.3-37.2l-26.8,49.3
	c-0.6-0.2-1.2-0.3-1.8-0.3c-2.2,0-4.2,1.1-5.5,2.9l-6.1-2.8c0.1-0.4,0.1-0.8,0.1-1.2c0-1.1-0.3-2.2-1-3.2L139.1,202.5z M134.8,211.3
	c1.7-0.1,3.3-1.1,4.2-2.6l6,2.9c-1,2.7-0.1,5.8,2.2,7.5l-17.8,37.3L134.8,211.3z M130.9,226.8l-3.7,34.4l-5.1,10.6L130.9,226.8z
	 M126.6,267.2l-0.7,6.5c-0.5,0-1,0.1-1.5,0.3c-0.2-0.2-0.5-0.4-0.8-0.6L126.6,267.2z M124.4,284.2c0.5,0.2,1,0.2,1.5,0.3l0.7,6.5
	l-2.9-6.1C123.9,284.6,124.2,284.4,124.4,284.2L124.4,284.2z M122.1,286.3l5.1,10.6l3.7,34.4L122.1,286.3z M134.9,346.6l-5.4-45
	l17.8,37.3c-2.3,1.7-3.2,4.8-2.2,7.5l-5.9,2.7C138.2,347.7,136.6,346.8,134.9,346.6z M139.3,355.6L139.3,355.6l-0.1-0.1l-0.2-0.3
	c0.7-0.9,1-2,1-3.2c0-0.4-0.1-0.8-0.1-1.2l6.1-2.7c1.3,1.8,3.3,2.9,5.5,2.9c0.6,0,1.2-0.1,1.8-0.3l26.8,49.3l-35.3-37.2L139.3,355.6
	z M165,386.6l18,18.9l3.3,6L165,386.6z M189.4,413.5l-1.6-2.8l2,2.1C189.6,412.9,189.5,413.2,189.4,413.5L189.4,413.5z M185,405.4
	l-29.7-55.6c0.7-0.5,1.3-1.2,1.8-1.9l3.4,1.2l0,0l2.4,0.9l27.8,61.5L185,405.4z M193.7,410.6c-0.5,0-0.9,0.1-1.4,0.2L165.9,351
	l0.2,0.1l0,0l19.5,6.9l29.8,19.5c-0.7,1.6-0.4,3.5,0.8,4.7l-20.5,29C195.1,410.8,194.4,410.7,193.7,410.6L193.7,410.6z M196.7,419.2
	c0.3-0.2,0.5-0.5,0.7-0.7l2.9,1.6L196.7,419.2z M200.5,421.9l5.9,1.4l13.6,7.3L200.5,421.9z M251.3,440.9c-1.7-0.3-3.5,0.4-4.6,1.7
	l-6.1-2.7l-28.2-15.1l40.5,9.5L251.3,440.9z M255.9,444.9c-0.3-1.1-1-2.1-1.9-2.8l-0.3-0.3h-0.1c-0.2-0.1-0.5-0.3-0.7-0.4l1.6-6.7
	l24,5.6l5.7,1.5c0,0.1,0,0.1,0,0.2L255.9,444.9z M271.9,445.4l12.6-1.1c0.1,0.4,0.3,0.7,0.5,1.1L271.9,445.4z M285.1,439.2
	l-24.7-13.3c0.1-0.2,0.1-0.5,0.2-0.7h12.8l12.2,13.4C285.4,438.7,285.2,438.9,285.1,439.2L285.1,439.2z M293.5,437.3
	c-2-1.3-4.5-1.3-6.5,0l-11-12.1h14.2h14.2L293.5,437.3z M294.9,438.5l12.1-13.4h12.8c0,0.2,0.1,0.5,0.2,0.7l-24.6,13.3
	C295.2,438.9,295,438.7,294.9,438.5L294.9,438.5z M295.5,445.4c0.2-0.3,0.3-0.7,0.5-1.1l12.6,1.1L295.5,445.4z M326.8,441.6h-0.1
	l-0.3,0.3c-0.9,0.7-1.6,1.7-1.9,2.8l-28.2-2.9c0-0.1,0-0.1,0-0.2l5.7-1.5l24-5.6l1.5,6.7C327.3,441.3,327,441.5,326.8,441.6z
	 M333.8,442.5c-1.1-1.3-2.9-2-4.6-1.7l-1.6-6.6l40.5-9.5l-28.2,15.1L333.8,442.5z M360.3,430.6l13.7-7.3l5.9-1.4L360.3,430.6z
	 M380.1,420l2.9-1.6c0.2,0.3,0.5,0.5,0.7,0.7L380.1,420z M386.7,410.6c-0.7,0-1.4,0.2-2,0.5l-20.5-29c1.2-1.3,1.6-3.1,0.8-4.7
	l29.8-19.5l19.5-6.9l0,0l0.2-0.1l-26.4,59.9C387.7,410.7,387.2,410.6,386.7,410.6L386.7,410.6z M391.1,413.4
	c-0.1-0.3-0.3-0.5-0.4-0.8l2-2.1L391.1,413.4z M389.6,411.4l27.8-61.5l2.5-0.9l0,0l3.5-1.2c0.5,0.7,1.1,1.4,1.8,1.9l-29.7,55.6
	L389.6,411.4z M394.3,411.4l3.3-6l18-18.9L394.3,411.4z M441.1,355.7l-0.1,0.1l0,0l-5.3,7L400.4,400l26.8-49.3
	c0.6,0.2,1.2,0.3,1.8,0.3c2.2,0,4.2-1.1,5.5-2.9l5.9,3c-0.4,1.5-0.1,3.1,0.9,4.4L441.1,355.7z M445.4,346.9
	c-1.7,0.1-3.3,1.1-4.2,2.5l-5.8-3c1-2.7,0.1-5.8-2.2-7.5l17.8-37.3L445.4,346.9z M449.5,331.3l3.7-34.4l5.1-10.6L449.5,331.3z
	 M454.5,284.4c0.5,0,1-0.1,1.5-0.3c0.2,0.2,0.5,0.4,0.8,0.6l-2.9,6.1L454.5,284.4z M453.8,267.2l2.9,6.1c-0.3,0.2-0.5,0.4-0.8,0.6
	c-0.5-0.2-1-0.2-1.5-0.3L453.8,267.2z M453.2,261.2l-3.7-34.4l8.7,45L453.2,261.2z"/>
</svg>
