<?xml version="1.0" encoding="UTF-8" standalone="no"?>
<svg
   xmlns:dc="http://purl.org/dc/elements/1.1/"
   xmlns:cc="http://creativecommons.org/ns#"
   xmlns:rdf="http://www.w3.org/1999/02/22-rdf-syntax-ns#"
   xmlns:svg="http://www.w3.org/2000/svg"
   xmlns="http://www.w3.org/2000/svg"
   xmlns:sodipodi="http://sodipodi.sourceforge.net/DTD/sodipodi-0.dtd"
   xmlns:inkscape="http://www.inkscape.org/namespaces/inkscape"
   width="999.99994"
   height="170.06198"
   version="1.1"
   id="svg4"
   sodipodi:docname="index.svg"
   style="fill:none"
   inkscape:version="0.92.4 (5da689c313, 2019-01-14)">
  <metadata
     id="metadata10">
    <rdf:RDF>
      <cc:Work
         rdf:about="">
        <dc:format>image/svg+xml</dc:format>
        <dc:type
           rdf:resource="http://purl.org/dc/dcmitype/StillImage" />
        <dc:title></dc:title>
      </cc:Work>
    </rdf:RDF>
  </metadata>
  <defs
     id="defs8" />
  <sodipodi:namedview
     pagecolor="#ffffff"
     bordercolor="#111111"
     borderopacity="1"
     objecttolerance="10"
     gridtolerance="10"
     guidetolerance="10"
     inkscape:pageopacity="0"
     inkscape:pageshadow="2"
     inkscape:window-width="1920"
     inkscape:window-height="1017"
     id="namedview6"
     showgrid="false"
     fit-margin-top="0"
     fit-margin-left="0"
     fit-margin-right="0"
     fit-margin-bottom="0"
     inkscape:zoom="0.331"
     inkscape:cx="499.99356"
     inkscape:cy="85.007749"
     inkscape:window-x="1912"
     inkscape:window-y="-8"
     inkscape:window-maximized="1"
     inkscape:current-layer="svg4" />
  <path
     d="M 81.094082,62.35354 A 3.0970199,3.0970199 0 0 1 79.294071,63.252546 3.1950206,3.1950206 0 0 1 77.094056,62.25254 C 68.694002,51.152468 62.593963,5.2521729 80.894081,0.55214272 100.99821,-4.3078886 109.29826,24.139294 113.31629,37.912383 c 0.279,0.957006 0.538,1.842012 0.778,2.640017 A 52.78434,52.78434 0 0 0 84.294103,33.353354 C 83.094095,44.153423 82.29409,54.55349 81.894087,60.653529 a 3.4010219,3.4010219 0 0 1 -0.800005,1.700011 z m 20.300128,4.700031 a 2.4010155,2.4010155 0 0 1 -0.6,-1.100007 2.8030181,2.8030181 0 0 1 0,-1.300009 c 3.20002,-13.500087 32.30021,-49.300317 50.20032,-35.80023 16.78811,12.663081 -0.378,37.28624 -8.51505,48.957315 -0.53801,0.774005 -1.03801,1.49001 -1.48501,2.143014 A 56.903366,56.903366 0 0 0 127.89438,52.153475 c -7.42504,4.66003 -14.28909,9.38406 -19.31012,12.840082 -1.33501,0.917006 -2.54002,1.745012 -3.59002,2.460016 l -0.125,0.08 a 2.9960193,2.9960193 0 0 1 -0.48601,0.234001 l -0.076,0.03 a 3.0300195,3.0300195 0 0 1 -1.21301,0.156001 3.8200246,3.8200246 0 0 1 -0.298,-0.07 l -0.125,-0.037 a 3.2150207,3.2150207 0 0 1 -1.27701,-0.793004 z m 240.80155,20.30013 c 0,-31.300201 13.80009,-50.800327 40.90027,-50.800327 27.10017,0 40.60026,19.500126 40.60026,50.800327 0,31.299199 -13.70009,50.600319 -40.60026,50.600319 -26.90018,0 -40.90027,-19.30112 -40.90027,-50.600319 z m 16.80011,0 c 0,12.200083 2.80002,34.899219 24.10016,34.899219 21.30013,0 23.90015,-22.600136 23.90015,-34.898219 0,-12.301079 -2.80002,-35.202226 -23.90015,-35.202226 -21.10014,0 -24.10016,23.000148 -24.10016,35.202226 z m -78.1005,-48.800314 19.30012,69.900443 17.70012,-69.900443 h 16.6001 l -24.90016,97.400623 h -16.2001 L 272.29531,68.853582 250.99518,135.95401 H 234.69507 L 209.79491,38.553387 h 16.70011 l 17.70011,69.900443 19.30013,-69.900443 z m 229.70148,28.300182 c 0,-20.900134 -13.00009,-28.300182 -36.50024,-28.300182 H 439.79639 V 135.95401 H 456.5965 V 96.153758 h 16.70011 l 18.90012,39.800252 h 18.60012 L 491.19672,94.153745 C 503.7968,90.752723 510.59685,82.353669 510.59685,66.853569 Z M 473.29661,80.553658 H 456.5965 V 54.353489 h 16.70011 c 13.80009,0 20.90013,3.700024 20.90013,13.100084 0,9.400061 -6.70004,13.100085 -20.90013,13.100085 z m 55.20035,-42.000271 h 16.70011 v 81.300523 h 48.00031 v 16.1001 h -64.70042 z m 108.2007,0 h -27.70018 v 97.400623 h 27.70018 c 29.20019,0 47.80031,-18.50012 47.80031,-48.400307 0,-29.900193 -18.60012,-49.000316 -47.80031,-49.000316 z m 1.30001,81.300523 H 625.89759 V 54.55349 h 12.10008 c 17.80011,0 29.90019,13.90009 29.90019,33.000213 0,19.099117 -11.50007,32.300207 -29.90019,32.300207 z M 765.29849,71.053596 c -3.30002,-9.200059 -7.90005,-18.100116 -23.70015,-18.100116 -15.90011,0 -26.10017,14.299092 -26.10017,34.000219 0,19.699121 9.70006,34.500221 26.10017,34.500221 16.4001,0 21.70014,-9.80107 23.90015,-18.50012 l 15.4001,5.10003 c -4.40003,18.59912 -19.50013,29.50019 -39.30025,29.50019 -26.10017,0 -43.00028,-20.50013 -43.00028,-50.600321 0,-30.100194 16.90011,-50.000322 43.00028,-50.000322 18.60012,0 34.30022,10.200065 39.30025,29.100187 z m 66.70043,-34.500222 c -27.10018,0 -41.00027,19.500126 -41.00027,50.800327 0,31.299199 14.10009,50.600319 41.00027,50.600319 26.90017,0 40.60026,-19.30112 40.60026,-50.600319 0,-31.300201 -13.50009,-50.800327 -40.60026,-50.800327 z m 0,85.699546 c -21.30014,0 -24.10016,-22.699136 -24.10016,-34.898219 0,-12.202078 3.00002,-35.202226 24.10016,-35.202226 21.10013,0 23.90015,22.900147 23.90015,35.202226 0,12.298083 -2.60001,34.898219 -23.90015,34.898219 z M 890.19929,38.552387 H 907.0994 V 135.94401 H 890.19929 V 38.553387 Z m 92.9006,0 V 104.25281 L 945.39965,38.552387 h -16.70011 v 97.401623 h 16.70011 V 72.453605 l 37.70024,63.500405 h 16.90007 V 38.553387 h -16.90007 z m -869.2056,46.401299 -1.1,0.799005 -0.60001,1.201008 a 3.1740204,3.1740204 0 0 0 -0.014,0.275002 l 0.003,0.165001 c 0.022,0.507003 0.162,1.010006 0.41101,1.460009 a 2.8100181,2.8100181 0 0 0 1.70001,1.100007 l 2.92401,0.902006 0.16501,0.053 c 5.91703,1.819012 14.35809,4.418029 23.01114,7.445048 a 53.494344,53.494344 0 0 1 -13.50008,27.299168 c 0.714,-0.045 1.49601,-0.09 2.33501,-0.136 14.09009,-0.797 44.43129,-2.51801 43.86528,-23.56315 -0.6,-18.800116 -46.8003,-22.900142 -59.20038,-17.000104 z m -8.42605,22.686144 a 2.5100162,2.5100162 0 0 1 0.526,0.214 c 12.50008,6.00004 41.00027,42.79928 23.70016,57.00037 -16.28811,13.37008 -36.386239,-9.16206 -45.7773,-19.68713 a 426.13974,426.13974 0 0 0 -1.62301,-1.81301 54.821353,54.821353 0 0 0 29.70019,-6.40004 c -3.41602,-9.96307 -7.01204,-19.11713 -9.25106,-24.81016 l -0.017,-0.047 -0.332,-0.84401 a 2.7000174,2.7000174 0 0 1 -0.1,-2.00001 l 0.057,-0.141 0.051,-0.105 0.068,-0.127 a 2.4620159,2.4620159 0 0 1 1.12401,-1.02601 2.7080174,2.7080174 0 0 1 1.2,-0.3 c 0.22901,-0.004 0.45501,0.025 0.67401,0.086 z m -22.174144,8.21405 a 2.4270156,2.4270156 0 0 0 -0.600003,-1.10101 1.8070116,1.8070116 0 0 0 -1.000007,-0.699 2.5000161,2.5000161 0 0 0 -1.900012,0 2.5970167,2.5970167 0 0 0 -1.50001,1.19901 c -3.000019,5.20103 -8.200053,14.20109 -14.00009,23.50015 A 52.79034,52.79034 0 0 1 40.793823,119.4539 l -0.263002,1.49001 -0.100001,0.57101 c -2.476016,13.89009 -7.83805,43.96828 12.963084,48.33931 18.500119,3.60002 32.70021,-40.60126 29.900192,-54.00035 z M 63.493969,102.05379 c -0.140001,0.396 -0.342002,0.76701 -0.600004,1.09901 C 53.993908,113.85387 10.593628,130.15297 1.9935729,113.45387 -7.5214883,94.517748 19.451685,79.746652 31.737764,73.017609 c 0.626004,-0.341002 1.213008,-0.663004 1.756012,-0.964006 A 55.501357,55.501357 0 0 0 33.093773,102.5538 c 10.90007,-1.20001 21.100136,-2.801016 27.300176,-3.801025 a 3.0100194,3.0100194 0 0 1 1.900012,0.499999 c 0.577004,0.33001 1.006007,0.865006 1.200008,1.500006 0.102001,0.42801 0.102001,0.87301 0,1.30101 z M 59.993946,79.252649 c 0.443003,0.092 0.904006,0.02 1.300009,-0.200001 0.397002,-0.230002 0.712004,-0.580004 0.900006,-1.000007 A 2.4140155,2.4140155 0 0 0 62.693964,76.25263 3.0900199,3.0900199 0 0 0 61.793958,74.453618 C 57.39393,70.453593 49.793881,63.453547 42.193832,55.653497 A 52.301337,52.301337 0 0 1 66.293987,36.953377 L 64.529976,36.207372 C 51.589892,30.707337 23.069709,18.587259 14.293652,37.953383 6.5936026,55.253495 46.193857,79.053648 59.993946,79.253649 Z"
     id="path2"
     inkscape:connector-curvature="0"
     style="clip-rule:evenodd;fill:#000000;fill-rule:evenodd;stroke-width:1.00000644" />
</svg>
