<?xml version="1.0" encoding="UTF-8"?>
<svg width="113px" height="33px" viewBox="0 0 113 33" version="1.1" xmlns="http://www.w3.org/2000/svg" xmlns:xlink="http://www.w3.org/1999/xlink">
    <!-- Generator: Sketch 52.5 (67469) - http://www.bohemiancoding.com/sketch -->
    <title>分组 59</title>
    <desc>Created with Sketch.</desc>
    <g id="页面-4" stroke="none" stroke-width="1" fill="none" fill-rule="evenodd">
        <g id="web中文版" transform="translate(-52.000000, -22.000000)">
            <g id="分组-59" transform="translate(52.000000, 22.000000)">
                <g id="分组">
                    <path d="M15.0968777,19.6455003 L15.0968777,19.6070983 L15.1493674,19.6198984 L30.31409,12.2232994 L30.31409,14.3637384 L18.0748773,20.3333133 L30.2735004,23.3080699 L30.2735004,25.2896567 L15.3666695,21.6542194 L0.120643731,29.0903426 L0.120643731,26.950164 L15.0968777,19.6455003 Z M15.0683732,11.3600351 L30.2734746,3.94387238 L30.2734746,6.08431001 L0.0800283286,20.8111746 L0.0800283286,18.6704766 L12.3597979,12.6811204 L0.0800283286,9.68662679 L0.0800283286,7.70478107 L15.0683732,11.3600351 Z M0.056949774,0.00328519485 L15.23383,3.70451794 L15.23383,5.68610185 L0.056949774,1.98513091 L0.056949774,0.00328519485 Z M0.0800283286,5.84452291 L0.0800283286,3.86293901 L15.2569086,7.56390994 L15.2569086,9.54575566 L0.0800283286,5.84452291 Z M0.0800283286,22.8244344 L30.2734746,8.09600719 L30.2734746,10.2364864 L0.0800283286,24.9401727 L0.0800283286,22.8244344 Z M30.2735004,29.1304545 L15.0968777,25.429221 L15.0968777,23.447896 L30.2735004,27.1488676 L30.2735004,29.1304545 Z M15.0967489,29.2657051 L15.0967489,27.2838604 L30.2736291,30.9850931 L30.2736291,32.9656699 L15.0967489,29.2657051 Z" id="合并形状" fill="#FF0033" fill-rule="nonzero"></path>
                    <polygon id="Fill-10" fill="#000000" points="73.3615351 24.843015 73.3615351 13.3592991 66.0458526 23.5052774 58.6381693 13.0841873 58.6381693 24.843015 56.7375841 24.843015 56.7375841 9.51213772 58.4295111 9.51317392 66.0458526 20.2616555 73.6835217 9.51421012 75.2669166 9.51317392 75.2669166 24.843015"></polygon>
                    <path d="M46.283241,15.7571704 L52.0195066,9.49756098 L54.6026412,9.49756098 L47.5748727,17.1666431 L54.5994158,24.832065 L52.0195838,24.832065 L46.2849685,18.5742565 L40.5504583,24.832065 L37.9670662,24.832065 L44.993325,17.1647708 L37.9671434,9.49756098 L40.5469754,9.49756098 L46.283241,15.7571704 Z" id="合并形状" fill="#000000"></path>
                    <path d="M104.65526,15.7705555 L110.391526,9.51094608 L112.974661,9.51094608 L105.946892,17.1800282 L112.971435,24.8454501 L110.391603,24.8454501 L104.656988,18.5876416 L98.9224777,24.8454501 L96.3390856,24.8454501 L103.365344,17.178156 L96.3391628,9.51094608 L98.9189948,9.51094608 L104.65526,15.7705555 Z" id="合并形状" fill="#000000"></path>
                    <path d="M82.8510245,18.326158 L89.9241663,18.326158 L86.3875954,11.5642452 L82.8510245,18.326158 Z M81.8544291,20.2316454 L79.4396674,24.8486624 L77.2788019,24.8486624 L85.3028819,9.50664584 L87.4637474,9.50664584 L95.4878273,24.8486624 L93.3355233,24.8486624 L90.9207616,20.2316454 L81.8544291,20.2316454 Z" id="合并形状" fill="#000000"></path>
                </g>
            </g>
        </g>
    </g>
</svg>