<?xml version="1.0" encoding="utf-8"?>
<!-- Generator: Adobe Illustrator 24.0.0, SVG Export Plug-In . SVG Version: 6.00 Build 0)  -->
<svg version="1.1" id="Flux_white-blue" xmlns="http://www.w3.org/2000/svg" xmlns:xlink="http://www.w3.org/1999/xlink" x="0px"
	 y="0px" viewBox="0 0 98.9 30.7" style="enable-background:new 0 0 98.9 30.7;" xml:space="preserve">
<style type="text/css">
	.st0{fill:#2B61D1;}
	.st1{fill:#FFFFFF;}
	.st2{fill:#36395A;}
</style>
<path id="Path_81" class="st0" d="M15.5,0c8.5,0.1,15.3,7,15.3,15.5s-7,15.3-15.5,15.3C6.8,30.7,0,23.8,0,15.4C0,6.8,7,0,15.5,0z"/>
<g id="Group_179" transform="translate(7.011 5.615)">
	<path id="Path_73" class="st1" d="M10.3,18.7l-1.8,1l-3.8-2.2l1.7-1l0,0l0.1,0L10.3,18.7z"/>
	<path id="Path_74" class="st1" d="M17,4.9v2l-3.7-2.2l-1-0.6l-1,0.6L6.6,7.6l-1,0.6v1.2L3.7,8.3l-1-0.6l-1,0.6L0,9.3V4.9L8.5,0
		L17,4.9z"/>
	<path id="Path_75" class="st1" d="M17,9.3v5.5l-4.7,2.7h0l-4.7-2.7V9.3l4.7-2.7L17,9.3z"/>
	<path id="Path_76" class="st1" d="M5.4,11.6v3.1l-2.7,1.6L0,14.8v-3.1L2.7,10L5.4,11.6z"/>
</g>
<g id="Group_178" transform="translate(38.035 5.615)">
	<path id="Path_77" class="st2" d="M4.8,3.7V9h9.6v3.7H4.8V20H0V0h15.7v3.7H4.8z"/>
	<path id="Path_78" class="st2" d="M17.8,0h4.6v19.9h-4.6V0z"/>
	<path id="Path_79" class="st2" d="M42.2,3.9v16h-4.4V18c-1.3,1.4-3.1,2.2-5,2.1c-4,0-6.8-2.3-6.8-7.2v-9h4.6v8.4
		c0,2.7,1.2,3.9,3.2,3.9c2.1,0,3.7-1.4,3.7-4.3V3.9H42.2z"/>
	<path id="Path_80" class="st2" d="M55.6,19.9L52.1,15l-3.6,4.9h-5.1l6.2-8.1l-5.9-7.9h5.2l3.4,4.7l3.5-4.7h4.9l-5.9,7.8l6.2,8.2
		H55.6z"/>
</g>
</svg>
